<svg xmlns="http://www.w3.org/2000/svg" viewBox="0 0 800 600" width="800" height="600" role="img" aria-label="Alaska highlighted on a regional map"><rect width="800" height="600" fill="#aacbe6"/><g stroke="#ffffff" stroke-width="1.5" stroke-linejoin="round"><path d="M737.751,693.448L738.732,693.286L739.339,694.014L739.292,694.902L740.086,695.58L741.254,695.596L742.749,694.773L743.403,694.838L746.159,696.758L746.486,697.74L747.327,699.044L747.374,699.96L747.701,700.796L747.561,701.871L748.028,703.282L747.841,703.938L747.981,704.738L749.523,705.602L751.672,706.161L752.186,706.464L752.98,706.241L753.587,706.752L754.428,706.832L755.502,706.209L756.577,706.097L759.099,704.77L759.66,704.05L760.361,703.794L761.342,704.034L762.696,703.842L764.004,703.426L764.892,703.906L765.686,704.05L766.527,703.826L768.115,704.466L768.536,705.666L769.19,705.602L770.077,704.802L771.666,704.738L772.273,704.994L772.787,704.45L774.982,703.634L775.683,703.073L776.664,703.217L777.645,704.034L778.673,703.938L780.261,703.522L781.195,703.442L781.709,702.769L783.017,702.336L784.372,701.598L786.521,701.165L788.249,701.004L788.857,700.089L789.511,699.719L790.632,700.073L793.622,699.446L794.416,699.671L795.303,699.575L796.611,698.899L797.125,698.32L804.74,698.304L816.418,698.352L824.08,698.4L824.827,700.121L825.341,700.555L826.088,701.759L826.929,701.678L827.396,702.432L828.284,702.464L829.031,703.233L829.031,704.082L829.639,704.866L829.966,705.73L828.844,707.454L828.798,708.331L828.331,708.698L827.209,711.085L827.256,711.658L826.836,712.468L826.509,714.308L825.901,714.942L825.621,715.781L824.967,716.477L824.827,717.284L825.154,718.2L824.734,719.273L823.893,720.472L823.893,720.803L822.398,721.574L821.744,723.037L821.37,724.561L820.903,725.597L820.062,726.349L820.202,727.383L819.828,727.946L820.529,729.025L820.155,729.9L820.763,730.447L821.65,730.057L822.398,730.978L823.332,730.79L823.426,731.617L824.266,731.882L824.313,732.365L823.846,733.331L823.285,733.596L823.332,734.249L823.846,734.747L823.799,735.415L823.239,736.673L823.239,737.511L822.725,737.682L822.631,738.596L822.631,770.73L814.877,770.76L802.124,770.836L800.909,770.881L794.229,770.851L783.952,770.821L783.952,770.836L783.952,770.821L779.654,770.851L770.451,770.851L765.126,770.791L757.931,770.67L755.829,770.595L751.391,770.58L749.663,770.655L744.291,770.685L742.983,770.565L740.367,770.745L736.77,770.73L736.349,770.821L729.108,770.76L728.127,769.933L727.427,769.104L727.1,768.064L727.193,767.566L726.539,766.344L726.633,765.86L726.306,764.908L726.212,763L726.819,760.771L726.492,759.146L725.698,757.822L725.184,757.792L724.671,755.918L725.371,754.545L725.932,753.078L726.212,751.808L726.212,751.012L726.633,749.786L726.913,748.267L726.633,747.622L727.427,746.807L727.8,746.146L728.548,744.113L729.249,741.134L729.949,736.751L730.276,733.253L730.463,730.322L730.37,730.197L730.837,727.117L730.79,726.036L731.117,723.147L731.117,721.7L730.884,721.086L731.257,719.652L731.818,716.066L732.192,714.213L732.378,711.721L732.238,710.672L732.378,708.937L732.192,707.837L732.425,707.454L732.659,704.642L732.612,703.426L732.098,702.769L732.378,701.374L732.285,700.041L731.958,699.317L732.705,698.738L732.752,696.983L731.865,693.868L733.126,695.144L733.78,695.37L733.64,694.757L734.714,694.595L735.041,694.321L735.555,694.773L736.116,694.272L736.816,694.272Z" fill="#e7e2d8"/><path d="M751.064,672.537L751.251,670.802L751.718,669.611L752.279,670.472L752.186,671.431L753.073,671.959L752.232,672.405L751.999,672.834L751.158,673.032ZM749.429,649.414L749.429,648.738L750.364,649.431L749.569,649.87ZM748.495,645.81L748.775,645.572L749.99,647.52L749.149,646.809ZM748.261,648.721L748.635,648.231L749.196,649.025L748.495,649.583ZM747.888,655.711L748.495,654.216L749.149,653.224L749.242,652.298L749.99,652.113L750.317,652.433L750.317,653.257L751.205,653.896L751.345,654.333L750.644,654.653L749.85,654.401L749.803,654.888L749.196,655.459L748.542,655.576L748.682,655.979L749.756,655.811L750.27,656.516L750.644,657.924L750.457,658.158L750.924,659.831L751.298,659.379L751.064,658.258L751.532,658.309L752.279,659.262L753.026,659.48L753.353,661.05L752.98,662.018L752.326,661.801L751.765,660.366L750.784,660.783L750.878,660.282L749.99,659.547L750.13,657.991L749.896,657.052L749.056,657.119L748.915,656.617ZM745.178,644.589L745.692,644.656L747.28,645.555L746.907,645.691L745.879,645.352ZM743.964,646.437L744.758,645.996L744.851,646.555ZM743.73,640.456L744.431,640.456L744.618,640.95L743.824,640.984ZM742.235,648.484L742.562,647.977L743.497,647.96L743.59,648.451L744.291,649.008L745.085,649.16L744.244,647.994L745.972,646.166L746.533,646.2L748.261,647.182L747.374,648.028L747.888,649.144L747.794,650.19L747.28,650.612L747.467,651.776L746.533,651.978L745.832,651.135L745.412,651.337L744.384,651.152L742.936,650.106L742.656,648.823ZM741.815,646.657L742.656,646.826L743.497,647.74L742.095,647.046ZM822.585,640.524L822.538,645.454L822.538,652.904L822.445,657.706L822.445,669.396L822.491,670.257L822.491,690.679L822.164,691.457L823.099,692.687L823.472,693.561L823.472,694.579L824.033,695.225L823.239,696.725L823.566,696.903L824.08,698.4L816.418,698.352L804.74,698.304L797.125,698.32L796.611,698.899L795.303,699.575L794.416,699.671L793.622,699.446L790.632,700.073L789.511,699.719L788.857,700.089L788.249,701.004L786.521,701.165L784.372,701.598L783.017,702.336L781.709,702.769L781.195,703.442L780.261,703.522L778.673,703.938L777.645,704.034L776.664,703.217L775.683,703.073L774.982,703.634L772.787,704.45L772.273,704.994L771.666,704.738L770.077,704.802L769.19,705.602L768.536,705.666L768.115,704.466L766.527,703.826L765.686,704.05L764.892,703.906L764.004,703.426L762.696,703.842L761.342,704.034L760.361,703.794L759.66,704.05L759.099,704.77L756.577,706.097L755.502,706.209L754.428,706.832L753.587,706.752L752.98,706.241L752.186,706.464L751.672,706.161L749.523,705.602L747.981,704.738L747.841,703.938L748.028,703.282L747.561,701.871L747.701,700.796L747.374,699.96L747.327,699.044L746.486,697.74L746.159,696.758L743.403,694.838L742.749,694.773L741.254,695.596L740.086,695.58L739.292,694.902L739.339,694.014L738.732,693.286L737.751,693.448L736.162,693.302L736.022,692.752L735.462,692.655L734.994,693.157L734.387,692.995L733.5,693.82L733.079,693.707L732.098,692.509L731.631,692.38L731.304,693.14L730.837,693.302L731.117,691.052L731.164,689.04L730.977,686.357L731.584,687.349L731.491,688.975L731.678,691.198L732.472,691.198L732.519,690.598L732.051,689.949L732.051,688.959L732.612,689.559L733.266,688.211L732.378,686.324L732.892,685.64L734.06,684.776L733.266,684.172L732.986,684.613L732.145,684.645L732.332,685.021L731.584,684.955L730.65,684.238L730.603,683.34L730.089,681.215L730.463,681.084L730.743,681.934L731.257,681.427L733.686,680.396L733.219,679.954L731.631,679.577L731.538,678.839L730.276,678.609L729.903,679.003L730.276,680.478L729.529,680.822L729.669,680.199L729.482,676.819L728.828,673.922L727.707,672.603L727.287,669.181L727.053,667.905L726.352,665.215L725.698,664.617L725.511,663.701L724.857,663.318L724.624,662.802L723.736,662.318L723.176,660.483L722.802,658.794L722.849,657.907L722.335,656.969L722.895,655.996L723.316,653.678L722.428,652.904L722.568,652.534L723.363,652.517L725.231,653.442L726.726,654.518L727.193,654.535L728.361,655.19L728.641,654.989L730.557,655.912L730.51,656.248L732.145,656.935L734.761,657.119L735.742,656.902L737.19,657.522L737.611,657.203L738.078,657.505L739.199,657.388L739.759,657.924L741.675,657.89L743.17,656.7L743.029,657.103L744.057,657.806L744.384,658.56L745.178,658.275L745.972,658.359L745.832,658.894L746.486,659.229L746.533,660.215L747,660.115L747.14,659.229L746.486,658.66L746.486,657.991L747.047,657.522L748.028,657.354L748.168,657.873L747.467,658.443L747.934,659.279L748.261,659.179L748.355,658.376L748.822,658.141L749.196,659.814L748.495,659.981L749.009,660.683L749.383,661.985L749.99,662.335L749.616,662.752L748.869,662.718L748.962,663.418L748.168,664.017L747.748,665.897L747.094,666.046L747.607,664.167L747.327,663.884L746.44,665.564L746.253,666.445L745.272,667.606L743.497,670.637L742.889,672.603L743.45,672.471L744.524,672.686L745.085,672.24L746.066,671.959L746.206,671.331L744.151,672.355L743.356,671.91L745.318,668.17L746.767,666.943L748.121,666.478L748.261,665.265L749.009,664.051L750.457,662.918L750.037,661.301L751.064,661.968L751.718,665.082L750.691,665.082L750.831,665.747L751.345,665.98L751.158,666.91L751.485,667.225L751.485,668.104L750.831,668.734L750.784,669.363L751.485,669.628L751.018,670.422L750.737,671.86L750.924,672.207L750.457,673.147L750.784,673.955L750.083,675.257L748.822,673.972L749.196,672.388L748.448,673.081L748.168,674.12L749.569,675.487L749.102,675.75L749.149,676.54L748.635,676.967L747.888,676.211L746.953,674.483L747.514,673.873L747.561,672.867L747.234,672.454L747.234,673.296L746.673,674.236L747,675.421L746.72,676.211L747.327,675.981L747.841,677.066L749.102,677.427L749.616,676.819L749.616,676.277L750.223,676.014L750.597,674.713L751.064,673.84L750.971,673.345L752.139,674.301L752.606,673.889L752.419,673.296L753.68,672.735L753.68,671.91L753.307,670.951L752.933,670.769L753.213,670.191L752.746,669.529L752.419,668.353L753.447,667.723L752.326,666.76L753.073,665.398L752.793,663.884L753.494,663.118L753.914,661.134L754.942,660.716L754.895,659.563L754.241,659.179L753.167,657.739L753.213,656.499L752.746,655.677L752.045,655.61L752.186,656.013L751.672,656.482L752.139,657.605L752.98,658.443L753.026,659.028L751.812,657.605L751.251,657.538L750.924,656.566L751.018,655.274L751.859,654.871L752.606,655.241L753.073,654.535L752.606,653.779L751.298,653.022L750.691,652.214L750.737,651.557L749.383,652.113L749.056,651.557L749.242,650.798L748.635,651.085L748.775,650.427L749.896,649.954L750.504,650.207L750.924,651.034L751.812,650.916L751.345,649.093L752.139,648.991L752.372,648.417L751.391,647.3L751.158,646.183L751.532,645.437L750.924,644.928L750.13,645.03L749.616,645.725L750.037,646.471L749.149,645.793L749.523,644.826L749.056,644.402L748.635,644.639L748.588,643.536L747.607,642.618L748.121,642.261L747.888,641.648L747.28,641.376L748.028,640.456L756.623,640.456L761.155,640.558L767.928,640.473L774.609,640.507L783.484,640.507L791.379,640.507L799.087,640.49L807.402,640.49Z" fill="#e7e2d8"/></g><path d="M390.333,361.94L390.613,361.059L391.454,361.314L390.52,362.31ZM383.419,409.271L384.774,407.296L385.475,407.67L385.428,408.679L384.12,410.301L383.419,409.885ZM373.609,413.972L374.824,414.277L374.684,415.061ZM371.133,414.364L372.161,414.734L371.834,415.453L371.18,415.148ZM369.265,413.514L370.199,413.557L369.965,414.299ZM368.891,437.227L369.265,436.271L370.199,436.547L369.825,438.097L369.125,438.457ZM366.508,419.622L367.069,419.015L368.05,419.882L366.508,419.925ZM366.368,383.01L367.723,381.223L368.097,378.683L369.545,379.341L368.237,380.793L367.817,381.902L368.05,382.445ZM362.818,419.86L363.472,418.668L364.313,419.275L365.387,419.362L363.846,420.077ZM359.128,387.765L359.922,387.63L360.155,389.606ZM348.99,441.061L350.345,439.178L351.046,439.051L352.26,440.448L352.494,440.024L351.513,438.648L351.793,437.503L352.214,437.29L353.475,437.821L354.456,437.418L353.101,436.271L353.849,435.08L355.204,435.739L355.904,435.654L355.25,434.463L355.811,434.1L356.745,434.526L357.399,433.568L356.558,433.44L355.951,432.736L356.885,432.672L357.913,431.241L359.501,430.856L358.941,430.107L358.801,428.651L360.062,427.235L360.389,427.9L362.865,426.805L363.192,426.956L362.631,429.487L362.024,429.872L360.809,432.074L361.043,433.866L362.725,433.632L362.818,432.16L363.846,432.352L364.827,433.866L365.761,432.843L366.322,433.546L365.527,436.037L365.948,436.505L366.368,434.974L367.63,433.973L367.957,434.505L367.817,436.951L366.415,438.839L364.92,438.351L364.406,436.632L363.425,437.184L364.033,439.284L363.005,439.707L361.183,439.432L360.436,440.575L360.062,439.813L360.155,438.245L359.688,438.203L359.268,440.617L358.894,441.124L357.446,441.483L357.539,442.265L356.792,442.729L354.69,443.003L350.672,441.399L349.691,441.674ZM347.169,407.78L349.084,407.165L349.925,408.109L349.691,409.162L349.084,409.513L347.729,409.578L346.982,408.284ZM339.367,474.187L340.815,473.27L341.189,474.248L339.461,474.431ZM336.704,477.722L337.639,476.464L338.526,476.058L339.04,476.281L340.208,475.936L340.442,476.748L341.329,477.499L343.011,477.175L342.918,477.925L342.03,478.553L339.881,478.675L338.386,478.938L336.891,478.432ZM331.286,458.059L332.22,457.706L332.407,456.128L333.248,454.569L334.415,453.861L334.649,452.943L335.35,453.11L336.938,451.65L338.48,450.897L340.302,451.211L341.656,451.19L341.656,453.527L342.871,454.714L343.058,453.777L343.852,452.672L343.011,451.671L343.291,451.148L345.767,451.441L345.627,450.709L343.198,449.789L342.31,449.873L342.264,447.211L343.712,445.93L345.066,445.32L346.001,445.572L347.028,446.749L347.309,449.538L348.009,449.266L348.43,447.652L348.196,446.497L349.831,447.295L350.158,446.308L348.43,445.551L347.449,444.331L347.776,443.404L348.57,443.53L350.952,445.362L351.373,445.278L352.774,446.14L353.288,445.93L351.84,444.352L350.906,443.636L350.579,442.708L351.373,442.708L352.774,443.931L354.129,443.678L356.044,444.289L356.371,443.256L358.053,442.94L357.679,444.268L355.858,446.497L355.531,448.239L356.418,448.993L356.418,447.001L357.166,446.098L357.913,447.127L358.147,446.161L358.941,445.488L359.174,444.626L359.828,444.415L360.295,445.068L361.323,443.551L362.117,443.383L361.93,444.331L363.238,444.668L362.725,445.467L362.211,445.047L361.37,445.362L362.257,446.119L362.024,447.148L362.911,446.686L363.425,447.757L364.687,447.736L363.565,448.847L362.818,448.155L361.697,448.113L360.996,449.119L361.744,449.308L361.37,450.417L362.584,450.584L361.37,452.443L362.444,452.088L363.052,451.106L363.285,451.838L365.481,451.921L365.341,452.777L363.659,454.402L363.052,456.689L361.276,456.419L361.183,455.609L360.716,456.461L359.641,455.588L358.847,455.713L357.773,454.693L357.072,454.964L355.951,454.569L355.577,455.526L356.839,455.505L357.539,455.858L359.641,457.665L359.268,459.115L358.193,460.192L357.679,459.447L356.792,460.481L355.904,459.861L355.624,459.074L354.643,458.701L353.709,458.95L352.914,459.716L354.269,459.674L355.204,460.688L353.428,461.783L351.84,461.535L351.653,461.948L352.821,462.649L353.475,462.381L355.11,462.361L356.138,463.247L355.624,463.824L354.503,463.989L352.914,464.668L352.541,464.442L351.653,465.039L351.793,466.046L350.532,467.073L349.925,466.662L350.252,465.964L349.177,464.936L349.504,463.969L350.766,462.691L350.392,462.196L349.691,462.629L348.103,464.792L347.963,465.286L346.935,464.627L345.907,464.833L345.674,465.553L346.888,465.676L347.355,466.97L346.608,468.222L345.44,468.631L345.487,470.064L344.319,470.903L343.758,470.637L342.684,472.312L341.796,472.923L340.956,472.495L339.507,472.903L340.535,470.535L341.049,470.31L342.264,468.857L343.385,468.222L343.291,467.463L341.75,467.935L341.89,466.868L342.918,464.771L344.272,463.701L343.945,463.082L343.245,464.01L341.656,465.265L340.442,467.565L339.321,468.775L338.666,469L338.433,469.901L337.545,470.514L337.358,468.795L336.144,467.606L334.602,467.052L334.742,464.998L334.556,462.814L333.948,461.101L333.434,460.44L332.36,460.026L331.099,459.923L331.753,459.302L331.052,458.535ZM330.959,480.274L332.22,478.229L334.602,476.261L335.583,476.342L336.331,477.438L335.77,477.905L333.201,479.384L331.846,480.981ZM318.673,494.478L319.887,493.662L320.121,492.904L320.728,492.466L321.102,493.104L320.821,493.96L321.055,495.314L320.728,495.97L319.046,495.711ZM305.639,489.568L305.873,488.627L306.527,488.126L307.134,489.308L306.527,490.568ZM304.938,485.838L305.359,485.134L305.499,486.782L305.032,486.802ZM298.165,477.763L299.146,476.789L301.388,476.85L302.556,477.945L300.921,477.479L300.174,478.006L298.165,478.128ZM290.644,482.294L291.531,481.789L292.045,482.939L291.625,483.161ZM277.704,494.478L278.077,493.203L278.965,492.964L280.226,494.12L279.853,494.478L278.872,493.741ZM274.48,493.303L275.228,494.279L273.967,494.04ZM272.191,515.743L272.145,515.043L272.752,514.576L273.686,515.063L273.266,516.21L272.378,516.501ZM271.351,496.248L271.724,494.916L272.191,494.717L272.705,495.95ZM270.37,514.576L270.93,512.92L270.416,512.022L271.864,512.061L272.051,513.992L270.79,514.732ZM268.501,517.627L268.968,517.375L269.716,518.19L269.669,518.849L268.594,518.926ZM267.753,509.089L268.548,509.5L268.781,508.54L269.575,507.638L269.809,508.07L269.435,509.206L269.856,509.461L269.902,510.322L269.435,511.514L270.043,512.1L269.716,512.471L268.921,512.042L268.828,512.451L267.894,512.295ZM265.698,517.472L266.679,516.987L267.193,517.569L266.259,518.073ZM265.324,512.159L265.745,511.397L266.819,510.596L267.053,511.299L265.978,512.042L265.558,513.173ZM261.867,505.812L262.521,505.596L262.755,506.421ZM260.092,515.004L261.634,513.095L262.335,512.569L262.101,512.217L261.073,512.217L260.886,510.733L261.914,509.755L263.175,510.615L263.129,509.872L262.521,508.854L263.923,509.108L264.764,506.873L265.324,507.324L265.231,508.168L264.81,508.207L264.577,509.676L265.137,510.029L265.137,509.383L265.745,509.363L265.558,510.537L265.044,511.26L264.016,511.026L263.97,511.905L262.662,513.29L261.821,513.758L260.373,516.501ZM259.205,425.408L259.438,424.525L260.092,426.311L259.765,426.848ZM258.831,503.687L259.859,502.859L261.54,503.135L261.494,504.671L259.158,504.435ZM257.663,425.666L258.037,424.008L258.27,425.236ZM252.197,506.166L252.945,504.711L254.113,504.219L254.954,504.671L254.86,505.576L255.327,505.478L255.888,504.553L256.589,505.183L257.803,505.694L259.018,505.203L259.345,506.5L258.924,507.678L258.27,506.893L257.243,506.834L256.589,506.382L256.449,505.596L255.981,505.832L255.981,507.187L256.495,507.58L257.009,509.285L256.495,510.459L254.814,509.774L254.346,508.619L253.505,508.971L252.665,510.733L252.851,509.598L252.384,508.756L252.384,506.716ZM249.254,428.029L249.581,425.214L251.403,424.094L252.384,423.965L254.206,422.325L254.44,422.368L251.87,428.243L250.843,428.929L249.348,429.015ZM244.77,508.482L246.031,508.423L245.844,509.813L244.63,508.893ZM241.313,508.462L241.78,507.854L243.462,507.697L243.041,508.697L241.313,508.893ZM238.557,510.752L238.744,509.755L239.538,509.363L240.706,509.735L241.266,510.302L242.901,511.124L243.182,511.924L241.78,511.065L240.706,512.178L239.398,510.733L238.884,511.475ZM231.643,515.024L233.044,513.738L234.259,514.264L234.259,515.879L233.745,516.909L233.138,517.317L231.877,516.19ZM228.42,293.256L229.307,292.149L230.288,291.746L231.409,292.174L232.437,292.023L232.858,292.954L232.811,294.21L229.307,294.536L228.466,294.06ZM226.458,525.798L226.504,524.817L229.681,525.856L230.569,526.605L231.783,526.605L232.624,527.143L231.69,527.585L231.223,528.218L230.195,527.45L229.401,527.623L227.953,526.913L227.112,527.47L226.084,526.375ZM222.066,503.628L222.72,503.647L222.487,504.396ZM200.017,531.243L200.578,530.823L201.325,531.167L200.344,531.874ZM195.392,533.573L196.42,532.924L197.962,533.134L199.083,532.791L199.316,533.248L198.896,534.106L197.681,534.354L195.486,533.84ZM191.982,534.164L194.785,533.706L195.205,534.373L194.505,534.983L193.897,534.278L192.309,534.354ZM190.768,534.907L191.562,534.354L191.889,535.04L191.048,535.306ZM189.366,530.287L189.973,529.215L190.627,529.502L191.468,529.157L192.029,529.56L191.001,530.191L191.608,531.11L193.01,531.11L193.057,531.893L191.982,531.836L191.141,533.344L190.067,532.886L189.973,531.396L190.721,530.727L190.3,530.344L189.553,530.746ZM183.947,532.638L184.181,531.95L185.489,530.918L186.89,531.033L187.03,532.141L187.965,532.027L188.619,532.313L188.992,533.153L189.6,532.905L189.506,533.687L188.292,534.373L187.731,534.164L186.89,535.021L186.61,534.488L185.442,534.468L184.648,534.849L183.807,533.115ZM182.686,536.162L183.013,535.877L184.274,536.505L182.779,536.714ZM166.476,386.596L168.111,386.033L170.774,386.033L171.801,386.483L172.876,386.258L173.296,386.798L174.277,386.573L174.744,385.898L174.371,385.041L175.959,383.507L177.687,383.755L177.687,382.92L178.855,381.879L180.397,382.784L181.518,382.06L182.593,381.857L183.293,380.634L184.181,383.62L185.442,383.846L186.797,383.078L188.152,383.53L189.413,384.433L188.852,385.898L189.366,386.888L188.852,387.788L189.46,388.035L189.646,389.494L189.039,390.346L190.02,391.555L190.114,392.852L191.095,392.628L190.581,393.388L190.674,394.459L187.357,394.927L187.077,395.684L186.143,395.261L184.928,395.662L183.62,396.952L183.994,398.374L182.779,398.552L181.705,396.975L179.93,395.929L177.267,396.018L176.613,395.239L175.305,394.838L174.044,393.544L172.409,392.606L170.54,392.181L169.045,390.57L167.877,390.346L167.784,388.776ZM161.15,550.858L161.945,550.427L162.972,549.434L164.14,549.34L165.869,548.59L166.289,548.083L167.597,548.478L168.251,548.121L168.625,547.295L169.653,547.652L169.793,546.298L170.914,546.505L170.12,544.51L171.054,543.907L171.428,544.209L172.128,543.869L171.288,543.209L171.474,542.473L172.269,542.038L173.623,542.057L174.044,543.341L174.744,543.209L174.417,542.265L175.025,541.679L172.549,540.79L171.895,541.188L170.4,539.654L170.4,538.783L171.848,537.037L173.81,536.086L175.492,535.478L175.772,535.763L176.847,535.516L177.594,536.714L176.847,537.511L177.174,538.176L177.968,538.517L178.622,537.511L178.902,538.138L179.603,537.587L179.556,536.809L180.397,535.611L181.098,536.714L181.611,536.219L182.546,537.397L182.172,538.46L181.098,538.707L179.976,540.033L178.108,541.358L178.201,542.095L179.79,541.074L182.499,539.863L182.686,539.446L183.714,539.029L184.041,539.389L183.807,540.753L183.06,541.717L181.845,542.359L181.565,542.794L179.463,543.756L178.061,544.133L178.622,545L177.874,545.019L177.687,546.167L176.94,545.847L176.613,547.163L175.679,546.693L175.492,548.121L173.81,548.365L172.782,547.802L172.315,548.384L171.755,547.952L170.774,548.646L170.493,548.44L168.438,549.809L168.298,550.39L167.223,550.315L166.476,550.745L165.869,551.868L164.561,551.438L164.14,552.279L161.851,551.531ZM157.553,230.304L157.88,229.381L159.469,228.022L165.215,225.079L168.158,223.057L170.4,221.029L172.502,219.492L174.464,217.731L178.388,214.833L180.957,213.284L187.778,208.646L195.813,204.345L202.026,201.821L206.09,200.556L212.397,200.134L214.826,200.444L216.414,201.315L214.499,201.624L214.826,202.691L214.359,204.681L212.91,206.833L212.957,208.785L213.518,210.343L212.537,211.981L210.248,212.896L210.061,213.45L212.35,213.256L214.312,217.428L216.18,217.51L217.862,216.628L219.824,216.656L222.113,217.483L224.309,216.904L227.532,216.49L229.027,218.089L231.363,217.51L232.204,218.446L234.633,217.565L235.474,216.849L239.398,218.639L240.239,217.014L241.453,215.8L243.182,211.648L244.022,210.926L245.891,211.176L246.265,212.259L247.76,212.591L249.208,211.843L250.422,211.843L248.927,208.785L245.611,207.252L243.509,206.582L241.266,206.61L238.463,208.284L239.071,205.157L238.93,202.832L236.034,199.627L235.006,197.06L233.792,196.071L231.036,195.675L230.662,194.088L229.167,191.532L229.494,190.109L230.755,189.596L231.223,188.369L231.97,189.425L233.091,188.626L234.352,191.162L236.034,193.748L237.155,194.032L236.268,196.891L236.408,198.444L237.716,199.853L240.379,203.308L242.855,205.213L244.676,204.709L246.078,203.925L246.498,202.551L244.396,202.495L243.929,201.231L241.313,199.261L238.837,196.099L239.304,194.627L239.304,192.925L239.958,192.272L240.005,190.65L241.547,187.997L242.948,188.911L243.976,188.825L244.022,188.026L242.247,186.453L241.079,186.682L239.771,185.049L235.707,185.88L234.212,186.94L232.624,186.94L230.802,187.483L229.214,186.997L228.28,185.766L227.485,186.224L226.504,185.565L226.318,187.025L224.636,185.909L220.385,184.705L217.862,183.815L215.62,183.385L214.592,182.522L214.639,179.698L213.611,174.98L211.182,168.684L210.248,166.985L208.566,165.165L204.315,162.191L197.541,155.438L196.56,154.723L194.178,152.129L191.842,150.664L189.319,149.556L186.937,148.867L185.582,147.817L184.695,145.712L182.172,143.179L180.07,141.97L176.286,140.729L174.324,140.91L176.052,139.698L180.35,137.906L181.284,136.506L181.425,134.769L182.312,132.446L182.826,125.189L182.452,121.567L190.814,122.528L193.991,122.342L200.718,121.039L204.408,120.169L208.005,119.703L211.602,117.741L213.518,115.712L214.872,114.774L217.348,112.047L221.132,105.995L222.113,103.079L222.44,100.566L222.347,94.618L224.169,87.105L228.093,81.153L231.129,75.289L232.858,72.752L238.884,67.39L243.368,68.551L246.592,68.651L249.768,67.323L252.758,65.561L257.103,62.091L260.559,58.471L262.615,55.577L267.94,49.213L269.482,48.159L274.107,46.012L274.434,47.614L277.003,49.111L280.834,49.519L284.01,49.009L284.618,48.193L286.112,48.295L288.962,47.716L292.372,45.977L295.829,43.071L299.146,38.916L300.828,35.88L304.845,29.459L308.022,26.806L308.582,29.18L310.778,30.503L312.6,30.573L314.422,31.269L315.169,34.115L316.43,32.693L321.055,34.392L321.756,37.779L319.233,40.223L317.598,42.386L315.683,42.523L316.243,47.512L320.027,48.022L322.083,46.012L321.756,43.414L322.503,43.14L323.951,40.842L325.026,40.429L325.913,42.077L326.1,39.914L324.839,38.434L326.474,36.536L327.455,38.158L327.315,35.914L328.016,35.153L331.332,37.71L333.434,39.982L334.042,41.425L333.528,42.557L333.575,46.285L333.995,47.954L336.845,47.614L338.48,48.873L339.227,50.232L341.469,48.125L342.871,45.568L348.103,45.568L351.326,44.132L353.802,44.509L355.671,45.67L359.595,45.739L362.444,46.83L364.546,48.022L364.967,49.179L363.752,49.553L362.538,52.367L361.323,53.382L361.977,56.52L363.145,56.352L364.033,57.16L366.135,57.362L366.602,58.303L369.825,58.975L371.367,58.673L370.573,60.115L370.993,60.953L368.517,61.823L368.144,62.626L369.078,63.46L373.235,63.26L376.599,64.628L377.253,65.727L378.561,65.561L380.616,62.692L383.279,62.191L384.4,62.793L384.867,61.656L386.736,61.422L388.091,62.325L388.791,64.295L390.753,63.394L392.529,63.127L395.238,60.35L395.845,61.087L397.948,60.417L398.929,60.919L400.517,60.048L401.077,61.053L404.161,61.321L407.057,63.727L408.365,63.761L409.252,64.561L410.467,63.527L411.588,63.794L413.317,66.226L413.317,67.722L414.952,68.352L416.867,66.659L416.914,68.75L418.128,66.858L421.912,69.413L422.566,71.63L423.687,72.389L425.976,72.356L427.985,72.851L429.34,71.663L430.414,74.071L432.657,74.4L434.011,72.917L436.02,73.313L438.916,72.917L442,73.247L444.289,74.499L446.624,74.598L447.418,73.676L450.455,76.8L451.763,77.062L453.258,78.832L455.36,79.356L456.294,80.337L458.396,80.729L459.191,81.578L460.452,80.533L463.535,81.186L465.637,78.669L467.88,78.472L468.3,77.817L472.224,76.209L473.065,75.42L477.082,74.433L479.044,75.256L481.287,74.203L481.707,74.795L485.398,77.194L487.873,78.407L491.143,81.023L492.358,83.207L494.086,83.565L498.151,86.716L501.327,88.012L503.756,90.016L505.018,91.531L507.867,91.95L510.577,93.398L510.577,341.023L510.67,363.768L510.624,384.071L516.696,386.213L517.491,383.959L523.797,387.226L527.581,383.168L535.522,382.716L535.569,383.597L534.028,389.718L536.223,392.226L539.306,393.923L540.521,394.414L541.035,396.997L542.39,398.774L554.816,411.548L556.217,418.061L555.843,420.077L556.871,419.99L559.254,417.648L564.439,414.211L564.953,413.71L568.129,413.535L569.624,410.498L569.531,405.911L570.932,406.329L571.773,405.911L572.661,404.347L572.614,403.487L571.119,402.449L573.221,401.388L576.398,400.768L582.518,397.264L585.414,399.816L586.722,401.764L587.236,401.808L588.357,403.355L588.357,405.647L587.796,406.175L587.843,406.989L588.59,408.021L588.357,408.943L589.198,410.608L592.608,411.439L592.841,412.881L594.336,414.473L595.458,414.473L596.812,416.823L596.532,418.321L597.747,418.755L597.466,419.752L598.494,421.288L603.819,424.568L605.314,427.127L607.463,429.701L609.799,432.053L608.724,433.099L610.266,435.952L612.462,438.923L613.77,442.645L616.432,446.476L617.927,449.852L619.329,452.172L620.497,454.735L622.972,458.473L624.467,461.679L622.926,464.566L627.083,465.635L626.102,469.839L629.419,471.495L629.045,472.74L629.559,473.902L629.886,476.322L633.203,476.038L634.745,477.601L638.575,479.93L639.65,480.901L643.62,481.85L645.676,484.168L647.731,484.833L648.245,487.163L649.32,487.464L650.581,488.186L652.45,487.725L653.758,490.588L653.617,492.386L652.683,494.518L651.842,495.851L651.889,497.042L652.356,497.796L652.123,500.133L652.683,502.188L653.197,503.095L653.477,505.714L654.038,506.952L652.543,508.913L651.422,511.299L651.375,511.944L650.441,513.699L649.366,515.199L647.638,517.084L646.377,518.151L645.489,518.422L645.629,519.314L644.742,519.759L644.181,518.985L644.134,517.899L643.527,517.433L643.48,518.287L642.92,518.713L642.079,518.364L641.472,517.356L641.285,515.257L641.425,514.148L640.631,513.505L641.004,511.495L640.584,511.378L639.837,510.283L639.556,509.03L640.958,507.795L641.752,506.559L642.453,506.716L642.312,505.242L641.799,503.628L642.453,501.22L642.032,497.459L641.565,496.129L639.556,492.864L638.529,491.767L637.968,490.808L637.641,491.487L638.715,492.725L639.883,494.418L640.21,495.851L641.238,497.637L641.705,500.232L640.958,501.082L640.864,502.642L641.191,504.455L641.705,505.675L641.285,506.225L640.771,504.337L640.397,504.1L640.537,505.478L640.35,506.932L638.669,508.932L638.015,509.03L636.893,508.07L637.781,506.637L638.295,505.203L638.155,504.455L636.987,504.652L637.454,506.068L637.08,506.893L635.539,507.991L635.212,507.972L634.137,505.851L633.623,506.736L632.456,505.675L631.661,505.321L631.101,504.337L629.793,502.997L629.793,501.497L631.241,500.885L632.269,499.876L631.334,498.946L631.661,497.459L631.241,496.685L632.315,495.811L632.456,495.334L631.615,495.314L631.475,493.841L631.802,492.984L629.886,493.323L630.167,494.219L630.68,494.538L630.634,495.274L630.026,496.963L629.98,498.153L629.092,499.599L628.251,499.342L628.578,501.181L628.111,502.03L626.99,501.003L625.822,500.568L625.402,499.975L624.841,497.36L624.094,495.97L625.075,496.546L625.402,495.055L626.663,494.319L627.224,491.388L626.85,489.348L627.317,488.206L627.597,488.627L628.158,487.785L628.485,485.938L627.504,486.159L627.317,487.324L626.429,487.926L625.448,489.148L626.056,491.408L625.682,492.246L624.14,492.186L623.58,493.044L623.72,493.642L622.926,493.921L622.599,493.243L622.786,491.907L621.898,491.448L621.337,488.887L619.843,489.228L619.843,490.188L618.535,487.825L618.394,485.355L618.768,484.853L619.936,484.833L620.263,483.504L620.87,482.516L622.272,482.274L623.019,483.725L623.346,482.455L622.645,479.06L623.066,478.999L624.467,479.91L624.654,481.103L625.168,481.749L625.448,481.284L625.028,479.728L624,479.019L623.113,478.047L622.972,476.972L622.459,476.708L621.898,477.215L621.431,476.22L620.356,475.57L620.123,474.411L620.683,473.942L620.497,472.638L619.469,472.067L617.74,470.719L617.133,469.307L616.432,468.631L615.825,467.011L617.18,466.128L616.666,464.936L615.825,465.902L614.938,465.532L614.844,466.087L613.77,464.895L612.322,464.73L611.808,463.577L610.546,464.154L608.024,462.588L607.65,461.039L608.351,459.529L609.192,459.985L610.733,459.902L611.154,458.908L610.126,458.846L608.631,458.1L608.724,457.374L607.884,454.777L608.491,453.089L607.37,453.298L606.669,452.902L605.922,451.796L606.249,449.642L607.183,449.601L607.93,450.354L609.472,450.856L612.415,452.714L612.649,452.401L611.481,451.19L610.546,450.793L607.463,448.071L607.323,446.077L606.529,446.392L606.435,447.757L605.501,447.694L603.679,444.205L601.11,441.103L600.596,438.139L601.017,436.76L600.923,435.654L602.184,434.782L601.577,432.651L601.203,432.693L600.783,434.505L599.849,435.144L599.849,436.037L600.409,436.505L599.802,437.715L599.335,437.503L598.307,437.927L597.139,437.694L595.458,436.972L595.131,437.29L593.495,436.526L591.627,432.821L591.44,430.471L589.478,427.471L588.871,425.773L589.758,425.752L589.244,422.001L588.357,423.21L588.404,424.46L586.769,421.612L586.395,417.779L586.021,415.779L585.04,412.837L583.545,410.301L581.864,409.491L581.63,409.841L582.938,410.673L583.125,411.57L583.919,412.422L584.853,415.279L584.153,415.039L582.564,411.985L581.537,411.198L580.509,410.98L582.424,412.99L583.031,414.843L583.826,415.475L583.499,417.583L583.919,419.492L584.526,419.99L584.293,420.509L585.554,423.189L585.694,424.374L586.862,427.364L586.955,428.05L586.301,427.814L587.563,432.181L587.983,433.994L588.03,435.463L587.469,435.293L587.423,436.59L587.983,437.948L586.628,437.46L585.741,436.781L585.087,436.866L584.246,435.952L583.545,434.548L583.078,432.757L582.05,433.099L580.509,432.031L579.247,432.821L576.912,433.227L577.052,431.497L575.884,431.155L575.697,430.749L577.099,429.915L576.631,428.436L576.865,427.299L575.557,424.956L575.557,424.18L574.529,422.368L575.137,421.85L575.043,419.903L574.156,418.516L573.595,418.299L574.296,421.137L573.735,423.835L572.474,423.943L570.512,422.433L569.297,421.785L568.597,418.538L568.083,420.012L567.475,420.488L565.42,419.318L564.766,419.752L564.299,418.668L563.738,419.058L563.598,420.228L565.7,420.985L566.027,420.834L568.129,421.785L569.671,423.21L571.072,425.451L570.559,426.397L569.437,427.342L569.718,427.578L571.259,426.633L571.586,425.988L572.848,425.967L573.175,428.222L574.389,429.893L575.137,433.248L574.249,434.186L572.24,434.867L571.726,434.654L572.147,433.653L571.306,433.312L570.745,433.674L571.072,434.505L570.605,435.293L568.597,434.825L568.083,435.314L568.316,436.59L567.943,437.333L566.588,437.227L566.214,435.569L564.532,434.825L564.672,434.505L563.364,432.928L562.57,432.523L561.216,432.928L559.581,431.433L558.833,431.113L556.217,428.822L553.835,427.213L553.741,426.139L552.34,424.633L550.611,423.253L550.378,422.649L550.565,421.029L549.864,419.99L547.295,417.366L545.893,416.345L541.409,414.408L539.727,412.859L537.718,411.417L533.14,409.14L531.178,408.065L526.927,404.898L525.526,404.039L525.759,403.399L527.207,401.432L528.328,401.742L527.908,402.339L529.029,402.272L529.029,401.322L530.01,399.772L528.982,399.617L529.076,397.908L528.422,395.328L528.749,394.548L529.777,393.633L529.543,392.874L530.29,392.203L529.683,390.95L528.796,392.092L528.702,393.41L527.534,393.879L526.553,395.484L526.507,396.574L521.508,398.796L520.947,399.417L519.639,400.038L515.202,399.55L512.072,398.752L510.857,398.041L505.111,395.261L504.317,394.012L505.158,394.236L506.746,393.7L507.26,392.114L505.718,389.18L505.859,388.237L504.924,388.619L503.476,387.63L503.756,388.753L505.859,391.443L505.391,391.913L502.869,393.053L501.047,393.053L498.758,391.823L495.908,391.286L494.413,390.771L490.63,389.875L488.527,389.628L485.771,389.718L482.828,390.458L479.231,390.726L475.494,391.353L472.971,392.427L471.15,391.555L469.047,392.136L466.058,394.815L463.909,397.375L464.189,395.929L465.871,393.633L468.767,391.018L470.916,390.973L470.169,389.494L467.88,388.417L467.506,387.855L467.039,389.696L465.824,387.81L464.609,387.136L463.815,387.338L463.068,386.731L459.751,386.303L460.172,385.672L461.947,385.154L459.985,384.41L459.097,384.545L459.004,383.981L460.732,380.453L460.031,380.113L459.424,380.928L458.069,381.427L458.023,382.716L457.088,384.207L455.267,383.936L451.996,381.744L452.043,381.042L450.829,380.226L449.007,379.636L447.091,380.43L446.064,379.818L446.671,379.16L448.119,378.433L449.287,376.75L448.633,376.522L447.792,377.637L444.102,379.75L442.747,380.271L440.972,380.158L441.019,381.381L443.821,380.77L444.335,381.313L444.429,382.513L443.635,382.467L442.327,383.304L441.486,383.168L439.57,384.026L437.655,385.763L437.094,385.718L436.534,384.636L438.73,382.897L437.001,383.168L436.207,382.92L436.16,381.698L437.235,379.818L437.842,379.205L438.683,379.16L439.617,379.863L440.738,379.477L441.766,378.547L443.541,378.251L446.204,376.932L448.166,376.477L447.745,375.907L446.858,375.953L446.905,374.334L446.391,375.452L445.503,375.907L445.55,375.224L446.718,373.74L446.764,373.26L445.223,374.585L443.121,375.657L442.233,375.725L442.046,375.041L444.989,372.483L444.709,371.613L443.354,372.986L441.579,373.306L441.019,372.711L440.318,373.831L439.384,374.151L436.861,373.854L436.394,372.528L437.655,372.094L438.169,372.3L439.01,371.727L440.878,371.361L442.233,370.719L443.308,369.228L442.14,369.182L441.486,370.238L440.411,370.673L438.309,370.719L437.468,369.159L436.908,369.09L436.113,370.673L435.132,370.857L434.946,369.503L435.693,368.906L436.487,369.044L435.973,368.033L435.833,366.767L436.44,365.983L437.655,363.351L442.14,363.213L441.813,362.333L437.562,362.449L436.581,363.906L435.319,364.507L434.338,366.283L432.89,367.389L431.816,367.112L432.75,366.283L432.283,363.675L431.722,362.449L432.563,361.754L431.535,361.523L430.881,362.055L430.835,363.236L431.395,364.692L430.741,366.145L430.788,367.089L430.181,367.435L428.966,366.329L428.873,367.872L427.611,368.906L426.63,368.401L426.63,367.204L426.117,366.767L425.79,368.447L425.369,368.102L425.556,365.13L425.976,363.698L425.276,363.444L424.482,366.444L424.902,368.998L424.715,369.664L423.827,369.871L423.874,368.745L422.613,367.964L422.286,369.021L423.033,370.513L422.426,370.696L420.651,370.329L419.063,371.43L417.755,371.223L417.521,370.513L418.175,368.332L420.137,364.853L420.184,363.629L422.473,360.781L423.22,358.9L422.94,358.481L419.53,363.375L419.483,364.183L418.642,365.522L418.268,365.338L417.895,363.744L417.334,363.768L417.194,365.638L416.68,366.882L415.839,367.849L415.699,369.32L414.952,370.88L413.971,370.261L413.644,371.269L414.765,371.91L414.531,373.991L414.998,374.174L415.886,372.231L417.614,372.094L418.128,372.597L418.315,374.676L417.661,375.702L416.213,376.431L415.185,378.16L415.232,379.591L416.213,379.137L417.007,377.433L418.409,376.431L419.81,378.456L419.81,379.455L420.277,380.43L419.203,384.771L417.988,384.771L417.568,383.597L416.68,383.394L416.727,384.207L415.466,385.199L415.466,385.582L416.774,385.267L417.848,385.875L420.698,388.664L421.912,390.57L421.211,392.293L420.604,392.874L419.016,393.655L418.222,393.298L417.568,393.7L416.213,393.834L416.633,392.695L415.419,391.197L415.839,389.853L415.045,388.439L414.298,391.264L414.298,392.65L413.737,393.566L412.85,392.024L412.429,392.203L412.102,393.521L411.261,394.258L409.673,393.142L408.318,394.035L407.617,392.874L406.356,393.343L405.328,393.231L404.908,392.606L406.029,390.95L405.609,390.637L404.347,391.488L402.993,395.395L401.591,396.33L401.171,395.929L401.825,394.704L402.432,392.829L401.731,388.978L400.984,388.866L400.75,389.494L400.797,391.309L401.404,392.494L400.937,392.583L400.47,394.191L399.676,393.946L399.302,394.392L399.069,395.907L398.555,396.285L398.742,397.33L399.91,398.019L399.629,399.661L398.368,398.951L397.807,396.129L398.181,395.306L397.667,393.566L396.873,393.432L397.153,394.592L396.78,395.684L397.013,400.038L396.78,401.454L395.518,399.816L395.472,398.863L394.724,398.241L393.136,397.553L393.276,398.441L394.397,399.24L394.35,400.636L391.127,404.127L389.632,406.131L389.632,406.923L388.885,407.143L388.464,409.03L387.904,408.986L387.764,407.45L389.352,402.803L389.352,402.162L388.137,403.597L387.25,406.043L386.689,405.801L386.269,402.67L385.662,403.818L385.148,403.774L385.895,405.141L385.662,406.901L383.84,406.901L383.466,408.241L382.625,408.767L381.597,409.973L381.924,410.914L381.224,411.811L380.476,412.029L380.476,410.848L379.729,410.06L379.121,411.045L379.075,412.204L378.047,412.575L376.926,411.898L376.505,412.4L375.524,411.57L375.197,410.629L374.637,411.417L373.656,412.007L373.936,412.772L373.002,412.772L372.768,413.623L370.853,413.775L370.573,412.116L369.545,412.422L368.564,411.942L368.704,411.461L367.723,411.286L367.583,409.754L367.957,408.965L368.704,408.57L368.938,407.011L370.433,406.329L370.853,406.571L372.208,405.449L373.749,405.383L373.749,404.391L375.291,403.928L376.879,402.56L378.327,402.759L377.813,401.233L378.841,400.658L378.981,399.949L380.71,397.686L380.102,397.353L378.981,397.841L376.178,400.259L374.777,400.702L373.936,401.565L372.114,401.211L370.106,399.727L369.405,398.84L369.171,397.819L370.012,395.216L370.619,394.213L371.32,391.241L372.581,389.471L373.376,388.731L375.011,386.506L375.524,384.297L375.524,382.694L376.599,381.97L376.832,378.433L377.019,377.819L376.178,376.818L375.151,373.1L376.973,372.3L377.206,371.681L380.149,371.063L384.307,367.296L388.605,364.576L390.987,368.286L392.902,368.653L393.51,369.274L395.098,366.698L396.499,366.514L398.181,367.55L399.069,367.319L402.012,368.424L405.048,368.883L406.45,370.146L406.403,369.526L405.375,368.079L404.02,367.25L402.245,367.573L399.863,366.122L398.742,366.145L396.873,365.176L395.705,363.606L393.883,362.079L392.529,361.43L393.369,360.154L394.491,359.945L395.939,357.062L397.013,356.642L397.387,355.243L399.536,354.612L400.937,353.56L399.442,352.39L398.508,352.296L396.499,353.794L395.986,354.939L395.098,355.266L394.537,356.899L394.537,358.528L393.696,359.249L392.529,358.807L390.847,358.644L387.39,359.039L386.175,358.039L384.867,357.667L384.213,358.877L380.149,360.827L378.327,364.391L376.646,364.668L375.758,365.384L374.216,365.338L372.395,366.79L370.152,369.297L370.106,369.962L371.32,372.803L371.227,373.329L369.452,372.757L368.564,373.169L367.162,374.357L366.181,376.454L364.92,377.114L363.425,378.796L363.145,380.453L363.519,381.223L364.406,381.766L362.538,383.033L362.117,384.545L361.51,384.636L360.202,386.213L359.314,386.371L358.894,385.74L357.726,385.988L357.913,387.518L358.66,387.81L358.52,388.484L359.688,389.427L360.062,390.211L359.501,391.846L358.614,392.896L358.287,394.28L357.119,394.748L356.932,395.239L355.11,395.283L354.409,395.016L352.541,395.706L351.7,395.64L350.812,396.975L351.887,396.619L352.587,397.064L353.288,396.396L354.176,396.374L354.503,397.486L353.755,400.06L352.868,400.414L351.653,401.543L350.345,400.724L350.579,401.477L349.971,401.875L349.131,401.477L349.458,400.702L349.551,399.04L348.523,397.464L348.663,400.104L348.243,401.322L347.402,401.654L346.795,401.1L346.515,401.875L347.262,402.493L346.842,403.664L344.553,403.884L345.347,405.933L344.973,406.637L343.712,407.099L343.245,406.923L342.123,407.911L341.563,407.626L339.881,408.438L340.115,409.008L341.049,409.403L339.975,410.104L339.648,411.045L339.741,412.379L339.18,413.339L338.059,414.102L339.18,414.669L338.9,415.953L339.367,417.258L340.629,415.888L343.385,416.388L344.132,415.91L344.693,416.388L345.393,415.845L346.421,417.54L347.309,418.126L348.196,417.844L349.271,418.581L350.112,419.73L350.485,420.877L351.186,421.353L349.878,421.656L349.224,424.202L348.663,425.042L347.262,425.58L346.748,426.762L345.627,427.471L343.385,427.471L342.684,427.836L342.497,429.851L341.937,430.557L340.675,430.535L340.442,430.963L340.909,432.651L341.423,433.333L340.161,434.1L339.227,433.781L339.134,434.739L340.068,435.718L339.554,437.439L338.573,438.075L338.293,438.775L338.713,439.284L337.639,439.284L336.985,440.384L335.77,438.987L335.35,439.135L335.583,440.342L335.396,441.188L334.415,441.251L333.855,442.159L333.061,441.821L333.061,441.251L332.126,441.272L331.94,442.096L330.912,442.602L329.837,441.948L328.529,442.307L326.894,443.762L327.595,444.857L327.175,445.93L325.306,446.854L323.998,446.896L324.045,448.008L324.699,448.532L324.418,449.37L323.484,449.705L321.802,448.47L321.335,447.841L320.401,448.26L320.167,449.58L320.214,451.023L319,451.587L318.859,453.611L315.823,453.756L314.842,453.256L314.749,454.797L315.122,456.274L314.188,456.274L313.627,455.505L312.646,455.442L312.46,456.253L310.965,456.814L309.143,458.722L308.442,458.97L308.208,459.881L308.816,460.109L311.011,458.784L311.198,459.819L310.918,460.915L310.217,461.06L310.217,461.7L311.058,462.484L310.591,463.268L309.75,463.804L309.657,464.813L308.442,465.717L308.068,466.375L308.162,467.237L306.667,466.95L305.219,467.524L305.032,468.959L304.471,469.205L303.584,467.668L303.21,468.754L301.949,469.614L301.435,470.698L300.314,470.821L300.547,471.842L299.753,472.393L298.585,471.515L297.464,470.146L296.436,470.473L296.436,471.515L296.95,471.618L296.997,472.352L295.642,472.556L295.035,473.922L295.315,474.573L296.156,474.696L296.39,475.753L294.708,475.834L293.587,476.139L292.793,474.573L290.41,475.346L289.569,476.383L288.822,476.444L288.401,477.438L289.289,477.459L290.55,476.951L291.485,477.296L291.765,478.391L291.017,479.343L289.009,478.452L287.934,478.229L287.701,479.647L286.159,479.525L285.085,479.1L284.15,479.768L282.889,481.547L282.983,482.435L285.178,482.838L286.673,483.564L286.533,484.148L285.038,484.993L285.085,485.456L285.926,485.536L287.093,484.913L287.841,485.054L285.272,486.621L284.197,487.885L284.244,488.928L283.637,487.926L283.169,488.266L283.917,489.588L283.637,490.588L283.31,489.808L282.842,489.848L282.749,490.908L281.581,489.308L281.581,487.404L280.693,488.607L281.067,490.068L280.88,491.408L279.759,491.527L279.899,490.368L278.264,490.348L277.517,491.947L276.349,492.126L272.845,492.984L271.491,493.423L271.164,493.861L271.024,495.334L270.229,494.418L270.463,492.825L269.389,493.203L269.856,493.801L269.902,495.87L269.155,497.28L269.435,498.193L268.314,499.797L266.819,500.39L266.913,499.361L268.034,499.282L267.987,498.49L267.52,498.411L267.613,496.208L268.454,494.777L267.099,494L265.791,493.761L265.184,494.12L265.324,495.015L264.764,495.433L264.156,494.996L262.989,495.254L262.568,496.883L260.933,498.351L259.719,498.748L257.99,498.193L257.71,498.767L258.224,499.639L257.289,501.24L257.336,501.852L256.355,502.583L255.795,500.509L255.327,500.252L254.673,500.983L254.16,500.707L253.319,501.319L254.767,501.576L254.673,502.918L253.178,503.115L252.431,502.622L252.665,501.852L252.057,501.379L251.03,501.813L250.142,503.588L247.292,505.262L246.078,505.222L245.564,504.652L244.349,505.222L243.742,505.144L244.209,502.07L245.564,500.173L245.611,499.262L244.91,498.946L243.462,498.985L242.341,499.559L241.22,501.556L241.406,504.1L239.538,506.853L239.211,507.089L238.557,508.756L237.576,508.05L236.688,508.286L237.295,509.559L237.763,509.892L237.809,510.987L236.641,511.729L235.754,511.084L235.754,510.205L235.006,509.911L234.399,511.084L234.866,512.042L234.072,512.959L233.418,512.432L231.923,512.588L231.176,512.237L230.522,510.791L232.017,510.674L231.036,509.755L230.662,507.717L229.681,506.618L229.167,506.48L228.42,507.128L227.953,508.403L228.28,508.932L228.934,508.932L229.774,510.302L229.261,511.202L229.915,513.056L229.915,514.07L228.887,513.485L227.953,513.855L228.093,514.362L227.299,514.946L226.458,515.082L225.43,514.537L224.682,513.388L224.869,512.686L224.262,511.592L223.281,510.869L221.833,511.358L221.366,512.451L223.655,514.109L223.842,514.712L221.506,516.87L220.385,517.278L219.45,517.918L220.198,519.004L221.459,518.965L221.88,518.5L222.907,519.469L223.515,521.075L222.3,520.959L222.674,520.301L221.88,520.185L221.412,520.727L220.665,520.301L219.871,519.101L218.703,519.856L218.796,521.191L217.956,521.21L216.648,522.176L215.573,521.828L213.845,521.635L211.743,521.732L210.154,522.002L208.239,522.774L206.884,524.143L206.697,525.471L205.343,526.49L202.96,527.124L201.605,527.066L200.297,526.529L199.877,525.952L199.457,524.528L198.989,523.95L198.943,522.89L199.316,522.33L201.372,521.538L202.026,521.055L203.1,518.926L203.988,516.793L203.941,516.229L204.969,515.179L205.623,514.926L206.791,515.821L208.566,515.063L209.734,514.109L210.902,514.109L212.63,512.529L214.218,512.139L215.9,512.412L217.348,512.315L217.395,513.037L218.703,514.44L219.123,515.627L218.89,516.598L220.151,516.132L219.777,515.121L219.871,514.401L221.272,514.985L220.572,514.167L220.665,512.666L220.198,510.537L221.693,509.637L222.907,509.226L224.869,509.52L225.85,509.246L226.318,507.893L225.57,507.815L225.757,507.266L226.598,507.069L226.925,506.323L227.766,506.402L228.98,504.455L229.12,505.085L229.821,505.478L230.802,504.534L230.569,502.898L229.634,503.076L230.896,501.734L233.885,497.657L235.427,496.625L236.501,495.393L237.389,495.135L238.65,494.299L239.818,492.944L241.079,492.665L242.714,491.887L244.443,491.487L248.6,490.088L250.002,490.268L250.469,489.908L252.571,489.808L253.038,490.008L252.104,490.548L252.057,491.487L252.711,491.527L252.571,492.505L251.216,492.864L251.076,494.558L252.851,496.506L253.365,496.069L254.627,496.844L254.814,496.466L253.459,495.413L253.319,493.721L253.038,493.084L254.253,493.642L256.916,493.582L257.243,495.294L258.317,495.155L259.532,495.87L259.859,495.433L259.205,494.637L260.466,494.339L257.85,492.565L256.355,491.847L256.402,490.688L255.654,490.828L257.476,487.504L258.177,485.034L258.691,483.907L259.765,483.02L261.447,481.082L262.288,480.82L264.156,479.323L265.558,477.682L269.389,475.733L271.304,474.227L272.939,473.433L276.115,471.27L276.91,470.412L278.264,471.801L279.152,472.087L280.6,471.699L280.974,470.494L280.366,469.532L280.273,468.59L280.974,466.087L282.329,463.866L284.244,461.184L285.365,459.902L286.393,459.136L288.261,458.287L289.242,457.208L290.27,455.401L290.924,455.089L292.139,453.798L293.54,453.277L293.914,454.818L294.755,455.13L294.941,454.277L294.474,452.088L293.4,452.13L293.12,451.42L293.213,449.433L293.633,448.197L294.801,439.58L295.455,438.69L297.231,438.351L297.791,437.227L296.857,437.418L295.268,435.782L295.128,434.463L295.549,432.394L296.483,430.129L297.744,429.422L299.099,427.256L301.388,425.063L301.575,423.835L302.463,421.828L302.229,420.856L302.836,420.141L302.696,419.21L303.303,418.386L302.369,418.386L301.855,419.08L301.855,419.903L300.874,421.05L299.566,421.72L297.791,422.304L296.81,422.973L295.455,423.447L295.222,423.9L293.306,424.503L291.251,425.816L287.561,427.385L286.346,427.278L285.038,426.139L284.804,424.568L283.87,423.512L282.002,422.692L282.095,421.699L282.609,421.331L283.029,417.714L282.469,417.779L281.301,419.968L279.385,421.137L279.105,422.39L279.339,423.641L278.965,424.439L278.311,424.697L278.171,425.386L278.591,427.106L279.339,429.058L280.226,430.685L279.012,432.544L277.704,432.992L275.742,432.309L273.92,428.865L271.724,424.396L270.51,422.822L269.435,421.915L267.987,421.634L268.735,420.228L267.987,419.275L266.819,419.47L266.539,421.353L265.838,421.202L265.885,422.606L264.53,423.253L263.409,421.547L263.549,420.985L262.662,420.574L262.148,421.223L261.4,421.093L261.354,419.817L260.326,420.206L259.158,418.885L259.999,417.865L259.205,415.932L257.149,417.062L255,418.625L253.552,419.968L252.618,422.023L252.011,420.791L250.329,421.504L245.938,424.18L245.471,425.063L245.471,426.117L243.555,426.934L243.182,427.492L242.154,427.707L241.453,428.651L240.519,428.972L240.332,427.793L238.977,426.827L236.455,427.256L235.1,426.547L237.389,425.537L238.09,426.375L238.93,426.117L239.164,425.042L240.332,423.383L240.472,422.088L240.098,420.25L240.145,418.495L239.398,416.888L239.631,416.432L238.884,415.997L237.529,413.884L236.595,410.848L237.949,408.043L238.93,407.538L240.052,405.801L241.173,405.229L240.472,403.531L239.631,402.56L238.93,401.145L238.463,398.774L236.128,395.172L235.987,393.521L234.82,392.024L234.352,390.614L232.951,388.708L232.484,387.72L231.456,387.518L230.942,388.349L230.849,390.009L231.129,390.838L230.755,392.092L230.195,392.561L228.934,392.784L228.093,392.315L227.205,393.521L225.523,394.169L223.188,395.684L219.777,396.752L215.667,397.375L212.163,397.153L209.78,396.307L209.173,395.595L208.566,393.388L209.64,392.986L208.799,391.443L206.277,390.054L204.782,387.63L204.548,386.866L203.007,385.718L202.166,384.32L200.204,384.139L198.756,383.191L196.56,380.702L197.635,379.976L198.756,378.728L198.662,377.91L197.541,377.774L195.766,379.001L193.524,378.774L192.776,377.615L193.29,376.887L194.785,376.864L197.448,373.946L197.915,374.037L198.709,373.009L197.962,372.231L197.775,371.292L199.27,370.742L198.008,370.582L198.242,368.975L199.503,367.181L198.709,367.112L197.868,368.217L196,367.25L195.719,366.329L196.747,365.199L198.008,365.338L198.896,364.807L198.896,363.768L198.102,364.253L196.7,363.513L195.953,362.264L196.046,361.731L195.112,361.569L194.505,360.758L194.038,361.082L193.477,363.375L192.823,363.513L191.048,363.143L190.581,362.657L190.114,361.129L190.16,358.133L189.646,357.69L187.638,357.458L186.797,356.596L186.33,354.308L188.292,353.279L188.572,352.39L187.778,351.312L186.376,350.584L184.274,351.218L184.274,352.296L183.293,351.757L182.873,349.692L183.247,346.23L183.527,345.971L183.433,348.492L187.731,347.386L187.731,346.938L186.096,346.466L185.162,345.805L184.041,343.868L184.134,343.442L185.816,342.992L188.385,343.181L189.927,342.589L188.572,339.408L188.385,338.313L188.525,336.31L189.506,334.469L194.224,327.792L194.411,327.092L195.673,325.232L197.027,323.755L197.261,322.057L198.102,320.428L199.083,319.601L199.97,319.698L200.391,319.138L199.877,316.331L201.092,311.723L201.932,310L203.708,308.496L202.867,307.904L203.054,307.36L205.763,304.067L208.566,302.925L210.808,302.652L212.77,303.77L214.779,304.042L216.274,306.124L217.395,306.272L217.675,306.915L220.198,309.088L223.608,308.496L226.458,305.431L226.645,304.266L228.7,303.546L231.643,299.266L232.717,297.042L233.792,296.066L233.371,294.612L234.025,294.486L235.333,295.189L236.361,295.314L236.968,297.242L239.398,297.242L241.5,296.742L242.714,297.242L246.311,296.541L248.554,295.59L248.974,294.311L251.59,291.092L253.365,287.683L253.365,285.885L252.805,283.828L251.73,281.41L250.936,278.32L250.889,275.295L250.656,273.958L247.339,269.91L246.919,269.083L245.003,268.358L243.742,268.332L244.209,265.816L245.471,264.958L246.125,265.608L247.76,266.128L250.142,265.946L249.675,264.776L251.123,264.516L253.038,262.406L253.132,259.427L251.17,256.227L248.974,254.438L247.806,253.173L247.76,254.016L246.498,255.28L245.564,257.54L243.602,258.327L241.64,257.225L238.884,259.662L235.1,260.552L234.259,262.406L230.288,265.088L229.307,266.906L229.074,269.471L227.018,271.279L226.831,268.875L226.131,266.024L225.056,264.724L223.748,264.802L223.935,263.917L222.44,262.719L222.02,261.78L220.245,263.344L220.992,264.516L221.973,264.698L222.72,265.712L223.842,265.426L223.935,266.673L222.907,268.772L222.02,269.057L220.992,266.932L218.423,264.958L216.507,264.1L213.518,263.761L211.602,264.464L210.341,264.152L207.912,264.074L205.81,264.646L200.765,267.554L198.055,267.995L192.87,266.076L188.479,264.906L186.283,264.542L182.172,263.501L179.883,261.44L178.949,258.929L178.995,256.989L179.93,256.043L179.649,254.359L178.341,252.698L176.239,251.218L176.193,249.657L174.044,247.96L173.577,246.472L175.398,247.349L176.94,247.269L177.36,246.551L178.482,246.152L179.229,245.301L179.089,243.835L180.724,242.205L178.949,240.52L178.061,240.278L176.706,240.707L174.885,240.305L171.895,238.911L167.036,238.347L164.747,236.949L162.972,235.252L160.403,233.633L158.254,232.822ZM145.501,560.669L146.762,560.169L146.716,559.075L147.556,559.075L148.024,558.407L148.024,557.348L149.005,556.734L149.238,555.674L148.771,555.376L149.285,553.754L151.434,551.774L152.181,552.26L153.442,551.961L154.751,552.017L154.33,550.801L153.769,550.708L154.19,549.265L153.91,548.778L154.751,547.351L156.619,546.092L159.142,545.395L160.496,546.393L161.945,546.374L162.038,546.806L161.057,548.196L161.291,549.322L158.721,551.101L155.685,552.447L154.797,553.679L154.751,554.351L153.442,555.86L152.742,556.939L151.574,557.125L150.266,558.444L149.565,558.759L149.378,559.705L148.678,559.316L147.416,560.224L144.894,561.502ZM142.698,562.611L144.053,561.705L144.006,562.537L142.792,562.999ZM136.298,558.184L136.485,557.255L137.373,556.957L137.559,557.775L137.139,558.611L136.578,558.759ZM135.924,475.936L138.26,476.2L139.615,476.098L140.082,476.383L138.821,477.763L137.746,477.682L137.326,476.748L136.392,476.545ZM136.111,555.99L136.485,556.716L135.784,556.474ZM133.122,561.021L133.916,560.706L134.99,560.761L134.897,560.409L136.158,559.983L137.046,560.169L137.513,560.632L136.719,562.574L135.317,561.65L134.149,562.186L133.262,561.927ZM131.72,559.835L132.094,559.353L133.168,559.65L133.215,560.224L132.561,560.798L131.954,560.502ZM130.786,563.683L130.973,562.352L132.514,562.685L132.187,563.738ZM127.703,462.794L128.123,461.907L129.151,461.597L129.711,461.803L131.066,461.349L130.973,462.505L129.478,463.783L129.244,463.144ZM122.33,566.319L122.564,565.545L124.433,564.218L125.881,564.716L125.928,565.213L125.32,566.282L124.433,566.245L123.638,566.724L122.938,567.606L122.237,567.22ZM118.22,566.65L118.64,567.239L117.893,567.202ZM116.117,568.598L116.912,567.827L117.659,568.507L117.098,569.516L116.211,569.535ZM109.25,294.311L109.344,293.381L110.512,291.192L110.371,289.301L110.745,288.846L110.512,287.405L111.493,287.329L111.866,288.391L111.68,289.604L112.24,290.461L115.23,291.897L118.827,293.105L121.396,293.607L124.106,291.419L126.815,289.957L129.525,290.31L130.879,292.048L131.954,292.426L132.654,295.038L132.561,295.991L135.037,297.392L137.653,297.742L138.681,298.542L139.101,299.415L140.783,299.914L144.894,300.413L145.548,300.263L150.313,301.633L149.051,304.886L148.024,305.951L145.641,305.084L143.632,305.109L141.297,305.827L139.241,308.027L138.774,309.532L138.821,310.837L137.886,311.968L136.485,311.428L136.625,310.837L135.411,307.904L133.916,306.371L131.58,304.886L129.758,305.009L129.244,303.298L128.45,301.931L125.928,299.939L121.91,298.217L118.874,297.942L116.678,299.041L115.837,300.487L114.155,301.334L112.847,300.512L110.558,299.615L109.437,297.542L109.11,296.141ZM99.067,572.758L99.767,571.679L101.309,570.781L101.869,570.818L103.131,571.532L103.084,572.282L101.776,573.215L100.281,573.708L99.253,573.726ZM93.321,378.887L93.601,377.319L94.769,376.135L95.283,376.204L95.096,377.524L95.656,378.751L97.198,380.339L99.44,381.766L100.468,382.083L101.636,381.789L104.299,383.913L103.318,384.342L102.897,383.507L100.515,383.326L99.3,383.71L97.759,382.671L95.049,379.591ZM92.947,373.671L93.321,373.786L93.554,375.702L92.62,374.744ZM80.521,576.28L82.156,576.28L83.697,576.844L84.118,576.298L84.772,576.334L86.313,575.843L87.481,575.861L87.201,576.371L87.668,576.899L88.042,576.626L89.49,577.063L90.564,576.771L91.032,576.972L92.526,576.771L92.76,576.99L94.675,577.117L93.507,577.536L92.76,577.427L92.106,577.827L90.051,577.845L89.023,578.481L88.649,578.19L87.902,578.536L87.014,578.463L86.173,578.009L83.744,577.954L83.324,578.227L81.969,577.881L81.502,576.99L80.988,577.008ZM63.844,578.518L66.413,577.845L66.927,578.354L68.095,577.445L68.235,577.845L69.122,577.154L69.356,576.626L70.197,577.154L71.458,577.008L71.832,576.389L72.112,576.826L73.747,576.152L73.794,575.387L75.849,575.204L75.242,574.457L77.251,574.548L77.858,573.927L77.811,573.27L76.316,573.142L75.242,572.612L75.476,572.136L76.457,572.429L77.017,571.77L76.924,571.056L78.699,570.213L80.24,570.8L81.268,572.191L81.315,572.758L80.334,574.311L78.746,574.165L78.559,574.949L80.1,576.389L79.96,576.826L79.259,576.444L78.465,576.626L78.278,577.117L77.531,577.19L76.597,576.771L75.709,578.499L74.541,577.936L71.552,578.935L70.944,578.408L69.59,578.19L68.515,578.299L67.908,578.935L66.88,579.081L65.338,578.972ZM61.461,579.462L62.255,579.153L62.582,579.68L61.555,579.752ZM61.087,575.204L61.835,575.551L61.321,575.77ZM58.471,579.789L58.705,579.625L60.574,579.68L60.62,580.152L59.733,580.097L58.705,580.532ZM55.715,579.444L56.229,579.19L57.537,579.208L58.238,580.841L57.49,580.75L56.696,579.861ZM52.492,577.427L53.146,576.608L54.36,576.771L55.435,578.227L54.501,578.917L55.201,579.934L54.594,580.551L53.753,580.587L52.912,580.188L53.052,579.153L52.725,579.117L52.352,577.718ZM52.025,582.76L52.258,581.747L52.819,581.565L53.286,582.054L54.174,581.873L53.613,581.475L55.201,580.931L55.669,581.348L55.575,582.344L54.501,582.344L55.108,583.285L53.753,582.76L53.847,583.483L53.286,583.266L53.052,583.971L52.725,583.158ZM42.215,586.894L42.729,585.686L43.429,585.398L43.756,584.748L43.149,583.556L43.336,583.068L44.831,582.941L45.158,581.873L44.55,580.623L45.018,579.807L45.718,579.734L46.559,580.097L47.447,579.026L47.867,579.28L48.007,580.623L47.073,581.149L46.98,582.054L47.587,582.416L48.474,582.344L49.923,581.873L51.324,581.783L51.651,582.941L51.324,584.531L50.623,584.748L48.942,584.423L48.334,585.362L47.493,585.578L46.886,586.317L45.812,585.758L45.531,586.209L45.812,587.074L45.298,586.768L44.691,587.236L44.504,586.245L43.85,585.722L42.962,587.668L42.308,587.47ZM36.048,580.913L36.656,580.75L36.749,581.221L36.095,581.529ZM32.918,585.253L33.759,584.658L34.88,584.965L36.095,584.351L38.431,583.646L39.412,582.869L39.505,580.551L40.066,580.26L40.813,580.442L41.514,581.239L40.299,583.013L40.533,584.567L40.206,585.253L38.664,585.812L36.983,584.712L35.721,585.307L33.853,585.488L33.806,586.263L33.339,586.173ZM26.145,581.62L26.519,581.094L27.873,580.786L29.695,580.877L30.209,581.638L30.116,582.181L31.003,582.76L31.704,582.453L32.545,582.76L34.086,582.145L33.619,582.869L31.704,583.447L31.143,584.73L31.33,585.289L30.77,585.849L30.396,585.56L29.975,586.353L30.349,587.38L29.975,587.47L29.555,586.461L28.901,586.894L28.154,586.029L27.546,585.885L27.733,585.38L29.648,584.928L29.508,583.773L28.574,583.755L27.967,583.14L26.145,581.946ZM20.212,587.326L21.707,587.542L21.567,587.866L20.305,587.74ZM17.923,587.992L19.184,588.298L19.511,588.711L18.343,588.621ZM17.736,583.411L18.39,582.471L19.324,583.104L19.324,584.206L18.437,584.387ZM16.148,592.085L16.522,591.637L16.989,592.031L17.222,592.927L16.662,592.962L16.195,593.535ZM14.279,594.071L14.84,593.75L15.12,594.804L14.279,595.25ZM4681.737,579.462L4682.298,579.498L4682.858,578.863L4684.073,578.608L4685.521,579.716L4685.101,580.949L4683.98,581.71L4683.419,581.801L4682.251,581.276L4681.737,580.75ZM4670.572,586.732L4670.806,586.299L4672.021,586.822L4672.908,586.768L4674.17,587.2L4674.356,587.758L4675.478,588.513L4676.739,589.915L4677.907,590.382L4678.421,591.404L4680.476,591.601L4681.457,592.192L4680.616,592.533L4680.196,592.282L4678.841,592.569L4678.14,591.834L4676.225,590.543L4674.824,588.729L4673.422,587.956L4672.628,588.1L4671.6,587.65ZM4668.237,579.553L4668.657,579.353L4669.591,579.643L4670.105,580.242L4669.451,581.131L4668.984,581.203ZM4665.527,582.724L4666.415,582.851L4667.396,584.062L4666.368,583.791ZM4663.659,578.39L4663.986,577.99L4664.78,578.39L4664.92,579.008L4664.126,579.371ZM4652.073,581.276L4653.195,580.786L4653.895,579.879L4655.717,579.407L4655.997,578.263L4656.745,576.517L4657.259,576.189L4658.193,577.135L4657.632,577.718L4657.259,578.754L4656.324,579.716L4657.305,580.043L4657.305,580.677L4656.698,580.859L4654.736,580.551L4653.942,581.112L4653.755,582.38L4653.241,582.344L4652.073,581.62ZM4634.742,571.221L4635.957,571.459L4635.116,571.953ZM4611.245,563.424L4612.272,563.572L4612.413,564.052L4611.291,563.775ZM4609.75,563.073L4610.404,563.221L4610.404,563.756ZM4608.629,562.556L4609.563,563.055L4609.002,563.092ZM4601.995,570.488L4602.276,569.92L4603.163,569.424L4604.238,569.535L4605.452,568.305L4607.367,568.213L4606.573,568.947L4606.34,569.626L4606.807,571.532L4605.826,571.532L4605.032,570.58L4603.397,570.928ZM4590.317,559.279L4592.512,557.682L4594.054,557.478L4598.725,557.849L4600.08,559.019L4601.201,559.297L4602.836,561.039L4602.93,561.372L4601.294,561.52L4600.313,560.817L4599.519,562.131L4599.099,562.371L4597.324,562.094L4596.109,562.851L4594.848,562.26L4594.287,561.52L4594.147,560.354L4592.652,559.316L4591.017,559.761ZM637.641,511.319L638.061,510.869L638.529,511.417L638.295,512.432L637.548,511.768ZM634.464,514.537L637.314,513.446L637.641,515.004L638.248,515.277L637.314,516.598L636.193,516.618L634.651,515.393ZM632.689,514.634L633.904,513.368L634.277,513.855L633.063,514.985ZM632.362,512.608L633.11,511.397L633.016,510.557L633.623,510.165L632.969,509.324L632.876,507.952L633.11,507.187L633.623,507.01L634.511,507.638L634.745,508.325L635.352,508.462L636.146,509.246L636.146,512.471L635.726,513.134L634.464,513.173L633.857,512.549L632.783,513.251ZM629.466,505.104L629.653,503.805L629.933,503.785L632.362,506.441L631.802,506.991L631.755,508.325L631.054,510.498L629.98,509.05L629.559,506.834ZM621.384,478.634L621.571,477.662L621.991,478.27ZM620.45,481.567L620.543,480.981L621.524,480.173L622.505,480.941L622.459,481.385L621.337,482.132ZM619.282,479.121L620.216,478.452L621.01,477.398L620.777,478.412L619.936,479.93ZM616.199,513.992L617.04,513.875L616.853,514.907ZM614.424,485.074L614.751,484.007L615.218,484.49L616.246,486.441L616.713,487.805L616.105,488.106L615.124,486.882L614.704,486.802ZM613.863,482.092L614.704,480.355L615.685,479.748L617.086,480.153L618.208,479.708L619.516,480.557L619.702,481.284L618.862,482.354L619.142,484.007L618.394,484.39L616.339,484.833L615.265,483.524L614.143,482.939ZM610.593,503.687L611.574,503.155L611.481,504.061L610.733,504.278ZM607.416,516.385L607.837,516.385L608.304,518.868L607.603,518.306ZM606.202,499.104L606.622,498.648L606.669,497.439L607.603,498.034L607.65,498.668L606.622,500.094ZM605.501,497.975L606.062,497.796L606.015,498.51ZM604.473,502.957L604.847,501.141L605.221,500.647L606.716,500.825L607.183,501.141L607.089,501.833L606.342,502.662L606.716,502.977L607.65,502.188L607.884,501.339L608.491,501.714L609.379,500.371L610.266,500.41L611.014,501.181L610.78,502.366L610.079,503.056L609.192,502.76L608.584,503.45L609.379,503.884L609.285,504.612L608.257,505.026L607.23,506.009L606.809,507.913L605.735,506.382L606.529,505.183L606.482,503.647L605.127,502.642ZM604.1,491.268L604.614,490.828L605.735,488.787L607.043,488.587L607.557,488.186L606.529,487.926L606.482,486.983L607.183,487.424L607.603,486.742L605.922,485.496L606.576,484.913L606.108,483.181L607.183,482.193L609.285,482.677L612.602,483.02L613.723,484.672L614.237,486.139L614.003,487.524L614.657,487.645L615.265,489.008L616.059,489.968L616.853,489.868L619.516,492.246L620.076,493.283L621.618,495.493L621.758,497.994L623.113,498.569L623.486,500.193L623.86,500.825L625.308,501.813L625.916,502.957L625.448,503.076L624.561,502.168L621.057,500.232L620.917,500.845L619.843,502.306L620.356,502.464L621.01,501.537L621.384,501.912L622.459,501.714L622.692,502.445L623.627,502.701L624.094,503.273L622.318,503.549L622.692,504.258L624.187,503.844L624.841,504.868L625.589,505.144L626.102,506.853L626.476,507.03L625.916,507.991L624.981,507.815L625.075,508.442L626.102,508.873L626.616,508.717L626.756,507.815L627.41,507.109L627.831,507.521L628.064,509.304L627.364,509.97L627.551,510.674L626.523,512.51L625.168,513.29L626.009,513.738L627.27,512.588L627.971,512.783L627.971,516.734L628.298,518.132L627.364,520.166L625.635,520.34L624.421,519.411L623.767,519.779L622.972,519.043L622.926,518.326L621.151,518.364L621.945,517.336L623.206,517.53L623.253,516.773L622.365,515.957L621.478,515.704L619.843,514.186L620.263,513.446L620.73,511.202L620.029,511.026L619.516,512.159L619.843,510.185L620.216,509.637L619.702,508.873L619.469,509.95L618.208,510.361L618.862,512.373L618.021,513.505L615.825,512.412L615.638,511.729L616.432,510.596L615.592,508.638L614.657,508.736L614.19,507.756L613.209,507.697L613.77,509.226L614.611,510.498L614.891,511.905L614.564,512.608L615.265,512.939L616.199,515.763L617.32,516.268L617.133,515.14L618.254,514.79L619.562,516.054L619.749,518.461L619.095,518.771L618.254,517.336L617.927,517.472L619.002,520.765L617.647,520.765L616.432,520.146L616.339,518.985L615.405,518.209L613.116,514.771L612.649,514.342L612.555,512.705L611.995,512.51L611.621,511.319L612.976,511.163L611.714,510.518L611.854,508.187L610.313,508.736L609.846,508.227L609.005,508.599L608.584,507.776L608.865,506.127L610.406,505.537L610.92,506.775L611.714,506.382L611.107,505.812L611.387,505.045L612.041,504.652L612.695,504.927L613.723,504.061L612.368,502.168L613.022,501.931L612.275,501.3L612.462,499.995L611.341,500.41L609.052,498.688L608.865,498.133L609.612,498.153L609.192,497.161L609.332,496.466L608.07,496.109L608.351,497.241L607.884,497.499L606.389,496.725L605.641,495.572L606.202,494.538L607.51,494.259L609.238,495.334L610.546,494.637L609.752,493.303L608.911,492.984L608.351,493.383L607.93,493.044L608.304,492.446L608.211,491.607L608.538,490.348L608.304,490.028L607.697,490.968L606.435,492.266L605.408,492.924L604.333,492.166ZM603.259,459.633L603.96,459.115L604.614,459.798L603.352,460.44ZM602.465,492.466L603.119,491.907L603.633,492.027L603.819,493.064L603.446,494.02L602.979,493.96ZM596.952,492.505L598.26,492.066L598.307,492.924L599.755,492.266L600.129,490.768L600.456,490.808L600.036,492.825L599.008,493.303L598.074,494.418L597.233,494.08L597.606,493.482ZM596.345,470.473L597.139,469.41L597.887,469.062L598.214,468.386L599.755,468.406L599.802,467.873L601.11,468.693L601.624,470.392L602.465,471.495L603.913,471.536L604.333,471.965L604.8,471.434L603.446,470.535L602.838,468.898L602.745,467.77L601.11,466.149L601.624,465.059L603.212,464.524L605.595,465.286L606.762,465.471L608.958,466.375L610.406,466.786L610.733,466.498L613.396,466.724L614.797,468.242L615.451,469.921L615.592,471.066L616.012,471.536L617.086,471.76L617.834,472.74L618.067,473.678L619.609,474.736L620.029,476.038L620.73,476.728L619.282,477.499L618.348,478.351L617.133,478.837L616.386,478.513L614.938,478.432L612.929,477.945L613.162,478.918L612.088,479.95L610.219,479.444L609.332,478.857L608.771,479.809L608.07,480.213L606.903,480.254L606.108,479.95L605.968,478.189L605.454,477.54L604.053,478.837L604.66,479.424L604.567,481.244L603.492,481.305L603.399,481.931L603.866,482.959L603.352,483.987L603.259,485.235L602.465,486.24L602.652,487.023L602.231,488.306L601.764,488.527L600.596,488.226L599.942,490.288L599.241,489.908L598.681,488.867L598.354,487.605L598.307,485.416L597.84,483.665L597.933,482.153L598.587,481.183L598.447,480.031L599.148,477.986L598.587,477.418L597.56,477.438L597.793,475.875L596.859,474.736L596.485,473.209L596.579,472.332ZM589.244,432.651L591.253,434.697L591.58,435.697L592.234,435.888L592.608,438.648L593.495,438.627L594.476,437.821L594.99,438.309L595.925,438.351L596.906,438.966L599.428,438.69L599.288,440.575L600.456,442.159L600.549,443.256L601.53,444.352L602.184,446.182L602.979,447.337L603.072,450.312L604.053,451.566L604.24,452.923L603.819,452.964L603.586,451.984L601.811,449.475L601.344,447.064L600.456,446.287L600.036,445.173L599.055,445.173L600.269,447.295L600.456,448.008L599.849,448.491L601.484,451.023L602.558,452.046L602.465,453.34L603.586,455.692L602.698,455.567L603.399,457.685L603.399,458.245L602.231,459.529L601.297,458.991L600.503,459.012L600.69,459.716L599.709,461.865L597.933,463.577L596.812,464.092L596.719,464.771L595.271,466.108L593.916,466.046L593.495,464.216L593.309,461.432L594.29,459.778L594.99,459.302L594.243,458.66L594.196,457.229L594.85,457.104L595.411,457.913L595.691,457.436L593.822,454.506L593.776,453.298L592.935,452.046L592.701,450.333L592.187,449.433L592.561,446.812L592.001,445.11L591.86,443.109L591.347,441.188L591.533,440.257L590.599,438.288L589.805,437.333L589.385,435.697L589.104,433.546ZM588.357,429.765L589.992,430.728L591.253,433.397L590.786,433.504L589.758,431.049L588.684,430.642ZM584.153,417.214L584.853,418.755L584.853,419.752L584.386,419.123ZM579.668,458.142L580.415,457.913L580.462,457.374L581.77,456.024L581.583,454.61L583.265,453.277L584.106,453.527L585.274,455.297L585.974,455.089L586.815,456.295L587.89,456.793L589.665,456.71L590.693,457.001L591.253,458.639L591.16,459.654L590.225,458.929L589.338,458.97L589.291,459.426L590.272,459.943L590.786,460.894L592.141,466.621L592.094,468.078L592.655,469.225L592.655,470.412L593.495,473.311L593.729,475.489L593.495,477.763L592.982,477.743L593.355,479.384L593.495,484.229L593.075,486.461L592.561,486.34L591.253,484.933L590.786,483.201L589.805,482.011L587.936,477.722L588.123,476.748L589.151,476.281L588.31,475.672L587.096,476.302L586.442,474.512L585.928,474.818L585.134,473.963L584.573,472.842L584.666,472.148L584.012,472.597L583.545,472.107L582.144,472.067L581.256,470.105L582.144,470.044L582.611,470.637L583.078,470.371L582.938,468.222L583.826,467.135L584.106,466.354L582.284,464.586L583.405,463.289L583.218,462.835L583.872,462.113L584.059,461.018L582.518,460.688L581.537,461.266L580.883,459.633ZM579.247,433.61L579.995,433.227L580.883,433.376L581.63,434.484L580.275,434.612ZM577.612,461.08L577.799,460.088L577.659,458.722L578.827,458.535L580.415,459.819L581.116,461.349L581.677,461.741L582.471,461.122L583.545,461.328L582.798,463.021L581.677,463.309L580.415,466.621L579.855,466.498L577.986,467.114L577.566,466.95L577.706,464.854L578.874,463.886L578.92,462.856L577.893,462.773L577.986,462.175L577.379,461.535ZM573.688,427.836L574.109,427.535L574.436,428.801ZM573.688,435.633L575.09,434.761L575.23,435.888L574.483,436.292ZM568.223,444.415L568.456,440.744L569.204,440.046L569.578,440.236L570.932,438.966L571.072,437.885L570.512,435.931L572.007,435.973L572.007,437.121L572.567,438.394L573.875,437.099L575.23,437.227L576.024,437.651L576.818,436.611L578.5,435.548L579.154,436.717L581.069,437.354L582.237,438.478L581.677,440.13L580.228,441.737L580.415,442.771L580.976,442.877L581.35,441.61L582.845,439.326L583.545,439.072L585.134,440.236L587.282,440.448L587.796,441.124L589.151,441.462L589.852,443.13L589.665,444.541L588.637,445.467L586.909,444.436L586.442,444.605L587.002,445.446L587.843,445.825L589.385,447.4L588.404,448.008L587.236,448.05L587.423,448.637L588.404,448.91L589.478,448.407L589.805,450.396L590.459,451.838L591.02,454.818L590.366,455.692L588.404,455.92L587.609,455.671L585.554,453.694L582.518,451.629L581.256,450.584L580.228,451.127L579.808,450.521L579.621,451.19L581.023,452.339L582.05,452.505L581.069,453.152L581.35,453.673L581.35,455.172L580.929,456.211L579.481,458.017L577.099,457.042L577.052,456.253L575.09,454.485L574.156,452.61L573.595,453.402L572.707,452.505L572.24,450.856L572.427,450.333L571.586,448.532L571.68,448.029L570.932,446.833L569.718,446.203L569.391,445.173ZM450.034,382.445L451.342,382.761L451.903,383.755L450.642,383.959ZM445.41,381.698L446.157,381.381L448.867,381.97L448.726,382.671L447.745,382.897ZM428.359,368.837L429.573,368.033L430.835,367.964L431.535,368.332L430.695,369.549ZM426.023,374.881L426.21,372.917L427.518,372.551L428.499,374.585L427.985,375.588L426.257,375.816ZM425.976,385.447L426.07,385.132L428.079,384.071L428.125,384.884L426.257,386.213ZM420.464,397.686L420.838,397.219L420.978,395.64L422.052,395.372L421.912,394.436L422.893,393.231L423.641,393.075L423.5,392.159L424.902,391.398L425.322,390.726L427.331,389.045L428.359,386.393L429.62,385.402L429.48,384.5L429.947,382.897L431.208,382.128L431.395,383.1L432.516,383.055L431.722,384.207L432.143,384.59L433.264,383.959L433.638,384.455L433.124,385.289L430.227,387.945L427.938,390.838L427.565,392.628L426.023,393.968L427.425,395.239L426.537,396.174L425.463,396.352L424.435,396.018L423.641,397.286L423.22,397.153L421.118,398.197ZM420.184,385.695L422.239,379.591L422.753,380.521L423.314,380.226L423.127,378.728L425.182,376.818L425.182,378.047L424.622,378.774L424.482,380.634L423.547,381.472L424.482,382.422L423.36,384.613L423.454,385.65L422.66,387.99L421.538,386.978L421.398,386.416L420.23,386.258ZM419.249,372.986L419.95,372.277L420.744,372.711L421.538,373.808L420.417,374.836Z" fill="#f08a24" stroke="#ffffff" stroke-width="1.75" stroke-linejoin="round"/></svg>