<svg xmlns="http://www.w3.org/2000/svg" viewBox="0 0 800 600" width="800" height="600" role="img" aria-label="Delaware highlighted on a regional map"><rect width="800" height="600" fill="#aacbe6"/><g stroke="#ffffff" stroke-width="1.5" stroke-linejoin="round"><path d="M-282.02,1049.682L-272.651,1048.244L-272.483,1047.085L-270.141,1048.94L-271.647,1050.238L-273.32,1049.496L-276.331,1049.589L-279.678,1050.377ZM-275.997,786.115L-275.997,785.381L-250.9,785.675L-240.359,785.675L-213.589,786.31L-198.029,786.408L-191.838,786.31L-165.235,786.506L-155.029,786.75L-152.519,802.413L-148.671,823.944L-145.659,842.286L-143.484,856.466L-140.975,871.421L-135.453,905.534L-133.948,907.06L-134.617,908.775L-132.442,910.919L-131.605,918.01L-129.932,921.433L-127.088,924.711L-126.586,928.604L-125.08,930.312L-126.753,935.86L-123.741,937.186L-121.734,939.081L-123.407,941.543L-125.247,941.543L-124.913,942.679L-127.255,943.672L-129.43,946.132L-128.928,948.78L-129.263,952.843L-130.434,956.903L-132.776,960.299L-133.278,962.421L-132.274,968.262L-132.609,970.334L-129.43,974.427L-128.928,980.067L-130.099,982.743L-129.765,984.762L-131.103,988.515L-130.936,992.219L-132.107,993.203L-131.271,995.592L-131.772,998.12L-128.426,1002.378L-127.255,1005.37L-126.92,1008.221L-138.13,1008.221L-150.01,1008.454L-168.414,1008.641L-197.527,1008.641L-220.114,1008.314L-247.888,1008.408L-247.386,1010.183L-249.561,1015.55L-249.227,1016.623L-245.378,1020.307L-244.877,1022.217L-238.853,1025.943L-238.351,1029.155L-240.861,1033.899L-240.359,1036.455L-237.013,1038.825L-240.024,1040.45L-241.363,1044.256L-242.869,1044.952L-241.698,1046.065L-244.207,1047.271L-250.565,1048.894L-257.258,1050.006L-266.627,1050.191L-263.616,1048.291L-261.608,1049.496L-255.752,1048.244L-255.25,1046.668L-257.76,1044.441L-258.931,1042.446L-262.277,1040.264L-263.448,1036.084L-261.943,1032.644L-262.444,1029.108L-263.616,1026.874L-266.962,1025.385L-269.472,1027.526L-269.137,1029.295L-270.643,1031.946L-270.476,1033.853L-271.479,1035.34L-271.647,1042.028L-272.985,1045.091L-275.495,1045.276L-275.328,1043.606L-278.674,1041.75L-281.184,1042.492L-282.02,1041.425L-285.032,1042.446L-285.534,1032.132L-286.036,1015.504L-287.04,995.732L-288.713,959.403L-287.207,946.037L-283.693,912.348L-282.857,902.243L-277.335,848.513L-276.331,840.788L-273.153,809.617L-271.145,791.977L-273.822,790.268Z" fill="#e7e2d8"/><path d="M71.346,1332.574L73.689,1329.925L74.525,1331.382L72.183,1333.324ZM66.662,1335.354L68.167,1333.633L70.008,1333.457L69.171,1334.913ZM53.946,1340.293L62.646,1336.324L63.65,1337.647L56.121,1341.174ZM21.822,1347.386L25.001,1342.717L28.347,1340.689L32.53,1338.794L33.032,1337.78L39.055,1334.869L45.413,1337.824L46.082,1340.116L48.424,1342.012L47.755,1342.496L41.063,1344.611L40.561,1343.422L36.043,1343.642L35.541,1344.699L27.845,1347.914L21.822,1348.574ZM12.452,1348.706L18.977,1347.65L17.304,1349.543L14.46,1350.159L12.285,1349.807ZM5.425,1347.694L6.429,1346.153L8.436,1346.593L7.6,1348.398ZM0.74,1237.268L1.577,1238.075L4.756,1247.524L6.094,1248.777L8.938,1249.94L10.11,1249.179L12.452,1250.119L10.11,1251.505L8.604,1251.55L5.09,1249.314L3.919,1248.061L1.744,1242.913L0.74,1239.509ZM-30.38,1344.127L-27.871,1343.554L-27.201,1344.567L-30.548,1345.008ZM-111.36,1073.406L-106.508,1071.237L-106.508,1072.576L-109.185,1074.283L-111.026,1074.56ZM-126.92,1008.221L-125.916,1011.91L-124.076,1014.337L-123.741,1018.209L-122.738,1021.705L-120.395,1023.941L-97.64,1025.105L-53.972,1027.712L-19.505,1030.086L3.082,1031.667L2.246,1032.318L2.58,1034.968L3.752,1036.176L3.25,1039.475L5.09,1043.003L11.281,1042.4L11.281,1038.917L12.285,1036.734L12.787,1031.202L10.779,1026.968L11.448,1024.174L11.281,1021.891L12.619,1021.146L11.95,1020.027L13.958,1020.4L15.464,1017.649L17.973,1017.976L19.145,1019.514L21.989,1019.654L25.001,1020.959L26.172,1022.124L31.693,1023.009L34.537,1023.848L36.88,1023.149L39.055,1024.034L39.724,1024.64L39.055,1029.899L39.557,1034.178L38.888,1035.201L40.561,1036.362L41.23,1040.775L41.397,1046.019L45.245,1064.031L47.421,1069.99L47.421,1072.345L52.105,1086.265L57.459,1099.507L62.311,1110.013L73.187,1128.865L79.545,1137.993L80.214,1140.865L81.887,1144.647L78.876,1147.243L78.206,1149.701L78.039,1153.659L78.876,1159.567L79.879,1163.927L82.556,1170.505L88.412,1182.689L90.922,1190.195L91.759,1193.989L92.595,1195.298L94.436,1201.615L97.28,1208.466L98.786,1211.438L99.79,1215.669L101.965,1220.57L104.809,1232.156L104.642,1242.689L103.471,1250.521L102.634,1259.906L102.132,1261.558L100.794,1274.312L100.794,1281.837L100.292,1285.395L99.12,1288.996L99.12,1290.951L98.117,1289.929L98.619,1287.663L97.782,1286.773L95.105,1287.885L93.432,1292.417L92.428,1293.172L92.261,1296.014L90.922,1297.789L90.587,1301.25L91.424,1302.713L91.089,1304.753L92.093,1305.462L90.755,1307.811L89.416,1308.387L89.249,1310.557L92.763,1308.83L96.945,1300.23L98.117,1298.41L98.117,1300.23L96.778,1303.91L91.089,1313.745L89.584,1317.374L85.401,1321.487L79.712,1327.629L75.697,1330.544L75.195,1330.014L80.883,1324.625L83.226,1322.857L84.397,1320.514L84.899,1316.931L85.735,1315.515L84.732,1314.498L83.226,1314.984L82.054,1313.834L81.051,1314.63L75.362,1315.604L73.02,1317.418L71.514,1317.684L68.502,1315.692L65.49,1316.268L64.319,1318.082L59.802,1318.878L55.954,1319.143L53.109,1316.843L51.771,1313.834L52.105,1310.336L53.109,1307.678L54.113,1307.811L53.778,1305.639L51.771,1301.338L49.93,1299.254L50.265,1297.745L48.926,1294.993L47.086,1293.572L46.249,1289.796L45.245,1288.996L43.405,1289.663L41.899,1285.173L37.884,1283.794L37.716,1283.082L34.203,1281.392L30.689,1278.944L28.849,1279.522L27.51,1281.258L24.833,1275.649L22.323,1269.053L21.487,1261.335L20.316,1256.467L19.145,1253.919L14.46,1248.866L12.619,1248.464L12.452,1246.137L10.444,1245.107L10.444,1247.972L8.102,1248.464L7.935,1245.51L6.596,1240.45L4.588,1238.165L5.09,1237.089L7.265,1237.223L8.771,1238.971L10.612,1231.842L10.277,1227.982L8.938,1227.354L8.938,1225.558L10.277,1225.109L9.608,1223.716L7.6,1223.896L6.763,1225.378L4.923,1225.872L6.261,1232.515L4.756,1233.412L1.409,1233.906L0.573,1236.148L0.573,1232.784L-0.431,1230.541L-3.276,1226.321L-7.626,1218.367L-9.131,1214.139L-12.31,1207.835L-16.828,1201.119L-19.17,1198.593L-19.84,1195.976L-21.513,1193.221L-19.84,1194.079L-19.672,1195.434L-17.163,1194.079L-15.489,1190.827L-13.482,1189.562L-11.307,1185.132L-9.131,1183.594L-9.466,1182.553L-7.124,1181.377L-5.283,1177.574L-6.12,1174.177L-9.801,1173.225L-8.964,1178.344L-12.645,1176.985L-11.641,1175.445L-11.809,1172.5L-12.645,1170.732L-19.003,1167.512L-18.836,1170.46L-20.676,1171.729L-18.836,1173.406L-16.159,1173.678L-14.318,1178.661L-15.991,1180.562L-15.991,1183.368L-16.661,1184.589L-20.174,1184.86L-20.676,1186.307L-19.505,1188.025L-21.011,1189.381L-21.68,1187.573L-21.345,1183.82L-23.688,1179.974L-25.194,1178.797L-26.532,1176.17L-25.528,1167.92L-26.365,1164.926L-27.034,1157.477L-25.528,1157.432L-25.528,1161.657L-24.859,1165.697L-23.353,1166.015L-24.022,1159.068L-22.517,1157.386L-22.349,1155.523L-21.011,1153.522L-21.011,1151.794L-19.84,1149.519L-19.84,1147.744L-18.334,1145.604L-18.166,1141.458L-17.33,1137.674L-18.334,1134.663L-17.999,1132.107L-20.174,1130.783L-19.505,1128.865L-21.011,1123.884L-19.003,1120.957L-22.517,1115.923L-22.015,1114.503L-23.353,1111.984L-25.026,1111.846L-24.19,1110.334L-24.357,1108.088L-25.528,1107.492L-33.392,1106.437L-34.898,1108.776L-36.069,1108.959L-37.575,1104.373L-37.073,1102.308L-39.415,1100.839L-41.423,1100.425L-41.758,1097.532L-42.929,1094.867L-44.769,1092.798L-47.279,1092.522L-48.116,1090.499L-52.131,1088.29L-52.131,1083.18L-52.8,1080.093L-54.808,1079.77L-56.481,1078.019L-58.656,1077.235L-60.831,1074.421L-60.831,1072.483L-62.337,1070.868L-63.174,1068.513L-65.516,1066.48L-70.201,1063.615L-76.894,1060.285L-81.244,1056.815L-83.084,1056.907L-87.434,1058.434L-92.621,1057.092L-92.788,1058.712L-97.139,1061.904L-95.633,1066.48L-96.135,1067.774L-97.808,1068.097L-100.317,1067.404L-101.154,1066.203L-105.17,1067.219L-110.356,1070.591L-121.232,1076.681L-122.236,1076.589L-121.064,1074.56L-122.738,1074.006L-123.909,1075.805L-126.418,1077.696L-132.442,1077.65L-130.267,1079.909L-129.932,1081.66L-127.255,1082.673L-122.236,1080.231L-117.383,1078.388L-112.866,1074.514L-112.364,1075.113L-116.38,1078.895L-121.064,1080.876L-126.92,1083.917L-128.928,1084.562L-130.601,1083.042L-133.278,1082.028L-137.126,1079.678L-140.305,1079.356L-143.15,1080.646L-145.325,1076.313L-146.161,1070.821L-144.823,1068.882L-144.823,1073.729L-143.819,1077.926L-142.648,1078.941L-140.975,1077.143L-140.807,1072.668L-143.652,1067.82L-146.663,1065.048L-149.508,1064.447L-152.017,1062.598L-154.694,1059.314L-159.212,1057.139L-162.893,1053.944L-169.753,1049.542L-177.616,1046.019L-187.321,1042.771L-192.507,1041.843L-202.881,1041.007L-208.402,1041.239L-216.266,1042.4L-227.141,1044.673L-232.495,1045.369L-233.666,1044.905L-244.207,1047.271L-241.698,1046.065L-242.869,1044.952L-241.363,1044.256L-240.024,1040.45L-237.013,1038.825L-240.359,1036.455L-240.861,1033.899L-238.351,1029.155L-238.853,1025.943L-244.877,1022.217L-245.378,1020.307L-249.227,1016.623L-249.561,1015.55L-247.386,1010.183L-247.888,1008.408L-220.114,1008.314L-197.527,1008.641L-168.414,1008.641L-150.01,1008.454L-138.13,1008.221Z" fill="#e7e2d8"/><path d="M-155.029,786.75L-148.504,786.848L-125.749,786.555L-95.131,786.506L-62.337,786.604L-62.505,786.31L-38.579,785.821L-39.081,789.34L-44.267,792.66L-48.618,797.783L-48.45,799.538L-49.789,800.805L-49.287,803.923L-44.267,807.914L-41.423,808.255L-37.575,813.312L-33.727,815.79L-29.042,815.013L-27.703,815.596L-26.365,818.704L-25.863,821.809L-23.855,823.265L-23.353,825.689L-21.513,828.209L-21.513,830.679L-20.342,833.971L-18.334,835.132L-16.995,838.372L-14.653,840.692L-12.812,845.57L-11.307,845.618L-8.128,849.092L-3.276,851.6L1.577,856.322L2.246,859.259L3.752,861.232L3.919,863.156L6.094,864.983L8.102,865.08L10.946,866.858L13.958,871.325L16.468,872.574L17.137,873.725L15.966,875.789L16.635,877.659L15.966,879.193L20.65,883.122L19.981,884.559L22.156,886.57L23.997,886.33L23.662,888.292L25.001,890.445L29.518,893.075L31.024,893.027L33.701,895.798L36.88,897.852L36.043,901.051L38.051,904.104L38.386,906.44L39.891,907.155L39.891,911.205L40.561,912.728L39.724,914.87L40.728,915.251L41.397,917.535L40.561,919.484L42.568,921.766L46.751,923.001L46.751,924.094L50.6,927.94L49.93,929.553L52.44,934.533L53.109,934.343L54.113,937.944L52.44,940.028L54.28,943.199L53.611,944.429L54.448,947.361L57.961,948.969L59.802,948.165L63.483,951.52L64.988,951.709L66.996,952.276L66.16,955.298L63.817,956.667L62.144,955.959L61.14,958.224L62.813,958.601L60.136,961.431L56.623,960.346L56.121,962.986L57.961,963.505L56.455,966.285L53.611,968.827L50.767,968.215L50.265,968.969L52.273,970.522L53.611,970.287L53.444,974.238L52.273,977.153L47.588,978.375L47.588,979.409L50.432,978.939L51.436,980.067L47.588,986.217L46.584,990.484L47.755,991.094L46.919,992.5L46.082,997.043L43.907,998.073L42.568,1000.834L41.063,1000.974L41.063,1004.295L39.891,1007.52L38.72,1007.427L36.712,1009.482L38.888,1010.603L40.728,1009.482L40.895,1013.264L38.218,1020.773L39.055,1024.034L36.88,1023.149L34.537,1023.848L31.693,1023.009L26.172,1022.124L25.001,1020.959L21.989,1019.654L19.145,1019.514L17.973,1017.976L15.464,1017.649L13.958,1020.4L11.95,1020.027L12.619,1021.146L11.281,1021.891L11.448,1024.174L10.779,1026.968L12.787,1031.202L12.285,1036.734L11.281,1038.917L11.281,1042.4L5.09,1043.003L3.25,1039.475L3.752,1036.176L2.58,1034.968L2.246,1032.318L3.082,1031.667L-19.505,1030.086L-53.972,1027.712L-97.64,1025.105L-120.395,1023.941L-122.738,1021.705L-123.741,1018.209L-124.076,1014.337L-125.916,1011.91L-126.92,1008.221L-127.255,1005.37L-128.426,1002.378L-131.772,998.12L-131.271,995.592L-132.107,993.203L-130.936,992.219L-131.103,988.515L-129.765,984.762L-130.099,982.743L-128.928,980.067L-129.43,974.427L-132.609,970.334L-132.274,968.262L-133.278,962.421L-132.776,960.299L-130.434,956.903L-129.263,952.843L-128.928,948.78L-129.43,946.132L-127.255,943.672L-124.913,942.679L-125.247,941.543L-123.407,941.543L-121.734,939.081L-123.741,937.186L-126.753,935.86L-125.08,930.312L-126.586,928.604L-127.088,924.711L-129.932,921.433L-131.605,918.01L-132.442,910.919L-134.617,908.775L-133.948,907.06L-135.453,905.534L-140.975,871.421L-143.484,856.466L-145.659,842.286L-148.671,823.944L-152.519,802.413Z" fill="#e7e2d8"/><path d="M-244.375,386.59L-241.865,388.788L-239.857,387.716L-238.686,388.52L-239.69,390.664L-235.172,391.897L-230.32,391.843L-225.635,390.504L-216.935,386.482L-211.748,383.316L-196.69,383.37L-163.562,383.424L-132.274,383.37L-117.718,383.316L-117.718,387.341L-117.551,400.298L-117.551,473.408L-118.053,496.291L-118.053,519.256L-118.387,533.669L-118.387,545.969L-121.566,548.29L-121.901,549.322L-119.224,552.981L-118.889,554.578L-120.73,556.535L-120.228,558.439L-117.383,558.799L-116.714,560.085L-118.889,562.45L-117.885,564.711L-121.566,564.557L-124.243,565.739L-125.749,565.482L-131.605,568.717L-133.948,570.718L-137.126,570.205L-138.8,567.998L-143.15,568.358L-145.827,567.998L-147.835,569.692L-147.165,576.102L-146.161,579.739L-148.838,581.786L-150.01,584.037L-155.029,585.776L-158.208,593.999L-161.387,595.989L-163.729,594.764L-165.402,595.428L-166.406,598.64L-169.083,602.308L-168.916,606.737L-169.753,610.297L-171.091,611.517L-174.939,612.432L-175.609,614.26L-177.784,611.314L-181.465,611.263L-185.815,608.467L-185.982,603.683L-189.496,600.271L-190.834,600.373L-190.667,602.105L-188.492,602.716L-188.659,603.989L-190.834,604.091L-192.173,605.567L-193.511,604.396L-195.017,605.872L-193.511,606.737L-194.515,608.873L-197.527,609.331L-197.861,614.108L-197.025,616.038L-200.873,616.495L-201.208,619.691L-203.048,621.162L-204.219,619.945L-203.383,617.357L-205.056,616.85L-206.729,618.119L-208.402,617.002L-210.41,612.482L-213.254,612.584L-215.597,615.225L-220.449,616.596L-222.122,618.119L-222.958,623.038L-224.13,624.406L-225.97,624.558L-227.309,621.416L-230.32,620.757L-234.001,617.865L-237.682,615.632L-241.028,615.327L-243.371,617.205L-245.713,616.241L-246.717,613.753L-248.055,613.448L-249.227,616.799L-247.386,620.047L-249.561,622.075L-251.402,621.923L-250.9,619.083L-251.736,617.56L-258.764,619.133L-260.604,616.495L-262.11,616.292L-263.783,618.322L-262.11,622.937L-264.118,625.318L-267.966,623.697L-269.806,623.596L-270.476,621.872L-268.468,622.328L-271.145,617.662L-267.129,618.068L-269.639,616.596L-267.129,613.194L-266.962,610.145L-268.3,608.823L-265.121,607.856L-264.787,605.923L-266.795,606.89L-263.114,603.174L-265.456,600.118L-266.125,597.111L-264.62,597.62L-263.114,594.152L-262.277,595.938L-261.106,593.846L-259.767,595.53L-257.592,590.323L-256.254,589.864L-254.079,585.571L-254.413,583.628L-250.398,581.479L-250.398,578.1L-248.892,573.847L-247.721,572.206L-245.378,571.59L-243.036,567.69L-243.203,565.533L-245.713,560.702L-243.873,554.99L-246.884,552.93L-246.717,548.858L-249.394,546.02L-249.896,542.252L-246.717,539.151L-248.223,536.566L-247.888,533.462L-246.884,531.805L-244.709,531.339L-244.709,513.332L-244.877,513.332L-244.877,492.634L-244.709,492.007L-244.709,476.61L-244.542,463.63L-244.542,400.191Z" fill="#e7e2d8"/><path d="M648.411,228.278L650.754,227.887L649.583,229.842ZM642.388,230.456L643.559,225.82L644.563,227.72L647.742,230.791L645.232,233.302L644.396,231.405ZM641.05,218.436L641.552,216.083L643.392,220.059ZM626.493,225.485L628.836,225.373L629.338,227.664ZM623.147,250.332L624.486,248.277L624.653,252.442ZM621.641,233.525L622.98,231.237L627.163,228.725L629.003,231.516L627.497,231.963L629.84,236.312L627.999,238.485L624.987,239.21L622.98,237.873L623.816,236.48L623.314,233.692ZM620.637,224.479L622.812,220.675L623.147,217.092L624.653,215.691L625.657,217.148L624.151,219.108L624.318,221.123L622.98,225.038L621.307,226.658ZM539.657,301.306L533.802,296.864L533.802,293.076L534.805,290.769L527.946,283.728L526.44,280.809L527.778,275.241L527.109,274.689L528.113,269.83L527.109,268.559L526.272,251.22L526.272,246.276L524.432,198.112L521.922,155.255L525.436,154.401L525.436,152.521L529.619,154.856L529.451,157.02L530.623,159.466L532.463,160.319L534.638,155.483L534.973,150.583L533.969,148.987L535.977,146.933L537.315,147.104L539.323,149.614L542.836,150.127L543.004,147.903L538.988,143.165L538.821,141.337L542.502,135.217L544.844,133.671L546.685,131.208L548.023,131.265L550.533,128.915L554.548,126.735L553.043,122.66L556.556,118.867L560.404,116.279L561.241,113.056L560.07,111.443L557.727,111.443L557.727,107.639L559.401,105.447L558.062,104.639L560.572,101.695L561.408,99.037L558.899,96.493L561.576,89.835L562.914,88.792L562.747,86.646L565.591,84.79L567.934,81.365L569.774,80.9L572.618,62.032L608.591,9.697L610.766,9.875L615.283,12.125L617.124,11.888L616.622,15.32L616.789,23.648L617.458,24.71L623.649,29.014L627.832,26.479L632.182,24.71L636.867,24.592L638.707,21.524L643.727,20.874L647.909,21.583L647.909,17.921L650.586,16.561L654.769,16.916L658.618,19.043L659.287,20.933L664.808,24.946L670.831,32.723L670.831,33.606L675.516,36.606L675.516,68.507L676.018,108.677L675.851,112.768L677.357,114.495L674.847,116.739L677.189,120.764L674.68,122.717L674.847,130.52L678.695,131.552L679.197,130.405L680.87,133.671L684.049,135.274L689.069,136.59L691.411,135.503L692.75,139.05L692.917,142.251L690.742,141.794L688.901,143.051L690.073,146.933L692.75,150.526L691.244,154.686L689.571,157.02L693.419,163.615L693.419,164.922L696.43,167.193L698.606,165.603L698.773,162.99L701.784,164.695L704.963,164.865L707.139,168.044L708.142,170.937L706.804,171.731L708.477,173.544L710.485,179.093L712.994,181.242L713.162,187.909L711.154,190.73L709.481,190.617L708.812,192.422L703.458,198.787L699.442,200.194L700.111,201.432L697.602,201.882L698.606,199.519L697.936,194.732L693.419,196.422L695.427,199.688L693.419,202.106L691.578,201.375L689.403,204.636L687.228,203.625L685.555,204.299L685.89,206.266L688.567,208.512L684.886,211.711L682.711,209.129L681.707,205.929L679.532,206.49L679.03,208.624L677.691,208.456L676.52,205.142L675.349,208.624L673.843,209.41L672.505,213.561L671.333,212.496L670.329,215.187L669.66,212.832L666.314,215.691L665.477,214.178L663.47,219.332L660.793,217.148L660.793,215.131L659.119,216.307L657.279,215.803L657.614,219.5L654.937,223.472L656.777,225.317L650.921,226.211L647.073,224.423L644.396,218.436L645.4,216.812L649.081,215.299L647.575,212.776L645.4,214.738L645.734,212.271L644.061,212.44L644.229,216.251L643.392,216.251L643.392,212.664L639.376,215.803L640.213,217.764L639.209,220.171L641.552,223.919L641.05,226.435L637.201,230.735L638.707,231.349L636.699,233.079L638.54,236.201L637.703,240.045L635.026,240.602L634.524,235.867L635.528,235.644L635.026,232.576L632.182,230.065L631.513,226.491L634.022,223.64L630.843,221.402L631.847,219.947L630.174,219.388L627.163,220.563L627.33,214.234L629.17,211.767L629.338,208.961L628.166,208.175L626.995,210.757L624.653,213.001L622.812,211.15L621.641,212.944L619.132,213.169L621.474,217.708L620.972,220.395L618.964,221.682L617.291,225.652L616.622,229.674L614.447,234.027L617.626,235.699L615.451,237.26L617.124,240.435L615.451,242.55L610.933,242.327L608.758,246.332L606.248,246.387L605.914,249.61L604.073,250.11L604.073,247.221L605.244,245.164L603.739,244.33L603.237,245.998L601.229,246.721L602.066,243.106L599.054,243.607L599.221,246.498L596.544,248.555L595.708,251.331L593.7,248.499L593.365,251.109L590.855,252.886L588.848,251.442L588.346,255.105L586.171,252.275L583.996,257.378L580.147,258.874L579.311,259.927L578.474,255.327L575.797,255.049L573.288,257.378L572.451,259.539L569.105,259.318L567.934,262.031L564.587,261.81L562.914,264.522L562.412,267.287L563.249,268.89L561.91,270.658L559.735,269.056L556.054,270.769L554.548,273.309L555.552,277.006L554.214,279.377L552.541,280.203L553.043,282.021L550.7,283.343L548.358,283.123L546.685,284.499L544.844,289.89L545.681,290.934L543.338,295.328L543.506,296.535L541.163,300.594Z" fill="#e7e2d8"/><path d="M559.568,411.349L561.743,412.628L566.595,412.362L569.607,411.455L571.614,407.722L574.291,413.321L574.124,414.919L572.451,415.771L566.93,415.558L560.07,412.362ZM533.634,408.682L536.646,408.682L539.825,403.878L544.342,400.672L546.183,401.474L547.354,405.213L549.864,406.655L551.537,404.519L551.369,409.002L544.51,408.949L539.323,409.429L536.311,411.935ZM420.363,321.26L457.841,322.46L491.137,323.713L512.218,324.367L513.891,321.86L517.405,321.805L517.237,318.423L519.747,316.459L522.926,317.441L524.432,314.056L530.455,312.307L532.965,313.946L534.303,313.236L534.638,317.168L536.144,324.585L540.327,327.145L542.335,324.857L544.677,326.709L542,331.607L538.152,331.988L531.794,333.891L533.802,336.607L530.79,339.322L529.619,338.834L528.782,342.035L528.113,339.811L526.272,342.686L528.113,346.698L525.938,346.156L525.101,347.673L526.44,349.081L525.603,350.542L527.946,351.3L528.949,349.351L531.292,348.918L532.798,351.462L536.813,352.977L538.821,355.249L539.156,357.735L542.669,362.756L542.502,365.453L541.331,367.556L539.323,367.825L539.825,369.119L543.338,371.865L545.346,371.435L546.685,372.727L548.023,377.192L547.187,379.879L549.362,382.457L553.21,384.336L558.899,384.98L560.404,386.214L563.583,383.853L566.762,383.424L571.28,381.652L572.284,380.309L572.116,376.062L571.112,372.78L568.937,374.449L568.937,369.226L568.101,366.262L565.591,364.429L564.085,364.806L563.249,366.909L561.408,363.727L563.583,363.134L567.097,364.105L570.945,367.233L573.957,373.857L575.463,380.255L575.797,387.609L573.288,394.521L572.953,396.875L571.782,396.394L573.789,390.396L572.618,389.164L568.268,389.432L561.074,391.575L556.054,391.147L554.883,392.646L552.039,393.021L549.529,396.34L544.008,396.875L538.319,400.405L535.642,402.917L532.128,404.412L528.28,405.213L529.284,403.825L535.14,402.009L537.817,399.496L541.833,396.875L542.669,394.735L542.335,388.467L543.338,386.268L538.988,384.873L538.988,388.038L537.817,387.287L537.148,389.968L534.805,389.807L535.14,391.522L529.953,392.111L528.782,394.735L529.117,397.089L528.113,398.641L523.93,399.871L521.922,398.962L520.249,399.71L519.747,389.592L516.736,388.628L515.397,386.429L513.724,383.853L510.545,382.081L509.708,379.073L510.043,374.718L508.035,375.04L508.035,367.125L488.627,367.825L488.459,366.855L454.662,366.154L450.981,366.37L443.954,366.047L443.452,368.149L441.11,368.472L441.277,366.047L432.242,365.885L412.499,365.13L409.989,365.184L408.985,362.918L414.674,341.547Z" fill="#e7e2d8"/><path d="M313.282,514.32L315.624,510.939L317.13,509.273L317.967,506.097L319.975,503.908L322.819,501.614L329.177,500.31L333.36,497.962L333.36,494.358L336.037,493.052L337.208,491.327L342.897,487.561L345.908,486.776L347.916,484.106L349.589,484.525L352.433,482.482L350.091,478.761L346.745,476.61L345.574,473.881L342.06,471.045L340.889,467.471L336.706,466.471L336.037,464.104L336.371,459.101L334.698,457.151L331.854,457.415L330.348,456.677L330.013,452.298L331.185,450.715L329.846,449.553L331.352,444.268L333.192,444.533L337.041,438.553L333.025,432.193L335.2,429.647L338.212,428.107L340.889,425.133L340.22,423.858L343.064,421.997L344.904,419.391L347.247,412.788L350.928,409.109L353.605,408.416L368.328,417.635L390.414,430.708L390.916,431.716L387.569,441.623L385.562,445.061L384.892,448.497L383.888,449.659L382.717,451.454L376.527,453.301L375.857,457.731L374.352,458.574L373.85,461.208L373.85,463.472L377.029,464.946L379.706,463.999L383.721,466.314L386.064,466.787L386.733,464.472L387.402,469.205L386.9,474.826L384.558,484.368L382.383,497.283L381.546,506.305L374.853,518.841L373.013,521.333L371.507,521.8L372.009,523.461L370.336,526.313L366.99,529.578L366.822,530.562L361.636,533.41L356.282,538.996L352.768,545.091L349.087,552.775L345.741,555.865L342.562,556.586L340.721,555.865L341.725,551.332L344.235,546.33L344.737,542.768L341.223,540.857L338.212,540.65L337.208,539.358L334.196,539.513L333.025,541.373L331.519,540.133L331.185,537.704L328.173,535.79L327.671,534.238L325.998,534.859L323.488,531.339L322.317,531.754L319.305,528.749L317.632,525.847L314.453,524.55L315.457,517.282L313.449,515.775Z" fill="#e7e2d8"/><path d="M305.586,732.276L308.597,733.215L310.605,736.873L310.772,739.194L308.263,738.75L308.597,736.527ZM292.201,781.958L293.539,779.021L294.878,779.021L302.741,774.809L305.251,774.221L307.593,772.603L309.601,772.505L312.278,770.789L314.453,770.299L315.29,766.668L317.13,754.281L317.13,751.622L315.792,746.941L314.788,741.762L315.29,741.86L317.13,747.089L317.967,751.77L317.465,758.463L314.955,772.505L310.94,772.898L302.574,776.034L295.379,779.854ZM28.179,694.58L42.234,695.378L51.436,695.528L67.331,696.276L73.521,696.076L92.595,697.123L100.626,697.223L129.07,697.323L175.75,697.323L188.131,697.123L232.302,697.123L250.037,697.173L250.037,696.675L255.224,696.774L275.302,696.774L299.06,696.774L299.395,699.665L302.239,711.853L304.916,719.696L308.765,727.426L314.621,740.824L313.115,740.133L310.103,732.918L307.761,728.961L305.586,728.416L304.08,719.795L301.403,712.101L300.064,710.959L300.566,709.02L299.73,704.594L298.056,703.101L297.387,700.711L293.204,700.063L293.037,698.07L290.862,699.067L291.866,702.105L294.543,704.494L296.383,703.996L296.383,707.33L298.893,714.038L300.399,717.066L300.232,718.357L302.072,722.076L302.072,724.405L298.893,721.233L299.06,719.398L296.885,716.372L296.383,714.485L294.376,713.889L295.379,715.776L294.878,717.166L297.22,719.101L292.033,717.86L286.679,712.002L284.169,711.406L287.348,716.223L289.022,717.066L290.025,719.646L288.52,720.787L284.504,721.481L280.99,717.96L282.162,721.084L283.835,722.423L282.664,723.117L277.477,720.886L275.302,720.638L274.465,719.2L271.454,718.009L275.302,721.63L278.815,722.77L277.644,723.711L273.629,724.108L271.454,727.178L268.777,728.268L265.932,728.218L264.594,726.683L261.247,726.089L259.24,720.093L259.24,717.066L261.247,713.194L260.411,712.548L258.069,716.322L257.734,720.093L259.072,724.752L260.913,728.565L260.076,730.643L261.415,732.325L268.107,731.83L274.298,729.505L275.804,731.929L277.979,731.633L280.154,730.148L284.504,728.961L289.858,729.01L292.201,731.039L292.201,733.166L289.858,737.021L290.36,739.738L290.695,747.828L292.201,747.582L293.372,741.91L293.874,734.501L296.216,732.523L295.212,730.89L297.555,729.901L301.737,730.94L304.414,735.588L305.586,738.799L304.916,741.367L306.088,746.201L304.749,747.434L305.418,750.095L303.243,752.755L300.399,753.247L299.395,752.361L297.722,753.148L296.718,755.117L295.045,755.56L294.543,757.676L293.372,758.217L292.201,761.707L290.025,762.444L289.523,764.704L286.679,765.931L286.177,767.109L281.827,765.882L276.975,766.078L272.625,765.195L271.788,763.967L270.115,764.654L267.605,762.444L265.43,756.79L270.617,756.643L271.454,754.428L266.769,755.659L264.761,755.117L263.255,756.741L264.761,759.544L265.765,763.77L264.594,763.77L259.742,761.461L257.399,761.953L254.053,760.282L248.866,758.807L245.018,756.446L244.851,757.872L247.695,760.871L251.209,761.117L261.749,766.128L269.446,767.502L270.784,769.023L270.952,770.985L269.78,773.731L267.605,776.377L267.773,777.748L266.267,780.343L263.757,782.398L255.391,787.874L247.026,782.398L247.193,785.577L251.209,788.265L257.232,790.366L263.255,786.457L265.43,786.359L269.948,784.893L270.617,781.86L272.457,782.545L272.959,785.773L274.298,787.288L277.31,787.532L275.804,783.866L279.15,785.284L279.485,789.438L276.64,793.1L273.629,793.734L273.629,795.393L271.788,796.369L269.446,800.464L268.275,803.923L265.43,802.949L265.598,799.051L263.924,798.124L264.092,802.121L261.415,802.462L268.442,805.578L272.29,799.587L277.812,793.734L281.827,790.073L289.691,781.469L291.029,782.496L286.345,786.555L281.994,791.245L278.313,794.271L274.8,798.076L271.788,802.072L268.275,807.671L267.773,809.228L267.103,805.968L261.247,803.29L254.722,803.241L244.683,805.092L239.831,806.698L236.485,808.255L231.131,812.194L224.606,815.839L220.256,818.898L214.065,824.38L211.723,827.046L207.54,833.245L205.197,838.614L203.524,844.025L202.018,847.355L201.349,850.684L199.174,850.346L198.672,848.706L195.159,847.693L191.31,847.259L186.626,847.355L181.606,847.934L175.75,849.96L174.412,850.78L158.851,834.841L141.451,817.296L136.264,811.659L121.541,796.954L111.334,796.905L98.953,796.564L69.171,796.076L69.841,789.486L62.813,779.756L57.794,783.328L56.957,782.3L58.129,779.951L57.794,777.356L48.592,776.72L31.024,775.936L-0.431,774.515L-4.279,775.495L-5.116,773.584L-7.124,776.132L-8.295,775.691L-11.641,777.014L-12.645,776.769L-17.497,779.07L-22.182,782.007L-23.353,780.979L-38.579,785.821L-62.505,786.31L-62.337,786.604L-95.131,786.506L-93.625,773.045L-89.944,770.691L-89.442,771.966L-84.757,771.77L-81.076,768.68L-81.913,765.882L-80.407,764.654L-81.076,762.493L-78.232,759.446L-76.057,758.708L-74.718,756.347L-72.041,755.954L-69.532,753.739L-56.147,753.395L-54.306,750.932L-50.625,749.356L-49.789,748.075L-48.116,748.42L-45.439,746.053L-44.769,744.327L-42.092,744.13L-40.754,742.156L-37.24,740.725L-33.225,741.614L-28.875,735.934L-29.376,732.82L-27.703,731.336L-25.194,733.116L-21.847,728.268L-16.326,724.801L-14.653,726.782L-15.489,730.247L-12.98,731.237L-8.295,728.169L-5.785,723.563L-3.276,721.828L-0.431,720.787L1.577,721.035L3.082,719.398L6.261,719.993L6.931,722.472L9.44,722.472L11.783,721.084L17.304,711.157L20.818,708.523L22.658,707.926L23.997,709.07L26.841,709.07L25.168,705.39L26.339,702.155L27.343,701.557L26.674,697.572Z" fill="#e7e2d8"/><path d="M82.054,369.711L90.086,366.424L97.615,362.433L99.12,361.137L100.794,357.897L102.969,357.735L103.471,359.247L109.494,355.357L117.358,351.354L117.358,368.31L117.525,368.418L158.851,368.472L171.735,368.31L199.676,368.418L240.333,368.364L257.901,368.203L276.473,368.418L304.749,368.472L322.652,368.364L324.994,371.542L325.831,371.327L327.169,376.708L329.679,376.493L334.196,378.321L335.869,380.954L334.531,382.672L336.873,383.799L337.208,392.325L335.869,392.968L340.052,399.015L340.22,400.833L342.06,400.565L344.57,402.329L344.235,403.291L348.418,403.13L348.92,404.306L351.597,403.878L351.43,405.48L353.605,408.416L350.928,409.109L347.247,412.788L344.904,419.391L343.064,421.997L340.22,423.858L340.889,425.133L338.212,428.107L335.2,429.647L333.025,432.193L337.041,438.553L333.192,444.533L331.352,444.268L329.846,449.553L331.185,450.715L330.013,452.298L330.348,456.677L331.854,457.415L334.698,457.151L336.371,459.101L336.037,464.104L336.706,466.471L340.889,467.471L342.06,471.045L345.574,473.881L346.745,476.61L350.091,478.761L352.433,482.482L349.589,484.525L347.916,484.106L345.908,486.776L342.897,487.561L337.208,491.327L336.037,493.052L333.36,494.358L333.36,497.962L329.177,500.31L322.819,501.614L319.975,503.908L316.126,501.979L312.445,501.666L308.43,502.709L305.92,504.481L302.574,508.753L266.267,508.805L246.524,508.857L221.259,508.857L181.773,508.701L130.743,508.805L102.801,508.805L82.054,508.805L82.054,452.826Z" fill="#e7e2d8"/><path d="M409.989,365.184L412.499,365.13L432.242,365.885L441.277,366.047L441.11,368.472L443.452,368.149L443.954,366.047L450.981,366.37L454.662,366.154L488.459,366.855L488.627,367.825L488.627,373.588L489.129,385.517L489.129,393.557L488.627,404.733L486.619,405.16L487.121,409.216L485.782,410.762L484.611,409.749L481.767,409.642L478.253,410.922L475.242,410.762L473.067,412.042L470.39,410.549L469.386,412.522L461.187,414.386L460.685,413.321L458.176,413.321L453.658,415.079L452.654,413.96L448.304,413.907L447.133,415.292L444.121,414.067L437.429,415.505L436.927,412.308L435.421,413.214L432.242,417.581L430.234,417.581L426.553,421.465L424.378,420.242L420.363,423.326L419.192,422.635L415.343,424.123L416.18,425.292L414.507,426.992L409.655,427.576L405.974,430.443L404.468,429.647L401.958,431.504L402.126,429.753L398.779,424.336L410.157,417.422L406.978,412.255L407.647,403.665L408.484,387.877Z" fill="#e7e2d8"/><path d="M-14.653,586.798L-11.641,587.82L-5.785,585.776L-1.937,585.213L-1.1,582.707L-0.598,577.69L1.409,576.256L4.086,576.614L5.09,575.077L4.588,569.897L2.915,564.506L6.429,561.833L6.429,558.387L8.771,553.857L10.779,552.466L11.783,550.559L13.958,552.621L15.798,552.672L17.806,556.74L16.468,558.799L18.308,559.828L19.814,558.696L20.316,556.535L21.822,555.505L23.327,556.792L23.997,551.075L22.323,549.58L21.822,547.362L25.001,546.382L24.499,541.425L25.837,539.306L27.51,538.686L28.012,535.842L33.199,536.204L33.701,531.909L37.884,527.972L40.728,528.957L41.732,531.65L43.572,531.495L47.086,529.06L49.93,528.646L51.771,525.847L53.611,525.432L54.95,522.942L57.627,519.983L62.646,515.36L65.323,514.892L65.992,510.575L67.666,509.221L65.825,506.618L67.833,504.116L67.833,501.145L69.506,499.945L68.837,496.813L71.012,497.387L70.677,494.672L71.848,493.627L71.848,487.247L73.354,485.677L73.354,482.639L75.027,480.124L75.864,476.925L77.537,475.718L78.374,472.305L77.872,467.313L78.541,463.577L77.035,459.154L75.195,456.835L76.7,454.198L79.043,454.251L82.054,452.826L82.054,508.805L102.801,508.805L130.743,508.805L130.241,539.927L131.914,539.565L137.435,534.238L139.443,534.29L141.116,530.821L146.303,527.713L148.478,523.824L150.318,523.928L155.003,525.795L156.844,522.994L163.202,514.788L165.377,515.308L163.202,516.035L165.377,516.971L165.711,518.321L169.058,520.087L171.902,520.035L173.073,520.97L177.758,521.177L180.1,519.204L178.929,516.659L181.104,516.711L179.264,515.048L181.606,515.619L183.112,513.696L186.291,514.892L190.976,510.366L194.991,511.407L197.836,513.956L199.174,516.035L202.186,514.996L205.03,516.191L207.372,515.983L207.372,517.906L204.695,518.685L206.703,522.267L209.882,524.395L209.548,526.106L211.053,526.728L211.89,528.957L210.886,532.22L212.559,532.944L211.053,535.273L207.54,544.317L194.489,533.514L183.447,524.239L182.777,527.454L183.614,528.905L182.61,530.77L183.781,531.339L179.933,536.825L180.937,537.6L179.096,540.392L180.77,542.252L178.093,545.453L176.921,545.814L172.906,550.353L173.91,551.178L171.567,554.423L170.396,553.342L167.886,556.74L166.213,557.976L166.213,556.123L162.365,559.776L159.019,566.458L153.163,561.268L151.657,564.814L148.813,569.025L148.645,572.668L147.307,572.616L145.634,575.538L143.124,582.605L138.439,587.411L130.743,584.702L127.898,579.124L122.712,576.717L120.369,582.912L120.871,586.236L118.863,589.302L115.183,593.744L116.186,595.989L114.179,597.06L109.996,601.188L108.825,604.04L109.829,605.516L108.49,607.042L107.486,610.094L105.813,612.686L102.801,615.276L97.782,620.554L94.268,626.23L94.603,628.053L92.595,630.027L93.265,632.102L96.109,633.821L94.101,635.843L91.089,637.561L90.922,639.177L93.097,639.379L92.428,640.844L84.23,645.838L82.556,642.408L80.549,642.862L77.37,645.233L70.51,648.812L69.841,647.502L66.327,645.586L65.156,648.157L66.662,650.324L63.483,652.691L60.638,652.942L54.448,654.301L49.261,656.867L44.744,653.093L42.903,650.827L41.565,651.885L40.226,654.654L36.378,655.509L36.043,657.018L33.868,658.476L28.179,658.828L25.001,656.415L25.001,655.207L22.993,653.949L19.981,653.798L18.81,651.18L16.468,649.618L16.133,645.082L13.623,643.972L13.456,642.307L16.468,640.591L14.627,639.127L12.285,639.329L7.6,637.814L7.098,635.944L5.759,635.894L4.588,633.872L3.082,633.973L1.911,631.849L-0.598,631.292L-2.774,624.508L-4.447,623.545L-6.622,620.452L-6.454,618.728L-8.964,617.763L-10.303,615.784L-8.462,612.991L-10.972,611.873L-12.478,607.805L-14.151,605.516L-16.661,603.632L-16.661,601.697L-15.322,601.697L-14.82,598.895L-15.489,597.875L-13.649,596.193L-13.482,593.233L-14.82,591.396Z" fill="#e7e2d8"/><path d="M-425.91,468.785L-423.902,467.944L-424.237,465.314L-423.568,460.576L-425.408,458.732L-423.233,455.095L-418.046,452.826L-415.035,452.879L-412.023,450.715L-411.856,447.493L-410.852,444.903L-410.684,441.359L-409.011,439.93L-406.669,436.434L-404.828,435.427L-403.825,429.806L-403.992,424.602L-406.167,420.614L-408.342,420.295L-411.688,415.771L-409.848,411.669L-409.513,407.722L-408.509,404.786L-405.33,403.665L-403.155,404.466L-399.307,402.329L-394.12,402.65L-390.105,401.741L-387.428,398.748L-385.755,398.052L-381.405,398.106L-378.393,395.056L-375.716,393.932L-375.883,390.396L-374.377,387.233L-374.377,384.444L-372.872,382.887L-368.187,380.255L-368.354,378.052L-367.016,374.18L-367.517,371.058L-366.346,367.772L-367.517,365.777L-367.35,360.975L-369.525,358.761L-377.389,354.816L-379.899,350.813L-379.397,347.564L-382.074,344.15L-385.755,342.144L-386.089,340.733L-389.77,338.834L-389.77,336.281L-382.241,336.39L-344.261,336.499L-335.728,336.77L-303.269,337.368L-296.409,337.151L-270.977,337.096L-257.258,337.368L-257.592,344.096L-258.931,349.351L-257.258,355.249L-253.744,361.569L-251.736,363.566L-251.234,366.478L-249.059,373.964L-248.39,377.998L-246.048,382.994L-244.709,384.068L-244.375,386.59L-244.542,400.191L-244.542,463.63L-244.709,476.61L-244.709,492.007L-244.877,492.634L-244.877,513.332L-244.709,513.332L-244.709,531.339L-246.884,531.805L-247.888,533.462L-248.223,536.566L-246.717,539.151L-249.896,542.252L-249.394,546.02L-246.717,548.858L-246.884,552.93L-243.873,554.99L-245.713,560.702L-243.203,565.533L-243.036,567.69L-245.378,571.59L-247.721,572.206L-248.892,573.847L-250.398,578.1L-250.398,581.479L-254.413,583.628L-254.079,585.571L-256.254,589.864L-257.592,590.323L-259.767,595.53L-261.106,593.846L-262.277,595.938L-263.114,594.152L-264.62,597.62L-266.125,597.111L-265.456,600.118L-263.114,603.174L-266.795,606.89L-264.787,605.923L-265.121,607.856L-268.3,608.823L-266.962,610.145L-267.129,613.194L-269.639,616.596L-267.129,618.068L-271.145,617.662L-268.468,622.328L-270.476,621.872L-269.806,623.596L-267.966,623.697L-269.304,627.041L-272.149,628.813L-273.989,631.646L-272.818,636.955L-269.472,640.389L-270.476,642.913L-278.507,643.871L-280.514,644.426L-283.526,647.048L-285.868,645.737L-288.88,647.956L-289.215,650.727L-290.72,653.999L-290.386,655.257L-287.542,658.527L-286.37,661.844L-288.043,666.313L-290.553,666.815L-292.728,666.162L-295.907,663.552L-301.763,661.542L-304.106,659.582L-309.292,657.471L-312.471,657.219L-314.646,658.275L-316.821,660.387L-318.327,663.652L-321.004,666.263L-321.674,669.022L-319.331,671.63L-321.172,672.332L-322.51,669.674L-325.354,666.865L-327.697,667.467L-325.187,669.725L-326.86,671.079L-330.876,668.27L-330.708,665.61L-332.549,663.301L-334.724,658.929L-334.557,656.565L-337.401,653.899L-336.062,651.079L-333.553,650.475L-332.884,647.351L-337.234,639.228L-337.568,636.702L-335.393,636.298L-337.234,632.86L-337.234,629.977L-340.413,628.762L-341.918,626.635L-344.261,626.483L-343.926,624.457L-347.774,620.909L-350.284,620.3L-350.451,618.829L-352.627,617.408L-354.3,618.981L-357.646,618.728L-358.65,616.19L-356.642,614.971L-357.144,613.6L-359.821,613.956L-362.665,610.907L-364.004,610.907L-365.844,608.161L-370.027,606.279L-373.373,601.748L-376.385,599.201L-377.222,595.632L-377.054,591.651L-375.883,588.995L-373.039,585.52L-372.035,580.455L-368.354,575.538L-368.019,573.642L-369.693,568.922L-367.517,565.893L-365.51,564.403L-365.175,561.319L-371.533,557.101L-374.21,556.843L-378.727,554.526L-381.906,554.732L-383.412,558.13L-385.253,559.776L-387.093,560.136L-390.774,556.586L-391.276,553.239L-393.116,548.858L-391.611,547.001L-392.949,542.975L-393.451,538.324L-396.797,533.669L-406.669,526.572L-409.346,523.772L-411.186,519.828L-413.361,519.412L-415.035,515.827L-416.875,515.1L-419.385,512.135L-423.735,508.128L-423.233,504.95L-423.902,503.491L-426.412,501.718L-427.248,499.736L-425.91,496.291L-427.081,494.829L-429.424,489.654L-430.427,481.015L-430.093,477.292L-427.248,469.731Z" fill="#e7e2d8"/><path d="M240.668,556.226L244.181,552.621L250.372,558.696L244.349,564.763L244.349,559.982Z" fill="#e7e2d8"/><path d="M-319.331,671.63L-321.674,669.022L-321.004,666.263L-318.327,663.652L-316.821,660.387L-314.646,658.275L-312.471,657.219L-309.292,657.471L-304.106,659.582L-301.763,661.542L-295.907,663.552L-292.728,666.162L-290.553,666.815L-288.043,666.313L-286.37,661.844L-287.542,658.527L-290.386,655.257L-290.72,653.999L-289.215,650.727L-288.88,647.956L-285.868,645.737L-283.526,647.048L-280.514,644.426L-278.507,643.871L-270.476,642.913L-269.472,640.389L-272.818,636.955L-273.989,631.646L-272.149,628.813L-269.304,627.041L-267.966,623.697L-264.118,625.318L-262.11,622.937L-263.783,618.322L-262.11,616.292L-260.604,616.495L-258.764,619.133L-251.736,617.56L-250.9,619.083L-251.402,621.923L-249.561,622.075L-247.386,620.047L-249.227,616.799L-248.055,613.448L-246.717,613.753L-245.713,616.241L-243.371,617.205L-241.028,615.327L-237.682,615.632L-234.001,617.865L-230.32,620.757L-227.309,621.416L-225.97,624.558L-224.13,624.406L-222.958,623.038L-222.122,618.119L-220.449,616.596L-215.597,615.225L-213.254,612.584L-210.41,612.482L-208.402,617.002L-206.729,618.119L-205.056,616.85L-203.383,617.357L-204.219,619.945L-203.048,621.162L-201.208,619.691L-200.873,616.495L-197.025,616.038L-197.861,614.108L-197.527,609.331L-194.515,608.873L-193.511,606.737L-195.017,605.872L-193.511,604.396L-192.173,605.567L-190.834,604.091L-188.659,603.989L-188.492,602.716L-190.667,602.105L-190.834,600.373L-189.496,600.271L-185.982,603.683L-185.815,608.467L-181.465,611.263L-177.784,611.314L-175.609,614.26L-174.939,612.432L-171.091,611.517L-169.753,610.297L-168.916,606.737L-169.083,602.308L-166.406,598.64L-165.402,595.428L-163.729,594.764L-161.387,595.989L-158.208,593.999L-155.029,585.776L-150.01,584.037L-148.838,581.786L-146.161,579.739L-147.165,576.102L-147.835,569.692L-145.827,567.998L-143.15,568.358L-138.8,567.998L-137.126,570.205L-133.948,570.718L-131.605,568.717L-125.749,565.482L-124.243,565.739L-121.566,564.557L-117.885,564.711L-118.889,562.45L-116.714,560.085L-117.383,558.799L-120.228,558.439L-120.73,556.535L-118.889,554.578L-119.224,552.981L-121.901,549.322L-121.566,548.29L-118.387,545.969L-115.376,543.491L-114.205,543.594L-111.695,546.382L-108.181,547.826L-105.839,546.33L-103.496,546.485L-102.158,544.988L-100.819,545.401L-100.15,548.961L-95.298,550.611L-93.625,554.938L-90.948,559.21L-90.948,562.604L-90.111,563.941L-83.419,566.047L-77.897,565.071L-73.045,567.434L-72.543,569.179L-70.034,570.513L-69.197,573.078L-64.512,574.565L-62.17,571.18L-57.82,570.051L-55.31,571.693L-50.625,572.719L-48.785,573.949L-47.948,576.153L-45.773,574.923L-40.754,574.975L-39.081,572.257L-36.069,570.513L-34.563,568.512L-32.053,568.512L-28.54,566.869L-27.369,568.563L-27.871,570.821L-26.365,576.512L-24.19,578.407L-20.676,578.715L-17.163,582.758L-14.987,584.548L-14.653,586.798L-14.82,591.396L-13.482,593.233L-13.649,596.193L-15.489,597.875L-14.82,598.895L-15.322,601.697L-16.661,601.697L-16.661,603.632L-14.151,605.516L-12.478,607.805L-10.972,611.873L-8.462,612.991L-10.303,615.784L-8.964,617.763L-6.454,618.728L-6.622,620.452L-4.447,623.545L-2.774,624.508L-0.598,631.292L1.911,631.849L3.082,633.973L4.588,633.872L5.759,635.894L7.098,635.944L7.6,637.814L12.285,639.329L14.627,639.127L-3.443,655.106L-9.633,657.068L-13.314,659.13L-16.493,661.593L-20.676,663.853L-20.676,668.17L-23.353,670.126L-25.361,670.226L-27.369,671.881L-26.867,674.837L-27.871,677.091L-32.053,678.893L-36.906,679.093L-39.583,683.095L-39.917,685.594L-42.594,685.794L-48.116,687.543L-54.641,690.14L-58.154,690.04L-63.676,692.485L-65.014,693.832L-65.684,694.88L-79.571,694.481L-92.788,694.381L-105.504,694.132L-119.391,693.583L-127.924,692.785L-140.305,692.336L-149.508,693.034L-165.57,692.635L-174.939,692.136L-188.826,691.038L-197.025,690.838L-199.702,691.936L-200.873,690.838L-225.301,691.437L-240.694,691.537L-259.767,691.936L-259.6,690.189L-269.806,689.341L-268.133,696.675L-269.137,699.864L-292.059,699.565L-313.141,699.565L-327.195,699.266L-332.716,699.764L-330.541,692.685L-328.366,692.036L-325.354,695.927L-323.179,695.029L-322.008,691.487L-320.67,690.04L-322.51,687.143L-321.841,684.945L-319.164,685.095L-318.662,683.695L-321.506,681.845L-321.339,679.944L-319.666,679.493L-318.662,677.191L-317.825,672.683ZM-335.895,699.864L-338.405,699.814L-339.911,696.924L-339.241,695.428L-335.728,695.528L-334.891,697.97Z" fill="#e7e2d8"/><path d="M293.037,614.616L290.695,614.616L290.527,610.958L291.866,609.534L293.706,611.568ZM288.352,604.447L288.687,600.424L290.527,599.761L291.699,601.29L292.535,607.297L290.025,606.228L290.695,604.854ZM274.298,565.996L275.135,564.968L275.971,567.331ZM130.743,508.805L181.773,508.701L221.259,508.857L246.524,508.857L266.267,508.805L302.574,508.753L302.574,513.228L306.757,580.865L307.091,584.548L319.473,585.009L337.041,585.06L336.873,587.258L335.367,592.621L334.531,593.387L331.185,604.142L328.173,610.246L310.27,612.178L309.267,614.971L308.263,614.768L306.088,613.245L302.909,613.448L299.228,616.698L297.722,616.748L297.555,613.346L298.726,609.789L301.57,608.365L298.726,608.263L299.06,605.974L300.901,603.938L297.387,603.48L295.379,605.16L294.71,603.734L295.547,600.78L299.897,599.405L298.893,597.416L297.387,598.079L296.718,596.244L299.228,590.528L296.718,591.753L295.547,594.152L295.547,597.213L294.208,597.264L292.368,593.336L294.208,592.876L294.041,590.17L292.702,589.659L292.033,592.162L290.527,593.846L291.531,595.223L290.025,598.385L289.356,596.907L286.512,598.079L285.006,597.467L282.329,593.233L280.823,592.57L281.158,590.374L277.142,582.656L280.489,581.94L281.325,579.943L279.987,580.302L278.481,577.69L279.819,575.641L281.827,574.513L282.831,575.795L284.839,574.462L285.006,576.307L288.687,576.768L290.862,578.766L291.531,578.254L288.854,574.718L286.01,574.001L284.671,571.847L283.5,572.001L280.823,568.05L279.987,569.487L277.979,568.46L277.812,571.488L276.64,571.078L277.142,565.893L280.154,561.165L282.496,563.478L283.835,562.964L283.333,556.586L281.994,555.711L279.15,558.13L277.142,557.924L277.31,560.394L275.302,561.268L275.971,555.917L278.648,550.714L279.819,553.342L283.333,553.908L285.173,552.311L284.169,549.528L286.01,546.691L283.333,547.155L282.831,549.837L283.5,551.435L281.492,550.559L281.994,547.31L280.99,544.265L279.819,543.543L282.496,536.515L284.504,534.342L284.169,533.1L286.512,531.805L287.683,529.889L292.702,530.2L290.862,528.957L293.874,525.328L292.201,525.017L294.208,518.685L288.352,519.931L287.348,522.423L289.356,523.668L290.025,525.328L288.018,526.054L282.329,531.08L281.158,529.475L282.329,526.676L280.99,525.224L280.99,527.506L279.485,530.148L280.823,531.909L279.652,534.29L278.648,529.319L276.138,528.594L277.142,533.928L275.804,533.514L274.8,535.687L276.808,536.825L273.294,539.1L272.123,540.547L269.948,540.133L269.613,538.79L265.932,536.411L266.434,538.79L267.94,539.462L268.275,541.58L272.792,544.369L273.127,547.826L272.29,549.115L274.465,551.59L270.617,553.908L271.788,555.814L271.286,557.873L269.78,557.667L268.609,560.496L269.613,563.221L266.769,566.201L268.275,568.768L267.94,571.539L268.944,575.282L268.609,579.841L269.78,583.167L273.461,587.258L274.8,590.426L273.294,592.723L270.952,592.366L272.457,594.509L273.963,593.387L275.302,594.101L274.131,596.499L274.8,598.946L277.812,603.632L276.975,604.752L277.812,609.687L276.306,608.721L274.465,605.77L273.127,605.567L272.29,602.308L270.952,602.767L270.617,605.669L269.446,603.734L268.107,603.887L267.271,601.443L265.263,599.15L261.415,597.977L255.559,597.824L254.22,591.243L252.882,590.579L252.213,592.162L253.886,595.632L253.551,596.754L249.87,594.56L249.536,592.825L247.36,591.243L245.353,585.418L242.006,587.667L236.485,590.528L234.477,589.149L233.306,583.27L235.147,579.073L237.656,576.153L241.003,574.616L240.166,574.103L239.999,571.796L241.17,570.411L244.181,569.128L244.349,564.763L250.372,558.696L244.181,552.621L240.668,556.226L239.162,554.32L235.816,554.011L234.477,553.136L234.645,550.662L230.294,548.497L224.606,547.723L223.602,545.711L221.929,545.04L222.096,542.045L223.602,541.115L224.773,538.583L220.925,536.359L219.921,534.031L217.411,534.083L214.734,532.789L212.559,532.944L210.886,532.22L211.89,528.957L211.053,526.728L209.548,526.106L209.882,524.395L206.703,522.267L204.695,518.685L207.372,517.906L207.372,515.983L205.03,516.191L202.186,514.996L199.174,516.035L197.836,513.956L194.991,511.407L190.976,510.366L186.291,514.892L183.112,513.696L181.606,515.619L179.264,515.048L181.104,516.711L178.929,516.659L180.1,519.204L177.758,521.177L173.073,520.97L171.902,520.035L169.058,520.087L165.711,518.321L165.377,516.971L163.202,516.035L165.377,515.308L163.202,514.788L156.844,522.994L155.003,525.795L150.318,523.928L148.478,523.824L146.303,527.713L141.116,530.821L139.443,534.29L137.435,534.238L131.914,539.565L130.241,539.927Z" fill="#e7e2d8"/><path d="M-110.524,118.177L-109.185,117.199L-107.679,120.649L-96.804,124.268L-99.648,127.596L-103.496,126.563L-105.839,123.062ZM-145.158,123.808L-144.321,121.511L-143.15,122.66ZM-151.181,120.362L-147.667,122.602L-148.337,124.669L-151.515,122.487ZM-156.033,135.846L-154.862,133.098L-154.36,129.144L-153.356,128.284L-153.189,125.014L-150.177,125.416L-150.344,130.291L-149.675,135.045L-152.854,137.563ZM-159.379,126.621L-157.204,126.162L-158.041,129.259L-159.212,129.202ZM-167.912,146.134L-165.737,147.104L-165.57,150.469ZM-176.445,166.228L-175.441,164.922L-172.262,166.341L-173.266,171.787L-176.111,168.838ZM-180.628,174.79L-178.788,172.297L-177.784,174.96ZM-205.558,134.587L-202.212,138.249L-203.55,139.508L-204.219,137.449L-206.562,134.988ZM-211.748,383.316L-206.729,379.664L-202.212,374.987L-196.021,360.921L-190.332,353.031L-187.153,345.776L-185.48,340.408L-183.807,330.846L-183.974,327.689L-182.97,322.95L-183.138,314.056L-184.142,304.1L-185.982,297.523L-191.838,284.884L-193.679,279.707L-195.686,272.094L-198.531,265.518L-198.531,262.862L-194.85,257.212L-193.679,254.439L-193.511,250.165L-195.017,242.717L-197.359,237.706L-196.69,235.922L-193.344,233.079L-189.328,224.646L-185.815,218.38L-185.146,211.43L-183.64,203.906L-185.48,197.605L-185.313,195.747L-180.795,193.324L-177.449,192.478L-176.445,187.231L-176.78,183.051L-175.107,181.016L-172.932,182.034L-170.255,177.508L-167.243,179.489L-164.399,178.753L-163.06,176.942L-161.554,172.071L-159.881,171.164L-157.371,165.83L-155.531,163.161L-154.025,163.559L-152.017,161.57L-151.515,163.786L-154.694,165.603L-155.196,167.987L-153.189,172.581L-157.037,177.169L-154.862,176.093L-154.862,180.281L-155.866,180.677L-157.204,185.424L-156.033,190.786L-154.694,190.899L-151.515,182.712L-151.014,177.169L-148.838,176.036L-150.177,184.972L-152.687,187.457L-153.691,191.237L-151.348,192.027L-150.01,188.36L-148.838,187.626L-145.158,179.998L-144.321,175.583L-144.488,172.411L-143.819,167.76L-144.823,162.934L-143.986,157.589L-141.142,154.8L-139.469,154.629L-136.457,151.894L-133.446,150.982L-129.263,151.381L-124.913,150.583L-122.905,149.443L-123.072,147.561L-128.593,146.591L-130.936,143.908L-132.274,137.391L-129.597,133.098L-127.422,132.296L-124.076,128.342L-124.411,126.563L-127.422,125.014L-117.383,125.875L-116.212,123.062L-106.006,128.915L-101.656,132.239L-99.481,131.093L-97.64,132.01L-95.465,131.437L-90.111,133.385L-86.096,138.249L-85.594,141.508L-82.75,143.051L-77.228,142.822L-75.89,143.336L-71.038,147.732L-67.189,148.131L-61.501,152.179L-56.649,151.837L-53.135,156.28L-51.295,157.703L-52.8,159.239L-50.291,164.695L-48.45,166.398L-46.108,173.941L-49.454,172.751L-52.131,170.823L-54.641,173.147L-53.972,179.376L-51.964,181.864L-48.45,183.334L-47.614,186.667L-47.446,192.196L-46.275,194.282L-46.944,198.281L-48.283,202.05L-47.948,205.704L-48.785,211.935L-48.952,218.716L-50.96,219.556L-53.302,223.137L-57.318,223.025L-58.656,224.702L-59.995,230.735L-60.664,237.148L-63.843,237.427L-65.182,238.485L-65.182,241.214L-72.209,241.548L-74.384,243.495L-75.89,247.721L-76.726,254.605L-78.065,256.935L-75.89,261.976L-73.213,263.747L-71.707,261.921L-70.87,264.024L-67.524,265.186L-65.349,267.287L-63.676,266.403L-58.991,259.761L-56.649,259.761L-55.477,258.376L-56.649,255.548L-55.143,253.108L-53.637,248.277L-52.968,251.054L-49.789,249.332L-48.952,247.721L-52.466,245.998L-48.45,246.165L-46.61,244.83L-45.773,242.55L-41.925,241.993L-36.236,240.435L-34.73,237.928L-29.544,236.257L-27.703,237.928L-23.855,239.321L-21.345,241.492L-18.501,248.332L-16.828,250.387L-15.657,255.77L-14.82,267.287L-11.976,277.116L-11.307,290.714L-9.633,298.565L-6.622,304.593L-6.287,307.221L-8.128,309.737L-9.299,317.659L-8.63,320.224L-10.637,326.382L-11.307,330.029L-14.318,333.619L-16.828,333.401L-18.836,335.684L-18.668,332.096L-20.174,330.628L-18.501,329.757L-15.991,326.382L-18.334,324.966L-20.843,325.239L-24.022,327.09L-25.194,328.832L-23.688,330.302L-23.353,332.749L-25.863,332.531L-27.703,335.358L-27.536,339.919L-28.707,344.096L-31.552,346.968L-36.571,348.323L-39.583,353.572L-39.248,360.435L-39.75,362.81L-42.26,364.159L-42.427,367.933L-45.104,370.034L-46.108,372.134L-48.283,372.35L-49.454,375.847L-51.295,376.439L-54.139,380.309L-53.302,384.551L-54.641,385.034L-69.03,385.624L-96.971,386.697L-117.718,387.341L-117.718,383.316L-132.274,383.37L-163.562,383.424L-196.69,383.37ZM-325.02,-19.143L-321.506,-23.265L-305.611,-31.702L-304.44,-31.583L-297.246,-37.458L-292.059,-39.98L-291.055,-39.319L-286.37,-41.061L-286.538,-39.379L-288.545,-38.419L-293.565,-33.62L-293.565,-31.822L-297.748,-28.528L-306.281,-25.357L-313.308,-21.412L-312.973,-20.218L-309.125,-20.218L-318.996,-15.861L-322.008,-16.04ZM-379.229,70.78L-376.05,68.449L-374.043,68.274L-367.517,65.417L-361.16,63.433L-355.973,58.937L-352.794,55.195L-350.117,53.615L-344.595,52.62L-342.086,53.615L-337.234,52.035L-333.553,52.211L-324.852,47.818L-319.833,42.304L-316.152,42.01L-311.3,40.66L-309.627,38.369L-308.79,35.371L-304.608,31.546L-302.265,30.604L-297.246,25.772L-293.397,24.415L-289.884,21.111L-288.043,17.921L-284.697,14.847L-274.993,9.816L-265.623,8.335L-257.258,8.75L-253.41,11.059L-253.242,13.723L-255.083,13.427L-257.927,14.847L-261.106,14.078L-264.62,14.669L-263.783,17.448L-269.137,20.815L-274.156,26.42L-277.335,27.599L-278.172,31.958L-279.343,31.428L-280.514,34.488L-282.857,36.018L-283.693,39.955L-285.701,42.773L-287.207,43.126L-289.215,52.738L-288.211,55.78L-289.717,57.826L-287.876,57.651L-284.53,52.562L-284.028,49.985L-282.857,50.747L-278.005,46.059L-273.32,43.536L-275.328,46.762L-277.335,48.169L-279.845,52.679L-274.826,47.759L-270.476,46.704L-268.133,47.466L-261.943,47.407L-259.433,49.165L-258.094,48.697L-255.25,50.747L-253.911,53.03L-251.402,52.386L-247.721,56.072L-247.219,59.638L-244.375,62.499L-243.371,65.242L-241.028,68.099L-237.849,68.974L-238.184,73.574L-236.344,75.204L-231.993,76.076L-224.966,75.495L-220.783,72.992L-218.943,73.458L-216.6,77.646L-214.593,79.216L-211.414,79.448L-210.075,76.774L-207.398,77.181L-205.892,79.39L-205.223,75.378L-206.394,72.294L-203.717,71.129L-202.546,72.992L-203.55,76.251L-200.706,77.762L-196.356,73.574L-189.663,69.964L-179.791,63.55L-177.951,64.775L-167.745,62.324L-160.048,63.258L-154.192,63.433L-149.173,63.025L-138.8,58.06L-134.784,57.359L-129.765,57.768L-124.411,56.949L-128.092,61.857L-128.426,69.731L-128.092,72.352L-129.43,73.458L-127.924,76.425L-125.247,76.89L-123.741,75.96L-122.738,77.472L-120.228,77.297L-117.383,78.925L-111.695,76.076L-109.52,76.309L-107.679,78.983L-107.847,81.017L-103.664,79.39L-102.493,79.797L-100.819,76.018L-97.64,74.622L-93.792,75.727L-91.952,75.204L-90.613,72.934L-86.096,73.225L-85.259,74.971L-86.932,80.784L-85.761,87.748L-85.594,93.252L-90.446,93.368L-91.784,97.129L-89.275,97.823L-88.438,96.608L-85.928,96.84L-84.59,99.037L-81.411,100.135L-83.586,102.445L-79.571,106.774L-77.563,106.832L-74.217,109.426L-72.878,107.235L-70.536,109.253L-69.197,107.754L-71.874,101.983L-69.532,102.85L-62.672,102.099L-60.664,102.965L-58.322,108.216L-55.645,110.003L-57.318,113.689L-59.66,114.84L-64.178,112.595L-69.364,113.516L-74.551,111.097L-76.392,111.789L-80.909,111.731L-85.427,110.406L-95.465,111.904L-97.64,113.516L-103.831,109.542L-106.341,106.774L-108.516,107.178L-110.691,105.447L-112.364,107.812L-112.029,110.752L-114.539,112.595L-114.372,115.186L-112.866,118.81L-114.874,119.959L-118.889,117.545L-119.391,115.761L-122.905,113.632L-123.741,111.904L-127.422,108.216L-133.78,105.562L-135.955,105.966L-141.477,103.138L-144.488,103.427L-146.663,102.099L-147.5,103.254L-150.679,102.619L-154.862,106.947L-157.706,111.155L-159.212,111.616L-164.566,110.291L-168.414,111.155L-169.753,112.422L-169.418,114.38L-173.266,112.25L-176.78,111.27L-180.795,112.077L-182.468,111.443L-186.317,112.825L-188.492,115.243L-188.826,118.867L-190.332,123.004L-192.675,122.775L-193.846,125.014L-197.527,125.875L-198.531,128.514L-200.706,128.686L-200.706,131.265L-202.713,131.781L-202.044,135.274L-205.39,133.442L-206.896,131.15L-204.889,129.603L-204.721,127.653L-202.881,125.875L-202.713,123.579L-200.538,123.808L-198.029,118.81L-198.531,116.337L-200.538,115.761L-203.55,120.074L-209.908,118.695L-209.406,121.626L-211.581,124.325L-212.418,127.539L-217.437,129.316L-218.274,130.864L-219.278,128.628L-218.776,125.473L-219.445,121.626L-220.783,119.787L-222.456,120.879L-223.293,127.768L-222.791,128.456L-227.978,131.609L-232.328,138.993L-235.172,147.333L-238.351,151.039L-241.698,157.418L-248.557,167.306L-247.554,169.179L-250.732,168.384L-252.071,165.717L-254.246,164.127L-254.581,162.479L-252.071,155.767L-250.231,153.034L-250.565,151.096L-252.406,149.671L-255.083,152.35L-259.6,152.92L-259.6,152.92L-260.771,150.241L-259.6,148.873L-260.102,146.705L-257.927,144.764L-256.923,142.48L-257.425,139.793L-256.087,135.846L-258.429,131.552L-256.421,130.807L-257.76,128.284L-259.935,127.252L-260.939,125.358L-264.954,125.129L-266.46,122.66L-269.974,123.693L-272.985,121.109L-270.141,118.12L-271.312,116.912L-271.312,114.207L-278.005,111.443L-280.347,112.25L-284.363,109.542L-286.37,110.406L-289.884,109.196L-290.219,107.754L-294.736,107.87L-295.238,109.714L-297.58,109.714L-298.25,108.043L-301.094,107.12L-303.102,107.87L-317.491,99.672L-365.51,86.298L-365.342,84.732L-370.027,75.029L-374.545,74.098L-376.218,72.701L-376.218,72.701L-378.226,73.051Z" fill="#e7e2d8"/><path d="M-290.386,1050.655L-285.366,1051.257L-287.709,1052.184L-289.717,1051.767ZM-302.6,1049.125L-299.923,1048.523L-294.903,1049.867L-293.899,1050.562L-297.915,1050.33ZM-312.639,1050.701L-310.129,1050.377L-307.619,1048.94L-308.288,1050.284L-311.802,1051.535ZM-320.67,1049.496L-317.156,1049.542L-315.818,1048.94L-316.654,1050.933L-318.327,1051.257L-321.172,1050.052ZM-414.198,898.091L-412.023,895.273L-415.871,892.31L-415.035,890.445L-413.194,891.114L-410.852,890.732L-410.35,889.632L-410.684,886.043L-408.509,883.553L-408.844,882.452L-410.517,883.074L-411.019,885.086L-413.027,881.829L-413.027,878.762L-409.179,874.445L-410.015,872.91L-411.688,876.412L-414.533,877.084L-416.206,875.932L-415.704,875.021L-412.859,874.541L-412.19,871.95L-414.533,870.653L-414.365,873.102L-417.377,873.869L-415.035,870.029L-417.21,867.002L-412.525,865.032L-412.859,863.445L-417.042,860.991L-416.708,859.644L-413.863,858.874L-412.692,860.558L-410.015,861.617L-408.007,860.751L-409.346,858.344L-411.521,859.018L-413.194,857.767L-413.027,854.925L-409.011,854.829L-407.673,855.696L-406,854.058L-408.677,852.805L-409.848,850.153L-406.836,846.39L-410.517,844.749L-410.015,843.349L-407.338,842.238L-406.502,844.314L-404.661,843.542L-405.832,841.368L-401.817,841.078L-400.478,838.13L-400.98,836.97L-402.821,837.115L-404.326,834.648L-402.319,833.099L-399.642,834.696L-397.467,833.341L-397.801,832.131L-401.148,832.18L-403.49,830.098L-401.984,828.693L-399.307,830.776L-398.638,827.337L-395.459,826.61L-394.288,825.156L-395.626,822.974L-394.79,821.664L-391.611,821.615L-392.113,824.235L-390.439,824.283L-390.439,821.227L-386.257,818.461L-387.26,814.43L-385.085,811.951L-385.253,810.638L-387.26,807.671L-387.26,804.556L-385.587,803.533L-385.755,805.919L-383.914,806.795L-381.572,804.361L-381.906,802.852L-385.253,802.754L-386.257,800.805L-385.085,800.123L-385.42,798.417L-383.747,797.1L-384.082,799.879L-383.245,801.536L-380.903,800.61L-381.906,797.1L-381.07,795.881L-382.408,793.734L-382.074,792.319L-380.233,792.416L-379.564,795.296L-374.377,793.149L-371.366,791L-371.366,788.803L-374.21,786.115L-335.895,786.213L-309.794,786.164L-275.997,786.115L-273.822,790.268L-271.145,791.977L-273.153,809.617L-276.331,840.788L-277.335,848.513L-282.857,902.243L-283.693,912.348L-287.207,946.037L-288.713,959.403L-287.04,995.732L-286.036,1015.504L-285.534,1032.132L-285.032,1042.446L-285.701,1043.931L-286.872,1043.235L-288.545,1045.091L-291.557,1043.838L-293.732,1044.534L-294.569,1043.142L-297.58,1042.817L-300.592,1043.885L-304.44,1041.61L-304.775,1042.91L-308.288,1041.146L-311.969,1041.286L-317.156,1042.539L-321.841,1044.488L-326.86,1046.019L-326.191,1043.513L-327.864,1042.121L-330.207,1043.374L-328.701,1044.163L-328.533,1046.019L-332.716,1048.662L-334.055,1052.369L-335.561,1051.906L-337.736,1052.647L-339.743,1052.647L-341.918,1050.33L-342.588,1047.271L-342.588,1044.07L-345.097,1040.496L-345.097,1037.988L-346.771,1035.991L-348.611,1035.108L-349.28,1033.295L-350.953,1031.714L-351.623,1027.293L-352.961,1026.642L-351.288,1022.543L-351.957,1020.866L-350.786,1019.701L-349.28,1013.871L-348.109,1012.984L-348.276,1010.883L-347.105,1009.856L-348.276,1008.174L-375.883,1008.268L-398.303,1008.314L-436.116,1008.314L-433.941,1007.333L-432.77,1004.622L-435.447,1002.284L-435.614,1000.974L-433.941,998.822L-434.443,996.903L-436.451,995.498L-436.283,993.718L-433.272,994.046L-430.427,993.109L-430.093,991.094L-432.101,989.359L-432.268,987.249L-433.439,986.498L-431.933,984.668L-431.264,987.014L-429.925,988.374L-428.42,988.046L-428.42,986.686L-430.595,983.166L-430.762,979.691L-427.416,978.845L-425.408,977.2L-426.077,975.696L-429.089,976.307L-430.595,974.897L-429.758,973.11L-428.085,974.427L-425.073,974.427L-424.906,969.439L-423.066,967.792L-419.217,967.556L-418.548,966.708L-423.4,966.19L-422.229,961.761L-420.221,961.242L-419.887,963.269L-418.715,964.07L-417.879,962.751L-418.883,961.761L-414.867,958.082L-415.202,955.723L-414.031,954.543L-410.852,953.882L-410.852,951.52L-414.031,950.292L-413.194,949.11L-411.019,950.953L-410.182,949.252L-408.175,948.212L-406.669,944.95L-409.179,943.814L-408.844,946.747L-414.198,946.227L-413.863,942.489L-409.346,941.543L-408.175,940.265L-405.832,941.732L-404.996,939.744L-405.33,937.234L-403.323,937.613L-400.646,933.869L-401.315,933.016L-402.319,934.912L-406.167,934.106L-406.167,931.356L-404.828,930.407L-406.167,928.746L-407.84,929.695L-411.688,927.37L-411.186,924.616L-410.35,924.569L-407.505,926.848L-405.832,926.516L-406.669,925.281L-410.182,922.906L-407.84,921.433L-406.502,919.674L-407.673,917.915L-408.677,920.102L-412.023,921.338L-413.027,920.673L-413.529,918.2L-412.023,916.393L-409.346,914.823L-409.011,913.538L-414.198,912.109L-414.031,908.728L-413.194,906.964L-409.681,904.485L-409.346,902.625L-410.852,899.189L-412.692,899.38L-412.525,902.577L-414.867,903.818L-416.373,902.768L-415.871,900.478Z" fill="#e7e2d8"/><path d="M502.514,174.564L503.016,170.71L506.027,167.079L505.525,166.228L507.366,162.024L505.191,159.978L508.203,159.352L508.872,157.873L512.553,155.483L515.062,158.954L519.747,159.239L521.922,155.255L524.432,198.112L526.272,246.276L526.272,251.22L527.109,268.559L528.113,269.83L527.109,274.689L527.778,275.241L526.44,280.809L527.946,283.728L534.805,290.769L533.802,293.076L533.802,296.864L539.657,301.306L534.638,310.831L534.303,313.236L532.965,313.946L530.455,312.307L524.432,314.056L522.926,317.441L519.747,316.459L517.237,318.423L517.405,321.805L513.891,321.86L512.218,324.367L491.137,323.713L457.841,322.46L456.335,319.569L455.331,320.115L453.324,314.547L454.829,310.558L454.997,307.44L457.172,306.893L458.51,304.429L457.506,301.58L459.012,299.771L458.176,296.206L458.845,288.625L460.853,285.105L459.849,281.801L461.522,274.358L460.685,272.426L461.522,268.338L464.032,266.513L465.036,260.481L466.541,258.043L469.72,255.659L470.724,253.218L470.557,249.665L473.736,245.942L473.736,241.214L475.744,238.764L477.751,234.919L477.751,232.298L476.078,228.502L477.082,225.317L476.078,223.416L477.751,220.003L483.607,218.212L485.281,218.94L487.958,217.764L488.794,214.851L492.81,214.066L495.152,211.879L496.323,209.354L499,208.119L497.996,204.805L499.837,204.074L500.171,199.969L498.498,197.83L496.658,192.083L499.168,189.15L499.837,185.537L502.848,181.299L500.673,176.263Z" fill="#e7e2d8"/><path d="M477.584,414.759L478.086,413.8L482.604,412.628L479.09,414.919ZM472.565,424.495L473.401,423.433L475.242,424.283L475.242,426.939L474.238,425.08ZM469.218,419.231L471.895,418.38L469.888,420.668ZM382.717,451.454L383.554,454.989L382.048,457.046L375.69,461.156L373.85,461.208L374.352,458.574L375.857,457.731L376.527,453.301ZM275.302,248.943L277.979,246.165L277.142,248.666ZM271.621,247.888L273.629,245.664L275.135,245.942ZM117.358,351.354L122.879,348.485L131.747,342.469L136.599,337.531L141.618,334.815L145.968,333.456L147.809,329.649L149.984,327.689L150.653,324.857L156.676,321.805L159.855,318.86L159.186,314.493L157.011,312.307L157.346,309.956L156.174,307.932L152.326,306.017L152.494,300.977L149.482,300.155L150.988,295.931L150.151,289.065L149.649,288.35L154.334,287.14L160.692,284.829L170.061,282.242L176.754,281.14L182.275,281.03L188.633,281.526L194.657,281.085L209.046,283.398L212.894,284.444L215.404,287.03L219.252,289.56L221.259,290.11L227.952,287.415L233.808,287.36L241.003,286.7L244.516,287.745L248.364,287.8L250.707,286.425L255.726,285.325L258.738,283.123L260.244,283.068L263.423,278.66L268.442,275.13L270.115,274.689L273.294,271.708L275.636,271.432L278.983,272.26L281.827,271.211L283.333,268.282L283.668,263.471L282.162,253.496L278.815,251.276L280.656,248.499L282.998,247.888L283.333,249.721L286.846,247.443L286.345,245.053L283.166,242.438L279.485,243.273L280.321,241.659L277.812,238.82L275.302,238.764L275.469,234.306L278.146,227.887L281.325,227.608L285.173,225.261L285.173,222.577L288.185,221.347L292.702,218.268L294.208,218.548L296.885,216.924L301.068,212.72L301.737,210.14L303.745,207.277L310.605,200.475L315.792,194.845L325.161,186.892L324.994,186.215L336.371,180.055L340.721,176.546L343.733,176.546L347.414,174.451L351.932,176.093L355.11,175.527L370.336,175.98L379.204,176.036L397.106,175.244L401.122,175.3L416.682,174.734L416.849,180.903L415.678,182.599L415.009,186.158L417.184,189.376L415.511,192.478L415.176,197.661L414.507,199.406L415.176,203.343L418.355,208.287L419.024,212.159L417.017,216.644L418.188,223.025L417.518,225.038L414.34,228.558L413.503,233.525L412.164,237.928L413.67,239.432L413.503,245.164L415.176,248.888L414.34,252.442L416.347,255.604L413.67,260.979L412.499,267.287L414.172,268.725L415.343,265.075L418.522,265.075L418.857,268.006L421.032,269.609L420.697,288.515L419.694,311.651L419.694,315.694L419.024,317.714L420.363,321.26L414.674,341.547L408.985,362.918L409.989,365.184L408.484,387.877L407.647,403.665L406.978,412.255L410.157,417.422L398.779,424.336L402.126,429.753L401.958,431.504L400.787,433.731L397.274,435.957L396.939,440.141L394.764,440.036L396.27,443.21L399.281,438.606L401.122,439.4L402.795,437.176L406.308,435.745L409.32,435.639L409.989,433.89L413.67,435.48L414.005,433.307L415.511,434.791L418.857,435.215L421.869,436.434L425.717,434.95L426.051,432.671L428.896,432.246L430.569,432.883L443.117,432.724L449.643,431.663L451.985,430.708L457.005,427.364L458.51,425.239L460.518,424.549L462.693,421.891L466.207,420.774L468.215,420.88L465.203,423.645L463.697,423.964L466.207,425.611L467.043,427.948L469.888,428.585L471.728,427.258L474.405,431.079L476.915,430.177L480.763,427.629L481.098,426.142L483.942,425.558L485.95,426.196L485.113,427.311L473.903,432.299L460.853,438.818L452.487,442.1L438.935,447.017L430.067,451.137L422.873,453.301L418.355,453.934L417.351,453.143L406.643,456.308L396.437,455.78L388.741,458.68L389.242,456.677L385.394,456.782L385.896,455.464L384.056,453.407L385.227,451.559L383.888,449.659L384.892,448.497L385.562,445.061L387.569,441.623L390.916,431.716L390.414,430.708L368.328,417.635L353.605,408.416L351.43,405.48L351.597,403.878L348.92,404.306L348.418,403.13L344.235,403.291L344.57,402.329L342.06,400.565L340.22,400.833L340.052,399.015L335.869,392.968L337.208,392.325L336.873,383.799L334.531,382.672L335.869,380.954L334.196,378.321L329.679,376.493L327.169,376.708L325.831,371.327L324.994,371.542L322.652,368.364L304.749,368.472L276.473,368.418L257.901,368.203L240.333,368.364L199.676,368.418L171.735,368.31L158.851,368.472L117.525,368.418L117.358,368.31Z" fill="#e7e2d8"/><path d="M-21.178,393.129L-18.501,392.218L-18.836,394.146ZM-26.197,390.396L-25.194,385.57L-23.353,387.448L-23.855,389.324L-26.197,391.575ZM-117.718,387.341L-96.971,386.697L-69.03,385.624L-54.641,385.034L-54.474,386.429L-50.96,387.931L-48.785,387.019L-42.594,391.414L-38.411,392.486L-36.571,393.61L-33.559,397.143L-30.38,398.694L-27.369,397.464L-27.034,394.788L-25.863,394.092L-23.52,397.036L-20.342,396.929L-20.509,398.908L-15.657,404.039L-12.98,405.801L-9.299,406.922L-2.439,403.878L1.242,403.665L4.086,401.795L12.619,398.587L18.81,400.619L21.989,399.817L25.335,400.298L30.187,397.036L35.039,392.432L36.378,391.897L39.055,388.788L46.417,383.316L48.09,383.263L59.3,377.46L64.319,376.546L68.335,374.718L79.21,371.004L82.054,369.711L82.054,452.826L79.043,454.251L76.7,454.198L75.195,456.835L77.035,459.154L78.541,463.577L77.872,467.313L78.374,472.305L77.537,475.718L75.864,476.925L75.027,480.124L73.354,482.639L73.354,485.677L71.848,487.247L71.848,493.627L70.677,494.672L71.012,497.387L68.837,496.813L69.506,499.945L67.833,501.145L67.833,504.116L65.825,506.618L67.666,509.221L65.992,510.575L65.323,514.892L62.646,515.36L57.627,519.983L54.95,522.942L53.611,525.432L51.771,525.847L49.93,528.646L47.086,529.06L43.572,531.495L41.732,531.65L40.728,528.957L37.884,527.972L33.701,531.909L33.199,536.204L28.012,535.842L27.51,538.686L25.837,539.306L24.499,541.425L25.001,546.382L21.822,547.362L22.323,549.58L23.997,551.075L23.327,556.792L21.822,555.505L20.316,556.535L19.814,558.696L18.308,559.828L16.468,558.799L17.806,556.74L15.798,552.672L13.958,552.621L11.783,550.559L10.779,552.466L8.771,553.857L6.429,558.387L6.429,561.833L2.915,564.506L4.588,569.897L5.09,575.077L4.086,576.614L1.409,576.256L-0.598,577.69L-1.1,582.707L-1.937,585.213L-5.785,585.776L-11.641,587.82L-14.653,586.798L-14.987,584.548L-17.163,582.758L-20.676,578.715L-24.19,578.407L-26.365,576.512L-27.871,570.821L-27.369,568.563L-28.54,566.869L-32.053,568.512L-34.563,568.512L-36.069,570.513L-39.081,572.257L-40.754,574.975L-45.773,574.923L-47.948,576.153L-48.785,573.949L-50.625,572.719L-55.31,571.693L-57.82,570.051L-62.17,571.18L-64.512,574.565L-69.197,573.078L-70.034,570.513L-72.543,569.179L-73.045,567.434L-77.897,565.071L-83.419,566.047L-90.111,563.941L-90.948,562.604L-90.948,559.21L-93.625,554.938L-95.298,550.611L-100.15,548.961L-100.819,545.401L-102.158,544.988L-103.496,546.485L-105.839,546.33L-108.181,547.826L-111.695,546.382L-114.205,543.594L-115.376,543.491L-118.387,545.969L-118.387,533.669L-118.053,519.256L-118.053,496.291L-117.551,473.408L-117.551,400.298Z" fill="#e7e2d8"/><path d="M-347.44,728.565L-345.432,727.426L-344.93,723.711L-341.249,721.729L-341.417,718.704L-346.101,715.031L-345.599,713.989L-340.58,714.783L-338.07,714.038L-338.238,712.697L-341.751,710.76L-341.751,708.921L-337.736,708.871L-336.899,707.031L-338.572,704.096L-337.401,700.91L-338.405,699.814L-335.895,699.864L-336.23,701.408L-334.055,701.756L-332.716,699.764L-327.195,699.266L-313.141,699.565L-292.059,699.565L-269.137,699.864L-268.133,696.675L-269.806,689.341L-259.6,690.189L-259.767,691.936L-240.694,691.537L-225.301,691.437L-200.873,690.838L-199.702,691.936L-197.025,690.838L-188.826,691.038L-174.939,692.136L-165.57,692.635L-149.508,693.034L-140.305,692.336L-127.924,692.785L-119.391,693.583L-105.504,694.132L-92.788,694.381L-79.571,694.481L-65.684,694.88L-65.014,693.832L-59.493,694.032L-46.442,693.982L-45.606,694.231L-19.338,694.281L-9.131,694.132L16.133,694.231L16.635,692.934L29.518,693.184L28.179,694.58L26.674,697.572L27.343,701.557L26.339,702.155L25.168,705.39L26.841,709.07L23.997,709.07L22.658,707.926L20.818,708.523L17.304,711.157L11.783,721.084L9.44,722.472L6.931,722.472L6.261,719.993L3.082,719.398L1.577,721.035L-0.431,720.787L-3.276,721.828L-5.785,723.563L-8.295,728.169L-12.98,731.237L-15.489,730.247L-14.653,726.782L-16.326,724.801L-21.847,728.268L-25.194,733.116L-27.703,731.336L-29.376,732.82L-28.875,735.934L-33.225,741.614L-37.24,740.725L-40.754,742.156L-42.092,744.13L-44.769,744.327L-45.439,746.053L-48.116,748.42L-49.789,748.075L-50.625,749.356L-54.306,750.932L-56.147,753.395L-69.532,753.739L-72.041,755.954L-74.718,756.347L-76.057,758.708L-78.232,759.446L-81.076,762.493L-80.407,764.654L-81.913,765.882L-81.076,768.68L-84.757,771.77L-89.442,771.966L-89.944,770.691L-93.625,773.045L-95.131,786.506L-125.749,786.555L-148.504,786.848L-155.029,786.75L-165.235,786.506L-191.838,786.31L-198.029,786.408L-213.589,786.31L-240.359,785.675L-250.9,785.675L-275.997,785.381L-275.997,786.115L-309.794,786.164L-335.895,786.213L-374.21,786.115L-373.708,783.719L-369.525,784.355L-368.019,779.462L-366.514,778.189L-364.506,779.217L-362.833,777.993L-365.342,775.152L-363.335,773.045L-364.339,771.623L-366.848,771.28L-367.517,768.974L-364.84,768.483L-364.84,766.275L-363.335,763.967L-365.844,762.247L-366.179,764.36L-368.187,764.065L-367.685,761.805L-363.837,758.512L-362.498,762.837L-360.658,759.151L-362.163,757.085L-361.327,754.231L-359.821,753.788L-356.14,756.544L-355.638,754.576L-357.144,754.084L-357.311,751.474L-352.961,749.405L-353.463,747.532L-355.471,748.666L-356.977,747.828L-357.981,744.475L-355.471,742.452L-353.965,743.489L-351.121,742.403L-349.615,739.836L-347.774,739.787L-345.934,738.157L-349.28,736.379L-347.774,733.957L-343.759,735.094L-343.759,732.869L-346.771,730.445Z" fill="#e7e2d8"/><path d="M292.87,620.807L294.041,621.568L292.87,622.937ZM308.263,614.768L309.267,614.971L310.27,612.178L328.173,610.246L325.496,614.26L322.986,619.235L321.648,620.604L320.811,619.539L318.301,619.894L315.122,623.849L313.115,627.395L311.274,633.771L311.442,637.005L307.593,643.468L308.765,644.174L305.753,648.762L303.745,652.741L302.239,653.295L302.407,656.163L300.566,660.487L297.555,663.702L294.878,663.602L295.547,665.359L294.041,665.61L293.874,661.392L292.201,658.627L291.531,655.559L291.866,652.036L293.372,649.064L293.874,644.578L295.547,639.278L296.216,635.439L298.893,631.444L301.905,625.876L301.235,624.153L304.749,623.292L307.259,619.996L307.426,618.575L304.08,617.51ZM293.037,614.616L291.197,616.85L290.695,614.616ZM14.627,639.127L16.468,640.591L13.456,642.307L13.623,643.972L16.133,645.082L16.468,649.618L18.81,651.18L19.981,653.798L22.993,653.949L25.001,655.207L25.001,656.415L28.179,658.828L33.868,658.476L36.043,657.018L36.378,655.509L40.226,654.654L41.565,651.885L42.903,650.827L44.744,653.093L49.261,656.867L54.448,654.301L60.638,652.942L63.483,652.691L66.662,650.324L65.156,648.157L66.327,645.586L69.841,647.502L70.51,648.812L77.37,645.233L80.549,642.862L82.556,642.408L84.23,645.838L92.428,640.844L93.097,639.379L90.922,639.177L91.089,637.561L94.101,635.843L96.109,633.821L93.265,632.102L92.595,630.027L94.603,628.053L94.268,626.23L97.782,620.554L102.801,615.276L105.813,612.686L107.486,610.094L108.49,607.042L109.829,605.516L108.825,604.04L109.996,601.188L114.179,597.06L116.186,595.989L115.183,593.744L118.863,589.302L120.871,586.236L120.369,582.912L122.712,576.717L127.898,579.124L130.743,584.702L138.439,587.411L143.124,582.605L145.634,575.538L147.307,572.616L148.645,572.668L148.813,569.025L151.657,564.814L153.163,561.268L159.019,566.458L162.365,559.776L166.213,556.123L166.213,557.976L167.886,556.74L170.396,553.342L171.567,554.423L173.91,551.178L172.906,550.353L176.921,545.814L178.093,545.453L180.77,542.252L179.096,540.392L180.937,537.6L179.933,536.825L183.781,531.339L182.61,530.77L183.614,528.905L182.777,527.454L183.447,524.239L194.489,533.514L207.54,544.317L211.053,535.273L212.559,532.944L214.734,532.789L217.411,534.083L219.921,534.031L220.925,536.359L224.773,538.583L223.602,541.115L222.096,542.045L221.929,545.04L223.602,545.711L224.606,547.723L230.294,548.497L234.645,550.662L234.477,553.136L235.816,554.011L239.162,554.32L240.668,556.226L244.349,559.982L244.349,564.763L244.181,569.128L241.17,570.411L239.999,571.796L240.166,574.103L236.82,575.18L234.645,574.103L234.645,576.768L231.633,582.554L230.964,585.213L231.298,589.098L233.808,592.111L238.66,591.345L239.664,590.017L242.174,590.017L244.181,588.076L245.687,589.608L244.683,593.387L247.862,596.652L247.862,599.15L253.718,602.156L257.901,602.258L259.072,603.683L260.076,602.614L264.092,603.072L264.761,605.312L267.438,607.297L268.777,610.297L270.952,611.06L273.461,613.803L276.808,614.971L281.827,618.423L280.99,621.72L278.481,622.937L278.146,628.357L278.815,629.825L276.975,632.152L279.15,633.315L275.971,634.832L270.784,631.596L268.944,632.961L267.773,631.697L267.773,629.622L265.598,625.521L262.419,623.9L261.08,622.126L259.072,621.517L255.559,616.292L253.718,615.733L253.049,613.448L250.874,611.923L250.539,613.448L255.224,617.966L258.57,623.748L261.08,624.964L261.247,626.23L263.924,626.939L265.598,631.798L267.438,634.478L272.457,634.681L273.629,636.5L278.815,637.713L276.473,639.177L276.306,641.045L278.481,641.449L279.15,640.339L280.489,642.408L281.325,647.956L279.987,652.489L276.975,649.316L273.461,647.048L271.956,649.165L273.796,651.13L274.967,653.899L276.473,654.603L272.792,655.811L269.78,656.012L270.784,657.974L274.465,657.42L274.131,661.241L276.473,660.638L277.142,662.196L279.15,663.2L280.154,665.661L278.648,670.527L277.979,669.775L275.302,670.677L272.792,672.382L271.119,668.972L266.267,665.911L263.924,663.652L264.594,661.241L262.419,657.672L258.738,658.124L257.399,659.381L255.726,657.068L252.714,656.515L252.045,655.358L248.532,657.119L250.372,658.778L252.38,658.376L255.391,659.029L257.901,661.794L259.407,661.894L260.746,658.979L262.084,664.958L262.251,668.32L265.932,669.273L270.115,673.384L270.282,676.64L274.8,676.44L276.306,675.088L276.473,676.74L277.979,677.291L277.477,672.983L280.321,672.683L282.496,674.136L288.352,675.939L291.197,674.587L293.037,675.138L294.376,681.545L296.383,688.542L297.889,692.086L299.06,696.774L275.302,696.774L255.224,696.774L250.037,696.675L250.037,697.173L232.302,697.123L188.131,697.123L175.75,697.323L129.07,697.323L100.626,697.223L92.595,697.123L73.521,696.076L67.331,696.276L51.436,695.528L42.234,695.378L28.179,694.58L29.518,693.184L16.635,692.934L16.133,694.231L-9.131,694.132L-19.338,694.281L-45.606,694.231L-46.442,693.982L-59.493,694.032L-65.014,693.832L-63.676,692.485L-58.154,690.04L-54.641,690.14L-48.116,687.543L-42.594,685.794L-39.917,685.594L-39.583,683.095L-36.906,679.093L-32.053,678.893L-27.871,677.091L-26.867,674.837L-27.369,671.881L-25.361,670.226L-23.353,670.126L-20.676,668.17L-20.676,663.853L-16.493,661.593L-13.314,659.13L-9.633,657.068L-3.443,655.106Z" fill="#e7e2d8"/><path d="M-217.939,152.179L-216.935,147.618L-211.748,148.588L-215.597,155.881ZM-237.515,162.309L-235.507,161.513L-235.172,165.092L-237.515,163.786ZM-381.572,41.071L-380.233,36.194L-378.226,35.959L-379.062,40.366ZM-384.249,49.693L-380.735,47.759L-383.078,50.513ZM-390.272,46.352L-389.436,45.12L-384.416,43.419L-383.58,44.182L-385.42,46.997L-389.436,47.642ZM-395.292,52.211L-394.79,50.63L-391.443,48.228L-391.276,49.341ZM-394.288,43.712L-391.945,46.88L-394.12,47.055L-395.459,44.886ZM-395.961,39.603L-390.105,37.487L-388.264,40.719L-385.922,38.721L-385.587,41.306L-388.264,41.834L-391.109,44.71L-392.949,42.245L-395.626,41.071ZM-396.797,55.897L-393.953,54.844L-388.599,49.81L-386.257,51.684L-391.276,53.615L-390.439,55.663L-393.284,55.897L-396.63,58.06ZM-405.665,42.186L-403.155,41.188L-403.323,43.771ZM-453.684,61.273L-450.338,63.025L-444.649,62.383L-436.451,59.346L-433.272,57.768L-430.26,57.768L-422.229,53.674L-418.046,52.094L-417.042,50.571L-414.198,51.859L-413.027,49.927L-408.844,49.341L-405.163,45.238L-402.821,45.941L-400.478,43.888L-398.805,44.123L-394.79,48.872L-397.132,53.323L-401.148,57.885L-399.642,62.149L-402.319,64.192L-404.159,68.682L-401.984,69.615L-394.957,65.359L-394.12,62.208L-387.093,68.507L-384.918,69.789L-383.412,69.207L-379.229,70.78L-378.226,73.051L-376.218,72.701L-376.218,72.701L-374.545,74.098L-370.027,75.029L-365.342,84.732L-365.51,86.298L-317.491,99.672L-303.102,107.87L-301.094,107.12L-298.25,108.043L-297.58,109.714L-295.238,109.714L-294.736,107.87L-290.219,107.754L-289.884,109.196L-286.37,110.406L-284.363,109.542L-280.347,112.25L-278.005,111.443L-271.312,114.207L-271.312,116.912L-270.141,118.12L-272.985,121.109L-269.974,123.693L-266.46,122.66L-264.954,125.129L-260.939,125.358L-259.935,127.252L-257.76,128.284L-256.421,130.807L-258.429,131.552L-256.087,135.846L-257.425,139.793L-256.923,142.48L-257.927,144.764L-260.102,146.705L-259.6,148.873L-260.771,150.241L-259.6,152.92L-259.6,152.92L-255.083,152.35L-252.406,149.671L-250.565,151.096L-250.231,153.034L-252.071,155.767L-254.581,162.479L-254.246,164.127L-252.071,165.717L-250.732,168.384L-247.554,169.179L-249.227,172.467L-249.394,176.999L-255.585,177.735L-259.098,179.998L-258.596,182.656L-260.437,185.989L-261.943,186.836L-263.783,191.519L-265.791,193.887L-266.962,199.744L-266.46,201.15L-268.635,203.962L-265.289,206.322L-263.281,205.929L-262.11,202.95L-257.76,199.35L-256.087,199.181L-253.577,195.634L-253.577,193.605L-248.39,186.102L-244.04,184.068L-242.199,184.464L-240.359,182.542L-237.849,184.351L-238.853,181.751L-236.845,176.263L-232.328,170.086L-231.157,164.411L-229.149,164.695L-225.635,162.877L-225.468,159.523L-222.624,156.109L-218.943,156.28L-219.278,161.229L-221.955,161.513L-222.289,169.576L-224.297,171.844L-225.635,171.617L-226.472,174.621L-228.814,177.565L-227.978,179.998L-230.153,182.203L-229.484,183.673L-232.495,185.537L-234.67,189.037L-236.009,193.944L-238.853,199.969L-240.359,201.432L-241.865,204.917L-245.378,219.947L-243.873,225.205L-244.207,229.172L-246.215,231.461L-250.063,234.027L-250.565,237.483L-251.904,239.544L-254.246,248.555L-253.911,253.108L-252.573,255.881L-252.908,261.533L-256.421,268.061L-257.592,275.572L-260.939,281.47L-262.444,290.055L-261.106,294.23L-261.943,296.316L-260.604,300.977L-261.775,304.1L-259.433,307.495L-259.433,312.143L-258.429,315.585L-255.752,318.805L-256.421,323.659L-258.262,329.485L-257.258,337.368L-270.977,337.096L-296.409,337.151L-303.269,337.368L-335.728,336.77L-344.261,336.499L-382.241,336.39L-389.77,336.281L-389.77,334.271L-392.782,328.342L-395.626,327.254L-403.49,325.239L-409.011,321.751L-411.186,312.526L-413.194,311.159L-413.194,307.44L-414.533,302.621L-414.7,296.7L-413.194,295.383L-412.19,292.527L-409.179,289.23L-411.354,285.049L-415.871,282.792L-415.704,278.715L-417.377,275.958L-416.54,273.088L-417.879,270.161L-417.21,267.73L-418.883,265.684L-419.217,261.755L-417.879,255.493L-419.385,251.331L-424.404,243.774L-426.914,240.713L-433.439,239.098L-439.462,234.082L-439.964,232.465L-444.482,230.177L-447.326,227.664L-448.163,222.969L-449.501,222.13L-449.501,219.164L-451.844,216.924L-455.524,214.738L-463.89,211.879L-466.233,209.747L-467.906,205.367L-469.913,204.411L-478.279,203.906L-479.785,201.432L-482.127,200.532L-481.96,199.181L-487.147,194.282L-489.824,192.76L-490.66,190.73L-488.653,186.215L-489.155,181.977L-487.983,179.602L-488.987,177.282L-488.653,173.601L-490.493,171.674L-487.816,168.384L-488.82,163.218L-488.151,161.399L-488.485,156.223L-485.641,153.433L-485.808,151.78L-483.299,149.101L-483.131,146.248L-486.979,141.394L-486.812,139.622L-489.155,137.792L-490.828,138.307L-494.341,137.105L-494.509,134.072L-493.337,127.539L-489.656,124.727L-486.31,116.222L-482.964,113.516L-478.781,112.192L-477.443,110.003L-475.1,110.752L-473.427,107.524L-469.412,107.927L-468.408,104.524L-466.734,103.946L-466.734,64.192L-463.054,65.125L-461.213,62.616L-462.719,61.507L-460.042,60.689L-459.54,58.995L-457.198,58.352Z" fill="#e7e2d8"/><path d="M-38.579,785.821L-23.353,780.979L-22.182,782.007L-17.497,779.07L-12.645,776.769L-11.641,777.014L-8.295,775.691L-7.124,776.132L-5.116,773.584L-4.279,775.495L-0.431,774.515L31.024,775.936L48.592,776.72L57.794,777.356L58.129,779.951L56.957,782.3L57.794,783.328L62.813,779.756L69.841,789.486L69.171,796.076L98.953,796.564L111.334,796.905L121.541,796.954L136.264,811.659L141.451,817.296L158.851,834.841L174.412,850.78L172.237,851.166L166.213,853.624L161.696,856.804L155.84,862.627L152.828,866.426L151.657,868.588L148.98,871.373L146.638,875.837L144.462,884.176L144.964,886.809L143.793,889.106L141.451,891.354L137.603,893.314L136.097,897.948L133.252,897.47L130.408,898.234L128.568,896.372L125.891,897.948L124.218,900.955L124.719,902.434L126.058,901.957L126.058,903.531L123.548,904.485L120.537,906.631L119.031,909.109L113.342,911.919L111.669,910.109L109.829,910.443L109.661,911.967L112.506,913.014L111.669,915.822L107.486,918.295L106.315,920.197L104.642,919.96L100.626,921.005L97.782,923.809L96.778,922.954L90.755,927.228L89.416,926.231L86.907,927.56L86.572,926.136L84.397,926.183L83.728,928.177L86.237,932.115L85.066,935.623L79.712,938.56L76.533,939.507L76.199,937.565L73.02,935.67L71.179,936.713L70.844,938.181L72.852,938.891L75.195,941.685L72.685,944.76L68.502,947.551L66.996,947.551L64.152,950.717L64.988,951.709L63.483,951.52L59.802,948.165L57.961,948.969L54.448,947.361L53.611,944.429L54.28,943.199L52.44,940.028L54.113,937.944L53.109,934.343L52.44,934.533L49.93,929.553L50.6,927.94L46.751,924.094L46.751,923.001L42.568,921.766L40.561,919.484L41.397,917.535L40.728,915.251L39.724,914.87L40.561,912.728L39.891,911.205L39.891,907.155L38.386,906.44L38.051,904.104L36.043,901.051L36.88,897.852L33.701,895.798L31.024,893.027L29.518,893.075L25.001,890.445L23.662,888.292L23.997,886.33L22.156,886.57L19.981,884.559L20.65,883.122L15.966,879.193L16.635,877.659L15.966,875.789L17.137,873.725L16.468,872.574L13.958,871.325L10.946,866.858L8.102,865.08L6.094,864.983L3.919,863.156L3.752,861.232L2.246,859.259L1.577,856.322L-3.276,851.6L-8.128,849.092L-11.307,845.618L-12.812,845.57L-14.653,840.692L-16.995,838.372L-18.334,835.132L-20.342,833.971L-21.513,830.679L-21.513,828.209L-23.353,825.689L-23.855,823.265L-25.863,821.809L-26.365,818.704L-27.703,815.596L-29.042,815.013L-33.727,815.79L-37.575,813.312L-41.423,808.255L-44.267,807.914L-49.287,803.923L-49.789,800.805L-48.45,799.538L-48.618,797.783L-44.267,792.66L-39.081,789.34Z" fill="#e7e2d8"/><path d="M416.682,174.734L428.561,174.451L447.802,174.451L454.495,174.96L464.868,175.244L474.405,175.13L502.514,174.564L500.673,176.263L502.848,181.299L499.837,185.537L499.168,189.15L496.658,192.083L498.498,197.83L500.171,199.969L499.837,204.074L497.996,204.805L499,208.119L496.323,209.354L495.152,211.879L492.81,214.066L488.794,214.851L487.958,217.764L485.281,218.94L483.607,218.212L477.751,220.003L476.078,223.416L477.082,225.317L476.078,228.502L477.751,232.298L477.751,234.919L475.744,238.764L473.736,241.214L473.736,245.942L470.557,249.665L470.724,253.218L469.72,255.659L466.541,258.043L465.036,260.481L464.032,266.513L461.522,268.338L460.685,272.426L461.522,274.358L459.849,281.801L460.853,285.105L458.845,288.625L458.176,296.206L459.012,299.771L457.506,301.58L458.51,304.429L457.172,306.893L454.997,307.44L454.829,310.558L453.324,314.547L455.331,320.115L456.335,319.569L457.841,322.46L420.363,321.26L419.024,317.714L419.694,315.694L419.694,311.651L420.697,288.515L421.032,269.609L418.857,268.006L418.522,265.075L415.343,265.075L414.172,268.725L412.499,267.287L413.67,260.979L416.347,255.604L414.34,252.442L415.176,248.888L413.503,245.164L413.67,239.432L412.164,237.928L413.503,233.525L414.34,228.558L417.518,225.038L418.188,223.025L417.017,216.644L419.024,212.159L418.355,208.287L415.176,203.343L414.507,199.406L415.176,197.661L415.511,192.478L417.184,189.376L415.009,186.158L415.678,182.599L416.849,180.903Z" fill="#e7e2d8"/><path d="M516.736,388.628L519.747,389.592L520.249,399.71L516.903,402.169L515.899,396.715L516.234,393.289L514.56,392.111L514.895,400.619L512.051,400.512L511.716,402.383L510.043,402.757L509.876,399.817L512.553,394.735L513.891,391.093ZM508.872,389.539L509.708,389.164L511.549,391.95L510.712,392.325ZM507.199,402.009L508.203,399.282L507.533,398.052L508.37,395.002L509.039,396.073L509.039,400.619ZM497.327,420.668L499.168,416.41L500.004,417.156L500.171,421.199ZM485.782,410.762L487.121,409.216L486.619,405.16L488.627,404.733L489.129,393.557L489.129,385.517L488.627,373.588L488.627,367.825L508.035,367.125L508.035,375.04L510.043,374.718L509.708,379.073L510.545,382.081L513.724,383.853L515.397,386.429L514.895,388.842L512.553,391.039L511.549,388.788L512.218,386.912L509.039,384.014L507.701,381.867L508.537,388.788L504.856,387.877L506.864,389.968L507.031,393.985L505.024,394.574L506.362,397.41L506.362,401.26L504.689,403.665L503.35,407.562L501.343,407.242L496.825,408.202L492.308,410.016L485.95,411.615Z" fill="#e7e2d8"/></g><path d="M313.282,514.32L313.449,515.775L313.282,514.32ZM302.574,508.753L305.92,504.481L308.43,502.709L312.445,501.666L316.126,501.979L319.975,503.908L317.967,506.097L317.13,509.273L315.624,510.939L314.621,510.575L310.94,514.788L311.274,516.815L313.115,518.425L313.282,520.97L311.944,522.423L311.944,524.55L314.286,527.246L315.457,530.252L318.971,533.462L320.644,536.98L321.146,539.978L320.309,541.787L320.644,548.29L323.321,550.765L324.492,552.981L324.827,556.792L330.515,563.838L333.192,565.328L334.866,564.095L335.535,565.944L336.371,572.565L337.041,585.06L319.473,585.009L307.091,584.548L306.757,580.865L302.574,513.228Z" fill="#f08a24" stroke="#ffffff" stroke-width="1.75" stroke-linejoin="round"/></svg>