<svg xmlns="http://www.w3.org/2000/svg" viewBox="0 0 800 600" width="800" height="600" role="img" aria-label="Utah highlighted on a regional map"><rect width="800" height="600" fill="#aacbe6"/><g stroke="#ffffff" stroke-width="1.5" stroke-linejoin="round"><path d="M370.135,550.435L370.574,549.659L372.684,549.984L374.882,549.334L374.706,548.333L376.288,546.756L376.376,544.777L375.057,541.367L373.651,541.166L373.036,541.492L371.893,540.865L371.629,541.291L370.399,539.585L371.014,537.902L371.19,534.331L369.871,533.299L370.662,531.662L369.959,530.378L371.629,530.151L374.09,526.67L374.882,526.065L374.53,524.903L374.882,522.123L375.585,521.82L375.409,519.948L374.794,518.328L374.882,517.036L375.409,516.884L375.233,515.491L374.618,514.983L377.079,512.041L377.079,510.288L377.782,509.577L379.804,508.84L380.683,507.823L382.177,507.289L382.265,506.806L384.463,505.152L384.375,503.904L383.408,502.529L382.177,502.045L379.452,499.495L378.31,499.316L378.485,497.836L376.2,491.727L374.178,490.114L373.563,488.346L372.157,486.885L372.245,483.112L372.772,480.671L371.893,480.106L373.739,479L373.739,477.147L372.948,472.56L372.42,470.882L371.453,469.669L371.102,468.17L371.629,467.24L371.629,464.576L370.838,463.592L371.102,462.582L370.487,461.779L370.75,460.457L370.311,458.927L370.662,457.474L371.453,456.851L370.574,456.046L369.52,453.526L369.871,452.408L369.256,450.326L371.453,449.519L372.245,448.763L372.684,449.128L373.739,448.477L375.233,448.503L375.409,449.154L377.519,448.659L378.661,448.737L380.243,450.586L380.068,451.315L381.913,452.642L384.023,452.356L386.133,447.591L386.572,447.2L386.66,441.196L386.484,434.077L386.484,422.594L404.064,422.594L423.578,422.594L451.09,422.567L459.616,422.541L473.68,422.488L474.208,422.673L494.864,422.673L509.104,422.646L509.104,466.775L509.016,472.895L509.104,473.668L509.104,497.402L509.016,512.878L509.104,516.555L509.016,519.417L509.016,590.486L503.39,590.437L485.723,590.462L474.471,590.486L459.353,590.486L427.797,578.737L409.162,572.074L400.197,568.699L367.85,556.978L368.289,555.331L367.85,554.907L367.937,553.408L368.641,553.009Z" fill="#e7e2d8"/><path d="M509.016,296.493L530.288,296.493L543.824,296.437L572.567,296.437L578.368,296.577L590.411,296.605L611.682,296.577L612.298,296.521L631.372,296.465L656.159,296.437L668.026,296.437L680.332,296.437L680.332,328.616L680.42,339.055L680.42,350.886L680.508,356.126L680.508,390.311L680.595,393.968L680.595,422.831L664.51,422.752L662.576,422.62L657.126,422.594L639.195,422.673L624.34,422.804L608.166,422.804L605.178,422.752L578.72,422.778L562.371,422.831L562.195,422.594L548.834,422.62L528.617,422.646L509.104,422.646L509.104,407.238L509.192,406.283L509.192,386.621L508.752,383.167L508.752,369.27L508.928,363.438L508.928,312.656L509.016,311.383Z" fill="#e7e2d8"/><path d="M680.332,328.616L702.922,328.643L712.063,328.643L735.181,328.671L759.177,328.643L773.505,328.643L798.029,328.671L821.146,328.698L833.804,328.698L845.495,328.698L846.901,330.345L848.044,330.647L848.132,331.827L849.274,331.662L849.714,332.649L851.999,333.033L852.702,331.909L854.812,332.265L854.46,333.033L855.076,333.937L856.042,334.239L855.691,335.389L854.9,335.416L855.164,336.402L856.218,335.964L856.13,337.305L855.251,337.469L854.109,336.812L853.669,338.863L852.351,339.383L851.735,340.503L851.911,341.622L850.417,342.278L850.505,343.587L851.823,344.705L851.911,345.496L853.318,346.341L854.372,348.002L855.603,348.002L856.042,348.573L855.251,349.254L855.779,351.402L857.361,352.815L857.097,353.575L858.416,353.928L858.855,354.77L860.086,355.068L860.877,354.634L861.316,355.475L863.074,355.557L862.635,356.669L862.635,368.676L862.547,371.91L862.547,390.578L862.459,391.966L862.459,412.668L862.371,415.232L862.371,422.646L840.484,422.62L823.256,422.646L808.401,422.646L789.239,422.646L770.956,422.673L748.278,422.62L739.224,422.62L725.688,422.541L712.591,422.646L694.22,422.752L680.595,422.831L680.595,393.968L680.508,390.311L680.508,356.126L680.42,350.886L680.42,339.055Z" fill="#e7e2d8"/><path d="M798.468,18.733L805.764,18.765L829.145,18.765L849.274,18.797L849.274,4.343L851.648,5.538L854.109,4.892L856.658,6.604L857.361,7.733L858.592,14.238L859.207,15.041L860.789,23.089L860.262,25.295L860.613,27.02L861.844,28.392L864.393,29.827L866.503,30.21L867.206,29.604L871.073,29.955L872.04,31.802L877.402,32.025L881.621,32.694L882.324,34.793L882.061,36.351L882.588,36.732L886.28,36.668L886.719,36.192L888.653,36.255L890.675,35.62L890.587,34.094L893.488,32.63L896.916,32.057L897.707,32.758L902.365,32.758L908.694,35.874L910.98,35.747L911.067,37.303L909.397,37.525L909.046,38.7L910.452,39.683L914.056,39.271L915.375,40.983L914.847,42.06L915.375,43.611L917.484,47.625L919.682,46.773L918.978,44.117L920.121,42.693L921.44,43.041L925.131,42.535L926.538,43.927L926.362,45.983L927.856,47.278L929.087,46.994L929.878,48.13L933.482,48.414L933.921,50.528L933.57,51.505L935.328,52.167L937.349,51.757L937.086,54.119L939.019,53.237L940.25,53.93L941.92,53.174L944.909,52.639L948.952,49.077L950.446,48.667L951.589,47.657L953.787,46.709L955.017,47.12L955.017,49.235L956.511,49.771L955.984,50.591L956.863,52.104L958.269,52.198L961.346,51.284L961.873,52.198L964.071,51.726L966.356,52.293L968.026,51.883L972.245,51.631L974.794,52.513L975.586,54.591L978.574,56.257L979.893,55.157L981.651,54.874L982.793,55.503L984.815,55.314L985.782,55.88L987.979,55.188L985.606,56.949L984.727,56.32L984.376,57.388L982.881,57.86L980.596,59.68L977.344,60.747L976.113,61.906L971.542,63.285L967.323,64.975L966.005,65.163L962.313,66.57L961.961,67.008L957.478,69.413L954.226,71.877L947.897,77.573L946.403,79.716L941.569,85.235L939.283,87.462L936.998,88.729L934.712,91.447L933.746,91.786L931.284,94.345L930.405,94.653L925.043,98.776L924.252,99.545L924.956,101.08L926.186,102.492L924.34,100.957L923.11,101.295L922.846,102.185L921.44,102.615L922.231,103.197L921.264,104.516L919.33,104.025L919.33,124.911L918.451,125.214L917.924,127.002L915.814,126.79L914.935,128.486L913.704,128.092L913.001,129.242L910.804,129.938L909.046,131.359L907.288,135.828L905.354,137.305L904.739,140.737L904.827,142.331L906.673,142.962L907.552,142.691L908.782,143.653L908.694,144.584L910.716,147.134L910.628,148.633L909.309,150.04L909.397,150.908L907.903,152.374L908.079,155.094L907.727,156.049L908.255,158.763L906.848,160.492L907.815,161.504L907.639,163.438L908.167,164.657L907.552,165.904L907.815,168.131L906.76,170.503L907.2,171.569L908.606,172.369L911.331,174.943L911.243,175.652L912.474,176.125L913.265,177.425L917.66,177.69L918.715,178.192L919.594,180.493L920.824,181.614L925.219,183.116L927.153,184.264L928.384,185.441L928.384,186.999L929.087,187.44L929.526,189.906L931.021,191.226L933.394,192.429L933.658,193.278L936.822,195.913L940.25,196.762L941.569,198.37L944.206,202.34L944.997,204.526L944.293,207.816L944.469,209.88L945.348,210.955L944.997,212.233L945.7,213.77L927.768,213.77L908.079,213.77L897.883,213.799L878.281,213.799L862.459,213.77L834.947,213.77L817.455,213.77L817.455,178.222L817.543,175.238L817.455,166.291L817.455,152.015L816.576,150.07L813.411,148.303L811.829,148.183L810.599,146.534L809.807,144.344L807.522,141.399L807.962,140.015L810.159,138.148L812.093,136.973L813.148,135.074L814.378,133.685L814.73,129.817L814.378,126.608L814.906,125.487L813.939,119.779L813.851,115.852L812.708,115.03L810.95,112.04L810.511,110.544L810.159,106.905L809.192,105.159L809.016,103.964L809.456,101.878L808.928,98.438L809.368,97.915L809.895,94.314L809.368,94.653L808.401,93.081L808.489,87.802L808.049,84.956L807.874,81.423L808.137,79.872L807.522,76.672L807.61,69.912L807.17,69.818L806.555,67.039L805.588,64.161L804.885,63.629L803.918,60.464L803.654,58.644L802.688,57.577L802.248,53.772L800.842,50.591L800.578,47.12L801.193,45.445L800.49,42.503L800.754,40.856L800.666,37.462L800.051,35.588L800.666,33.171L801.457,32.407L801.721,30.433L800.402,27.882L799.699,23.921L799.172,23.153L798.205,20.015Z" fill="#e7e2d8"/><path d="M631.46,18.765L647.985,18.797L676.288,18.797L694.923,18.797L703.01,18.797L719.974,18.765L734.038,18.797L745.905,18.797L758.298,18.765L780.801,18.733L798.468,18.733L798.205,20.015L799.172,23.153L799.699,23.921L800.402,27.882L801.721,30.433L801.457,32.407L800.666,33.171L800.051,35.588L800.666,37.462L800.754,40.856L800.49,42.503L801.193,45.445L800.578,47.12L800.842,50.591L802.248,53.772L802.688,57.577L803.654,58.644L803.918,60.464L804.885,63.629L805.588,64.161L806.555,67.039L807.17,69.818L807.61,69.912L807.522,76.672L808.137,79.872L807.874,81.423L808.049,84.956L808.489,87.802L808.401,93.081L809.368,94.653L809.895,94.314L809.368,97.915L808.928,98.438L809.456,101.878L809.016,103.964L809.192,105.159L810.159,106.905L810.511,110.544L810.95,112.04L812.708,115.03L813.851,115.852L813.939,119.779L814.906,125.487L814.378,126.608L814.73,129.817L796.271,129.847L779.922,129.817L769.462,129.787L747.311,129.666L730.434,129.605L714.7,129.545L692.462,129.515L681.65,129.515L655.984,129.484L640.777,129.484L631.548,129.484L631.548,41.965L631.46,41.426Z" fill="#e7e2d8"/><path d="M657.126,422.594L662.576,422.62L664.51,422.752L680.595,422.831L694.22,422.752L712.591,422.646L725.688,422.541L739.224,422.62L748.278,422.62L770.956,422.673L789.239,422.646L808.401,422.646L823.256,422.646L840.484,422.62L862.371,422.646L862.371,437.901L862.899,441.301L863.514,446.678L864.041,449.987L865.272,459.213L865.624,461.339L866.942,471.347L866.766,479.565L866.503,486.269L866.415,492.29L866.239,496.636L866.063,507.264L865.624,523.539L864.832,524.171L863.162,522.326L861.756,522.654L861.668,522.073L860.174,522.098L858.592,520.1L857.273,520.505L856.218,520.378L854.372,518.404L853.757,516.935L851.823,516.884L849.802,514.73L847.428,514.02L846.813,515.744L845.846,516.555L844.703,516.732L841.715,516.631L841.715,516.251L839.869,516.428L839.254,514.882L838.375,514.806L836.265,516.124L834.507,516.048L834.595,517.188L833.452,516.96L832.661,517.746L830.112,516.2L830.024,516.96L827.387,517.695L826.069,517.366L826.157,517.872L824.926,517.67L824.223,519.948L822.992,520.302L821.322,519.822L820.707,521.871L819.652,521.946L819.564,521.39L818.07,519.391L816.224,519.543L815.521,518.1L814.554,518.201L813.148,517.442L814.202,515.972L812.005,515.567L811.302,517.746L809.72,517.974L809.368,516.91L808.225,516.555L807.698,517.391L806.907,516.758L806.379,514.35L805.94,514.071L804.709,514.755L804.182,514.375L804.446,516.226L803.039,517.67L801.897,517.188L802.863,518.252L801.721,518.809L801.984,520.429L801.018,521.213L800.051,520.859L798.996,518.48L799.875,517.72L799.699,516.048L798.908,515.338L798.029,515.82L797.853,516.884L796.71,516.403L795.919,516.58L794.952,518.201L793.194,518.075L792.755,517.315L792.843,515.719L791.788,515.237L790.382,515.921L789.415,515.288L789.678,514.248L788.008,513.183L787.217,513.259L786.163,514.73L783.613,517.062L782.559,517.29L781.152,516.428L780.361,516.352L780.713,514.705L780.273,514.73L780.889,513.208L780.273,512.701L779.131,513.056L777.46,512.777L776.581,510.466L777.285,509.577L776.933,508.306L775.439,509.501L773.681,508.942L772.362,508.942L770.692,508.23L769.725,509.247L769.462,510.365L767.704,511.025L765.594,508.586L763.748,508.001L762.693,508.942L760.848,508.84L759.705,508.179L758.562,508.103L757.068,507.493L755.398,506.323L753.991,507.009L753.2,506.628L752.145,506.908L751.97,506.399L750.387,506.475L749.948,502.911L748.366,501.484L748.717,500.923L747.311,500.795L745.729,499.341L745.377,501.688L744.322,501.79L742.389,500.591L740.894,500.54L740.367,501.79L737.73,501.407L735.62,499.418L732.368,495.767L730.61,496.252L730.61,437.901L719.799,437.901L704.065,437.901L690.88,437.901L675.497,437.875L657.038,437.875L657.126,434.758Z" fill="#e7e2d8"/><path d="M631.196,162.575L631.635,162.456L631.635,136.34L631.548,129.484L640.777,129.484L655.984,129.484L681.65,129.515L692.462,129.515L714.7,129.545L730.434,129.605L747.311,129.666L769.462,129.787L779.922,129.817L796.271,129.847L814.73,129.817L814.378,133.685L813.148,135.074L812.093,136.973L810.159,138.148L807.962,140.015L807.522,141.399L809.807,144.344L810.599,146.534L811.829,148.183L813.411,148.303L816.576,150.07L817.455,152.015L817.455,166.291L817.543,175.238L817.455,178.222L817.455,213.77L813.939,213.77L814.378,214.408L813.763,215.481L815.697,217.334L815.609,220.517L814.378,220.661L815.081,222.164L814.818,223.059L816.927,223.146L817.103,225.54L817.894,226.549L817.279,228.451L816.048,228.911L816.488,230.523L815.785,231.328L816.312,231.932L815.257,233.254L815.257,235.551L814.29,236.01L814.027,237.501L813.06,238.247L813.148,240.424L814.466,241.196L815.96,242.913L816.839,245.399L816.488,246.684L817.63,247.568L816.136,247.768L815.697,246.912L813.587,247.055L812.972,245.542L811.126,243.656L811.741,242.169L810.774,241.712L808.928,241.626L808.841,240.481L806.379,239.479L805.325,239.966L804.621,238.591L800.842,238.218L800.402,237.415L798.82,236.842L798.732,235.752L796.535,235.034L795.216,235.436L793.898,235.063L793.282,235.723L791.7,235.321L790.294,235.694L788.887,235.379L787.305,235.867L785.108,235.608L783.35,235.006L782.647,235.321L781.855,237.444L780.801,238.275L779.131,238.533L776.406,236.555L773.241,234.776L768.143,232.335L767.352,230.638L757.507,230.638L741.158,230.667L727.709,230.638L708.899,230.667L690.792,230.724L685.342,230.609L669.696,230.609L657.126,230.581L631.372,230.552L631.372,220.603L631.284,220.372L631.284,166.825Z" fill="#e7e2d8"/><path d="M657.038,437.875L675.497,437.875L690.88,437.901L704.065,437.901L719.799,437.901L730.61,437.901L730.61,496.252L732.368,495.767L735.62,499.418L737.73,501.407L740.367,501.79L740.894,500.54L742.389,500.591L744.322,501.79L745.377,501.688L745.729,499.341L747.311,500.795L748.717,500.923L748.366,501.484L749.948,502.911L750.387,506.475L751.97,506.399L752.145,506.908L753.2,506.628L753.991,507.009L755.398,506.323L757.068,507.493L758.562,508.103L759.705,508.179L760.848,508.84L762.693,508.942L763.748,508.001L765.594,508.586L767.704,511.025L769.462,510.365L769.725,509.247L770.692,508.23L772.362,508.942L773.681,508.942L775.439,509.501L776.933,508.306L777.285,509.577L776.581,510.466L777.46,512.777L779.131,513.056L780.273,512.701L780.889,513.208L780.273,514.73L780.713,514.705L780.361,516.352L781.152,516.428L782.559,517.29L783.613,517.062L786.163,514.73L787.217,513.259L788.008,513.183L789.678,514.248L789.415,515.288L790.382,515.921L791.788,515.237L792.843,515.719L792.755,517.315L793.194,518.075L794.952,518.201L795.919,516.58L796.71,516.403L797.853,516.884L798.029,515.82L798.908,515.338L799.699,516.048L799.875,517.72L798.996,518.48L800.051,520.859L801.018,521.213L801.984,520.429L801.721,518.809L802.863,518.252L801.897,517.188L803.039,517.67L804.446,516.226L804.182,514.375L804.709,514.755L805.94,514.071L806.379,514.35L806.907,516.758L807.698,517.391L808.225,516.555L809.368,516.91L809.72,517.974L811.302,517.746L812.005,515.567L814.202,515.972L813.148,517.442L814.554,518.201L815.521,518.1L816.224,519.543L818.07,519.391L819.564,521.39L819.652,521.946L820.707,521.871L821.322,519.822L822.992,520.302L824.223,519.948L824.926,517.67L826.157,517.872L826.069,517.366L827.387,517.695L830.024,516.96L830.112,516.2L832.661,517.746L833.452,516.96L834.595,517.188L834.507,516.048L836.265,516.124L838.375,514.806L839.254,514.882L839.869,516.428L841.715,516.251L841.715,516.631L844.703,516.732L845.846,516.555L846.813,515.744L847.428,514.02L849.802,514.73L851.823,516.884L853.757,516.935L854.372,518.404L856.218,520.378L857.273,520.505L858.592,520.1L860.174,522.098L861.668,522.073L861.756,522.654L863.162,522.326L864.832,524.171L865.624,523.539L866.327,523.337L866.327,524.701L867.294,525.332L868.085,525.181L867.909,526.09L868.788,526.317L869.227,525.635L869.931,526.09L870.194,525.358L872.04,526.039L873.007,524.878L874.062,525.307L874.501,526.065L875.029,525.534L876.435,526.09L876.435,526.09L876.523,526.367L876.523,541.668L876.523,571.504L877.226,571.802L878.193,573.587L879.775,574.355L880.566,576.411L881.885,577.772L881.709,578.613L882.412,579.998L881.797,581.037L882.061,582.149L881.445,582.84L881.973,584.1L882.764,584.89L883.907,585.038L884.17,585.901L883.643,586.568L884.873,587.455L884.786,588.244L885.489,588.614L885.752,589.821L885.225,591.127L886.28,592.284L886.807,592.235L887.335,595.015L889.005,594.719L888.477,597.227L889.181,597.988L889.356,599.314L888.214,599.83L888.126,600.639L889.181,601.989L888.389,602.528L888.126,603.46L888.477,605.004L887.686,605.812L886.895,607.355L886.631,609.141L885.577,609.752L885.401,611.415L884.17,612.148L883.907,613.125L884.522,613.711L884.961,615.933L883.819,617.177L883.291,618.981L884.698,620.248L884.786,621.539L884.346,622.489L885.137,624.411L884.082,626.114L884.873,626.576L883.907,627.815L882.676,628.763L882.061,630.657L880.918,632.452L879.424,633.544L879.248,634.15L880.039,634.877L881.533,637.154L881.533,637.493L877.49,637.421L874.238,638.389L862.987,643.42L860.525,644.893L859.646,646.197L858.328,646.028L860.262,644.314L861.053,643.178L862.195,643.202L862.987,642.743L863.69,641.631L864.481,642.018L865.448,641.824L864.129,640.494L859.383,641.8L858.679,641.171L860.174,638.994L860.525,637.057L860.525,635.265L859.471,635.144L859.031,634.586L857.537,635.289L856.658,636.282L856.306,637.493L854.988,638.074L854.46,636.961L852.878,638.05L852.702,638.897L853.493,639.672L852.614,640.881L853.493,642.211L855.251,642.622L854.724,643.927L855.691,644.41L855.867,646.294L855.691,647.911L854.988,648.658L854.197,648.417L852.527,650.129L850.593,651.696L850.329,651.069L849.186,651.262L849.011,653.382L849.538,654.008L850.681,652.948L852.966,651.383L853.23,650.925L856.042,648.538L857.361,647.983L857.361,646.897L859.646,647.259L857.888,648.731L852.439,652.419L850.329,654.08L849.977,654.682L847.165,656.871L843.649,660.309L842.33,660.501L836.265,664.006L833.189,665.925L828.53,668.058L823.168,670.74L820.18,672.822L819.037,673.826L817.718,675.595L813.06,678.247L810.95,679.87L806.819,683.566L804.006,686.972L803.039,688.948L801.809,690.351L798.908,695.602L796.798,700.275L795.831,703.283L794.952,707.826L794.777,710.379L794.865,712.811L795.568,717.646L796.798,722.521L797.853,725.673L799.26,731.052L800.226,737.148L799.611,736.046L799.172,732.6L798.117,728.164L797.15,724.591L795.04,724.215L796.623,723.58L795.831,721.627L795.304,719.578L794.513,717.505L794.249,715.006L794.337,711.749L794.249,708.866L795.216,702.336L796.623,698.07L798.293,694.557L799.523,692.894L800.402,690.827L801.105,689.994L800.93,688.876L802.072,686.83L803.654,685.925L804.446,684.853L806.028,681.826L808.489,680.442L809.192,679.178L810.599,679.13L813.675,676.622L815.697,675.452L817.806,674.902L817.455,673.874L818.246,673.18L817.455,672.798L816.048,673.778L814.29,674.615L813.323,675.571L811.829,675.691L811.302,674.735L811.302,673.3L809.72,673.013L809.192,673.754L809.192,675.762L808.753,676.36L809.28,677.339L808.928,678.199L807.17,679.536L805.676,680.991L804.973,681.015L803.391,680.299L803.127,679.273L800.314,680.729L798.82,682.327L800.666,682.851L802.775,681.492L803.479,683.256L802.863,683.804L799.523,689.114L798.468,689.162L797.941,687.853L796.095,688.091L795.744,687.663L792.931,687.925L791.964,687.639L791.436,688.543L792.491,689.305L793.81,689.328L794.777,688.924L794.425,690.446L795.04,691.587L796.359,692.395L797.853,692.823L796.183,696.29L795.04,700.678L793.986,703.189L792.228,703.828L791.612,704.467L790.645,704.041L791.876,703.544L792.14,702.147L791.436,702.075L790.909,702.81L788.36,704.585L788.712,705.343L790.821,705.721L793.019,704.822L793.722,704.775L793.282,707.519L793.546,707.613L793.194,712.386L792.667,717.269L792.315,717.34L793.194,722.757L793.898,724.286L793.986,726.261L794.777,726.284L796.798,731.333L797.238,732.014L796.447,733.116L796.798,733.913L796.71,735.367L797.414,737.054L799.172,737.311L799.26,738.131L800.314,737.71L800.49,740.682L798.468,740.519L797.326,740.706L797.326,741.15L795.48,741.431L794.952,743.746L793.194,743.489L792.579,742.554L791.261,742.484L790.733,741.197L789.766,741.104L788.184,738.81L785.459,738.529L784.492,737.756L782.998,737.967L782.383,737.593L780.361,737.991L780.01,737.569L778.867,737.593L778.603,738.272L777.724,737.546L775.966,737.874L775.263,737.358L774.736,737.874L773.505,737.405L772.802,736.702L773.066,736.117L771.659,736.093L771.395,735.062L770.077,735.086L768.231,733.327L767.44,733.585L765.242,732.459L763.572,732.975L762.43,732.154L761.111,730.535L760.232,730.348L760.056,729.573L759.353,729.291L757.771,729.643L755.925,728.54L754.87,728.61L754.167,728.14L753.112,728.587L752.321,727.553L752.849,726.378L751.97,725.062L751.003,724.756L750.739,722.451L750.212,721.462L749.948,719.602L749.245,719.013L749.157,717.858L748.542,716.35L747.047,715.336L747.223,714.604L746.08,713.991L745.465,713.118L745.905,712.646L744.938,711.56L744.147,711.394L744.059,710.166L744.586,709.434L744.322,707.874L744.674,707.188L744.322,705.153L742.916,704.562L743.004,703.686L741.949,703.425L742.74,702.715L743.18,700.678L742.916,699.943L743.268,698.52L742.125,698.283L742.564,696.48L741.51,695.103L740.894,695.436L740.279,694.343L739.488,694.771L738.697,693.845L737.818,693.987L736.236,691.849L735.445,691.587L735.181,690.684L734.478,690.898L733.599,689.994L733.599,688.805L732.983,688.186L733.247,687.21L732.104,686.068L732.28,684.948L730.786,684.567L730.171,682.637L729.292,682.088L728.588,680.418L725.512,679.154L725.16,677.888L724.545,677.936L723.402,676.527L723.578,675.619L722.084,673.228L722.348,672.104L721.557,671.171L722.348,670.477L721.293,670.213L720.502,669.088L720.853,668.154L719.623,667.483L719.711,666.692L718.392,666.02L718.041,664.797L718.216,663.814L717.513,663.19L717.162,661.438L716.634,661.414L715.843,659.3L715.14,659.276L714.612,658.146L714.7,656.318L714.085,653.767L712.503,652.659L711.624,651.696L711.888,651.359L711.096,649.647L709.075,648.658L708.899,647.935L707.405,646.825L705.823,646.221L704.68,644.193L704.68,643.685L702.394,643.178L701.867,642.114L699.845,641.945L700.109,640.567L699.933,638.994L699.494,638.873L698.966,640.494L698.439,639.841L698.615,638.559L697.12,637.905L695.978,635.289L695.275,635.386L694.484,634.61L693.341,635.216L692.726,634.15L692.022,634.804L688.77,635.119L687.1,634.368L686.573,634.562L685.254,634.029L683.32,634.368L682.266,633.786L680.771,633.956L680.42,634.489L678.134,633.98L677.167,632.768L676.025,632.84L674.267,631.87L673.036,632.307L672.157,634.998L669.169,634.538L668.377,635.434L667.762,635.168L665.828,635.943L665.213,635.701L664.51,637.009L664.686,637.566L663.543,638.534L663.543,639.744L662.928,639.744L662.752,641.171L661.785,641.897L661.873,642.695L661.258,644.096L661.433,645.352L660.994,646.511L660.115,646.632L659.851,648.369L659.412,649.261L660.291,649.792L659.851,650.708L658.269,651.624L657.39,651.431L656.775,653.045L655.28,654.08L654.665,654.947L654.314,656.968L653.083,657.16L651.589,656.799L650.27,657.064L649.04,655.957L646.666,655.38L644.293,652.708L642.183,651.913L641.304,652.105L639.371,651.19L637.788,649.334L636.646,648.755L633.218,648.248L631.723,647.573L630.053,646.101L629.086,645.811L627.416,643.855L627.416,643.275L626.186,642.139L624.34,641.969L623.285,641.317L622.846,640.494L620.209,638.607L619.417,637.566L618.802,634.901L617.747,633.544L617.132,632.088L615.989,630.559L615.989,629.127L615.374,627.742L615.902,625.992L615.638,624.679L615.814,623.341L615.198,621.686L614.231,620.955L613.968,619.883L612.825,618.932L612.737,618.201L611.594,617.372L611.77,616.567L610.628,612.246L610.012,611.268L608.957,611.17L607.991,608.945L606.672,608.945L605.441,607.33L604.387,607.085L604.123,606.498L602.805,605.665L601.75,605.763L601.134,605.077L598.41,604.122L598.41,603.166L594.542,600.271L593.399,597.644L592.344,596.735L590.762,596.096L589.971,595.285L589.18,595.236L589.004,594.351L586.895,591.742L585.137,590.881L584.785,589.55L583.555,588.762L581.709,588.589L578.632,586.666L577.665,584.495L576.786,583.902L576.259,582.223L575.116,580.023L574.325,579.009L572.655,578.069L571.688,578.539L570.721,577.525L570.282,576.832L568.875,576.336L568.963,575.767L568.084,575.148L567.821,574.206L568.436,573.76L568.524,571.256L597.618,571.256L619.593,571.281L639.459,571.281L655.544,571.256L655.544,541.015L655.72,534.633L655.72,530.882L655.896,520.353L656.072,514.476L656.072,475.679L656.159,464.472L656.159,443.443L656.072,437.875Z" fill="#e7e2d8"/><path d="M631.196,162.575L631.284,166.825L631.284,220.372L631.372,220.603L631.372,230.552L631.372,296.465L612.298,296.521L611.682,296.577L590.411,296.605L578.368,296.577L572.567,296.437L543.824,296.437L530.288,296.493L509.016,296.493L497.062,296.549L484.492,296.577L479.921,296.66L468.231,296.633L460.056,296.577L460.056,284.221L460.144,278.072L460.056,263.739L460.056,244.513L460.144,239.851L460.144,208.398L460.056,207.641L460.056,192.575L459.968,184.735L460.056,180.611L459.88,175.445L459.792,167.092L459.88,162.456L466.473,162.397L468.406,162.754L475.878,162.694L476.845,162.456L480.8,162.605L482.998,162.367L490.645,162.426L507.697,162.278L508.664,162.486L528.09,162.486L555.866,162.486L557.097,162.605L569.754,162.664L585.4,162.694L587.422,162.486L599.025,162.486L621.088,162.545Z" fill="#e7e2d8"/><path d="M834.331,309.915L849.011,310.164L862.987,310.386L876.699,310.303L888.126,310.081L893.576,310.081L910.892,309.749L924.252,309.389L933.13,309.001L934.185,310.053L934.273,310.967L935.855,311.355L935.767,312.351L937.174,313.928L938.053,313.983L938.14,315.531L939.107,316.387L940.777,316.581L940.074,317.078L938.58,321.05L938.404,323.006L938.932,327.544L940.162,330.263L940.777,331.031L940.074,332.841L940.514,333.883L941.832,334.814L942.184,335.581L941.92,337.25L944.206,339.355L945.524,340.913L946.491,341.295L947.37,343.178L948.513,343.396L949.479,345.469L950.886,346.94L956.072,350.668L957.83,353.114L958.094,355.557L958.797,357.672L958.006,358.647L958.973,360.949L959.236,362.708L961.17,364.573L962.137,364.384L963.104,363.519L963.895,361.734L965.565,361.626L967.938,362.843L969.345,362.978L972.685,365.194L972.509,366.814L971.454,367.597L970.312,369.189L971.191,371.668L971.015,372.664L969.081,375.248L968.554,377.908L967.059,379.734L966.444,381.129L966.356,383.22L966.796,385.096L968.378,386.434L970.136,388.814L972.333,389.803L973.3,391.246L974.003,391.246L975.498,392.847L976.904,392.66L977.168,393.381L976.113,394.021L976.64,395.354L978.398,395.487L979.277,394.661L980.42,395.407L980.508,396.18L981.826,396.5L983.848,398.364L983.672,399.429L984.903,399.509L985.694,400.626L987.364,401.264L987.364,402.779L988.331,404.585L987.188,404.797L987.364,406.124L989.649,410.391L989.298,412.033L987.979,412.35L987.276,413.831L988.77,415.232L988.683,416.474L989.825,418.771L990.792,419.984L990.704,421.382L992.814,422.857L993.693,422.146L992.374,420.96L993.605,420.643L995.099,422.119L995.802,423.515L996.769,423.147L997.56,423.7L997.121,426.068L996.594,427.278L995.715,427.514L995.627,428.513L997.121,429.485L996.857,430.22L995.451,430.142L995.099,431.297L996.066,432.818L995.363,433.579L994.748,435.44L993.605,435.911L992.023,433.867L990.88,434.208L989.737,437.927L989.034,438.974L987.891,438.791L988.067,437.98L988.595,436.985L988.155,435.702L986.309,435.649L985.958,436.435L986.749,437.953L987.276,438.529L986.661,440.203L987.54,441.745L987.1,442.712L984.991,442.738L984.991,443.704L986.837,444.722L986.925,445.426L985.606,445.818L982.969,445.4L982.705,445.948L985.167,447.877L985.255,449.466L983.321,450.508L983.057,452.46L982.002,453.058L966.268,453.214L967.675,450.352L969.696,448.841L969.696,448.242L971.015,446.861L972.421,446.131L972.685,445.009L973.476,444.826L973.916,441.353L971.982,440.203L972.245,439.811L971.806,437.953L941.129,437.98L912.738,437.953L900.344,437.953L880.83,437.927L862.371,437.901L862.371,422.646L862.371,415.232L862.459,412.668L862.459,391.966L862.547,390.578L862.547,371.91L862.635,368.676L862.635,356.669L863.074,355.557L861.316,355.475L860.877,354.634L860.086,355.068L858.855,354.77L858.416,353.928L857.097,353.575L857.361,352.815L855.779,351.402L855.251,349.254L856.042,348.573L855.603,348.002L854.372,348.002L853.318,346.341L851.911,345.496L851.823,344.705L850.505,343.587L850.417,342.278L851.911,341.622L851.735,340.503L852.351,339.383L853.669,338.863L854.109,336.812L855.251,337.469L856.13,337.305L856.218,335.964L855.164,336.402L854.9,335.416L855.691,335.389L856.042,334.239L855.076,333.937L854.46,333.033L854.812,332.265L852.702,331.909L851.999,333.033L849.714,332.649L849.274,331.662L848.132,331.827L848.044,330.647L846.901,330.345L845.495,328.698L842.77,327.16L843.473,324.987L841.363,322.896L841.188,320.774L839.43,320.251L839.517,319.368L837.935,318.651L836.88,315.614L836.968,314.536L836.001,313.596L835.914,312.49L837.056,311.327L836.089,310.829L836.001,311.742L834.243,311.659Z" fill="#e7e2d8"/><path d="M509.104,422.646L528.617,422.646L548.834,422.62L562.195,422.594L562.371,422.831L578.72,422.778L605.178,422.752L608.166,422.804L624.34,422.804L639.195,422.673L657.126,422.594L657.126,434.758L657.038,437.875L656.072,437.875L656.159,443.443L656.159,464.472L656.072,475.679L656.072,514.476L655.896,520.353L655.72,530.882L655.72,534.633L655.544,541.015L655.544,571.256L639.459,571.281L619.593,571.281L597.618,571.256L568.524,571.256L568.436,573.76L567.821,574.206L568.084,575.148L568.963,575.767L568.875,576.336L570.282,576.832L570.721,577.525L551.911,577.525L529.584,577.525L529.584,590.462L509.016,590.486L509.016,519.417L509.104,516.555L509.016,512.878L509.104,497.402L509.104,473.668L509.016,472.895L509.104,466.775Z" fill="#e7e2d8"/><path d="M862.371,437.901L880.83,437.927L900.344,437.953L912.738,437.953L941.129,437.98L971.806,437.953L972.245,439.811L971.982,440.203L973.916,441.353L973.476,444.826L972.685,445.009L972.421,446.131L971.015,446.861L969.696,448.242L969.696,448.841L967.675,450.352L966.268,453.214L982.002,453.058L982.354,454.046L983.936,455.319L983.936,456.488L981.826,455.891L981.035,457.163L982.793,458.097L981.826,458.953L980.86,458.979L980.068,460.328L978.574,460.898L977.783,460.354L976.465,461.416L976.992,463.178L977.783,463.618L978.838,463.023L979.102,464.006L976.816,465.093L976.904,466.464L977.695,466.723L977.431,467.757L975.498,466.309L974.707,466.542L974.267,468.041L975.058,469.126L974.091,471.063L973.388,468.791L971.366,470.521L971.103,471.708L972.158,471.863L972.333,470.753L973.652,471.657L972.861,472.869L972.861,474.029L971.454,474.287L971.806,475.498L973.124,475.679L973.652,476.426L972.597,477.533L973.916,479.025L973.037,479.668L971.982,479.128L971.191,479.797L970.4,482.367L968.202,482.033L967.938,483.292L969.433,484.704L969.433,485.859L967.85,486.987L965.126,488.115L964.774,486.603L963.807,486.551L963.631,487.295L964.334,488.423L963.895,489.063L964.422,490.907L963.192,491.394L962.752,490.523L962.928,489.063L962.049,489.755L962.225,490.651L961.61,491.01L962.137,492.034L963.895,492.085L964.071,492.878L962.84,494.157L961.873,493.696L961.961,492.443L961.082,492.98L961.082,494.617L962.137,496.176L962.225,496.865L961.082,498.168L961.61,500.285L959.412,501.739L959.412,503.344L958.533,503.319L958.797,501.943L957.127,501.968L956.687,502.656L957.39,503.802L956.775,504.566L955.105,504.948L954.753,506.755L953.347,505.661L952.556,506.399L953.787,507.493L955.545,507.467L955.72,508.103L954.578,508.815L953.171,507.976L952.116,508.789L952.908,510.085L953.874,510.009L954.138,510.619L953.435,512.168L951.325,512.32L951.941,513.462L950.974,513.868L950.534,512.777L949.128,513.36L948.864,514.096L950.798,514.958L949.216,516.935L949.831,518.328L951.237,518.986L950.358,519.847L949.655,519.391L947.546,519.442L947.458,520.935L948.337,521.592L949.479,521.238L950.183,522.503L949.128,522.958L947.721,522.402L947.106,521.517L945.612,521.921L945.436,522.629L947.634,523.918L947.809,524.751L945.348,525.787L946.491,527.377L945.26,529.395L946.843,528.991L946.755,527.705L947.985,528.386L947.634,529.747L946.139,530L945.876,530.478L946.755,531.083L948.249,530.73L949.128,528.89L949.567,529.697L947.546,531.965L947.546,533.576L948.6,535.287L948.864,534.23L949.743,533.903L949.919,534.482L948.776,535.79L948.952,537.675L948.688,538.253L947.458,538.454L946.491,538.103L946.051,539.082L948.073,540.639L946.93,542.119L927.68,542.019L914.144,541.894L900.344,541.718L892.784,541.718L876.523,541.668L876.523,526.367L876.435,526.09L876.435,526.09L875.029,525.534L874.501,526.065L874.062,525.307L873.007,524.878L872.04,526.039L870.194,525.358L869.931,526.09L869.227,525.635L868.788,526.317L867.909,526.09L868.085,525.181L867.294,525.332L866.327,524.701L866.327,523.337L865.624,523.539L866.063,507.264L866.239,496.636L866.415,492.29L866.503,486.269L866.766,479.565L866.942,471.347L865.624,461.339L865.272,459.213L864.041,449.987L863.514,446.678L862.899,441.301Z" fill="#e7e2d8"/><path d="M275.028,528.235L276.434,528.361L278.895,529.697L280.741,530.252L280.829,530.882L282.236,532.418L281.796,533.501L280.653,532.871L278.368,532.695L277.841,531.814L277.841,529.949L276.083,529.546ZM274.94,541.342L275.731,541.241L277.665,544.176L281.181,547.432L280.302,547.332L279.335,547.883L277.841,546.781L276.698,544.978L275.467,541.994ZM263.865,527.856L264.568,527.68L264.656,528.714L263.689,528.537ZM254.723,512.015L255.426,512.447L256.393,512.091L256.393,512.853L254.899,512.954L254.108,512.421ZM251.119,534.079L252.35,533.903L254.108,534.784L254.811,535.564L253.668,535.941L251.91,535.413ZM242.769,510.593L244.351,510.771L245.494,511.33L246.812,511.203L248.482,512.294L250.152,512.396L250.768,511.406L252.526,511.914L251.559,513.005L249.098,513.284L247.603,514.071L243.912,513.462L243.824,511.914ZM234.77,512.827L236.704,512.624L237.495,512.091L238.638,512.294L239.78,511.812L239.78,513.03L241.362,513.36L241.45,514.578L237.846,515.947L236.44,515.009ZM229.848,511.761L231.254,511.33L231.781,510.619L232.309,511.507L233.452,512.168L231.606,512.32ZM137.641,263.852L151.266,263.966L152.057,263.796L158.825,263.824L163.747,263.484L166.209,263.711L176.317,263.654L179.569,263.513L187.92,263.541L191.875,263.683L205.412,263.909L215.432,264.022L232.748,264.022L240.835,263.966L240.835,263.994L240.835,304.59L240.923,305.534L240.923,326.418L240.835,337.195L240.747,337.551L240.747,350.015L240.659,353.331L240.835,360.462L243.12,362.545L253.229,371.453L263.249,380.485L268.787,385.363L277.489,393.327L288.476,403.363L293.926,408.299L305.089,418.718L332.602,444.67L353.17,464.395L359.323,470.443L372.245,483.112L372.157,486.885L373.563,488.346L374.178,490.114L376.2,491.727L378.485,497.836L378.31,499.316L379.452,499.495L382.177,502.045L383.408,502.529L384.375,503.904L384.463,505.152L382.265,506.806L382.177,507.289L380.683,507.823L379.804,508.84L377.782,509.577L377.079,510.288L377.079,512.041L374.618,514.983L375.233,515.491L375.409,516.884L374.882,517.036L374.794,518.328L375.409,519.948L375.585,521.82L374.882,522.123L374.53,524.903L374.882,526.065L374.09,526.67L371.629,530.151L369.959,530.378L370.662,531.662L369.871,533.299L371.19,534.331L371.014,537.902L370.399,539.585L371.629,541.291L371.893,540.865L373.036,541.492L373.651,541.166L375.057,541.367L376.376,544.777L376.288,546.756L374.706,548.333L374.882,549.334L372.684,549.984L370.574,549.659L370.135,550.435L333.569,553.583L311.242,555.805L310.979,553.359L310.188,551.809L309.484,551.31L308.254,551.884L307.99,550.235L308.078,548.458L307.375,547.432L308.166,545.905L307.375,541.869L306.232,538.68L305.441,537.324L301.925,532.468L299.728,530.932L298.849,529.647L297.53,528.714L296.739,528.764L295.069,526.367L292.784,524.878L291.553,524.499L289.795,523.059L287.597,520.834L285.488,519.847L285.312,521.036L283.466,521.618L281.884,521.264L281.005,520.631L279.687,520.479L279.335,519.518L280.126,518.657L280.214,517.568L278.983,514.628L278.016,513.005L276.522,511.736L273.446,511.711L271.512,511.914L270.106,512.827L268.875,511.863L266.414,511.457L263.161,509.958L262.107,509.907L259.997,508.56L258.503,504.974L257.624,504.719L256.13,503.369L255.778,503.446L254.02,501.79L252.174,501.152L251.647,500.642L248.834,500.54L247.428,501.152L245.845,500.515L243.912,500.77L240.659,499.239L238.638,499.239L237.319,498.857L233.452,499.035L229.232,499.597L229.144,498.806L228.002,497.121L226.595,496.355L225.541,496.457L225.013,495.639L226.156,491.982L225.189,490.447L225.892,487.398L224.398,486.013L225.189,483.061L225.277,479.463L223.695,478.022L222.464,477.842L222.2,478.382L219.827,476.966L218.86,475.73L219.739,472.353L219.563,471.063L218.597,469.695L216.223,469.333L213.85,466.697L212.268,464.084L210.158,463.437L208.664,461.727L208.224,459.628L206.818,458.409L206.203,457.448L204.972,456.54L204.445,453.968L204.005,453.058L202.247,452.303L200.929,449.597L198.731,447.147L195.831,445.478L194.864,444.304L194.161,442.215L194.248,441.118L193.282,438.477L193.457,436.068L192.49,435.649L193.369,433.71L194.952,434.706L195.743,433.92L196.358,432.32L197.061,428.618L195.215,424.7L194.161,423.568L193.282,423.278L192.49,424.016L189.238,423.963L186.777,422.172L184.843,419.483L183.613,419.008L183.437,418.19L181.942,416.606L181.591,414.968L182.03,411.556L180.976,409.2L180.8,407.821L179.745,407.45L179.218,406.575L179.13,404.877L179.569,404.16L179.745,402.115L179.218,398.551L180.448,397.805L181.855,397.592L182.382,398.231L182.997,400.573L182.206,400.812L183.173,403.655L182.997,404.372L185.371,404.983L187.744,407.105L188.447,406.973L189.678,408.643L190.732,408.564L190.205,407.503L189.15,406.999L188.271,404.691L187.656,401.796L185.81,400.36L185.634,399.136L183.7,398.444L184.492,396.473L183.876,394.661L182.558,394.688L181.327,392.874L182.03,393.114L182.821,392.42L182.821,391.352L184.492,391.406L185.371,390.364L184.492,388.467L182.206,387.29L181.064,388.092L179.833,388.253L180.009,389.509L179.569,390.738L180.888,392.1L179.833,392.767L179.481,393.941L181.151,395.434L180.536,395.807L179.569,395.034L180.185,396.926L178.866,397.352L178.075,396.34L175.79,394.714L174.647,395.034L172.625,393.247L171.746,391.833L170.252,390.952L168.845,390.738L167.088,391.619L168.318,388.226L168.582,386.942L167.527,384.48L168.142,383.944L166.736,382.068L165.769,382.336L165.681,380.539L164.187,377.693L162.429,376.323L161.198,375.812L159.264,374.091L156.012,369.35L154.782,368.568L154.078,367.462L151.354,365.032L149.244,361.896L150.475,359.785L150.387,358.647L149.156,355.231L147.75,351.891L147.134,349.036L147.398,346.341L148.541,342.742L148.101,341.322L148.101,339.547L146.871,337.031L146.519,334.074L145.113,333.088L144.585,331.58L141.509,327.929L140.894,327.764L140.894,326.582L140.19,325.4L138.257,324.52L133.949,320.361L134.301,318.623L133.949,316.691L132.807,314.647L133.598,311.936L134.828,308.917L138.52,301.561L139.487,298.917L140.102,295.601L139.048,294.569L138.96,291.861L139.311,291.805L140.278,289.037L141.333,282.201L140.894,278.662L139.575,275.061L138.872,272.356L138.081,272.469L136.586,270.946L137.465,268.857L137.905,265.748Z" fill="#e7e2d8"/><path d="M817.455,213.77L834.947,213.77L862.459,213.77L878.281,213.799L897.883,213.799L908.079,213.77L927.768,213.77L945.7,213.77L945.26,215.278L946.139,216.726L946.051,218.868L948.425,220.054L949.567,222.25L947.985,223.983L947.458,225.483L946.667,226.175L946.755,229.286L947.458,231.817L947.458,233.771L948.513,234.489L949.655,239.335L952.556,241.168L956.687,242.226L958.182,242.798L959.764,245.913L959.764,246.969L959.764,248.31L961.697,249.308L961.873,250.049L963.807,251.103L965.213,252.897L964.95,254.604L966.268,256.707L970.4,258.779L971.542,259.942L971.454,262.465L972.07,263.513L971.454,265.239L971.718,266.879L971.015,268.914L971.103,270.071L968.642,271.454L967.85,272.271L967.85,273.737L967.059,275.399L967.147,277.256L965.741,277.847L964.159,279.449L961.873,279.421L960.994,279.786L959.588,281.359L957.478,281.836L954.753,281.668L952.732,282.79L951.589,282.369L949.919,282.959L949.392,284.501L949.216,286.574L948.249,288.73L950.007,291.106L951.15,291.274L952.292,293.369L952.38,296.103L951.853,299.056L950.886,299.585L949.655,301.421L948.776,302.172L948.688,304.034L948.161,305.395L948.073,307.088L946.491,308.224L944.909,308.197L942.184,309.389L941.041,311.3L942.008,312.268L941.656,314.757L941.832,316.139L940.777,316.581L939.107,316.387L938.14,315.531L938.053,313.983L937.174,313.928L935.767,312.351L935.855,311.355L934.273,310.967L934.185,310.053L933.13,309.001L924.252,309.389L910.892,309.749L893.576,310.081L888.126,310.081L876.699,310.303L862.987,310.386L849.011,310.164L834.331,309.915L834.683,309.139L833.804,307.587L832.661,307.143L831.343,305.534L831.519,304.506L832.661,303.534L832.31,301.227L833.189,299.808L832.573,299.056L832.749,297.218L831.958,296.66L832.046,295.489L831.431,294.653L831.87,293.899L831.431,291.302L832.485,290.827L830.376,290.156L830.727,289.121L830.288,287.358L831.431,286.21L829.673,285.454L830.288,284.641L830.2,281.387L828.442,281.106L828.618,278.943L827.827,278.915L827.651,279.955L826.333,279.168L826.596,277.594L825.629,276.497L826.245,275.399L825.541,274.244L826.508,273.737L825.981,272.215L826.684,271.651L826.948,270.353L825.893,269.704L825.805,268.631L824.575,266.908L825.102,266.597L825.366,264.73L823.959,264.56L824.047,263.711L822.729,263.399L823.168,262.946L821.85,262.238L821.938,259.886L820.004,258.297L819.74,256.934L820.619,256.224L819.388,253.295L818.422,252.47L818.422,250.306L819.213,249.052L818.861,247.797L817.63,247.568L816.488,246.684L816.839,245.399L815.96,242.913L814.466,241.196L813.148,240.424L813.06,238.247L814.027,237.501L814.29,236.01L815.257,235.551L815.257,233.254L816.312,231.932L815.785,231.328L816.488,230.523L816.048,228.911L817.279,228.451L817.894,226.549L817.103,225.54L816.927,223.146L814.818,223.059L815.081,222.164L814.378,220.661L815.609,220.517L815.697,217.334L813.763,215.481L814.378,214.408L813.939,213.77Z" fill="#e7e2d8"/><path d="M337.612,18.733L358.181,18.797L378.573,18.701L395.274,18.861L411.975,18.797L442.564,18.861L461.111,18.861L481.503,18.797L510.334,18.797L522.728,18.797L548.395,18.797L568.348,18.765L580.918,18.797L606.76,18.797L616.781,18.797L631.46,18.765L631.46,41.426L631.548,41.965L631.548,129.484L631.635,136.34L631.635,162.456L631.196,162.575L621.088,162.545L599.025,162.486L587.422,162.486L585.4,162.694L569.754,162.664L557.097,162.605L555.866,162.486L528.09,162.486L508.664,162.486L507.697,162.278L490.645,162.426L482.998,162.367L480.8,162.605L476.845,162.456L475.878,162.694L468.406,162.754L466.473,162.397L459.88,162.456L459.792,167.092L459.88,175.445L460.056,180.611L458.21,179.933L457.683,178.487L455.573,176.745L455.749,175.475L453.288,172.013L451.793,170.947L451.09,172.487L449.332,172.576L449.772,173.553L448.365,176.45L449.684,178.34L446.871,177.572L446.08,178.045L443.97,177.661L443.707,178.222L441.07,179.402L439.927,177.543L437.993,177.779L436.851,178.517L435.972,178.133L434.126,179.019L433.422,178.369L432.192,178.606L431.137,177.572L429.731,177.366L428.94,178.399L428.149,178.399L427.973,180.199L427.27,181.525L425.16,180.405L424.457,180.995L423.49,180.287L420.589,180.228L419.095,179.579L417.601,180.258L416.282,182.38L416.81,183.94L416.018,184.588L415.052,183.292L413.469,182.586L412.151,181.407L411.623,179.845L412.063,178.842L410.217,176.45L411.008,175.031L410.569,173.553L408.986,170.325L406.174,168.605L403.888,169.91L403.537,168.724L401.076,167.152L400.109,164.27L401.339,163.884L401.515,162.248L401.163,160.432L399.493,159.27L399.669,158.495L398.175,158.048L397.56,155.87L395.45,153.69L395.362,152.643L394.131,151.028L394.307,148.932L393.604,148.363L393.077,146.654L393.604,145.754L393.516,144.374L391.846,144.374L392.461,141.519L391.143,140.767L390.088,140.827L390.264,140.045L389.385,138.721L388.066,137.938L387.275,138.329L387.451,139.564L386.133,140.617L384.463,143.082L382.792,143.863L381.65,143.503L381.386,145.244L379.277,146.504L378.837,145.424L377.606,144.764L376.464,142.962L374.266,142.962L374.618,141.369L373.915,140.286L375.497,139.172L375.585,137.727L373.915,135.496L375.497,132.81L377.694,132.779L378.31,131.45L377.167,129.817L377.694,128.334L376.024,127.517L375.673,125.881L376.464,124.122L374.969,123.121L375.145,121.633L376.815,121.42L376.727,119.018L376.2,118.106L377.343,117.375L377.431,113.84L378.573,111.857L377.958,109.749L379.013,109.658L379.892,105.894L379.628,104.117L378.925,103.811L376.64,104.516L376.288,105.159L374.354,104.7L372.684,104.853L371.981,103.657L372.508,102.461L371.893,101.541L370.662,101.264L370.311,102.185L368.992,102.829L368.465,102.308L368.992,100.62L366.004,98.838L364.597,97.023L364.949,94.838L363.191,92.989L362.048,93.02L361.521,91.169L359.851,88.637L358.356,86.967L357.302,86.565L356.862,85.42L355.895,85.204L356.071,84.027L355.28,82.756L353.17,82.446L350.358,81.051L349.742,79.375L345.611,76.672L344.644,76.734L345.699,75.614L347.633,75.365L347.896,74.68L346.49,74.463L346.051,72.687L345.084,72.531L345.259,71.472L346.402,70.474L345.347,68.757L345.523,66.789L344.38,66.038L343.765,64.568L343.062,64.756L342.359,62L341.04,61.342L337.612,56.571L337.524,47.783L337.612,44.338Z" fill="#e7e2d8"/><path d="M153.903,118.38L155.748,118.075L156.891,119.444L156.803,121.116L158.298,122.392L160.495,122.422L163.308,120.873L164.538,120.995L169.724,124.607L170.34,126.457L171.922,128.909L172.01,130.634L172.625,132.205L172.361,134.229L173.24,136.883L172.889,138.118L173.153,139.624L176.053,141.248L180.097,142.301L181.064,142.872L182.558,142.451L183.7,143.413L185.283,143.563L187.304,142.391L189.326,142.181L194.073,139.684L195.127,138.329L196.446,137.847L198.292,138.299L200.841,137.938L203.302,137.154L204.972,138.058L206.466,138.329L208.049,137.907L211.037,139.112L211.828,141.369L213.059,141.248L214.729,139.744L217.718,139.624L218.86,140.105L219.827,139.082L223.958,137.546L225.277,136.491L227.123,136.762L228.969,138.299L230.902,138.118L233.891,137.335L235.649,137.184L236.616,135.918L239.077,135.104L241.626,133.716L245.67,132.9L248.922,132.598L250.064,130.876L251.295,130.18L253.405,130.845L259.03,129.666L260.525,130.089L262.195,129.908L264.656,128.637L265.623,127.547L279.95,127.517L301.925,127.608L316.341,127.699L317.747,130.936L318.714,131.752L320.12,134.017L321.702,133.866L322.581,135.285L324.252,135.345L325.658,136.792L325.658,138.389L326.801,139.865L327.416,141.489L325.306,144.734L325.218,146.384L324.339,147.074L322.23,151.567L322.318,152.643L321.527,154.168L320.911,157.63L319.769,158.823L319.241,160.402L318.011,161.712L317.747,163.23L318.362,164.954L317.571,166.973L315.989,169.228L315.989,169.851L313.176,171.303L311.946,174.055L311.242,176.923L310.363,178.871L308.781,180.287L309.045,182.232L308.342,183.292L309.66,185.323L308.957,186.97L310.1,187.998L311.77,187.263L313.176,188.996L314.934,188.644L315.11,190.2L316.692,190.699L316.78,191.608L315.901,193.425L314.846,193.923L314.934,195.152L315.901,196.089L315.813,197.347L314.758,199.713L314.758,201.29L313.791,201.611L313.616,203.332L313.616,263.796L299.024,263.852L275.028,263.994L272.743,264.079L260.173,264.022L240.835,263.966L240.835,263.994L240.835,263.966L232.748,264.022L215.432,264.022L205.412,263.909L191.875,263.683L187.92,263.541L179.569,263.513L176.317,263.654L166.209,263.711L163.747,263.484L158.825,263.824L152.057,263.796L151.266,263.966L137.641,263.852L135.795,262.295L134.477,260.736L133.862,258.779L134.037,257.842L132.807,255.542L132.983,254.632L132.367,252.84L132.191,249.251L133.334,245.056L132.719,241.998L131.225,239.507L130.258,239.45L129.291,235.924L130.609,233.34L131.664,230.581L132.191,228.192L132.191,226.694L132.983,224.387L133.51,221.528L132.983,220.314L134.477,218.782L135.18,217.537L136.586,213.712L137.905,208.107L139.223,199.86L139.839,193.278L140.19,187.763L140.015,187.528L140.894,181.731L140.806,179.697L141.421,174.263L141.421,171.54L140.981,170.384L141.685,167.686L142.739,160.938L143.443,157.451L143.794,152.763L143.53,150.789L143.794,147.524L143.443,145.454L143.882,144.734L144.322,139.443L144.234,137.154L143.267,135.918L143.794,133.293L143.618,130.785L143.003,129.424L144.409,128.334L144.497,125.032L142.827,119.17L145.201,121.572L146.431,121.997L146.167,120.843L148.189,120.539L148.804,120.022L149.771,120.873L150.826,119.931L152.145,119.931Z" fill="#e7e2d8"/><path d="M178.954,79.033L179.306,75.77L180.185,73.528L181.239,75.147L181.064,76.951L182.734,77.946L181.151,78.785L180.712,79.592L179.13,79.965ZM175.877,35.524L175.877,34.253L177.635,35.556L176.141,36.382ZM174.119,28.743L174.647,28.296L176.932,31.962L175.35,30.624ZM173.68,34.221L174.383,33.298L175.438,34.793L174.119,35.842ZM172.977,47.373L174.119,44.56L175.35,42.693L175.526,40.951L176.932,40.602L177.548,41.204L177.548,42.756L179.218,43.959L179.481,44.781L178.163,45.382L176.669,44.908L176.581,45.825L175.438,46.899L174.207,47.12L174.471,47.878L176.493,47.562L177.46,48.888L178.163,51.537L177.811,51.978L178.69,55.125L179.393,54.276L178.954,52.167L179.833,52.261L181.239,54.056L182.646,54.465L183.261,57.42L182.558,59.241L181.327,58.833L180.272,56.131L178.427,56.917L178.602,55.974L176.932,54.591L177.196,51.663L176.756,49.897L175.174,50.023L174.911,49.077ZM167.879,26.445L168.845,26.573L171.834,28.264L171.131,28.52L169.197,27.882ZM165.593,29.923L167.088,29.094L167.263,30.146ZM165.154,18.669L166.472,18.669L166.824,19.598L165.33,19.663ZM162.341,33.776L162.956,32.821L164.714,32.789L164.89,33.712L166.209,34.762L167.703,35.048L166.121,32.853L169.373,29.413L170.428,29.476L173.68,31.325L172.01,32.917L172.977,35.016L172.801,36.986L171.834,37.779L172.186,39.968L170.428,40.349L169.109,38.763L168.318,39.144L166.384,38.795L163.659,36.827L163.132,34.412ZM161.55,30.337L163.132,30.656L164.714,32.376L162.077,31.07ZM313.528,18.797L313.44,28.073L313.44,42.091L313.264,51.127L313.264,73.123L313.352,74.743L313.352,113.169L312.737,114.633L314.495,116.949L315.198,118.592L315.198,120.508L316.253,121.724L314.758,124.547L315.374,124.88L316.341,127.699L301.925,127.608L279.95,127.517L265.623,127.547L264.656,128.637L262.195,129.908L260.525,130.089L259.03,129.666L253.405,130.845L251.295,130.18L250.064,130.876L248.922,132.598L245.67,132.9L241.626,133.716L239.077,135.104L236.616,135.918L235.649,137.184L233.891,137.335L230.902,138.118L228.969,138.299L227.123,136.762L225.277,136.491L223.958,137.546L219.827,139.082L218.86,140.105L217.718,139.624L214.729,139.744L213.059,141.248L211.828,141.369L211.037,139.112L208.049,137.907L206.466,138.329L204.972,138.058L203.302,137.154L200.841,137.938L198.292,138.299L196.446,137.847L195.127,138.329L194.073,139.684L189.326,142.181L187.304,142.391L185.283,143.563L183.7,143.413L182.558,142.451L181.064,142.872L180.097,142.301L176.053,141.248L173.153,139.624L172.889,138.118L173.24,136.883L172.361,134.229L172.625,132.205L172.01,130.634L171.922,128.909L170.34,126.457L169.724,124.607L164.538,120.995L163.308,120.873L160.495,122.422L158.298,122.392L156.803,121.116L156.891,119.444L155.748,118.075L153.903,118.38L150.914,118.106L150.65,117.071L149.596,116.888L148.717,117.832L147.574,117.527L145.904,119.079L145.113,118.866L143.267,116.614L142.388,116.37L141.773,117.801L140.894,118.106L141.421,113.871L141.509,110.085L141.157,105.037L142.3,106.905L142.124,109.963L142.476,114.145L143.97,114.145L144.058,113.017L143.179,111.796L143.179,109.933L144.234,111.063L145.464,108.526L143.794,104.975L144.761,103.688L146.959,102.062L145.464,100.927L144.937,101.756L143.355,101.817L143.706,102.523L142.3,102.4L140.542,101.05L140.454,99.36L139.487,95.361L140.19,95.115L140.718,96.716L141.685,95.762L146.255,93.821L145.376,92.989L142.388,92.28L142.212,90.891L139.839,90.459L139.136,91.2L139.839,93.975L138.432,94.622L138.696,93.451L138.344,87.091L137.114,81.64L135.004,79.158L134.213,72.718L133.774,70.318L132.455,65.257L131.225,64.13L130.873,62.408L129.642,61.687L129.203,60.715L127.533,59.806L126.478,56.351L125.775,53.174L125.863,51.505L124.896,49.74L125.951,47.909L126.742,43.548L125.072,42.091L125.335,41.395L126.83,41.363L130.346,43.104L133.158,45.129L134.037,45.161L136.235,46.393L136.762,46.014L140.366,47.752L140.278,48.383L143.355,49.677L148.277,50.023L150.123,49.613L152.848,50.78L153.639,50.181L154.518,50.749L156.627,50.528L157.682,51.537L161.286,51.474L164.099,49.235L163.835,49.992L165.769,51.316L166.384,52.734L167.879,52.198L169.373,52.356L169.109,53.363L170.34,53.993L170.428,55.849L171.307,55.66L171.57,53.993L170.34,52.923L170.34,51.663L171.395,50.78L173.24,50.465L173.504,51.442L172.186,52.513L173.065,54.087L173.68,53.898L173.856,52.387L174.735,51.946L175.438,55.094L174.119,55.408L175.086,56.729L175.79,59.178L176.932,59.837L176.229,60.621L174.823,60.558L174.998,61.875L173.504,63.003L172.713,66.539L171.482,66.82L172.449,63.285L171.922,62.752L170.252,65.913L169.9,67.57L168.054,69.756L164.714,75.458L163.572,79.158L164.626,78.909L166.648,79.313L167.703,78.474L169.549,77.946L169.812,76.765L165.945,78.692L164.451,77.853L168.142,70.817L170.867,68.507L173.416,67.633L173.68,65.35L175.086,63.066L177.811,60.935L177.02,57.891L178.954,59.147L180.185,65.006L178.251,65.006L178.514,66.257L179.481,66.695L179.13,68.445L179.745,69.038L179.745,70.692L178.514,71.877L178.427,73.061L179.745,73.56L178.866,75.054L178.339,77.76L178.69,78.412L177.811,80.182L178.427,81.702L177.108,84.151L174.735,81.733L175.438,78.754L174.032,80.058L173.504,82.012L176.141,84.584L175.262,85.08L175.35,86.565L174.383,87.369L172.977,85.946L171.219,82.694L172.274,81.547L172.361,79.654L171.746,78.878L171.746,80.461L170.691,82.229L171.307,84.46L170.779,85.946L171.922,85.513L172.889,87.555L175.262,88.235L176.229,87.091L176.229,86.07L177.372,85.575L178.075,83.128L178.954,81.485L178.778,80.554L180.976,82.353L181.855,81.578L181.503,80.461L183.876,79.406L183.876,77.853L183.173,76.05L182.47,75.707L182.997,74.618L182.118,73.373L181.503,71.16L183.437,69.974L181.327,68.164L182.734,65.601L182.206,62.752L183.525,61.311L184.316,57.577L186.25,56.791L186.162,54.622L184.931,53.898L182.909,51.19L182.997,48.856L182.118,47.309L180.8,47.183L181.064,47.941L180.097,48.825L180.976,50.938L182.558,52.513L182.646,53.615L180.36,50.938L179.306,50.812L178.69,48.983L178.866,46.551L180.448,45.793L181.855,46.488L182.734,45.161L181.855,43.737L179.393,42.313L178.251,40.792L178.339,39.556L175.79,40.602L175.174,39.556L175.526,38.129L174.383,38.668L174.647,37.43L176.756,36.541L177.899,37.017L178.69,38.573L180.36,38.351L179.481,34.92L180.976,34.73L181.415,33.648L179.569,31.548L179.13,29.445L179.833,28.041L178.69,27.084L177.196,27.275L176.229,28.584L177.02,29.986L175.35,28.711L176.053,26.892L175.174,26.094L174.383,26.541L174.295,24.464L172.449,22.737L173.416,22.065L172.977,20.912L171.834,20.4L173.24,18.669L189.414,18.669L197.94,18.861L210.686,18.701L223.255,18.765L239.956,18.765L254.811,18.765L269.314,18.733L284.961,18.733Z" fill="#e7e2d8"/><path d="M631.372,230.552L657.126,230.581L669.696,230.609L685.342,230.609L690.792,230.724L708.899,230.667L727.709,230.638L741.158,230.667L757.507,230.638L767.352,230.638L768.143,232.335L773.241,234.776L776.406,236.555L779.131,238.533L780.801,238.275L781.855,237.444L782.647,235.321L783.35,235.006L785.108,235.608L787.305,235.867L788.887,235.379L790.294,235.694L791.7,235.321L793.282,235.723L793.898,235.063L795.216,235.436L796.535,235.034L798.732,235.752L798.82,236.842L800.402,237.415L800.842,238.218L804.621,238.591L805.325,239.966L806.379,239.479L808.841,240.481L808.928,241.626L810.774,241.712L811.741,242.169L811.126,243.656L812.972,245.542L813.587,247.055L815.697,246.912L816.136,247.768L817.63,247.568L818.861,247.797L819.213,249.052L818.422,250.306L818.422,252.47L819.388,253.295L820.619,256.224L819.74,256.934L820.004,258.297L821.938,259.886L821.85,262.238L823.168,262.946L822.729,263.399L824.047,263.711L823.959,264.56L825.366,264.73L825.102,266.597L824.575,266.908L825.805,268.631L825.893,269.704L826.948,270.353L826.684,271.651L825.981,272.215L826.508,273.737L825.541,274.244L826.245,275.399L825.629,276.497L826.596,277.594L826.333,279.168L827.651,279.955L827.827,278.915L828.618,278.943L828.442,281.106L830.2,281.387L830.288,284.641L829.673,285.454L831.431,286.21L830.288,287.358L830.727,289.121L830.376,290.156L832.485,290.827L831.431,291.302L831.87,293.899L831.431,294.653L832.046,295.489L831.958,296.66L832.749,297.218L832.573,299.056L833.189,299.808L832.31,301.227L832.661,303.534L831.519,304.506L831.343,305.534L832.661,307.143L833.804,307.587L834.683,309.139L834.331,309.915L834.243,311.659L836.001,311.742L836.089,310.829L837.056,311.327L835.914,312.49L836.001,313.596L836.968,314.536L836.88,315.614L837.935,318.651L839.517,319.368L839.43,320.251L841.188,320.774L841.363,322.896L843.473,324.987L842.77,327.16L845.495,328.698L833.804,328.698L821.146,328.698L798.029,328.671L773.505,328.643L759.177,328.643L735.181,328.671L712.063,328.643L702.922,328.643L680.332,328.616L680.332,296.437L668.026,296.437L656.159,296.437L631.372,296.465Z" fill="#e7e2d8"/><path d="M316.341,127.699L315.374,124.88L314.758,124.547L316.253,121.724L315.198,120.508L315.198,118.592L314.495,116.949L312.737,114.633L313.352,113.169L313.352,74.743L313.264,73.123L313.264,51.127L313.44,42.091L313.44,28.073L313.528,18.797L328.559,18.765L337.612,18.733L337.612,44.338L337.524,47.783L337.612,56.571L341.04,61.342L342.359,62L343.062,64.756L343.765,64.568L344.38,66.038L345.523,66.789L345.347,68.757L346.402,70.474L345.259,71.472L345.084,72.531L346.051,72.687L346.49,74.463L347.896,74.68L347.633,75.365L345.699,75.614L344.644,76.734L345.611,76.672L349.742,79.375L350.358,81.051L353.17,82.446L355.28,82.756L356.071,84.027L355.895,85.204L356.862,85.42L357.302,86.565L358.356,86.967L359.851,88.637L361.521,91.169L362.048,93.02L363.191,92.989L364.949,94.838L364.597,97.023L366.004,98.838L368.992,100.62L368.465,102.308L368.992,102.829L370.311,102.185L370.662,101.264L371.893,101.541L372.508,102.461L371.981,103.657L372.684,104.853L374.354,104.7L376.288,105.159L376.64,104.516L378.925,103.811L379.628,104.117L379.892,105.894L379.013,109.658L377.958,109.749L378.573,111.857L377.431,113.84L377.343,117.375L376.2,118.106L376.727,119.018L376.815,121.42L375.145,121.633L374.969,123.121L376.464,124.122L375.673,125.881L376.024,127.517L377.694,128.334L377.167,129.817L378.31,131.45L377.694,132.779L375.497,132.81L373.915,135.496L375.585,137.727L375.497,139.172L373.915,140.286L374.618,141.369L374.266,142.962L376.464,142.962L377.606,144.764L378.837,145.424L379.277,146.504L381.386,145.244L381.65,143.503L382.792,143.863L384.463,143.082L386.133,140.617L387.451,139.564L387.275,138.329L388.066,137.938L389.385,138.721L390.264,140.045L390.088,140.827L391.143,140.767L392.461,141.519L391.846,144.374L393.516,144.374L393.604,145.754L393.077,146.654L393.604,148.363L394.307,148.932L394.131,151.028L395.362,152.643L395.45,153.69L397.56,155.87L398.175,158.048L399.669,158.495L399.493,159.27L401.163,160.432L401.515,162.248L401.339,163.884L400.109,164.27L401.076,167.152L403.537,168.724L403.888,169.91L406.174,168.605L408.986,170.325L410.569,173.553L411.008,175.031L410.217,176.45L412.063,178.842L411.623,179.845L412.151,181.407L413.469,182.586L415.052,183.292L416.018,184.588L416.81,183.94L416.282,182.38L417.601,180.258L419.095,179.579L420.589,180.228L423.49,180.287L424.457,180.995L425.16,180.405L427.27,181.525L427.973,180.199L428.149,178.399L428.94,178.399L429.731,177.366L431.137,177.572L432.192,178.606L433.422,178.369L434.126,179.019L435.972,178.133L436.851,178.517L437.993,177.779L439.927,177.543L441.07,179.402L443.707,178.222L443.97,177.661L446.08,178.045L446.871,177.572L449.684,178.34L448.365,176.45L449.772,173.553L449.332,172.576L451.09,172.487L451.793,170.947L453.288,172.013L455.749,175.475L455.573,176.745L457.683,178.487L458.21,179.933L460.056,180.611L459.968,184.735L460.056,192.575L460.056,207.641L460.144,208.398L460.144,239.851L460.056,244.513L460.056,263.739L449.684,263.824L432.456,263.909L432.016,263.768L415.139,263.824L392.11,264.192L386.748,264.022L376.288,263.937L373.124,263.994L368.025,263.739L362.488,263.937L355.544,263.937L329.789,263.937L313.616,263.796L313.616,203.332L313.791,201.611L314.758,201.29L314.758,199.713L315.813,197.347L315.901,196.089L314.934,195.152L314.846,193.923L315.901,193.425L316.78,191.608L316.692,190.699L315.11,190.2L314.934,188.644L313.176,188.996L311.77,187.263L310.1,187.998L308.957,186.97L309.66,185.323L308.342,183.292L309.045,182.232L308.781,180.287L310.363,178.871L311.242,176.923L311.946,174.055L313.176,171.303L315.989,169.851L315.989,169.228L317.571,166.973L318.362,164.954L317.747,163.23L318.011,161.712L319.241,160.402L319.769,158.823L320.911,157.63L321.527,154.168L322.318,152.643L322.23,151.567L324.339,147.074L325.218,146.384L325.306,144.734L327.416,141.489L326.801,139.865L325.658,138.389L325.658,136.792L324.252,135.345L322.581,135.285L321.702,133.866L320.12,134.017L318.714,131.752L317.747,130.936Z" fill="#e7e2d8"/><path d="M240.835,263.994L240.835,263.966L260.173,264.022L272.743,264.079L275.028,263.994L299.024,263.852L313.616,263.796L329.789,263.937L355.544,263.937L362.488,263.937L368.025,263.739L373.124,263.994L376.288,263.937L386.748,264.022L386.748,296.493L386.66,303.895L386.66,321.271L386.572,325.373L386.572,370.59L386.484,379.144L386.572,387.13L386.484,391.753L386.572,399.003L386.484,399.296L386.484,422.594L386.484,434.077L386.66,441.196L386.572,447.2L386.133,447.591L384.023,452.356L381.913,452.642L380.068,451.315L380.243,450.586L378.661,448.737L377.519,448.659L375.409,449.154L375.233,448.503L373.739,448.477L372.684,449.128L372.245,448.763L371.453,449.519L369.256,450.326L369.871,452.408L369.52,453.526L370.574,456.046L371.453,456.851L370.662,457.474L370.311,458.927L370.75,460.457L370.487,461.779L371.102,462.582L370.838,463.592L371.629,464.576L371.629,467.24L371.102,468.17L371.453,469.669L372.42,470.882L372.948,472.56L373.739,477.147L373.739,479L371.893,480.106L372.772,480.671L372.245,483.112L359.323,470.443L353.17,464.395L332.602,444.67L305.089,418.718L293.926,408.299L288.476,403.363L277.489,393.327L268.787,385.363L263.249,380.485L253.229,371.453L243.12,362.545L240.835,360.462L240.659,353.331L240.747,350.015L240.747,337.551L240.835,337.195L240.923,326.418L240.923,305.534L240.835,304.59Z" fill="#e7e2d8"/><path d="M1002.922,626.916L1004.065,628.447L1004.504,630.292L1004.241,632.743L1003.362,635.289L1003.01,635.216L1003.713,633.034L1004.065,630.608L1003.977,629.491ZM991.583,626.746L992.55,625.822L995.363,623.852L995.539,624.193L994.396,625.725L994.572,626.406L995.715,627.208L994.396,628.423L994.132,627.281L993.253,627.524L991.759,627.281ZM984.639,641.534L986.134,641.292L985.342,642.308ZM966.268,653.526L966.884,652.876L968.026,654.441L967.323,654.778ZM961.785,653.936L965.213,654.73L963.543,654.923ZM957.127,654.995L959.324,654.538L959.5,654.947L957.215,655.428ZM926.098,639.962L926.977,639.309L928.032,639.43L928.296,638.801L930.23,638.946L932.251,640.422L933.042,640.252L933.57,640.954L932.251,641.824L932.163,642.791L930.933,643.25L925.747,640.47ZM876.523,541.668L892.784,541.718L900.344,541.718L914.144,541.894L927.68,542.019L946.93,542.119L946.051,543.373L945.788,544.577L946.579,545.128L947.809,544.476L947.721,542.797L948.688,542.696L949.479,544.502L949.304,545.479L947.458,546.781L947.018,547.708L946.93,549.484L949.655,550.235L949.479,550.91L948.073,551.735L947.282,552.684L947.546,553.983L948.073,554.332L949.831,553.683L950.358,552.534L950.974,553.458L950.271,554.382L949.04,555.156L950.886,556.404L951.325,557.053L950.446,557.227L948.952,556.03L948.513,556.055L948.249,557.501L950.271,558.723L951.15,558.225L951.853,559.097L951.15,559.595L951.15,561.04L953.171,561.464L953.699,560.467L954.05,560.916L952.644,562.882L951.589,562.683L951.765,564.002L951.325,565.047L950.095,564.276L949.479,564.947L947.106,565.444L946.93,567.408L949.743,567.681L949.567,566.141L950.886,566.737L950.095,568.451L949.04,568.997L948.6,569.891L947.458,568.923L947.018,569.544L948.688,570.189L948.688,571.429L947.018,571.777L946.403,572.397L946.579,573.636L944.469,575.569L944.997,576.089L944.557,576.782L943.942,576.361L943.766,575.296L942.711,575.569L942.096,577.896L944.645,578.168L944.293,578.613L942.272,578.737L941.305,579.603L941.217,582.223L939.635,582.223L938.756,581.531L938.316,582.47L939.107,583.211L940.69,582.89L941.041,583.68L939.986,584.544L938.228,584.988L938.316,586.814L939.459,588.663L939.459,589.378L938.668,589.55L937.965,588.836L937.613,587.603L936.822,588.565L937.437,588.959L937.525,590.068L938.58,590.979L938.404,592.038L936.91,592.53L935.328,592.358L935.24,593.293L936.295,594.031L936.558,595.039L935.679,596.17L935.767,596.858L937.174,598.086L936.558,599.511L935.416,600.026L955.281,600.026L967.059,600.001L981.563,599.952L982.178,600.836L981.563,601.376L981.651,602.479L981.035,602.945L980.244,606.008L979.629,606.62L979.981,607.501L979.102,609.654L979.805,609.997L980.156,612.319L981.035,613.15L981.387,614.102L982.354,614.566L983.233,615.615L983.233,616.933L984.551,618.811L984.551,620.492L984.903,622.099L986.046,623.317L987.1,623.317L985.606,624.168L984.903,623.998L983.409,625.36L983.233,626.284L982.178,626.649L982.442,627.621L979.981,627.208L979.014,628.301L979.453,629.953L981.035,630.195L982.178,629.588L981.826,631.021L982.53,631.846L983.848,632.307L984.991,632.04L985.518,631.336L985.958,628.884L985.782,628.568L987.891,627.256L988.155,626.187L989.737,627.013L990.88,626.867L990.88,627.378L989.386,628.204L989.386,629.03L990.704,629.443L990.968,630.924L992.286,630.584L993.253,628.593L994.66,629.2L994.308,630.535L993.165,630.535L992.111,631.603L994.044,631.555L993.781,632.258L991.056,632.792L992.199,634.392L993.165,633.859L992.55,635.289L991.759,634.659L990.528,634.392L989.474,635.725L989.386,638.123L988.595,638.244L988.067,636.161L987.1,636.137L986.925,637.735L988.067,639.139L986.925,638.341L985.694,638.22L984.991,638.631L983.672,638.486L985.255,639.43L985.255,640.204L983.233,639.018L983.233,639.623L984.288,640.398L983.233,640.736L983.321,641.558L984.288,642.429L986.046,642.695L985.958,643.226L987.013,643.806L986.925,644.628L987.54,645.738L988.331,645.014L988.77,645.521L990.704,645.569L992.111,646.39L992.374,645.666L994.132,647.862L995.099,646.801L997.209,649.478L997.209,650.901L997.736,651.214L999.318,650.539L999.934,651.527L997.824,651.889L997.648,652.684L999.055,652.756L998.352,654.008L997.385,653.43L996.33,655.741L996.506,656.799L994.66,655.933L994.484,654.61L993.781,654.225L991.056,657.545L989.737,658.53L990.353,656.92L991.144,656.222L991.583,655.067L992.374,654.562L992.374,653.262L993.165,652.708L993.078,651.479L992.199,650.901L991.847,652.394L990.441,653.093L989.386,652.394L988.155,650.539L985.167,649.502L984.288,648.417L979.365,647.621L978.31,647.959L974.091,651.407L970.048,654.176L969.433,653.936L969.784,652.948L968.729,652.563L968.554,651.575L969.081,651.503L968.026,649.092L967.059,648.441L966.268,648.465L966.356,649.141L965.653,650.009L965.829,648.176L964.95,646.825L963.807,648.369L962.576,648.031L961.961,648.562L961.346,647.814L960.819,648.465L961.697,649.985L960.643,649.888L960.027,650.539L959.676,651.84L958.973,651.672L958.533,653.045L957.83,652.756L956.16,653.55L955.632,655.38L954.226,654.995L954.666,654.489L953.523,652.876L951.941,651.503L950.974,651.816L948.688,651.31L947.809,650.515L945.612,650.226L944.206,649.623L942.799,648.176L943.854,647.838L944.469,646.438L945.172,646.728L946.227,647.983L946.843,647.452L946.755,649.092L948.073,649.502L947.721,646.994L945.7,645.449L945.7,644.434L944.733,644.265L943.942,645.255L942.799,645.569L942.975,644.579L942.096,644.748L942.36,643.806L943.151,643.13L942.272,642.163L939.723,643.371L938.844,641.437L937.965,641.631L937.437,638.776L935.152,638.752L935.679,637.953L935.767,635.895L932.954,635.507L931.812,635.749L930.054,636.67L929.438,635.289L930.142,634.295L930.845,634.368L930.669,633.253L929.263,633.059L928.032,633.592L927.241,633.107L927.065,634.077L924.956,634.95L923.725,635.774L923.198,634.998L921.615,635.386L921.615,636.161L922.406,636.888L923.989,637.082L923.198,637.808L923.901,639.333L925.659,638.825L926.098,639.26L924.956,639.599L925.483,640.083L922.67,640.228L920.385,641.413L918.627,641.631L911.419,640.107L908.343,639.091L903.332,636.646L901.311,635.87L897.707,634.901L894.806,634.78L893.576,635.119L890.411,634.95L885.313,635.555L883.819,635.87L881.533,637.154L880.039,634.877L879.248,634.15L879.424,633.544L880.918,632.452L882.061,630.657L882.676,628.763L883.907,627.815L884.873,626.576L884.082,626.114L885.137,624.411L884.346,622.489L884.786,621.539L884.698,620.248L883.291,618.981L883.819,617.177L884.961,615.933L884.522,613.711L883.907,613.125L884.17,612.148L885.401,611.415L885.577,609.752L886.631,609.141L886.895,607.355L887.686,605.812L888.477,605.004L888.126,603.46L888.389,602.528L889.181,601.989L888.126,600.639L888.214,599.83L889.356,599.314L889.181,597.988L888.477,597.227L889.005,594.719L887.335,595.015L886.807,592.235L886.28,592.284L885.225,591.127L885.752,589.821L885.489,588.614L884.786,588.244L884.873,587.455L883.643,586.568L884.17,585.901L883.907,585.038L882.764,584.89L881.973,584.1L881.445,582.84L882.061,582.149L881.797,581.037L882.412,579.998L881.709,578.613L881.885,577.772L880.566,576.411L879.775,574.355L878.193,573.587L877.226,571.802L876.523,571.504Z" fill="#e7e2d8"/></g><path d="M386.748,264.022L392.11,264.192L415.139,263.824L432.016,263.768L432.456,263.909L449.684,263.824L460.056,263.739L460.144,278.072L460.056,284.221L460.056,296.577L468.231,296.633L479.921,296.66L484.492,296.577L497.062,296.549L509.016,296.493L509.016,311.383L508.928,312.656L508.928,363.438L508.752,369.27L508.752,383.167L509.192,386.621L509.192,406.283L509.104,407.238L509.104,422.646L494.864,422.673L474.208,422.673L473.68,422.488L459.616,422.541L451.09,422.567L423.578,422.594L404.064,422.594L386.484,422.594L386.484,399.296L386.572,399.003L386.484,391.753L386.572,387.13L386.484,379.144L386.572,370.59L386.572,325.373L386.66,321.271L386.66,303.895L386.748,296.493Z" fill="#f08a24" stroke="#ffffff" stroke-width="1.75" stroke-linejoin="round"/></svg>