<svg xmlns="http://www.w3.org/2000/svg" viewBox="0 0 800 600" width="800" height="600" role="img" aria-label="Hawaii highlighted on a regional map"><rect width="800" height="600" fill="#aacbe6"/><g stroke="#ffffff" stroke-width="1.5" stroke-linejoin="round"></g><path d="M564.867,393.916L565.688,389.326L573.482,381.395L578.404,380.664L583.737,370.954L590.3,365.523L591.531,359.463L584.557,349.638L582.916,344.932L582.506,333.949L585.788,330.077L593.171,331.019L600.555,334.367L601.786,337.715L610.81,342.318L616.963,347.233L621.886,346.606L632.141,349.951L648.139,358L653.472,359.985L662.496,366.358L669.059,372.312L676.033,380.247L674.802,385.152L675.212,394.542L678.494,395.585L685.057,394.333L687.929,400.278L687.519,406.221L696.543,414.767L705.568,418.83L707.619,421.018L705.978,425.6L700.645,430.911L693.672,435.803L687.929,441.631L678.494,445.585L670.29,450.474L662.086,452.346L655.523,450.786L651.831,451.722L644.447,458.585L637.884,461.184L632.551,466.173L626.808,467.836L621.886,473.966L622.296,477.394L619.014,481.237L616.963,487.363L608.759,493.903L602.606,487.571L593.582,482.172L584.557,479.16L580.455,469.291L582.506,457.546L584.147,441.839L580.045,430.807L580.455,426.017L576.763,424.767L574.712,412.891L571.841,406.012L568.149,405.178ZM491.441,250.367L493.492,243.113L498.004,237.224L503.747,236.593L509.079,240.064L513.181,248.265L517.283,253.52L527.128,250.472L534.512,246.793L545.177,249L545.177,250.682L552.151,256.042L556.253,257.618L558.304,261.82L571.02,265.706L573.071,269.067L573.071,274.526L569.79,279.039L564.457,283.236L561.996,282.921L555.022,286.698L549.279,285.649L536.973,291.208L528.359,292.152L521.385,289.425L518.514,267.386L515.643,265.286L509.9,267.806L499.234,262.555L493.902,256.462ZM491.03,297.814L493.902,294.774L505.388,288.796L509.49,291.943L507.849,296.556L509.9,298.339L504.567,300.33L502.516,298.758L495.132,301.169ZM450.01,252.364L452.881,249.526L458.214,249L468.879,250.998L475.853,257.303L479.134,262.66L475.443,269.487L467.649,272.531L460.675,273.056L457.804,266.756L456.573,259.089L450.83,255.727ZM421.706,228.176L424.167,222.703L427.859,219.65L427.038,213.542L434.012,213.753L435.242,215.227L457.394,218.281L461.496,214.701L463.136,219.123L472.161,220.492L483.236,218.597L490.21,221.229L486.928,227.018L479.545,232.385L471.34,234.594L456.983,231.227L446.318,227.965L440.165,229.439L428.269,229.965ZM310.95,169.676L328.589,168.725L333.922,163.551L335.563,159.854L340.895,154.783L346.638,153.198L349.099,156.051L351.561,163.446L359.765,172.315L361.406,177.803L359.765,179.386L360.995,184.345L368.379,190.146L369.61,184.134L374.532,184.345L372.891,191.095L376.173,193.626L375.763,196.683L382.736,204.061L377.814,207.959L373.301,206.063L364.687,209.118L362.226,206.379L355.252,203.113L344.997,201.953L332.691,204.061L329.82,203.639L326.948,194.786L322.436,191.201L322.026,187.931L316.283,180.863L316.283,174.426ZM138.664,114.054L139.074,109.817L143.587,105.791L145.227,100.598L158.764,92.965L162.046,90.208L171.481,92.117L172.711,89.466L179.275,90.632L182.556,89.147L188.709,91.269L192.811,95.192L194.862,99.962L194.862,104.838L190.35,111.512L190.76,122.737L189.119,125.701L177.634,133.954L174.352,132.367L159.585,131.098L152.201,123.584L142.356,120.514ZM86.158,136.387L87.799,131.838L92.721,127.182L100.515,122.419L101.336,118.396L105.848,117.443L106.668,120.726L104.617,126.759L105.438,130.569L97.233,133.531L90.67,143.79L85.748,140.618Z" fill="#f08a24" stroke="#ffffff" stroke-width="1.75" stroke-linejoin="round"/></svg>