<svg xmlns="http://www.w3.org/2000/svg" xmlns:xlink="http://www.w3.org/1999/xlink" id="Layer_1" data-name="Layer 1" viewBox="137.32 85.24 320.08 161.33">
  <defs>
    <style>
      .cls-1, .cls-2, .cls-3 {
        fill: none;
      }

      .cls-4 {
        fill: url(#linear-gradient-8);
      }

      .cls-5 {
        fill: url(#linear-gradient-7);
      }

      .cls-6 {
        fill: url(#linear-gradient-5);
      }

      .cls-7 {
        fill: url(#linear-gradient-6);
      }

      .cls-8 {
        fill: url(#linear-gradient-9);
      }

      .cls-9 {
        fill: url(#linear-gradient-4);
      }

      .cls-10 {
        fill: url(#linear-gradient-3);
      }

      .cls-11 {
        fill: url(#linear-gradient-2);
      }

      .cls-12 {
        fill: url(#linear-gradient);
      }

      .cls-13 {
        fill: #1d293b;
      }

      .cls-14 {
        fill: #70cee6;
      }

      .cls-15 {
        fill: #fedb30;
      }

      .cls-16 {
        fill: #fbedb4;
      }

      .cls-17 {
        fill: url(#linear-gradient-10);
      }

      .cls-18 {
        fill: url(#linear-gradient-11);
      }

      .cls-19 {
        fill: url(#linear-gradient-12);
      }

      .cls-20 {
        fill: url(#linear-gradient-13);
      }

      .cls-21 {
        fill: url(#linear-gradient-14);
      }

      .cls-22 {
        fill: url(#linear-gradient-15);
      }

      .cls-23 {
        fill: url(#linear-gradient-16);
      }

      .cls-24 {
        fill: url(#linear-gradient-17);
      }

      .cls-25 {
        fill: url(#linear-gradient-18);
      }

      .cls-26 {
        fill: #0e1019;
      }

      .cls-2 {
        stroke: #0e1019;
      }

      .cls-2, .cls-3 {
        stroke-linecap: round;
        stroke-linejoin: round;
      }

      .cls-3 {
        stroke: #1d293b;
      }
    </style>
    <linearGradient id="linear-gradient" x1="363.97" y1="225.65" x2="363.97" y2="194.19" gradientUnits="userSpaceOnUse">
      <stop offset="0" stop-color="#fbedb4"/>
      <stop offset=".19" stop-color="#fbea9b"/>
      <stop offset=".58" stop-color="#fde45d"/>
      <stop offset="1" stop-color="#ffde17"/>
    </linearGradient>
    <linearGradient id="linear-gradient-2" x1="346.3" y1="227.54" x2="346.3" y2="192.98" xlink:href="#linear-gradient"/>
    <linearGradient id="linear-gradient-3" x1="202.54" y1="230.67" x2="202.54" y2="200.1" xlink:href="#linear-gradient"/>
    <linearGradient id="linear-gradient-4" x1="395.8" y1="233" x2="395.8" y2="197.67" xlink:href="#linear-gradient"/>
    <linearGradient id="linear-gradient-5" x1="428.27" y1="234.94" x2="428.27" y2="203.3" xlink:href="#linear-gradient"/>
    <linearGradient id="linear-gradient-6" x1="267.24" y1="225.32" x2="267.24" y2="192.52" xlink:href="#linear-gradient"/>
    <linearGradient id="linear-gradient-7" x1="288.99" y1="208.65" x2="288.99" y2="191.29" xlink:href="#linear-gradient"/>
    <linearGradient id="linear-gradient-8" x1="239.03" y1="223.79" x2="239.03" y2="195.23" xlink:href="#linear-gradient"/>
    <linearGradient id="linear-gradient-9" x1="173.18" y1="234.58" x2="173.18" y2="213.01" xlink:href="#linear-gradient"/>
    <linearGradient id="linear-gradient-10" x1="318.28" y1="225.63" x2="318.28" y2="191.31" xlink:href="#linear-gradient"/>
    <linearGradient id="linear-gradient-11" x1="183.89" y1="168.68" x2="183.89" y2="131.55" gradientUnits="userSpaceOnUse">
      <stop offset="0" stop-color="#d3e9ef"/>
      <stop offset=".25" stop-color="#bee3ed"/>
      <stop offset=".75" stop-color="#8bd5e8"/>
      <stop offset="1" stop-color="#70cee6"/>
    </linearGradient>
    <linearGradient id="linear-gradient-12" x1="301.86" y1="160.73" x2="301.86" y2="123.08" xlink:href="#linear-gradient-11"/>
    <linearGradient id="linear-gradient-13" x1="392.92" y1="166.15" x2="392.92" y2="129.76" xlink:href="#linear-gradient-11"/>
    <linearGradient id="linear-gradient-14" x1="348.35" y1="160.24" x2="348.35" y2="125.3" xlink:href="#linear-gradient-11"/>
    <linearGradient id="linear-gradient-15" x1="431.41" y1="168.66" x2="431.41" y2="137.14" xlink:href="#linear-gradient-11"/>
    <linearGradient id="linear-gradient-16" x1="434.82" y1="153.64" x2="434.82" y2="152.95" gradientUnits="userSpaceOnUse">
      <stop offset="0" stop-color="#d3e9ef"/>
      <stop offset=".17" stop-color="#cce7ee"/>
      <stop offset=".4" stop-color="#bae2ec"/>
      <stop offset=".67" stop-color="#9cdaea"/>
      <stop offset=".97" stop-color="#73cfe6"/>
      <stop offset="1" stop-color="#70cee6"/>
    </linearGradient>
    <linearGradient id="linear-gradient-17" x1="221.73" y1="163.91" x2="221.73" y2="127.66" xlink:href="#linear-gradient-11"/>
    <linearGradient id="linear-gradient-18" x1="260.79" y1="162.01" x2="260.79" y2="124.61" xlink:href="#linear-gradient-11"/>
  </defs>
  <path class="cls-1" d="M385.06,173.81c5.46.54,10.92,1.14,16.37,1.82-5.46-.68-10.91-1.28-16.37-1.82Z"/>
  <path class="cls-1" d="M413.41,193.52c-4.78-1.64-9.59-3.24-14.42-4.78,4.84,1.55,9.64,3.14,14.42,4.78Z"/>
  <path class="cls-1" d="M208.73,121.38c.49-4.45,1.03-8.91,1.63-13.38-.6,4.46-1.14,8.92-1.63,13.38Z"/>
  <path class="cls-1" d="M279.38,168.66c4.96-.3,9.93-.54,14.91-.73-4.97.19-9.94.43-14.91.73Z"/>
  <path class="cls-1" d="M181.42,202.05c.48,2.31.98,4.61,1.49,6.9h0c-.51-2.3-1.01-4.6-1.49-6.9Z"/>
  <path class="cls-1" d="M169.79,213.01c-1.56-6-3.02-12.03-4.33-18.09,1.31,6.06,2.76,12.09,4.33,18.09,0,0,0,0,0,0Z"/>
  <path class="cls-1" d="M160.7,216.06c-3.83-9.32-7.41-18.69-10.64-28.11,3.23,9.43,6.81,18.79,10.64,28.11Z"/>
  <path class="cls-1" d="M373.49,196.39s0,0,0,0c2.24-7.83,4.43-15.67,6.51-23.5-2.08,7.83-4.27,15.67-6.51,23.5Z"/>
  <path class="cls-1" d="M217.86,200.1c-1.14-9.15-2.11-18.32-2.87-27.53.77,9.2,1.73,18.38,2.87,27.53,0,0,0,0,0,0Z"/>
  <path class="cls-1" d="M385.06,173.81c-.55,7.98-1.28,15.93-2.15,23.85h0c.87-7.93,1.6-15.88,2.15-23.85Z"/>
  <path class="cls-1" d="M396.13,199.64c.98-3.63,1.93-7.27,2.85-10.91-.92,3.64-1.88,7.28-2.85,10.91,0,0,0,0,0,0Z"/>
  <path class="cls-1" d="M423.19,203.72c2.03-6.38,3.93-12.79,5.69-19.22-1.77,6.43-3.67,12.84-5.69,19.22Z"/>
  <path class="cls-1" d="M358.53,194.62c-.01-.26-.03-.52-.04-.79.01.26.03.52.04.79h0Z"/>
  <path class="cls-1" d="M294.29,167.93c-1.97,7.18-3.86,14.37-5.66,21.56,1.8-7.19,3.69-14.38,5.66-21.56Z"/>
  <path class="cls-1" d="M366.92,172.13c-1.79,7.6-3.67,15.2-5.58,22.8,0,0,0,0,0,0,1.91-7.6,3.78-15.2,5.58-22.8Z"/>
  <path class="cls-1" d="M252.35,171.47c.57,7.5,1.22,14.99,1.91,22.47h0c-.69-7.49-1.34-14.98-1.91-22.47Z"/>
  <path class="cls-1" d="M320.6,188.81c-.1.91-.2,1.88-.27,2.84.08-.97.18-1.94.27-2.84Z"/>
  <path class="cls-1" d="M353.31,194.08c.1-1.7.21-3.39.3-5.09-.09,1.7-.2,3.39-.3,5.09h0Z"/>
  <path class="cls-1" d="M341.69,179.48c-.14,4.5-.31,9-.5,13.5,0,0,0,0,0,0,.19-4.5.36-8.99.5-13.5Z"/>
  <path class="cls-1" d="M217.07,121.32c-.04,2.63-.06,5.25-.07,7.88h0c0-2.62.03-5.25.07-7.88Z"/>
  <path class="cls-1" d="M210.36,108.01c8.23-1.04,16.48-1.91,24.75-2.62-8.26.71-16.52,1.58-24.75,2.62Z"/>
  <path class="cls-1" d="M372.35,107.68c.02,2.43.01,8.6.15,11.77-.13-3.17-.13-9.34-.15-11.77Z"/>
  <path class="cls-1" d="M238.75,90.45c.84,9.47,1.84,18.94,2.97,28.4-1.13-9.46-2.13-18.93-2.97-28.4Z"/>
  <path class="cls-1" d="M440.95,144.26s0,0,0,0c.27-.37.51-.77.68-1.21-.17.44-.41.84-.68,1.21Z"/>
  <path class="cls-1" d="M273.39,168.75c0-.05,0-.11,0-.16.07,0,.14,0,.21-.01,0-.05,0-.09,0-.14-.12,0-.24,0-.36,0-.01.11-.02.21-.04.32.06,0,.12,0,.18-.01Z"/>
  <path class="cls-1" d="M345.07,117.47c-.26,2.61-.53,5.22-.81,7.83h0c.27-2.61.55-5.22.81-7.83Z"/>
  <path class="cls-1" d="M452.72,146.52c1.18-4.35,1.53-9.11.98-14.16.55,5.05.2,9.8-.98,14.16Z"/>
  <path class="cls-1" d="M168.22,108.42c4.2-.93,8.42-1.82,12.64-2.66-4.22.84-8.43,1.73-12.64,2.66Z"/>
  <path class="cls-1" d="M189.94,123.25c-.12-4.03-.19-8.07-.21-12.11.02,4.05.09,8.08.21,12.11Z"/>
  <path class="cls-1" d="M277.74,101.59c-6.16.38-12.32.86-18.47,1.42,6.15-.56,12.31-1.04,18.47-1.42Z"/>
  <path class="cls-1" d="M453.7,132.36c-.52-4.72-3.59-8.49-9.46-11.46,5.87,2.97,8.94,6.74,9.46,11.46Z"/>
  <path class="cls-1" d="M354.17,126.38c-.26-3.09-.53-6.17-.82-9.26.3,3.09.56,6.18.82,9.26h0Z"/>
  <path class="cls-1" d="M323.64,102.52c-.32,2.62-.44,4.87-.57,7.23.13-2.37.25-4.62.57-7.23Z"/>
  <path class="cls-1" d="M391.65,124.35c-.32,2.57-.65,5.14-1,7.71,0,0,0,0,0,0,.35-2.57.69-5.14,1-7.71Z"/>
  <path class="cls-1" d="M360.2,106.16c4.05.47,8.11.97,12.15,1.52-4.05-.55-8.1-1.05-12.15-1.52Z"/>
  <path class="cls-1" d="M189.73,111.13c4.27-.76,8.55-1.48,12.83-2.15-4.28.67-8.56,1.39-12.83,2.15Z"/>
  <path class="cls-1" d="M408.02,135.71c1.46-6.85,2.78-13.72,3.94-20.61-1.16,6.89-2.48,13.76-3.94,20.61,0,0,0,0,0,0Z"/>
  <path class="cls-1" d="M202.63,131.55s0,0,0,0c-.18-7.5-.21-15.02-.07-22.57-.14,7.55-.11,15.07.07,22.57Z"/>
  <path class="cls-1" d="M310.49,171.95c4.31-.01,8.62.02,12.93.09-4.31-.07-8.62-.11-12.93-.09Z"/>
  <path class="cls-1" d="M377.36,112.88c.17,3.68.34,9.97.46,16.88,0,0,0,0,0,0-.12-6.91-.29-13.2-.46-16.88Z"/>
  <path class="cls-1" d="M289.22,110.86c4.24-.08,8.48-.12,12.72-.12-4.24,0-8.48.04-12.72.12Z"/>
  <path class="cls-1" d="M451.67,189.44c-1.42,4.14-2.92,8.26-4.48,12.37,1.56-4.11,3.05-8.23,4.48-12.37Z"/>
  <path class="cls-1" d="M372.5,119.45c-6.37-.87-12.76-1.65-19.15-2.33,6.39.68,12.78,1.46,19.15,2.33Z"/>
  <path class="cls-1" d="M278.14,188.5c.37-6.61.79-13.22,1.24-19.84-.45,6.61-.87,13.23-1.24,19.84Z"/>
  <path class="cls-15" d="M358.49,193.83c-.35-8.54-.86-17.1-1.55-25.67h0c-5.08-.57-10.08-1.09-14.93-1.56-.08,4.3-.19,8.59-.32,12.88-.14,4.5-.31,9-.5,13.5,4.07.33,8.11.7,12.11,1.1.1-1.7.21-3.39.3-5.09.3,1.74.57,3.47.85,5.21,1.36.14,2.72.28,4.07.43-.01-.26-.03-.52-.04-.79Z"/>
  <path class="cls-15" d="M373.49,196.39c2.24-7.83,4.43-15.67,6.51-23.5-4.36-.3-8.72-.55-13.08-.76-1.79,7.6-3.67,15.2-5.58,22.8,4.1.46,8.15.95,12.14,1.46Z"/>
  <path class="cls-14" d="M182.48,135.53h0c-.87-9.87-1.43-19.8-1.62-29.78-4.22.84-8.43,1.73-12.64,2.66.31,10.04,1.02,20.01,2.09,29.92h0c3.81-.93,7.87-1.87,12.17-2.8Z"/>
  <path class="cls-14" d="M202.63,131.55c-.18-7.5-.21-15.02-.07-22.57-4.28.67-8.56,1.39-12.83,2.15.02,4.05.09,8.08.21,12.11.11,3.55.26,7.09.45,10.63h0c3.92-.79,8-1.57,12.25-2.32Z"/>
  <path class="cls-14" d="M322.09,123.66c.27-3.6.54-7.2.79-10.8.08-1.07.13-2.1.19-3.1.13-2.37.25-4.62.57-7.23-4.29-.15-8.58-.26-12.88-.33-.33,7.01-.68,14.02-1.03,21.02.47.01.94.02,1.41.03,3.68.09,7.32.24,10.94.42Z"/>
  <path class="cls-14" d="M301.66,123.09c.1-4.12.19-8.24.28-12.36-4.24,0-8.48.04-12.72.12-.02,4.1-.03,8.2-.04,12.3,4.11-.07,8.26-.09,12.47-.06Z"/>
  <path class="cls-15" d="M217.86,200.1c-1.14-9.15-2.11-18.32-2.87-27.53-4.01.53-8.03,1.09-12.03,1.69.68,5.63,1.44,11.25,2.28,16.86.35,2.32.7,4.64,1.07,6.95-2.4.33-4.79.66-7.19,1.02-1.06-5.44-2.06-10.88-2.97-16.34-3.9.65-7.79,1.34-11.68,2.06,1.1,5.36,2.27,10.7,3.53,16.03-2.19.39-4.37.8-6.56,1.21.48,2.31.98,4.61,1.49,6.9,10.4-3.05,22.17-6.13,34.94-8.85Z"/>
  <path class="cls-15" d="M413.37,201.72c-3.42-.75-6.86-1.48-10.29-2.18-.18.38-.35.77-.53,1.15,3.58.59,7.07,1.2,10.47,1.81.12-.26.23-.52.35-.78Z"/>
  <path class="cls-15" d="M396.13,199.64c.98-3.63,1.93-7.27,2.85-10.91,4.84,1.55,9.64,3.14,14.42,4.78,1.53-5.21,3-10.42,4.38-15.65-5.45-.82-10.9-1.56-16.36-2.24s-10.91-1.28-16.37-1.82c-.55,7.98-1.28,15.93-2.15,23.85,4.5.64,8.92,1.3,13.22,1.98Z"/>
  <path class="cls-14" d="M377.33,112.18c.01.22.02.46.03.7.17,3.68.34,9.97.46,16.88,4.36.73,8.63,1.5,12.82,2.3.35-2.57.69-5.14,1-7.71,2.84.85,5.67,1.72,8.5,2.61-.44,2.25-.9,4.5-1.37,6.74,3.13.65,6.21,1.32,9.23,2.01,1.46-6.85,2.78-13.72,3.94-20.61-11.53-1.78-23.11-3.23-34.72-4.36.02.23.03.49.05.78.01.21.02.43.04.67Z"/>
  <path class="cls-14" d="M345.07,117.47c-.26,2.61-.53,5.22-.81,7.83,3.34.33,6.64.69,9.91,1.08-.26-3.09-.53-6.17-.82-9.26,6.39.68,12.78,1.46,19.15,2.33-.13-3.17-.13-9.34-.15-11.77-4.05-.55-8.1-1.05-12.15-1.52-10.49-1.21-21-2.18-31.52-2.86-.32,4.12-.65,8.24-.99,12.36,5.83.15,11.65.39,17.47.71-.03.37-.06.74-.09,1.11Z"/>
  <path class="cls-14" d="M433.31,132.59c.36.04.72.08,1.07.13,2.11.26,4.08,1.24,5.53,2.76,1.62,1.7,2.4,3.91,2.12,6.04-.07.55-.21,1.06-.4,1.54-.17.44-.41.84-.68,1.21,3.95,1.16,7.74,2.31,11.33,3.45.06-.13.12-.26.18-.39.1-.26.19-.52.26-.8,1.18-4.35,1.53-9.11.98-14.16-.52-4.72-3.59-8.49-9.46-11.46-.39-.2-.8-.39-1.21-.58-.67-.31-1.35-.61-2.09-.89-.54-.21-1.09-.42-1.66-.62-3.66-1.29-7.52-2.19-11.18-2.91-.02,0-.04,0-.06-.01-1.23-.24-2.43-.47-3.6-.68-.67-.12-1.32-.24-1.95-.36-.18,1.97-.37,3.94-.58,5.91-.63,5.9-1.38,11.78-2.26,17.64-.41-.07-.82-.14-1.23-.21,4.72,1.17,9.27,2.36,13.65,3.57.44-3.05.86-6.1,1.23-9.15Z"/>
  <path class="cls-15" d="M417.47,203.3c8.35,1.54,16.05,3.08,22.93,4.53.01-.03.02-.06.04-.09-2.75-.67-5.5-1.33-8.26-1.97,1.04-2.82,2.06-5.64,3.05-8.47,4.01,1.47,8,2.97,11.96,4.5,1.56-4.11,3.05-8.23,4.48-12.37-7.57-1.79-15.17-3.43-22.78-4.94-1.77,6.43-3.67,12.84-5.69,19.22-1.86-.28-3.73-.55-5.59-.81-.04.13-.08.26-.12.38Z"/>
  <path class="cls-14" d="M227.93,127.66h0c.06-2.38.14-4.76.23-7.14,2.71-.38,5.43-.74,8.15-1.08-.44-4.68-.84-9.36-1.2-14.05-8.27.71-16.51,1.58-24.75,2.62-.6,4.47-1.14,8.92-1.63,13.38,2.78-.04,5.56-.06,8.34-.07-.04,2.63-.06,5.25-.07,7.88,3.56-.54,7.2-1.05,10.93-1.53Z"/>
  <path class="cls-15" d="M267.67,192.52h0c.62-7.52,1.32-15.05,2.1-22.59-5.82.44-11.62.95-17.42,1.54.57,7.5,1.22,14.99,1.91,22.47,4.41-.55,8.88-1.03,13.41-1.43Z"/>
  <path class="cls-15" d="M288.62,189.49c1.8-7.19,3.69-14.38,5.66-21.56-4.97.19-9.94.43-14.91.73-.45,6.61-.87,13.23-1.24,19.84-.06,1.08-.11,2.17-.17,3.25,3.38-.2,6.78-.36,10.21-.46.15-.6.3-1.2.45-1.8Z"/>
  <path class="cls-15" d="M232.49,197.24c.29-4.47.63-8.95,1.03-13.44,1.36,4.18,2.73,8.37,4.1,12.56.02,0,.04,0,.07-.01,2.35-.39,4.72-.76,7.11-1.12-1.67-5.8-3.34-11.6-5-17.4-4.78,1.08-9.53,2.21-14.27,3.39.02,5.76.14,11.51.32,17.25h0c2.19-.43,4.41-.84,6.65-1.24Z"/>
  <path class="cls-26" d="M232.49,197.24c-.03.4-.06.81-.08,1.21,1.84-.37,3.69-.74,5.53-1.1-.11-.33-.22-.67-.33-1-1.37-4.19-2.74-8.38-4.1-12.56-.4,4.49-.74,8.97-1.03,13.44Z"/>
  <path class="cls-15" d="M165.47,194.92c4.29-.24,8.57-.43,12.84-.57-.75-4.28-1.45-8.58-2.08-12.89-3.02.69-6.04,1.4-9.05,2.13-5.73,1.38-11.44,2.84-17.13,4.37,3.24,9.43,6.81,18.79,10.64,28.11,2.83-.98,5.86-2.01,9.09-3.06-1.56-6-3.02-12.03-4.33-18.09Z"/>
  <path class="cls-14" d="M242.6,125.95c4.89-.5,9.91-.95,15.03-1.34h0c.41-9.16.91-17.99,1.35-20.37.03-.17.06-.32.09-.42.06-.27.13-.54.19-.81,6.15-.56,12.31-1.04,18.47-1.42,6.16-.38,12.33-.68,18.5-.88-.15,1.33-.3,2.66-.44,3.99,4.15-2.24,8.32-4.43,12.49-6.58-3.96-2.49-7.93-4.93-11.91-7.34-.08,1.66-.15,3.32-.23,4.99-9.56-1.32-19.14-2.43-28.71-3.31-4.79-.44-9.57-.83-14.35-1.16s-9.56-.61-14.34-.83c.84,9.47,1.84,18.94,2.97,28.4.28,2.37.58,4.73.88,7.1Z"/>
  <path class="cls-15" d="M310.49,171.95c.12,2.03.24,4.05.35,6.08.18,3.22.13,5.39.1,7.31-.04,1.91-.07,3.63.11,5.96h0c3.09.08,6.19.2,9.28.34.08-.97.18-1.94.27-2.84.27-2.55.54-5.1.81-7.65,3.01.51,6.01,1.03,9.01,1.58,1.64.25,3.28.51,4.91.78.49-3.8.98-7.59,1.45-11.39-4.45-.07-8.91-.1-13.36-.08-4.31-.07-8.62-.1-12.93-.09Z"/>
  <path class="cls-16" d="M358.85,204.84c-.08-3.4-.19-6.81-.32-10.22h0c.13,3.41.24,6.82.32,10.22Z"/>
  <path class="cls-16" d="M361.34,194.93c-.83,3.3-1.65,6.61-2.49,9.91.84-3.31,1.67-6.61,2.49-9.91,0,0,0,0,0,0Z"/>
  <path class="cls-16" d="M312.1,224.69c-.19-6.92-.43-13.85-.7-20.77.27,6.93.51,13.85.7,20.77Z"/>
  <path class="cls-16" d="M217.86,200.1c1.23,9.9,2.67,19.77,4.3,29.61-1.63-9.84-3.07-19.71-4.3-29.61,0,0,0,0,0,0Z"/>
  <path class="cls-16" d="M252.23,221.19c-3.4.62-6.71.92-10.2,1.26,3.49-.34,6.8-.64,10.2-1.26Z"/>
  <path class="cls-16" d="M286.58,197.81c4.55-.6,9.12-1.15,13.71-1.65-4.59.5-9.15,1.05-13.71,1.65Z"/>
  <path class="cls-16" d="M172.75,223.88c4-.32,8-.6,11.99-.84-3.99.24-7.98.52-11.99.84Z"/>
  <path class="cls-16" d="M182.91,208.95c.36,1.6.71,3.19,1.09,4.79-.37-1.59-.73-3.19-1.09-4.79h0Z"/>
  <path class="cls-16" d="M172.75,223.88c-1.03-3.61-2.01-7.24-2.96-10.87,0,0,0,0,0,0,.95,3.63,1.92,7.26,2.96,10.87Z"/>
  <path class="cls-16" d="M309.45,203.54c-1.11-.15-2.57-.29-3.87-.4,1.3.11,2.76.24,3.87.4Z"/>
  <path class="cls-16" d="M364.88,225.65c2.94-9.76,5.82-19.51,8.61-29.26,0,0,0,0,0,0-2.79,9.75-5.67,19.5-8.61,29.26Z"/>
  <path class="cls-16" d="M277.16,208.33c.23-5.53.51-11.05.81-16.58-.3,5.53-.57,11.06-.81,16.58Z"/>
  <path class="cls-16" d="M211.71,230.67c-1.5-6.49-2.91-12.99-4.24-19.51,1.32,6.52,2.74,13.02,4.24,19.51Z"/>
  <path class="cls-16" d="M396.13,199.64c-1.71,6.38-3.5,12.75-5.37,19.12,1.87-6.36,3.66-12.74,5.38-19.12,0,0,0,0,0,0Z"/>
  <path class="cls-16" d="M341.19,192.98c-.48,11.34-1.1,22.66-1.91,33.96.81-11.3,1.43-22.63,1.91-33.96,0,0,0,0,0,0Z"/>
  <path class="cls-16" d="M382.91,197.67c-1.18,10.72-2.62,21.39-4.34,32.01,1.72-10.62,3.16-21.29,4.34-32.01h0Z"/>
  <path class="cls-16" d="M413.66,229.86c1.85-5.32,3.62-10.64,5.31-15.99-1.69,5.34-3.46,10.67-5.31,15.99Z"/>
  <path class="cls-16" d="M350.73,227.54c1.06-11.13,1.92-22.29,2.58-33.47h0c-.66,11.18-1.52,22.33-2.58,33.47Z"/>
  <path class="cls-16" d="M426.13,222.22c5.6,1.46,11.19,2.98,16.75,4.57-5.56-1.59-11.14-3.11-16.75-4.57Z"/>
  <path class="cls-16" d="M437.57,234.94c-7.95-1.83-15.92-3.52-23.92-5.08,7.99,1.56,15.97,3.25,23.92,5.08Z"/>
  <path class="cls-16" d="M235.32,205.23c.04,5.96.15,11.92.35,17.86-.2-5.94-.32-11.9-.35-17.86Z"/>
  <path class="cls-16" d="M325.99,225.63c-4.62-.36-9.25-.67-13.89-.93,4.64.27,9.27.58,13.89.93Z"/>
  <path class="cls-16" d="M358.53,225.21c-1.01-10.29-2.39-20.64-4.07-31.02,1.68,10.38,3.07,20.72,4.07,31.02Z"/>
  <path class="cls-16" d="M327.09,201.55c-.14.95-.3,1.89-.49,2.88.18-.99.34-1.93.49-2.88Z"/>
  <path class="cls-16" d="M254.26,193.95c.96,10.46,2.02,20.92,3.17,31.38-1.15-10.45-2.21-20.91-3.17-31.38h0Z"/>
  <path class="cls-16" d="M413.02,202.49c-2.36,5.29-4.77,10.59-7.22,15.89,2.45-5.3,4.86-10.6,7.22-15.89Z"/>
  <path class="cls-12" d="M361.34,194.93c-.83,3.3-1.65,6.61-2.49,9.91-.08-3.4-.19-6.81-.32-10.22-1.35-.15-2.71-.29-4.07-.43,1.68,10.38,3.07,20.72,4.07,31.02,2.11.14,4.23.29,6.34.45,2.94-9.76,5.82-19.51,8.61-29.26-3.99-.51-8.05-1-12.14-1.46Z"/>
  <path class="cls-11" d="M341.19,192.98c-.48,11.34-1.1,22.66-1.91,33.96,3.81.17,7.63.37,11.44.6,1.06-11.13,1.92-22.29,2.58-33.47-4.01-.4-8.05-.77-12.11-1.1Z"/>
  <path class="cls-10" d="M182.91,208.95c.36,1.6.71,3.2,1.09,4.79,1.82-.11,3.63-.22,5.44-.32,1.41,5.49,2.89,10.97,4.44,16.43,3.56-.41,7.12-.79,10.68-1.15-1.2-5.64-2.32-11.3-3.36-16.97,2.09-.2,4.18-.39,6.27-.57,1.32,6.52,2.74,13.02,4.24,19.51,3.48-.35,6.97-.67,10.45-.96-1.63-9.84-3.07-19.71-4.3-29.61-12.77,2.72-24.54,5.79-34.94,8.85Z"/>
  <path class="cls-16" d="M193.88,229.85c-1.55-5.46-3.04-10.94-4.44-16.43,1.41,5.49,2.89,10.97,4.44,16.43Z"/>
  <path class="cls-16" d="M201.2,211.73c1.04,5.67,2.16,11.33,3.36,16.97-1.2-5.64-2.32-11.3-3.36-16.97Z"/>
  <path class="cls-9" d="M382.91,197.67c-1.18,10.72-2.62,21.39-4.34,32.01,6.82,1.01,13.62,2.12,20.4,3.33,2.31-4.88,4.58-9.75,6.83-14.62,2.45-5.3,4.86-10.6,7.22-15.89-3.4-.61-6.89-1.21-10.47-1.81-1.11,2.43-2.23,4.86-3.35,7.29,1,.39,2.01.78,3.01,1.18-1.79,3.81-3.6,7.63-5.42,11.45-2.01-.62-4.02-1.23-6.04-1.84,1.87-6.36,3.66-12.74,5.37-19.12-4.31-.68-8.72-1.34-13.22-1.98Z"/>
  <path class="cls-16" d="M398.97,233c-6.78-1.21-13.58-2.32-20.4-3.33,6.82,1.01,13.62,2.12,20.4,3.33Z"/>
  <path class="cls-6" d="M414.54,212.39c1.48.49,2.95.99,4.42,1.49-1.69,5.34-3.46,10.67-5.31,15.99,7.99,1.56,15.97,3.25,23.92,5.08,1.78-2.72,3.55-5.44,5.31-8.15-5.56-1.59-11.14-3.11-16.75-4.57.84-2.2,1.66-4.41,2.46-6.62,2.65.56,5.3,1.13,7.94,1.72,1.32-3.16,2.61-6.32,3.86-9.49-6.88-1.45-14.58-3-22.93-4.53-.95,3.03-1.93,6.06-2.93,9.09Z"/>
  <path class="cls-7" d="M266.12,214.57c.43-7.35.95-14.7,1.55-22.05-4.53.4-9,.88-13.41,1.43.96,10.46,2.02,20.92,3.17,31.38,7.6-.23,15.2-.33,22.78-.31-.39-4.15-.78-8.3-1.17-12.45-4.33.63-8.64,1.3-12.93,2.01Z"/>
  <path class="cls-16" d="M280.22,225.01c-7.58-.02-15.18.08-22.78.31,7.6-.23,15.2-.33,22.78-.31Z"/>
  <path class="cls-16" d="M266.12,214.57c.43-7.35.95-14.7,1.55-22.05h0c-.6,7.36-1.12,14.71-1.55,22.05Z"/>
  <path class="cls-16" d="M266.12,214.57c4.29-.71,8.6-1.38,12.93-2.01-4.33.63-8.64,1.3-12.93,2.01Z"/>
  <path class="cls-5" d="M286.58,197.81c.52-2.17,1.05-4.35,1.59-6.52-3.42.1-6.83.26-10.21.46-.3,5.53-.57,11.06-.81,16.58,7.89-.03,15.77.08,23.64.32-.16-4.16-.34-8.33-.51-12.49-4.59.5-9.15,1.05-13.71,1.65Z"/>
  <path class="cls-16" d="M300.81,208.65c-7.87-.24-15.75-.35-23.64-.32,7.89-.03,15.77.08,23.64.32Z"/>
  <path class="cls-4" d="M237.68,196.35s-.04,0-.07.01c.11.33.22.67.33,1-1.85.36-3.69.72-5.53,1.1.03-.4.06-.81.08-1.21-2.24.4-4.46.81-6.65,1.24.26,8.46.67,16.9,1.27,25.31,2.85-.25,5.71-.48,8.56-.69-.2-5.94-.32-11.9-.35-17.86,2.12,5.74,4.24,11.49,6.34,17.25.12-.01.25-.02.37-.04,3.49-.34,6.8-.64,10.2-1.26-2.47-8.67-4.96-17.32-7.44-25.95-2.39.35-4.76.73-7.11,1.12Z"/>
  <path class="cls-16" d="M225.84,198.48c.26,8.46.67,16.9,1.27,25.31-.6-8.41-1.01-16.85-1.27-25.31h0Z"/>
  <path class="cls-8" d="M172.75,223.88c-1.03-3.61-2.01-7.24-2.96-10.87-3.23,1.05-6.27,2.07-9.09,3.06.41.99.82,1.98,1.24,2.98,2.17,5.19,4.41,10.37,6.73,15.54,5.66-.9,11.33-1.73,16.99-2.49-.34-3.01-.65-6.02-.92-9.05-3.99.24-7.98.52-11.99.84Z"/>
  <path class="cls-16" d="M168.66,234.58c-2.32-5.17-4.56-10.35-6.73-15.54,2.17,5.19,4.41,10.37,6.73,15.54Z"/>
  <path class="cls-16" d="M185.65,232.08c-5.66.76-11.33,1.59-16.99,2.49,5.66-.9,11.33-1.74,16.99-2.49Z"/>
  <path class="cls-17" d="M311.24,193.33c.04.34.08.67.12,1.01-1.64.22-3.27.44-4.9.68-.29,2.71-.59,5.42-.88,8.13,1.3.11,2.76.24,3.87.4.44.06.83.13,1.13.19.27.06.54.12.81.18.27,6.93.51,13.85.7,20.77,4.64.27,9.27.58,13.89.93,1.6-2.35,3.4-5.02,4.99-7.8-4.25-.51-8.52-.98-12.79-1.41.32-4.06.64-8.13.96-12.19,2.49.05,4.97.12,7.46.2.18-.99.34-1.93.49-2.88.18-1.16.33-2.32.46-3.55.05-.41.09-.83.13-1.26.04-.45.09-.91.13-1.39-2.54-.09-5.07-.17-7.61-.24,0-.34,0-.68,0-1.02,0-.54.03-1.1.06-1.67.02-.26.03-.52.05-.79-3.09-.14-6.18-.26-9.28-.34.05.63.11,1.29.19,2.02Z"/>
  <path class="cls-16" d="M311.05,191.31c.05.63.11,1.29.19,2.02-.08-.73-.15-1.39-.19-2.02h0Z"/>
  <path class="cls-16" d="M327.55,198c-.14,1.23-.29,2.39-.46,3.55.18-1.16.33-2.32.46-3.55Z"/>
  <path class="cls-16" d="M310.59,203.74c-.3-.07-.69-.13-1.13-.19.44.06.83.13,1.13.19Z"/>
  <path class="cls-16" d="M330.98,217.82c-1.59,2.78-3.39,5.46-4.99,7.8,1.6-2.35,3.4-5.02,4.99-7.8Z"/>
  <path class="cls-16" d="M318.18,216.42c4.27.43,8.54.9,12.79,1.41-4.25-.51-8.52-.98-12.79-1.41Z"/>
  <path class="cls-13" d="M390.65,132.07s0,0,0,0c-.92,6.78-1.96,13.55-3.1,20.31,1.14-6.76,2.18-13.53,3.1-20.31Z"/>
  <path class="cls-13" d="M400.67,166.15c-7.6-1.4-15.21-2.67-22.85-3.8,7.64,1.13,15.25,2.4,22.85,3.8Z"/>
  <path class="cls-13" d="M377.83,129.76s0,0,0,0c.15,8.1.23,17.05.2,23.66.03-6.61-.06-15.56-.2-23.66Z"/>
  <path class="cls-13" d="M378.01,156.11c0-.84.02-1.74.02-2.68,0,.94-.01,1.84-.02,2.68Z"/>
  <path class="cls-13" d="M433.35,146.54c.99.22,1.96.29,2.88.21-.92.08-1.89,0-2.88-.21Z"/>
  <path class="cls-13" d="M438.77,146.09c.9-.43,1.62-1.06,2.17-1.83,0,0,0,0,0,0-.55.77-1.27,1.4-2.17,1.83Z"/>
  <path class="cls-13" d="M400.67,166.15c2.71-10.12,5.18-20.27,7.35-30.45,0,0,0,0,0,0-2.17,10.18-4.64,20.33-7.35,30.45Z"/>
  <path class="cls-13" d="M299.73,157.24c-4.86-.14-9.71-.22-14.57-.25,4.86.03,9.72.11,14.57.25Z"/>
  <path class="cls-13" d="M355.17,139.34c-.3-4.32-.64-8.64-1-12.96h0c.36,4.32.7,8.64,1,12.96Z"/>
  <path class="cls-13" d="M344.27,125.3c-1.17,11.13-2.48,22.25-3.89,33.37,1.41-11.12,2.72-22.24,3.89-33.37h0Z"/>
  <path class="cls-13" d="M440.26,153.61c4.53-.18,9.14-1.3,11.41-4.76-2.27,3.46-6.88,4.58-11.41,4.76Z"/>
  <path class="cls-13" d="M397.87,171.89c-.02.05-.03.11-.05.16-.07-.01-.14-.02-.2-.04-.01.05-.03.11-.04.16-.07-.01-.14-.02-.2-.04-.02.05-.03.11-.04.16-.07-.01-.14-.02-.2-.04,0,0,0,.01,0,.02.33.04.67.08,1,.12.03-.21.07-.42.1-.62-.04,0-.07-.01-.11-.02-.02.05-.03.11-.05.16-.07-.01-.14-.02-.2-.04Z"/>
  <path class="cls-13" d="M258.89,161.52c-3.8.13-7.78.3-11.26.48,3.48-.19,7.46-.35,11.26-.48Z"/>
  <path class="cls-13" d="M192.67,168.37c-.94-6.56-1.77-13.13-2.46-19.73.69,6.6,1.52,13.18,2.46,19.73Z"/>
  <path class="cls-13" d="M164.22,152.62c-.4-3.98-.75-7.97-1.03-11.98.28,4.01.63,8,1.03,11.98Z"/>
  <path class="cls-13" d="M172.77,168.68c-.97-5.55-1.84-11.12-2.59-16.72.75,5.59,1.62,11.17,2.59,16.72Z"/>
  <path class="cls-13" d="M217,129.19c0,2.63,0,5.26.03,7.88-.03-2.63-.03-5.25-.03-7.88h0Z"/>
  <path class="cls-13" d="M202.82,137.99c-.08-2.14-.14-4.29-.19-6.44,0,0,0,0,0,0,.05,2.15.11,4.29.19,6.44Z"/>
  <path class="cls-13" d="M211.18,163.91c7.59-.95,15.19-1.77,22.8-2.46-7.61.68-15.21,1.5-22.8,2.46Z"/>
  <path class="cls-26" d="M420.09,175.29c.02-.06.03-.11.05-.17.07.02.14.03.2.05.02-.06.03-.11.05-.17.07.02.14.03.2.05.02-.06.03-.11.05-.17.07.02.14.03.21.05.02-.06.03-.11.05-.17.07.02.14.03.21.05.02-.06.03-.11.05-.17.07.02.14.03.21.05.02-.06.03-.11.05-.17.07.02.14.03.21.05.02-.06.03-.11.05-.17.07.02.14.03.21.05.02-.06.03-.11.05-.17.07.02.14.03.21.05.02-.06.03-.11.05-.17.07.02.14.03.21.05.02-.06.03-.11.05-.17.07.02.14.03.21.05.02-.06.03-.11.05-.17.07.02.14.03.21.05.02-.06.03-.11.05-.17.07.02.14.03.21.05.02-.06.03-.11.05-.17.07.02.14.03.21.05.02-.06.03-.11.05-.17.07.02.14.03.21.05.02-.06.03-.11.05-.17.07.02.14.03.21.05.02-.06.03-.11.05-.17.07.02.14.03.21.05.02-.06.03-.11.05-.17.07.02.14.03.21.05.02-.06.03-.11.05-.17.07.02.14.03.21.05.02-.06.03-.11.05-.17.07.02.14.03.21.05.02-.06.03-.11.05-.17.07.02.14.03.21.05.02-.06.03-.11.05-.17.07.02.14.03.21.05.02-.06.03-.11.05-.17.07.02.14.03.21.05.02-.06.03-.11.05-.17.07.02.14.03.21.05.02-.05.03-.11.05-.17.07.02.14.03.21.05.02-.06.03-.11.05-.17.07.02.14.03.21.05.02-.06.03-.11.05-.17.07.02.14.03.21.05.02-.06.03-.11.05-.17.07.02.14.03.21.05.02-.06.03-.11.05-.17.07.02.14.03.21.05.02-.06.03-.11.05-.17.07.02.14.04.21.05.15-.52.3-1.04.45-1.56.84-2.9,1.64-5.81,2.42-8.72,2.43-.33,4.58-.91,6.42-1.75.08-.04.17-.07.25-.11.08-.04.17-.07.25-.11.08-.04.17-.07.25-.11.08-.04.17-.07.25-.11.08-.04.17-.07.25-.11.08-.04.17-.07.25-.11.08-.04.17-.07.25-.11.08-.04.17-.07.25-.11.08-.04.17-.07.25-.11.08-.04.17-.07.25-.11.08-.04.17-.07.25-.11.08-.04.17-.07.25-.11.08-.04.17-.07.25-.11.08-.04.17-.07.25-.11.08-.04.17-.07.25-.11.08-.04.17-.07.25-.11.08-.04.17-.07.25-.11.08-.04.17-.07.25-.11.08-.04.17-.07.25-.11.08-.04.17-.07.25-.11.08-.04.17-.07.25-.11.08-.04.17-.07.25-.11.08-.04.17-.07.25-.11.08-.04.17-.07.25-.11.08-.04.17-.07.25-.11.08-.04.17-.07.25-.11.08-.04.17-.07.25-.11.08-.04.17-.07.25-.11.08-.04.17-.07.25-.11.08-.04.17-.07.25-.11.08-.04.17-.07.25-.11.08-.04.17-.07.25-.11.08-.04.17-.07.25-.11.08-.04.17-.07.25-.11.08-.04.17-.07.25-.1.08-.04.17-.07.25-.11.08-.04.17-.07.25-.1.08-.04.17-.07.25-.1.08-.04.17-.07.25-.1.08-.04.17-.07.25-.1.08-.04.17-.07.25-.1.08-.04.17-.07.25-.1.08-.04.17-.07.25-.1.08-.03.17-.07.25-.1.08-.04.17-.07.25-.1.08-.04.17-.07.25-.1.08-.04.17-.07.25-.1.08-.04.17-.07.25-.1.08-.04.17-.07.25-.1.08-.04.17-.07.25-.1,2.99-1.25,5.15-3.2,6.25-5.82.17-.4.31-.81.43-1.24,1.26-4.57,1.63-9.56,1.06-14.86-.77-7.08-6.58-12.79-17.03-16.49-2.66-.94-5.6-1.76-9.26-2.56-2.14-.47-4.17-.85-6.14-1.21-1.09-.2-2.12-.39-3.1-.57-.64-.12-1.29-.24-1.93-.36,0,.05,0,.11-.01.16-.08-.01-.15-.03-.23-.04,0,.05,0,.11-.01.16-.08-.01-.15-.03-.23-.04,0,.05,0,.11-.01.16-.08-.01-.15-.03-.23-.04,0,.05,0,.11-.01.16-.08-.01-.15-.03-.23-.04,0,.05,0,.11-.01.16-.08-.01-.15-.03-.23-.04,0,.05,0,.11-.01.16-.08-.01-.15-.03-.23-.04,0,.05,0,.11-.01.16-.08-.01-.15-.03-.23-.04,0,.05,0,.11-.01.16-.08-.01-.15-.03-.23-.04,0,.05,0,.11-.01.16-.08-.01-.15-.03-.23-.04,0,.05,0,.11-.01.16-.08-.01-.15-.03-.23-.04,0,.05,0,.11-.01.16-.08-.01-.15-.03-.23-.04,0,.05,0,.11-.01.16-.08-.01-.15-.03-.23-.04,0,.05,0,.11-.01.16-.08-.01-.15-.03-.23-.04,0,.05,0,.11-.01.16-.08-.01-.15-.03-.23-.04,0,.05,0,.11-.01.16-.08-.01-.15-.03-.23-.04,0,.05,0,.11-.01.16-.06-.01-.12-.02-.18-.03.03-.16.05-.33.08-.49-.77-.12-1.54-.25-2.31-.37-12.43-1.96-24.91-3.53-37.43-4.73-.1,0-.2-.02-.3-.03,0-.51,0-.82,0-.83,0-.54,0-1.08,0-1.62-.65-.09-1.3-.18-1.95-.27-15.33-2.12-30.72-3.67-46.15-4.66-.09,0-.17-.01-.26-.02.02-.18.05-.36.08-.54-.77-.03-1.54-.06-2.31-.09-4.2-.16-8.39-.28-12.59-.36.08-.04.15-.08.23-.12-.01,0-.02-.01-.03-.02.09-.05.18-.09.27-.14-.01,0-.02-.01-.03-.02.09-.05.18-.09.27-.14-.01,0-.02-.01-.03-.02.09-.05.18-.09.27-.14-.01,0-.02-.01-.03-.02.09-.05.18-.09.27-.14-.01,0-.02-.01-.03-.02.09-.05.18-.09.27-.14-.01,0-.02-.01-.03-.02.09-.05.18-.09.27-.14-.8-.51-1.6-1.02-2.4-1.52-5.09-3.23-10.21-6.39-15.33-9.5-1.05-.63-2.1-1.27-3.14-1.9,0,.1,0,.2-.01.3-.07-.05-.15-.09-.23-.14,0,.1,0,.2-.01.3-.08-.05-.15-.09-.23-.14,0,.1,0,.2-.01.3-.08-.05-.15-.09-.23-.14,0,.1,0,.2-.01.3-.08-.05-.15-.09-.23-.14,0,.1,0,.2-.01.3-.08-.05-.15-.09-.23-.14,0,.1,0,.2-.01.3-.07-.05-.15-.09-.23-.14,0,.1,0,.2-.01.3-.08-.04-.15-.09-.23-.14,0,.1,0,.2-.01.3-.08-.05-.15-.09-.23-.14,0,.1,0,.2-.01.3-.08-.05-.15-.09-.23-.14,0,.1,0,.2-.01.3-.08-.05-.15-.09-.23-.13,0,.1,0,.2-.01.3-.08-.04-.15-.09-.23-.13,0,.1,0,.2-.01.3-.08-.04-.15-.09-.23-.13,0,.1,0,.2-.01.3-.08-.05-.15-.09-.23-.13,0,.1,0,.2-.01.3-.08-.04-.15-.09-.23-.13,0,.1,0,.2-.01.3-.08-.04-.15-.09-.23-.13,0,.1,0,.2-.01.3-.08-.04-.15-.09-.23-.13,0,.1,0,.2-.01.3-.08-.04-.15-.09-.23-.13,0,.1,0,.2-.01.3-.08-.04-.15-.09-.23-.13,0,.1,0,.2-.01.3-.07-.04-.15-.09-.23-.13,0,.1,0,.2-.01.3-.07-.05-.15-.09-.23-.13,0,.1,0,.2-.01.3-.08-.04-.15-.09-.23-.13,0,.1,0,.2-.01.3-.08-.04-.15-.09-.23-.13,0,.1,0,.2-.01.3-.08-.04-.15-.09-.23-.13,0,.1,0,.2-.01.3-.08-.04-.15-.09-.23-.13,0,.1,0,.2-.01.3-.08-.04-.15-.09-.23-.13,0,.1,0,.2-.01.3-.08-.04-.15-.09-.23-.13,0,.1,0,.2-.01.3-.07-.04-.15-.09-.23-.13,0,.1,0,.2-.01.3-.08-.04-.15-.09-.23-.13,0,.1,0,.2-.01.3-.08-.04-.15-.09-.23-.13,0,.1,0,.2-.01.3-.08-.04-.15-.09-.23-.13,0,.1,0,.2-.01.3-.08-.04-.15-.09-.23-.13,0,.1,0,.2-.01.3-.08-.04-.15-.09-.23-.13,0,.1,0,.2-.01.3-.08-.04-.15-.09-.23-.13,0,.1,0,.2-.01.3-.08-.04-.15-.09-.23-.13,0,.09,0,.19-.01.28-.02,0-.04,0-.06,0-.06-.03-.11-.07-.17-.1,0,.03,0,.05,0,.08-15.74-1.9-31.49-3.2-47.18-3.9-.86-.04-1.72-.07-2.57-.11,0,.07.01.13.02.2-.08,0-.17,0-.26-.01,0,.07.01.13.02.2-.09,0-.17,0-.26-.01,0,.07.01.13.02.2-.08,0-.17,0-.26-.01,0,.07.01.13.02.2-.09,0-.17,0-.26,0,0,.07.01.13.02.2-.08,0-.17,0-.26,0,0,.07.01.13.02.2-.09,0-.17,0-.26,0,0,.07.01.13.02.2-.09,0-.17,0-.26,0,0,.07.01.13.02.2-.09,0-.17,0-.26,0,0,.07.01.13.02.2-.08,0-.17,0-.26,0,0,.07.01.13.02.2-.09,0-.17,0-.26,0,0,.07.01.13.02.2-.08,0-.17,0-.26,0,0,.07.01.13.02.2-.09,0-.17,0-.26,0,0,.07.01.13.02.2-.08,0-.17,0-.26,0,0,.07.01.13.02.2-.09,0-.17,0-.26,0,0,.07.01.13.02.2-.09,0-.17,0-.26,0,0,.07.01.13.02.2-.08,0-.17,0-.26,0,0,.07.01.13.02.2-.08,0-.17,0-.26,0,0,.07.01.13.02.2-.08,0-.17,0-.26,0,0,.07.01.13.02.2-.09,0-.17,0-.26,0,0,.07.01.13.02.2-.09,0-.17,0-.26,0,0,.07.01.13.02.2-.08,0-.17,0-.26,0,0,.07.01.13.02.2-.08,0-.17,0-.26,0,0,.07.01.13.02.2-.09,0-.17,0-.26,0,0,.07.01.13.02.2-.08,0-.17,0-.26,0,0,.07.01.13.02.2-.08,0-.17,0-.26,0,0,.07.01.13.02.2-.08,0-.17,0-.26,0,0,.07.01.13.02.2-.08,0-.17,0-.26,0,0,.07.01.13.02.2-.08,0-.17,0-.26,0,0,.07.01.13.02.2-.09,0-.17,0-.26,0,0,.07.01.13.02.2-.08,0-.17,0-.26,0,0,.07.01.13.02.2-.09,0-.17,0-.26,0,0,.07.01.13.02.2-.09,0-.17,0-.25,0,0,.07.01.13.02.2-.09,0-.17,0-.26,0,0,.07.01.13.02.2-.09,0-.17,0-.26,0,0,.07.01.13.02.2-.09,0-.17,0-.26,0,0,.07.01.13.02.2-.09,0-.17,0-.26,0,0,.07.01.13.02.2-.09,0-.17,0-.26,0,0,.07.01.13.02.2-.08,0-.17,0-.26,0,0,.07.01.13.02.2-.08,0-.17,0-.26,0,0,.07.01.13.02.2-.08,0-.17,0-.25,0,0,.07.01.13.02.2-.08,0-.17,0-.26,0,0,.07.01.13.02.2-.09,0-.17,0-.26,0,0,.07.01.13.02.2-.09,0-.17,0-.26,0,0,.07.01.13.02.2-.09,0-.17,0-.25,0,0,.07.01.13.02.2-.08,0-.17,0-.25,0,0,.07.01.13.02.2-.09,0-.17,0-.25,0,0,.07.01.13.02.2-.09,0-.17,0-.25,0,0,.07.01.13.02.2-.09,0-.17,0-.25,0,0,.07.01.13.02.2-.08,0-.17,0-.25,0,0,.07.01.13.02.2-.08,0-.17,0-.25,0,0,.07.01.13.02.2-.08,0-.17,0-.26,0,.07.71.14,1.42.21,2.12.14,1.43.29,2.86.45,4.28-3.05.32-6.1.66-9.15,1.02-1.79.21-3.57.43-5.36.66-.6.08-1.2.15-1.8.23,0,.06-.02.11-.02.17-.07,0-.14.02-.21.03,0,.06-.02.11-.02.17-.07,0-.14.02-.21.03,0,.06-.02.11-.02.17-.07,0-.14.02-.21.03,0,.06-.02.12-.02.17-.07,0-.14.02-.21.03,0,.06-.02.11-.02.17-.07,0-.14.02-.21.03,0,.06-.02.12-.02.17-.07,0-.14.02-.21.03,0,.06-.02.11-.02.17-.04,0-.08,0-.11.02,0-.42.02-.85.03-1.27-.72.1-1.43.19-2.15.29-5.13.79-10.26,1.65-15.37,2.58-.65.12-1.3.24-1.96.36,0,.05,0,.11,0,.16-.08.01-.15.03-.23.04,0,.05,0,.11,0,.16-.08.01-.15.03-.23.04,0,.05,0,.11,0,.16-.08.01-.15.03-.23.04,0,.05,0,.11,0,.16-.08.01-.15.03-.23.04,0,.05,0,.11,0,.16-.08.01-.15.03-.23.04,0,.05,0,.11,0,.16-.08.01-.15.03-.23.04,0,.05,0,.11,0,.16-.08.01-.15.03-.23.04,0,.05,0,.11,0,.16-.08.01-.15.03-.23.04,0,.05,0,.11,0,.16-.08.01-.15.03-.23.04,0,.05,0,.11,0,.16-.03,0-.06.01-.08.02-.07-2.31-.13-4.62-.17-6.93,0-.58-.02-1.15-.02-1.73-.69.14-1.39.27-2.08.41-5.06,1-10.11,2.07-15.15,3.19-.66.15-1.33.3-1.99.45,0,.05,0,.11,0,.16-.08.02-.16.04-.23.05,0,.05,0,.11,0,.16-.08.02-.16.04-.23.05,0,.05,0,.11,0,.16-.08.02-.16.04-.23.05,0,.05,0,.11,0,.16-.08.02-.16.04-.23.05,0,.05,0,.11,0,.16-.08.02-.16.04-.23.05,0,.05,0,.11,0,.16-.08.02-.16.04-.23.05,0,.05,0,.11,0,.16-.08.02-.16.04-.23.05,0,.05,0,.11,0,.16-.08.02-.16.04-.23.05,0,.05,0,.11,0,.16-.08.02-.16.04-.23.05,0,.05,0,.11,0,.16-.08.02-.16.04-.23.05,0,.05,0,.11,0,.16-.08.02-.16.04-.23.05,0,.05,0,.11,0,.16-.08.02-.16.04-.23.05,0,.05,0,.11,0,.16-.08.02-.16.04-.23.05,0,.05,0,.11,0,.16-.08.02-.16.04-.23.05,0,.05,0,.11,0,.16-.08.02-.16.04-.23.05,0,.05,0,.11,0,.16-.08.02-.16.04-.23.05,0,.05,0,.11,0,.16-.08.02-.16.04-.23.05,0,.05,0,.11,0,.16-.08.02-.16.04-.23.05,0,.05,0,.11,0,.16-.08.02-.16.04-.23.05,0,.05,0,.11,0,.16-.08.02-.16.04-.23.05,0,.05,0,.11,0,.16-.08.02-.16.04-.23.05,0,.05,0,.11,0,.16-.08.02-.16.04-.23.05,0,.05,0,.11,0,.16-.08.02-.16.04-.23.05,0,.05,0,.11,0,.16-.08.02-.16.04-.23.06,0,.05,0,.11,0,.16-.08.02-.16.04-.23.06,0,.05,0,.11,0,.16-.08.02-.16.04-.23.06,0,.05,0,.11,0,.16-.08.02-.16.04-.23.06,0,.05,0,.11,0,.16-.08.02-.16.04-.23.06,0,.05,0,.11,0,.16-.08.02-.16.04-.23.06,0,.05,0,.11,0,.16-.08.02-.16.04-.23.06,0,.05,0,.11,0,.16-.08.02-.16.04-.23.06,0,.05,0,.11,0,.16-.08.02-.16.04-.23.06,0,.05,0,.11,0,.16-.08.02-.16.04-.23.06,0,.05,0,.11,0,.16-.08.02-.16.04-.23.06,0,.05,0,.11,0,.16-.08.02-.16.04-.23.06,0,.05,0,.11,0,.16-.08.02-.16.04-.23.06,0,.05,0,.11,0,.16-.08.02-.16.04-.23.06,0,.05,0,.11,0,.16-.08.02-.16.04-.23.06,0,.05,0,.11,0,.16-.08.02-.16.04-.23.06,0,.05,0,.11,0,.16-.08.02-.16.04-.23.06,0,.05,0,.11,0,.16-.08.02-.16.04-.23.06,0,.05,0,.11,0,.16-.08.02-.15.04-.23.06,0,.05,0,.11,0,.16-.08.02-.16.04-.23.06,0,.05,0,.11,0,.16-.08.02-.16.04-.23.06,0,.05,0,.11,0,.16-.08.02-.16.04-.23.06,0,.05,0,.11,0,.16-.08.02-.16.04-.23.06,0,.05,0,.11,0,.16-.08.02-.16.04-.23.06,0,.05,0,.11,0,.16-.08.02-.16.04-.23.06,0,.05,0,.11,0,.16-.08.02-.16.04-.23.06,0,.05,0,.11,0,.16-.08.02-.16.04-.23.06,0,.05,0,.11,0,.16-.08.02-.16.04-.23.06.03.55.06,1.09.09,1.64.43,7.78,1.13,15.52,2.07,23.2.03.27.06.54.09.81-.06.01-.11.03-.17.04,0,.05,0,.11.01.16-.07.02-.15.04-.22.05,0,.05,0,.11.01.16-.07.02-.15.04-.22.05,0,.05,0,.11.01.16-.07.02-.15.04-.22.05,0,.05,0,.11.01.16-.07.02-.15.04-.22.05,0,.05,0,.11.01.16-.07.02-.15.04-.22.05,0,.05,0,.11.01.16-.07.02-.15.04-.22.05,0,.05,0,.11.01.16-.07.02-.15.04-.22.05,0,.05,0,.11.01.16-.07.02-.15.04-.22.05,0,.05,0,.11.01.16-.07.02-.15.04-.22.05,0,.05,0,.11.01.16-.07.02-.15.04-.22.05,0,.05,0,.11.01.16-.07.02-.15.04-.22.05,0,.05,0,.11.01.16-.07.02-.15.04-.22.05,0,.05,0,.11.01.16-.07.02-.15.04-.22.05,0,.05,0,.11.01.16-.07.02-.15.04-.22.05,0,.05,0,.11.01.16-.07.02-.15.04-.22.05,0,.05,0,.11.01.16-.07.02-.15.04-.22.05,0,.05,0,.11.01.16-.07.02-.15.04-.22.05,0,.05,0,.11.01.16-.07.02-.15.04-.22.05,0,.05,0,.11.01.16-.07.02-.15.04-.22.05,0,.05,0,.11.01.16-.07.02-.15.04-.22.05,0,.05,0,.11.01.16-.07.02-.15.04-.22.05,0,.05,0,.11.01.16-.07.02-.15.04-.22.05,0,.05,0,.11.01.16-.07.02-.15.04-.22.05,0,.05,0,.11.01.16-.07.02-.15.04-.22.05,0,.05,0,.11.01.16-.07.02-.15.04-.22.05,0,.05,0,.11.02.16-.07.02-.15.04-.22.05,0,.05.01.11.02.16-.07.02-.15.04-.22.06,0,.05.01.11.02.16-.07.02-.15.04-.22.06,0,.05.01.11.02.16-.07.02-.15.04-.22.06,0,.05.01.11.02.16-.07.02-.15.04-.22.06.05.52.1,1.04.16,1.56.47,4.59,1.04,9.17,1.69,13.72.07.5.15,1.01.22,1.51.61-.08,1.21-.16,1.82-.24,1.39-.18,2.77-.36,4.16-.53.89,4.93,1.87,9.84,2.94,14.73.03.12.05.24.07.36.12.52.23,1.05.35,1.57.62-.11,1.24-.23,1.86-.34.53-.1,1.06-.19,1.59-.28-5.33,1.32-10.65,2.7-15.95,4.14-.63.17-1.26.35-1.89.52.02.05.03.1.05.14-.08.02-.15.04-.23.06.02.05.03.1.05.14-.08.02-.15.04-.23.06.02.05.03.1.05.14-.08.02-.15.04-.23.06.02.05.03.1.05.14-.08.02-.15.04-.23.06.02.05.03.1.05.14-.08.02-.15.04-.23.06.02.05.03.1.05.14-.08.02-.15.04-.23.06.02.05.03.1.05.14-.08.02-.15.04-.23.06.02.05.03.1.05.14-.08.02-.15.04-.23.06.02.05.03.1.05.14-.08.02-.15.04-.23.06.02.05.03.1.05.14-.08.02-.15.04-.23.06.02.05.03.1.05.14-.08.02-.15.04-.23.06.02.05.03.1.05.14-.08.02-.15.04-.23.06.02.05.03.1.05.14-.08.02-.15.04-.23.06.02.05.03.1.05.14-.08.02-.15.04-.23.06.02.05.03.1.05.14-.08.02-.15.04-.23.06.02.05.03.1.05.14-.07.02-.15.04-.23.06.02.05.03.1.05.14-.08.02-.15.04-.23.06.02.05.03.1.05.14-.08.02-.15.04-.23.06.02.05.03.09.05.14-.08.02-.15.04-.23.06.02.05.03.1.05.14-.08.02-.15.04-.23.06.02.05.03.1.05.14-.07.02-.15.04-.23.06.02.05.03.1.05.14-.08.02-.15.04-.22.06.02.05.03.09.05.14-.08.02-.15.04-.22.06.02.05.03.09.05.14-.07.02-.15.04-.22.06.02.05.03.09.05.14-.07.02-.15.04-.22.06.02.05.03.09.05.14-.08.02-.15.04-.22.06.02.05.03.09.05.14-.07.02-.15.04-.22.06.02.05.03.09.05.14-.07.02-.15.04-.22.06.02.05.03.09.05.14-.08.02-.15.04-.22.06.02.05.03.09.05.14-.07.02-.15.04-.22.06.02.05.04.09.05.14-.07.02-.15.04-.22.06.02.05.04.09.05.14-.08.02-.15.04-.22.06.02.05.04.09.05.14-.07.02-.15.04-.22.06.02.05.04.09.05.14-.07.02-.15.04-.22.06.02.05.04.1.05.14-.07.02-.15.04-.22.06.02.05.04.09.05.14-.07.02-.15.04-.22.06.02.05.04.09.05.14-.07.02-.15.04-.22.06.02.05.04.09.05.14-.07.02-.15.04-.22.06.02.05.04.09.05.14-.08.02-.15.04-.22.06.02.05.04.09.05.14-.07.02-.15.04-.22.06.02.05.04.09.05.14-.07.02-.15.04-.22.06.02.05.04.09.05.14-.07.02-.15.04-.22.06.02.05.04.09.05.14-.07.02-.15.04-.22.06.02.05.04.09.05.14-.07.02-.15.04-.22.06.02.05.04.09.05.14-.07.02-.15.04-.22.06.02.05.04.09.05.14-.07.02-.15.04-.22.06.02.05.04.09.05.14-.07.02-.15.04-.22.06.02.05.04.09.05.14-.07.02-.15.04-.22.06.02.05.04.09.05.14-.07.02-.15.04-.22.06.02.05.04.09.05.14-.07.02-.15.04-.22.06.02.05.04.09.05.14-.07.02-.15.04-.22.06.2.52.4,1.03.61,1.55,2.99,7.58,6.22,15.12,9.65,22.62,3.78,8.27,7.79,16.5,12,24.71.23.46.47.91.7,1.37.51-.08,1.01-.17,1.52-.25,6.11-1,12.21-1.91,18.31-2.75.47-.06.94-.13,1.4-.19,0-.05-.02-.11-.03-.16.05,0,.11-.01.16-.02,0-.05-.02-.11-.03-.16.05,0,.11-.01.16-.02,0-.05-.02-.11-.03-.16.05,0,.11-.01.16-.02,0-.05-.02-.11-.03-.16.05,0,.11-.01.16-.02,0-.05-.02-.11-.03-.16.05,0,.11-.01.16-.02,0-.05-.02-.11-.03-.16.05,0,.11-.01.16-.02,0-.05-.02-.11-.02-.16.05,0,.11-.01.16-.02,0-.05-.02-.11-.02-.16.05,0,.11-.01.16-.02,0-.05-.02-.11-.02-.16.05,0,.11-.01.16-.02,0-.05-.02-.11-.02-.16.05,0,.11-.01.16-.02,0-.05-.02-.11-.02-.16.05,0,.11-.01.16-.02,0-.05-.02-.11-.02-.16.05,0,.11-.01.16-.02,0-.05-.02-.11-.02-.16.05,0,.11-.01.16-.02,0-.05-.02-.11-.02-.16.05,0,.11-.01.16-.02,0-.05-.02-.11-.02-.16.05,0,.11-.01.16-.02,0-.05-.02-.11-.02-.16.05,0,.11-.01.16-.02,0-.05-.02-.11-.02-.16.05,0,.11-.01.16-.02,0-.05-.02-.11-.02-.16.05,0,.09-.01.14-.02.02.06.04.12.06.19.17.51.35,1.03.53,1.54.54-.07,1.08-.13,1.62-.2,4.13-.5,8.26-.96,12.38-1.39.55-.06,1.09-.11,1.64-.17-.01-.05-.03-.11-.04-.16.06,0,.12-.01.19-.02-.01-.05-.03-.11-.04-.16.06,0,.12-.01.19-.02-.01-.05-.03-.11-.04-.16.06,0,.12-.01.19-.02-.01-.05-.03-.11-.04-.16.06,0,.12-.01.19-.02-.01-.05-.03-.11-.04-.16.06,0,.12-.01.19-.02-.01-.05-.03-.11-.04-.16.04,0,.08,0,.12-.01.18.65.37,1.3.55,1.96.15.53.3,1.07.45,1.6.54-.06,1.09-.12,1.63-.18,4.04-.43,8.09-.82,12.13-1.18.53-.05,1.07-.09,1.6-.14-.01-.06-.02-.11-.03-.17.06,0,.12-.01.18-.02-.01-.05-.02-.11-.03-.16.06,0,.12-.01.18-.02-.01-.05-.02-.11-.03-.16.06,0,.12-.01.18-.02-.01-.06-.02-.11-.03-.16.06,0,.12-.01.18-.02-.01-.05-.02-.11-.03-.16.06,0,.12-.01.18-.02-.01-.05-.02-.11-.03-.17.06,0,.12-.01.18-.02-.01-.06-.02-.11-.03-.17.06,0,.12-.01.18-.02-.01-.06-.02-.11-.03-.17.06,0,.12-.01.18-.02-.01-.05-.02-.11-.03-.17.06,0,.12-.01.18-.02-.01-.06-.02-.11-.03-.17.06,0,.12-.01.18-.02-.01-.06-.02-.11-.03-.17.06,0,.12-.01.18-.02-.01-.06-.02-.11-.03-.17.06,0,.12-.01.18-.02-.01-.05-.02-.11-.03-.17.06,0,.12-.01.18-.02-.01-.06-.02-.11-.03-.17.06,0,.12-.01.18-.02-.01-.05-.02-.11-.03-.17.06,0,.12-.01.18-.02-.01-.06-.02-.11-.03-.17.06,0,.12-.01.18-.02-.01-.05-.02-.11-.03-.17.06,0,.12-.01.18-.02-.01-.05-.02-.11-.03-.17.06,0,.12-.01.18-.02-.01-.06-.02-.11-.03-.17.06,0,.12-.01.18-.02-.01-.06-.02-.11-.03-.17.06,0,.12-.01.18-.02-.01-.06-.02-.11-.03-.17.06,0,.12-.01.18-.02-.01-.06-.02-.11-.03-.17.06,0,.12-.01.18-.02-.01-.06-.02-.11-.03-.17.06,0,.12-.01.18-.02,0-.05-.02-.11-.03-.17.06,0,.12-.01.18-.02-.01-.05-.02-.11-.03-.17.06,0,.12-.01.18-.02-.01-.05-.02-.11-.03-.17.06,0,.12-.01.19-.02-.01-.06-.02-.11-.03-.17.06,0,.12-.01.19-.02,0-.06-.02-.11-.03-.17.06,0,.12-.01.19-.02,0-.06-.02-.11-.03-.17.06,0,.12-.01.19-.02-.01-.06-.02-.11-.03-.17.06,0,.12-.01.19-.02-.01-.06-.02-.11-.03-.17.06,0,.12-.01.19-.02,0-.06-.02-.11-.03-.17.06,0,.12-.01.19-.02,0-.05-.02-.09-.02-.14,2.11-.19,4.23-.37,6.34-.54.49-.04.99-.08,1.48-.12,0-.06,0-.11-.01-.17.06,0,.11,0,.17-.01,0-.06,0-.11-.01-.17.06,0,.11,0,.17-.01,0-.06,0-.11-.01-.17.06,0,.11,0,.17-.01,0-.06,0-.11-.01-.17.06,0,.11,0,.17-.01,0-.06,0-.11-.01-.17.06,0,.11,0,.17-.01,0-.06,0-.11-.01-.17.04,0,.08,0,.12,0,.12.29.23.58.35.87.46-.05.92-.1,1.38-.15.4-.04.8-.09,1.2-.13,3.81-.41,7.4-.77,11.19-1.58.16-.03.32-.07.48-.1.15.97.29,1.94.44,2.91.08.54.17,1.09.25,1.63.54-.02,1.07-.04,1.61-.07,8.07-.32,16.12-.51,24.16-.57.59,0,1.18,0,1.77,0,0-.06-.01-.11-.02-.17.07,0,.13,0,.2,0,0-.06-.01-.11-.02-.17.07,0,.13,0,.2,0,0-.06-.01-.11-.02-.17.07,0,.13,0,.2,0,0-.06-.01-.11-.02-.17.07,0,.13,0,.2,0,0-.06-.01-.11-.02-.17.07,0,.13,0,.2,0,0-.06-.01-.11-.02-.17.07,0,.13,0,.2,0,0-.06-.01-.11-.02-.17.07,0,.13,0,.2,0,0-.06-.01-.11-.02-.17.07,0,.13,0,.2,0,0-.06-.01-.11-.02-.17.07,0,.13,0,.2,0,0-.06-.01-.11-.02-.17.07,0,.13,0,.2,0,0-.06-.01-.11-.02-.17.07,0,.13,0,.2,0,0-.06-.01-.11-.02-.17.07,0,.13,0,.2,0,0-.06-.01-.11-.02-.17.07,0,.13,0,.2,0,0-.06-.01-.11-.02-.17.07,0,.13,0,.2,0,0-.06-.01-.11-.02-.17.07,0,.13,0,.2,0,0-.06-.01-.11-.02-.17.07,0,.13,0,.2,0,0-.06-.01-.11-.02-.17.07,0,.13,0,.2,0,0-.06-.01-.11-.02-.17.07,0,.13,0,.2,0,0-.06-.01-.11-.02-.17.07,0,.13,0,.2,0,0-.06-.01-.11-.02-.17.07,0,.13,0,.2,0,0-.06-.01-.11-.02-.17.07,0,.13,0,.2,0,0-.06-.01-.11-.02-.17.07,0,.13,0,.2,0,0-.06-.01-.11-.02-.17.07,0,.13,0,.2,0,0-.06-.01-.11-.02-.17.07,0,.13,0,.2,0,0-.06-.01-.11-.02-.17.07,0,.13,0,.2,0,0-.06-.01-.11-.02-.17.07,0,.13,0,.2,0,0-.06-.01-.11-.02-.17.07,0,.13,0,.2,0,0-.06-.01-.11-.02-.17.07,0,.13,0,.2,0,0-.06-.01-.11-.02-.17.07,0,.13,0,.2,0,0-.06-.01-.11-.02-.17.07,0,.13,0,.2,0,0-.06-.01-.11-.02-.17.07,0,.13,0,.2,0,0-.06,0-.11-.02-.17.07,0,.13,0,.2,0,0-.06-.01-.11-.02-.17.07,0,.13,0,.2,0,0-.06-.01-.11-.02-.17.07,0,.13,0,.2,0,0-.06-.01-.11-.02-.17.07,0,.13,0,.2,0,0-.06-.01-.11-.02-.17.07,0,.13,0,.2,0,0-.06-.01-.11-.02-.17.07,0,.13,0,.2,0,0-.06,0-.11-.02-.17.07,0,.13,0,.2,0,0-.06-.01-.11-.02-.17.07,0,.14,0,.2,0,0-.06-.01-.11-.02-.17.07,0,.13,0,.2,0,0-.06-.01-.11-.02-.17.07,0,.13,0,.2,0,0-.06-.01-.11-.02-.17.07,0,.14,0,.2,0,0-.06-.01-.11-.02-.17.07,0,.13,0,.2,0,0-.06-.01-.11-.02-.17.07,0,.14,0,.2,0,0-.06,0-.11-.02-.17.07,0,.13,0,.2,0,0-.06-.01-.11-.02-.17.07,0,.14,0,.2,0,0-.06-.01-.11-.02-.17.07,0,.13,0,.2,0,0-.06-.01-.11-.01-.17.07,0,.14,0,.2,0,0-.06,0-.11-.01-.17.07,0,.14,0,.2,0,0-.06,0-.11-.01-.17.07,0,.14,0,.2,0,0-.06-.01-.11-.01-.17.07,0,.14,0,.2,0-.05-.61-.1-1.22-.16-1.83-.17-2.04-.35-4.07-.52-6.11,3.03.02,6.06.05,9.09.11.62.01,1.23.02,1.85.04,0-.06,0-.11,0-.17.07,0,.14,0,.21,0,0-.06,0-.11,0-.17.07,0,.14,0,.21,0,0-.06,0-.11,0-.17.07,0,.14,0,.21,0,0-.06,0-.11,0-.17.07,0,.14,0,.21,0,0-.06,0-.11,0-.17.07,0,.14,0,.21,0,0-.06,0-.11,0-.17.07,0,.14,0,.21,0,0-.06,0-.11,0-.17.07,0,.14,0,.21,0,0-.06,0-.11,0-.17.07,0,.14,0,.21,0,0-.06,0-.11,0-.17.07,0,.14,0,.21,0,0-.06,0-.11,0-.17.07,0,.14,0,.21,0,0-.06,0-.11,0-.17.07,0,.14,0,.21,0,0-.06,0-.11,0-.17.07,0,.14,0,.21,0,0-.06,0-.11,0-.17.07,0,.14,0,.21,0,0-.06,0-.12,0-.17.07,0,.14,0,.21,0,0-.06,0-.11,0-.17.07,0,.14,0,.21,0,0-.06,0-.11,0-.17.07,0,.14,0,.21,0,0-.06,0-.11,0-.17.07,0,.14,0,.21,0,0-.06,0-.11,0-.17.07,0,.14,0,.21,0,0-.06,0-.11,0-.17.07,0,.14,0,.21,0,0-.06,0-.11,0-.17.07,0,.14,0,.21,0,0-.06,0-.11,0-.17.07,0,.14,0,.21,0,0-.06,0-.11,0-.17.07,0,.14,0,.21,0,0-.06,0-.11,0-.17.07,0,.14,0,.21,0,0-.06,0-.11,0-.17.04,0,.08,0,.12,0,.41,6.07.8,12.14,1.17,18.2.03.51.06,1.02.09,1.53.49.02.98.04,1.48.06,5,.22,9.99.48,14.97.8.32.02.65.04.97.06.04-.06.07-.11.11-.17.03,0,.06,0,.09,0,.04-.06.07-.11.11-.17.03,0,.06,0,.09,0,.04-.06.07-.11.11-.17.03,0,.06,0,.09,0,.04-.06.07-.11.11-.17.03,0,.06,0,.09,0,.04-.06.07-.11.11-.17.03,0,.06,0,.09,0,.04-.06.07-.11.11-.17.03,0,.06,0,.09,0,.04-.06.07-.11.11-.17.03,0,.06,0,.09,0,.04-.06.07-.11.11-.17.03,0,.06,0,.09,0,.04-.06.07-.11.11-.17.03,0,.06,0,.09,0,.04-.06.07-.11.11-.17.03,0,.06,0,.09,0,.04-.06.07-.11.11-.17.03,0,.06,0,.09,0,.04-.06.07-.11.11-.17.03,0,.06,0,.09,0,.04-.06.07-.11.11-.17.03,0,.06,0,.09,0,.04-.06.07-.11.11-.17.03,0,.06,0,.09,0,.04-.06.07-.11.11-.17.03,0,.06,0,.09,0,.04-.06.07-.11.11-.17.03,0,.06,0,.09,0,.04-.06.07-.11.11-.17.03,0,.06,0,.09,0,.04-.06.07-.11.11-.17.03,0,.06,0,.09,0,.04-.06.07-.11.11-.17.03,0,.06,0,.09,0,.04-.06.07-.11.11-.17.03,0,.06,0,.09,0,.04-.06.07-.11.11-.17.03,0,.06,0,.09,0,.04-.06.07-.11.11-.17.03,0,.06,0,.09,0,.04-.06.07-.11.11-.17.03,0,.06,0,.09,0,.04-.06.07-.11.11-.17.03,0,.06,0,.09,0,.04-.06.07-.11.11-.17.03,0,.06,0,.09,0,.04-.06.07-.11.11-.17.03,0,.06,0,.09,0,.04-.06.07-.11.11-.17.03,0,.06,0,.09,0,.04-.06.07-.11.11-.17.03,0,.06,0,.09,0,.04-.06.07-.11.11-.17.03,0,.06,0,.09,0,.04-.06.07-.11.11-.17.03,0,.06,0,.09,0,.04-.06.07-.11.11-.17.03,0,.06,0,.09,0,.04-.06.07-.11.11-.17.03,0,.06,0,.09,0,.04-.05.07-.11.11-.17.03,0,.06,0,.09,0,.04-.06.07-.11.11-.17.03,0,.06,0,.09,0,.04-.06.07-.11.11-.17.03,0,.06,0,.09,0,.04-.06.07-.11.11-.17.03,0,.06,0,.09,0,.04-.06.07-.11.11-.17.03,0,.06,0,.09,0,.04-.06.07-.11.11-.17.03,0,.06,0,.09,0,.04-.05.07-.11.11-.17.03,0,.06,0,.09,0,.04-.06.07-.11.11-.17.03,0,.06,0,.09,0,.04-.06.08-.11.11-.17.03,0,.06,0,.09,0,.04-.06.07-.11.11-.17.03,0,.06,0,.09,0,.04-.06.08-.11.11-.17.03,0,.06,0,.1,0,.04-.06.08-.11.11-.17.03,0,.06,0,.09,0,.04-.06.08-.11.11-.17.03,0,.06,0,.09,0,0,0,.01-.02.02-.03-.08,2.17-.16,4.33-.25,6.5-.02.55-.05,1.1-.07,1.64.53.01,1.06.03,1.59.04,4.37.11,8.73.27,13.11.46.57.02,1.14.05,1.71.08,0-.05,0-.11.01-.16.07,0,.13,0,.2,0,0-.05,0-.11.01-.16.07,0,.13,0,.2,0,0-.05,0-.11.01-.16.07,0,.13,0,.2,0,0-.05,0-.11.01-.16.07,0,.13,0,.2,0,0-.05,0-.11.01-.16.07,0,.13,0,.2,0,0-.05,0-.11.01-.16.07,0,.13,0,.2,0,0-.05,0-.11.01-.16.07,0,.13,0,.2,0,0-.05,0-.11.01-.16.07,0,.13,0,.2,0,0-.05,0-.11.01-.16.07,0,.13,0,.2,0,0-.05,0-.11.01-.16.07,0,.13,0,.2,0,0-.05,0-.11.01-.16.07,0,.13,0,.2.01,0-.05,0-.11.01-.16.07,0,.13,0,.2.01,0-.05.01-.11.01-.16.07,0,.13,0,.2.01,0-.05,0-.11.01-.16.07,0,.13,0,.2.01,0-.05,0-.11.01-.16.07,0,.13,0,.2.01,0-.05.01-.11.01-.16.07,0,.13,0,.2.01,0-.05,0-.11.01-.16.07,0,.13,0,.2.01,0-.03,0-.06,0-.08.11,0,.22.01.33.02,2.62.12,5.23.25,7.85.4.49.03.97.06,1.46.08.02-.05.03-.11.04-.16.06,0,.12,0,.18.01.02-.05.03-.11.05-.16.06,0,.12,0,.18.01.01-.05.03-.1.05-.16.06,0,.12,0,.18.01.02-.05.03-.11.05-.16.06,0,.12,0,.18.01.01-.05.03-.11.05-.16.06,0,.12,0,.18.01.01-.05.03-.11.05-.16.06,0,.12,0,.18.01.01-.05.03-.11.05-.16.06,0,.12,0,.18.01.02-.05.03-.11.05-.16.06,0,.12,0,.18.01.02-.05.03-.11.05-.16.06,0,.12,0,.18.01.01-.05.03-.11.05-.16.06,0,.12,0,.18.01.02-.05.03-.1.05-.16.06,0,.12,0,.18.01.02-.05.03-.11.05-.16.06,0,.12,0,.18.01.02-.05.03-.11.05-.16.06,0,.12,0,.18.01.02-.05.03-.11.05-.16.06,0,.12,0,.18.01.02-.05.03-.11.05-.16.06,0,.12,0,.18.01.02-.05.03-.11.05-.16.06,0,.12,0,.18.01.02-.05.03-.11.05-.16.06,0,.12,0,.18.01.02-.05.03-.11.05-.16.06,0,.12,0,.18.01.02-.05.03-.11.05-.16.06,0,.12,0,.18.01.02-.05.03-.1.05-.16.06,0,.12,0,.18.01.02-.05.03-.1.05-.16.06,0,.12,0,.18.01.02-.05.03-.11.05-.16.06,0,.12,0,.18.01.02-.05.03-.1.05-.16.06,0,.12,0,.18.01.02-.05.03-.11.05-.16.06,0,.12,0,.18.01.02-.05.03-.1.05-.16.06,0,.12,0,.18.01.02-.05.03-.1.05-.16.06,0,.12,0,.18.01.02-.05.03-.1.05-.16.06,0,.12,0,.18.01.02-.05.03-.11.05-.16.06,0,.12,0,.18.01.02-.05.03-.1.05-.16.06,0,.12,0,.18.01.02-.05.03-.1.05-.16.06,0,.12,0,.18.01.02-.05.03-.11.05-.16.06,0,.12,0,.18.01.02-.05.03-.11.05-.16.06,0,.12,0,.18.01.02-.05.03-.1.05-.16.06,0,.12,0,.18.01.02-.05.03-.1.05-.16.06,0,.12,0,.18.01.02-.05.03-.1.05-.16.06,0,.12,0,.18.01.02-.05.03-.1.05-.16.06,0,.12,0,.18.01.02-.05.03-.1.05-.16.06,0,.12,0,.18.01.02-.05.03-.1.05-.16.06,0,.12,0,.18.01.02-.05.03-.1.05-.16.06,0,.12,0,.18.01.02-.05.03-.1.05-.16.06,0,.12,0,.18.01.02-.05.03-.1.05-.16.06,0,.12,0,.18.01.02-.05.03-.1.05-.16.06,0,.12,0,.18.01.02-.05.03-.1.05-.16.06,0,.12,0,.18.01.02-.05.03-.1.05-.16.01,0,.02,0,.03,0-.34,2.73-.7,5.46-1.07,8.19-.07.5-.14,1-.21,1.5.49.06.98.12,1.47.19,7.21.92,14.4,1.95,21.57,3.09.48.08.95.15,1.43.23.02-.05.05-.11.07-.16.05,0,.11.02.16.03.02-.05.05-.11.07-.16.05,0,.11.02.16.03.02-.05.05-.11.07-.16.05,0,.11.02.16.03.02-.05.05-.11.07-.16.05,0,.11.02.16.03.02-.05.05-.11.07-.16.05,0,.11.02.16.03.02-.05.05-.11.07-.16.05,0,.11.02.16.03.02-.05.05-.11.07-.16.05,0,.11.02.16.03.02-.05.05-.11.07-.16.05,0,.11.02.16.03.02-.05.05-.11.07-.16.05,0,.11.02.16.03.02-.05.05-.11.07-.16.05,0,.11.02.16.03.02-.05.05-.11.07-.16.05,0,.11.02.16.03.02-.05.05-.11.07-.16.05,0,.11.02.16.03.02-.05.05-.11.07-.16.05,0,.11.02.16.03.02-.05.05-.11.07-.16.05,0,.11.02.16.03.02-.05.05-.11.07-.16.05,0,.11.02.16.03.02-.05.05-.11.07-.16.05,0,.11.02.16.03.02-.05.05-.11.07-.16.05,0,.11.02.16.03.02-.05.05-.11.07-.16.05,0,.11.02.16.03.03-.05.05-.11.07-.16.05,0,.11.02.16.03.03-.05.05-.11.07-.16.05,0,.11.02.16.03.02-.05.05-.11.07-.16.06,0,.11.02.16.03.03-.05.05-.11.07-.16.05,0,.11.02.16.03.03-.05.05-.11.07-.16.05,0,.11.02.16.03.03-.05.05-.11.07-.16.05,0,.11.02.16.03.02-.05.05-.11.07-.16.05,0,.11.02.16.03.03-.05.05-.11.07-.16.05,0,.11.02.16.03.02-.05.05-.11.07-.16.05,0,.11.02.16.03.02-.05.05-.11.07-.16.05,0,.11.02.16.03.02-.05.05-.11.08-.16.05,0,.11.02.16.03.03-.05.05-.11.08-.16.05,0,.11.02.16.03.02-.05.05-.11.08-.16.05,0,.11.02.16.03.02-.05.05-.11.08-.16.05,0,.11.02.16.03.02-.05.05-.11.08-.16.05,0,.11.02.16.03.03-.05.05-.11.08-.16.06,0,.11.02.16.03.03-.05.05-.11.08-.16.05,0,.11.02.16.03.03-.05.05-.11.08-.16.05,0,.11.02.16.03.03-.05.05-.11.08-.16.05,0,.11.02.16.03.03-.05.05-.11.08-.16.05,0,.11.02.17.03.03-.05.05-.11.08-.16.05,0,.11.02.17.03.03-.05.05-.11.08-.16.06.01.11.02.17.03.03-.05.05-.11.08-.16.02,0,.04,0,.07.01-.12.36-.23.72-.35,1.08.54.09,1.09.18,1.63.28,8.39,1.43,16.76,3.01,25.11,4.73.46.1.92.19,1.38.29.03-.05.06-.1.1-.15.05.01.11.02.16.03.03-.05.06-.1.1-.15.05.01.11.02.16.03.03-.05.06-.1.1-.15.05.01.11.02.16.03.03-.05.06-.1.1-.15.05.01.11.02.16.03.03-.05.06-.1.1-.15.05.01.11.02.16.03.03-.05.06-.1.1-.15.05.01.11.02.16.03.03-.05.06-.1.1-.15.05.01.11.02.16.03.03-.05.06-.1.1-.15.05.01.1.02.16.03.03-.05.06-.1.1-.15.05.01.11.02.16.03.03-.05.06-.1.1-.15.05.01.11.02.16.03.03-.05.06-.1.1-.15.05.01.11.02.16.03.03-.05.06-.1.1-.15.05.01.11.02.16.03.03-.05.06-.1.1-.15.05.01.11.02.16.03.03-.05.06-.1.1-.15.05.01.11.02.16.03.03-.05.06-.1.1-.15.05.01.11.02.16.03.03-.05.06-.1.1-.15.05.01.11.02.16.03.03-.05.06-.1.1-.15.05.01.11.02.16.03.03-.05.06-.1.1-.15.05.01.11.02.16.03.03-.05.06-.1.1-.15.05.01.11.02.16.03.03-.05.06-.1.1-.15.05.01.11.02.16.03.03-.05.06-.1.1-.15.05.01.11.02.16.03.03-.05.06-.1.1-.15.05.01.11.02.16.03.03-.05.06-.1.1-.15.05.01.11.02.16.03.03-.05.06-.1.1-.15.05.01.11.02.16.03.03-.05.06-.1.1-.15.05.01.11.02.16.03.03-.05.06-.1.1-.15.05.01.11.02.16.03.03-.05.06-.1.1-.15.05.01.11.02.16.03.03-.05.06-.1.1-.15.05.01.11.02.16.04.03-.05.06-.1.1-.15.05.01.11.02.16.04.03-.05.06-.1.1-.15.05.01.11.02.16.04.03-.05.06-.1.1-.15.05.01.11.02.16.04.03-.05.06-.1.1-.15.05.01.11.02.16.04.03-.05.06-.1.1-.15.05.01.11.02.16.04.03-.05.07-.1.1-.15.05.01.11.02.16.04.03-.05.06-.1.1-.15.05.01.11.02.16.04.03-.05.06-.1.1-.15.05.01.11.02.16.04.03-.05.07-.1.1-.15.05.01.11.02.16.04.03-.05.07-.1.1-.15.05.01.11.02.16.04.03-.05.07-.1.1-.15.05.01.11.02.16.04.03-.05.07-.1.1-.15.05.01.11.02.16.04.03-.05.07-.1.1-.15.05.01.11.02.16.04.03-.05.06-.1.1-.15.05.01.11.02.16.04.03-.05.07-.1.1-.15.05.01.11.02.16.04.03-.05.07-.1.1-.15.05.01.11.02.16.04.03-.05.06-.1.1-.15.05.01.11.02.16.04.03-.05.06-.1.1-.15.05.01.11.03.16.04.03-.05.07-.1.1-.15.05.01.11.02.16.04.03-.05.06-.1.1-.15.05.01.11.02.16.04.03-.05.07-.1.1-.15.05.01.11.02.16.04.03-.05.06-.1.1-.15.05.01.11.02.16.04.03-.05.07-.1.1-.15.05.01.11.02.16.04.27-.4.54-.8.81-1.2,2.2-3.28,4.37-6.56,6.52-9.83.35-.54.7-1.07,1.05-1.6-.64-.19-1.28-.38-1.93-.56-3.4-.99-6.81-1.95-10.23-2.89.02-.04.04-.09.06-.13.06.01.13.03.19.04.02-.05.04-.1.07-.15.06.01.13.03.19.04.02-.05.04-.1.07-.15.06.01.13.03.19.04.02-.05.04-.1.07-.15.06.01.13.03.19.04.02-.05.04-.1.07-.15.06.01.13.03.19.04.02-.05.04-.1.07-.15.06.01.13.03.19.04.02-.05.04-.1.07-.15.06.01.13.03.19.04.02-.05.04-.1.07-.15.06.01.13.03.19.04.02-.05.04-.1.07-.15.06.01.13.03.19.04.02-.05.04-.1.07-.15.06.01.13.03.19.04.02-.05.04-.1.07-.15.06.01.13.03.19.04.02-.05.04-.1.07-.15.06.02.13.03.19.04.02-.05.04-.1.07-.15.07.01.13.03.19.04.21-.48.42-.97.63-1.45,1.49-3.47,2.93-6.94,4.34-10.42.13-.33.27-.65.4-.98.02-.04.03-.08.05-.12.03,0,.05.02.08.03.02-.06.05-.12.07-.18.06.02.13.05.19.07.02-.06.05-.12.07-.18.06.02.13.05.19.07.02-.06.05-.12.07-.18.06.02.13.05.19.07.02-.06.05-.12.07-.18.06.02.13.05.19.07.02-.06.05-.12.07-.18.06.02.13.05.19.07.02-.06.05-.12.07-.18.06.02.13.05.19.07.02-.06.05-.12.07-.18.06.02.13.05.19.07.02-.06.05-.12.07-.18.06.02.13.05.19.07.02-.06.05-.12.07-.18.06.02.13.05.19.07.02-.06.05-.12.07-.18.06.02.13.05.19.07.02-.06.05-.12.07-.18.06.02.13.05.19.07.02-.06.05-.12.07-.18.06.02.13.05.19.07.02-.06.05-.12.07-.18.06.02.13.05.19.07.02-.06.05-.12.07-.18.06.02.13.05.19.07.02-.06.05-.12.07-.18.06.02.13.05.19.07.02-.06.05-.12.07-.18.06.02.13.05.19.07.02-.06.05-.12.07-.18.06.03.13.05.19.07.02-.06.05-.12.07-.18.06.02.13.05.19.07.02-.06.05-.12.07-.18.06.02.13.05.19.07.02-.06.05-.12.07-.18.06.02.13.05.19.07.22-.57.45-1.14.67-1.7,1.86-4.77,3.63-9.56,5.31-14.38.19-.54.38-1.09.57-1.64-.67-.16-1.33-.32-2-.48-8.39-2.01-16.8-3.85-25.23-5.53-.61-.12-1.21-.24-1.82-.36-.01.05-.03.1-.04.16-.07-.01-.14-.03-.21-.04-.01.05-.03.1-.04.16-.07-.01-.14-.03-.21-.04-.01.05-.03.1-.04.16-.07-.01-.14-.03-.21-.04-.01.05-.03.1-.04.16-.07-.01-.14-.03-.21-.04-.01.05-.03.1-.04.16-.07-.01-.14-.03-.21-.04-.01.05-.03.1-.04.16-.07-.01-.14-.03-.21-.04-.01.05-.03.1-.04.16-.07-.01-.14-.03-.21-.04-.01.05-.03.1-.04.16-.07-.01-.14-.03-.21-.04-.01.05-.03.1-.04.16-.07-.01-.14-.03-.21-.04-.01.05-.03.1-.04.16-.07-.01-.14-.03-.21-.04-.01.05-.03.1-.04.16-.07-.01-.14-.03-.21-.04-.01.05-.03.1-.04.16-.07-.01-.14-.03-.21-.04-.01.05-.03.1-.04.16-.07-.01-.14-.03-.21-.04-.01.05-.03.1-.04.16-.07-.01-.14-.03-.21-.04-.01.05-.03.1-.04.16-.07-.01-.14-.03-.21-.04-.01.05-.03.1-.04.16-.07-.01-.14-.03-.21-.04-.01.05-.03.1-.04.16-.07-.01-.14-.03-.21-.04-.01.05-.03.1-.04.16-.07-.01-.14-.03-.21-.04-.01.05-.03.1-.04.16-.07-.01-.14-.03-.21-.04-.01.05-.03.1-.04.16-.07-.01-.14-.03-.21-.04-.01.05-.03.1-.04.16-.07-.01-.14-.03-.21-.04-.01.05-.03.1-.04.16-.07-.01-.14-.03-.21-.04-.01.05-.03.1-.04.16-.07-.01-.14-.03-.21-.04-.01.05-.03.1-.04.16-.07-.01-.14-.03-.21-.04-.01.05-.03.1-.04.16-.07-.01-.14-.03-.21-.04-.01.05-.03.1-.04.16-.07-.01-.14-.03-.21-.04-.01.05-.03.1-.04.16-.07-.01-.14-.03-.21-.04-.01.05-.03.1-.04.16-.07-.01-.14-.03-.21-.04-.01.05-.03.1-.04.16-.07-.01-.14-.03-.21-.04-.01.05-.03.1-.04.16,0,0,0,0-.01,0,.69-2.44,1.36-4.87,2.02-7.32.07-.28.15-.55.22-.83.08-.31.17-.62.25-.93-.66-.1-1.33-.21-1.99-.31.01-.04.02-.09.04-.13.07.02.14.03.2.05ZM411.96,115.1c-1.16,6.89-2.48,13.76-3.94,20.61-2.17,10.18-4.64,20.33-7.35,30.45-7.6-1.4-15.21-2.67-22.85-3.8.03-.4.06-.92.09-1.55.02-.59.04-1.28.06-2.04.02-.79.03-1.67.04-2.62,0-.01,0-.02,0-.03,0-.84.02-1.74.02-2.68.03-6.61-.06-15.56-.2-23.66-.12-6.91-.29-13.2-.46-16.88-.01-.25-.02-.48-.03-.7-.01-.24-.02-.46-.04-.67-.02-.29-.03-.55-.05-.78,11.61,1.13,23.19,2.58,34.72,4.36ZM398.23,171.78c-.03.21-.07.42-.1.62-.33-.04-.67-.08-1-.12,0,0,0-.01,0-.02.07.01.14.02.2.04.01-.05.03-.11.04-.16.07.01.14.02.2.04.02-.05.03-.11.04-.16.07.01.14.02.2.04.02-.05.03-.11.05-.16.07.01.14.02.2.04.01-.05.03-.11.05-.16.04,0,.07.01.11.02ZM328.68,103.3c10.53.69,21.04,1.65,31.52,2.86,4.05.47,8.11.97,12.15,1.52.02,2.43.01,8.6.15,11.77-6.37-.87-12.76-1.65-19.15-2.33.3,3.09.56,6.18.82,9.26.36,4.32.7,8.64,1,12.96.48,6.98.86,13.95,1.15,20.9-5.31-.59-10.62-1.11-15.95-1.57,1.41-11.12,2.72-22.24,3.89-33.37.27-2.61.55-5.22.81-7.83.03-.37.06-.74.09-1.11-5.82-.32-11.65-.55-17.47-.71.34-4.12.68-8.24.99-12.36ZM253.09,91.28c4.78.33,9.57.72,14.35,1.16,9.57.88,19.14,1.99,28.71,3.31.08-1.66.15-3.32.23-4.99,3.98,2.41,7.95,4.86,11.91,7.34-4.17,2.15-8.34,4.35-12.49,6.58.15-1.33.29-2.66.44-3.99-6.17.2-12.33.5-18.5.88-6.16.38-12.32.86-18.47,1.42-.06.27-.13.54-.19.81-.03.1-.06.25-.09.42-.44,2.38-.94,11.21-1.35,20.37-.47,10.55-.81,21.54-.77,23.59,0,.07,0,.12,0,.17,0,.05,0,.09,0,.12,0,.36-.01.73-.02,1.09,3.23-.15,6.47-.27,9.71-.37.72-3.84,1.47-7.69,2.23-11.53-1.23-.19-2.47-.37-3.7-.55.54-3.53,1.11-7.06,1.69-10.58,4.07.04,8.13.12,12.2.24-2.15,11.43-4.17,22.86-5.99,34.3-1.72.06-5.84.17-10.67.33-.59.02-1.19.04-1.8.06-.53.02-1.07.04-1.61.06-3.8.13-7.78.3-11.26.48-1.71-11.23-3.31-22.46-4.75-33.7-.1-.79-.19-1.57-.29-2.36-.3-2.37-.6-4.73-.88-7.1-1.13-9.46-2.13-18.93-2.97-28.4,4.77.22,9.55.5,14.34.83ZM273.62,168.44s0,.09,0,.14c-.07,0-.14,0-.21.01,0,.05,0,.11,0,.16-.06,0-.12,0-.18.01.01-.11.02-.21.04-.32.12,0,.24,0,.36,0ZM164.22,152.62c-.4-3.98-.75-7.97-1.03-11.98,2.39-.55,4.79-1.08,7.19-1.6-.03-.24-.05-.47-.07-.71-1.07-9.91-1.78-19.88-2.09-29.92,4.2-.93,8.42-1.82,12.64-2.66.2,9.98.75,19.9,1.62,29.78.03.39.06.77.1,1.16,2.62-.48,5.25-.94,7.88-1.38-.03-.48-.05-.96-.07-1.43-.19-3.54-.34-7.08-.45-10.63-.12-4.03-.19-8.07-.21-12.11,4.27-.76,8.55-1.48,12.83-2.15-.14,7.55-.11,15.07.07,22.57.05,2.15.11,4.29.19,6.44.35,9.63.94,19.23,1.78,28.78-3.98.5-7.96,1.03-11.93,1.6-.94-6.56-1.77-13.13-2.46-19.73-2.32.29-4.63.6-6.95.92.43,5.77.97,11.52,1.61,17.24-4.03.59-8.06,1.22-12.09,1.89-.97-5.55-1.84-11.12-2.59-16.72-1.99.21-3.97.43-5.96.65ZM168.66,234.58c-2.32-5.17-4.56-10.35-6.73-15.54-.41-.99-.83-1.98-1.24-2.98-3.84-9.32-7.41-18.69-10.64-28.11,5.69-1.53,11.4-2.98,17.13-4.37,3.01-.73,6.03-1.44,9.05-2.13.63,4.31,1.32,8.61,2.08,12.89-4.27.14-8.55.33-12.84.57,1.31,6.06,2.76,12.09,4.33,18.09.95,3.63,1.92,7.26,2.96,10.87,4-.32,8-.6,11.99-.84.27,3.03.58,6.04.92,9.05-5.66.76-11.32,1.59-16.99,2.49ZM211.71,230.67c-1.5-6.49-2.91-12.99-4.24-19.51-2.09.18-4.18.37-6.27.57,1.04,5.67,2.16,11.33,3.36,16.97-3.56.35-7.12.74-10.68,1.15-1.56-5.46-3.04-10.94-4.44-16.43-1.81.1-3.63.2-5.44.32-.37-1.59-.73-3.19-1.09-4.79-.51-2.3-1.01-4.6-1.49-6.9,2.18-.41,4.37-.82,6.56-1.21-1.25-5.33-2.43-10.67-3.53-16.03,3.89-.72,7.78-1.41,11.68-2.06.91,5.46,1.91,10.91,2.97,16.34,2.4-.35,4.79-.69,7.19-1.02-.37-2.32-.73-4.63-1.07-6.95-.83-5.61-1.6-11.23-2.28-16.86,4.01-.6,8.02-1.17,12.03-1.69.77,9.2,1.73,18.38,2.87,27.53,1.23,9.9,2.67,19.77,4.3,29.61-3.48.29-6.97.61-10.45.96ZM211.18,163.91c-.7-3.31-1.37-6.62-2.03-9.94,2.74-.41,5.48-.81,8.23-1.18-.18-5.23-.3-10.46-.35-15.71-.03-2.63-.03-5.25-.03-7.88,0-2.62.03-5.25.07-7.88-2.78,0-5.56.03-8.34.07.49-4.45,1.03-8.91,1.63-13.38,8.23-1.04,16.48-1.91,24.75-2.62.36,4.68.76,9.37,1.2,14.05-2.72.34-5.43.71-8.15,1.08-.09,2.38-.16,4.76-.23,7.14-.21,7.83-.3,15.64-.26,23.43,2.22-.06,4.43-.1,6.65-.13-.14,3.5-.25,7-.34,10.49-7.61.69-15.21,1.5-22.8,2.46ZM242.03,222.45c-.12.01-.25.02-.37.04-2.1-5.76-4.22-11.51-6.34-17.25.04,5.97.15,11.92.35,17.86-2.85.21-5.71.44-8.56.69-.6-8.41-1.01-16.85-1.27-25.31-.18-5.74-.3-11.49-.32-17.25,4.73-1.18,9.49-2.31,14.27-3.39,1.65,5.79,3.33,11.59,5,17.4,2.49,8.64,4.98,17.28,7.44,25.95-3.4.62-6.71.92-10.2,1.26ZM257.43,225.32c-1.15-10.45-2.21-20.91-3.17-31.38-.69-7.49-1.34-14.98-1.91-22.47,5.8-.59,11.61-1.1,17.42-1.54-.78,7.53-1.49,15.06-2.1,22.59-.6,7.36-1.12,14.71-1.55,22.05,4.29-.71,8.6-1.38,12.93-2.01.39,4.15.78,8.3,1.17,12.45-7.58-.02-15.18.08-22.78.31ZM277.16,208.33c.23-5.53.51-11.05.81-16.58.06-1.08.11-2.17.17-3.25.37-6.61.79-13.22,1.24-19.84,4.96-.3,9.93-.54,14.91-.73-1.97,7.18-3.86,14.37-5.66,21.56-.15.6-.3,1.2-.45,1.8-.54,2.17-1.07,4.35-1.59,6.52,4.55-.6,9.12-1.15,13.71-1.65.18,4.16.35,8.33.51,12.49-7.87-.24-15.75-.35-23.64-.32ZM300.74,139.52c-.34,5.91-.68,11.81-1.01,17.72-4.85-.14-9.71-.22-14.57-.25.78-5.82,1.6-11.64,2.44-17.45-1.98-.14-3.97-.28-5.95-.41.69-4.12,1.4-8.24,2.12-12.36,1.81-.08,3.61-.15,5.42-.21,0-1.13,0-2.27.01-3.4.01-4.1.02-8.2.04-12.3,4.24-.08,8.48-.12,12.72-.12-.09,4.12-.19,8.24-.28,12.36-.03,1.16-.05,2.31-.08,3.47,2.66-.04,5.33-.07,7.99-.08.06-1.09.11-2.18.16-3.26.36-7.01.71-14.02,1.03-21.02,4.29.07,8.59.18,12.88.33-.32,2.62-.44,4.87-.57,7.23-.06,1.01-.11,2.03-.19,3.1-.25,3.6-.52,7.2-.79,10.8-.08,1.05-.15,2.11-.23,3.16-.48,6.35-.98,12.69-1.5,19.04-.4,4.96-.81,9.91-1.24,14.87-4.01-.23-8.02-.42-12.04-.57.23-6.68.46-13.35.68-20.03-2.34-.22-4.68-.42-7.02-.61ZM335.33,183.51c-1.64-.26-3.27-.52-4.91-.78-3-.55-6-1.07-9.01-1.58-.27,2.55-.54,5.1-.81,7.65-.1.91-.2,1.88-.27,2.84-.02.26-.04.53-.05.79-.04.57-.06,1.13-.06,1.67,0,.34,0,.68,0,1.02,2.54.06,5.07.14,7.61.24-.04.48-.08.94-.13,1.39-.04.43-.09.85-.13,1.26-.14,1.23-.29,2.39-.46,3.55-.14.95-.3,1.89-.49,2.88-2.49-.08-4.97-.15-7.46-.2-.32,4.06-.64,8.13-.96,12.19,4.28.43,8.54.9,12.79,1.41-1.59,2.78-3.39,5.46-4.99,7.8-4.62-.36-9.25-.67-13.89-.93-.19-6.92-.43-13.85-.7-20.77-.27-.06-.54-.12-.81-.18-.3-.07-.69-.13-1.13-.19-1.11-.15-2.57-.29-3.87-.4.29-2.71.58-5.42.88-8.13,1.63-.23,3.26-.46,4.9-.68-.04-.34-.08-.67-.12-1.01-.08-.73-.15-1.39-.19-2.02-.18-2.33-.15-4.05-.11-5.96.04-1.92.09-4.09-.1-7.31-.11-2.03-.23-4.05-.35-6.08,4.31-.01,8.62.02,12.93.09,4.45-.02,8.9,0,13.36.08-.47,3.8-.96,7.59-1.45,11.39ZM364.88,225.65c-2.12-.16-4.23-.31-6.34-.45-1.01-10.29-2.39-20.64-4.07-31.02-.28-1.74-.55-3.47-.85-5.21-.09,1.7-.2,3.39-.3,5.09-.66,11.18-1.52,22.33-2.58,33.47-3.81-.23-7.63-.43-11.44-.6.81-11.3,1.43-22.63,1.91-33.96.19-4.5.36-8.99.5-13.5.13-4.29.24-8.59.32-12.88,0-.21.01-.42.02-.63,4.93.18,9.87.42,14.8.71.04.49.07.98.11,1.48.69,8.58,1.21,17.14,1.55,25.67.01.26.03.52.04.79.13,3.41.24,6.82.32,10.22.84-3.31,1.67-6.61,2.49-9.91,1.91-7.6,3.78-15.2,5.58-22.8,4.36.21,8.72.46,13.08.76-2.08,7.83-4.27,15.67-6.51,23.5-2.79,9.75-5.67,19.5-8.61,29.26ZM396.79,220.6c1.82-3.82,3.63-7.64,5.42-11.45-1-.39-2-.79-3.01-1.18,1.12-2.43,2.24-4.86,3.35-7.29.18-.38.35-.77.53-1.15,3.44.7,6.87,1.43,10.29,2.18-.11.26-.23.52-.35.78-2.36,5.29-4.77,10.59-7.22,15.89-2.25,4.87-4.53,9.74-6.83,14.62-6.78-1.21-13.58-2.32-20.4-3.33,1.72-10.62,3.16-21.29,4.34-32.01.87-7.93,1.6-15.88,2.15-23.85,5.46.54,10.92,1.14,16.37,1.82s10.91,1.42,16.36,2.24c-1.38,5.23-2.85,10.44-4.38,15.65-4.78-1.64-9.59-3.24-14.42-4.78-.92,3.64-1.88,7.28-2.85,10.91-1.71,6.38-3.5,12.75-5.38,19.12,2.02.6,4.03,1.22,6.04,1.84ZM423.19,203.72c2.02-6.38,3.93-12.79,5.69-19.22,7.61,1.51,15.21,3.16,22.78,4.94-1.42,4.14-2.92,8.26-4.48,12.37-3.97-1.53-7.95-3.03-11.96-4.5-.99,2.83-2.01,5.65-3.05,8.47,2.76.64,5.51,1.3,8.26,1.97-.01.03-.02.06-.04.09-1.25,3.17-2.54,6.33-3.86,9.49-2.65-.59-5.29-1.16-7.94-1.72-.81,2.21-1.63,4.41-2.46,6.62,5.6,1.46,11.19,2.98,16.75,4.57-1.75,2.71-3.52,5.43-5.31,8.15-7.95-1.83-15.92-3.52-23.92-5.08,1.85-5.32,3.62-10.64,5.31-15.99-1.47-.5-2.95-.99-4.42-1.49,1-3.03,1.98-6.06,2.93-9.09.04-.13.08-.26.12-.38,1.86.26,3.73.53,5.59.81ZM413.88,166.02c.89-5.16,1.7-10.33,2.41-15.52-1.92-.53-3.83-1.06-5.76-1.57.69-3.92,1.34-7.85,1.93-11.79,1.99.33,3.98.69,5.96,1.04.41.07.82.14,1.23.21.87-5.86,1.63-11.74,2.26-17.64.21-1.97.4-3.94.58-5.91.63.11,1.28.23,1.95.36,1.17.21,2.37.44,3.6.68.02,0,.04,0,.06.01,3.66.73,7.52,1.63,11.18,2.91.57.2,1.12.41,1.66.62.73.29,1.42.59,2.09.89.42.19.82.39,1.21.58,5.87,2.97,8.94,6.74,9.46,11.46.55,5.05.2,9.81-.98,14.16-.08.28-.17.54-.26.8-.05.14-.12.26-.18.39-.18.4-.38.79-.61,1.14-2.27,3.46-6.88,4.58-11.41,4.76-.47.02-.95.03-1.41.03-.02,0-.04,0-.06,0-3.07,0-5.97-.39-7.93-.69-.61-.09-1.21-.17-1.82-.26-1.3,5.34-2.69,10.66-4.18,15.97-3.65-.91-7.31-1.79-10.98-2.64Z"/>
  <path class="cls-26" d="M356.94,168.16c-.04-.49-.07-.98-.11-1.48-4.93-.29-9.87-.53-14.8-.71,0,.21-.01.42-.02.63,4.85.47,9.84.99,14.93,1.56h0Z"/>
  <path class="cls-18" d="M172.77,168.68c4.03-.67,8.06-1.3,12.09-1.89-.64-5.73-1.18-11.48-1.61-17.24,2.31-.32,4.63-.63,6.95-.92.69,6.6,1.52,13.18,2.46,19.73,3.97-.57,7.95-1.1,11.93-1.6-.83-9.56-1.43-19.15-1.78-28.78-.08-2.14-.14-4.29-.19-6.44-4.25.75-8.33,1.53-12.25,2.32.03.48.04.96.07,1.43-2.63.44-5.25.9-7.88,1.38-.03-.39-.06-.77-.1-1.16-4.3.94-8.36,1.88-12.17,2.8.03.24.04.47.07.71-2.4.52-4.8,1.05-7.19,1.6.28,4.01.63,8,1.03,11.98,1.99-.23,3.97-.45,5.96-.65.75,5.59,1.62,11.17,2.59,16.72Z"/>
  <path class="cls-13" d="M183.26,149.55c.43,5.77.97,11.52,1.61,17.24-.64-5.73-1.18-11.48-1.61-17.24Z"/>
  <path class="cls-13" d="M202.82,137.99c.35,9.63.94,19.23,1.78,28.78-.83-9.56-1.43-19.15-1.78-28.78Z"/>
  <path class="cls-13" d="M182.58,136.69c-.03-.39-.06-.77-.1-1.16h0c.03.39.06.77.1,1.16Z"/>
  <path class="cls-13" d="M190.38,133.88c.03.48.04.96.07,1.43-.03-.48-.05-.96-.07-1.43h0Z"/>
  <path class="cls-13" d="M170.31,138.34c.03.24.05.47.07.71-.03-.24-.05-.47-.07-.71h0Z"/>
  <path class="cls-13" d="M184.86,166.8c-4.03.59-8.06,1.22-12.09,1.89,4.03-.67,8.06-1.3,12.09-1.89Z"/>
  <path class="cls-19" d="M307.08,160.16c4.02.15,8.03.34,12.04.57.42-4.96.83-9.91,1.24-14.87.52-6.35,1.02-12.69,1.5-19.04.08-1.05.15-2.11.23-3.16-3.62-.18-7.27-.32-10.94-.42-.47-.01-.94-.02-1.41-.03-.06,1.09-.1,2.18-.16,3.26-2.66,0-5.33.04-7.99.08.03-1.16.05-2.31.08-3.47-4.21-.03-8.37,0-12.47.06,0,1.13,0,2.27-.01,3.4-1.81.06-3.61.13-5.42.21-.72,4.12-1.43,8.24-2.12,12.36,1.98.13,3.97.26,5.95.41-.84,5.82-1.65,11.63-2.44,17.45,4.86.03,9.72.11,14.57.25.33-5.91.67-11.81,1.01-17.72,2.34.19,4.68.39,7.02.61-.22,6.68-.44,13.35-.68,20.03Z"/>
  <path class="cls-20" d="M398.79,133.7c-1.38,6.62-2.88,13.22-4.48,19.82-.28.02-.55.04-.83.06-.26.02-.53.02-.81,0-.28-.02-.58-.05-.88-.1-1.2-.18-2.44-.54-3.24-.79-.33-.11-.67-.21-1-.32,1.14-6.76,2.18-13.53,3.1-20.31-4.19-.81-8.47-1.58-12.82-2.3.15,8.1.23,17.05.2,23.66,0,.94-.01,1.84-.02,2.68,0,.01,0,.02,0,.03-.01.95-.02,1.83-.04,2.62-.02.77-.04,1.45-.06,2.04-.03.63-.05,1.15-.09,1.55,7.64,1.13,15.26,2.4,22.85,3.8,2.71-10.12,5.18-20.27,7.35-30.45-3.02-.69-6.1-1.36-9.23-2.01Z"/>
  <path class="cls-2" d="M378.01,156.11s0,.02,0,.03"/>
  <path class="cls-26" d="M387.55,152.37c.33.11.67.21,1,.32.79.25,2.04.61,3.24.79.3.04.59.08.88.1.28.02.56.02.81,0,.28-.02.55-.04.83-.06,1.6-6.6,3.09-13.2,4.48-19.82,0,0,0,0,0,0,.47-2.25.92-4.49,1.37-6.74-2.83-.89-5.66-1.76-8.5-2.61-.32,2.57-.65,5.14-1,7.71-.92,6.78-1.96,13.55-3.1,20.31Z"/>
  <path class="cls-13" d="M394.31,153.52c1.6-6.6,3.09-13.2,4.48-19.82,0,0,0,0,0,0-1.38,6.62-2.88,13.22-4.48,19.82Z"/>
  <path class="cls-13" d="M391.79,153.49c-1.2-.18-2.45-.54-3.24-.79.79.25,2.04.61,3.24.79Z"/>
  <path class="cls-21" d="M344.27,125.3c-1.17,11.13-2.48,22.25-3.89,33.37,5.32.46,10.64.98,15.95,1.57-.29-6.96-.67-13.93-1.15-20.9-.3-4.32-.64-8.64-1-12.96-3.27-.39-6.57-.75-9.91-1.08Z"/>
  <path class="cls-13" d="M356.32,160.24c-5.31-.59-10.62-1.11-15.95-1.57,5.32.46,10.64.98,15.95,1.57Z"/>
  <path class="cls-13" d="M355.17,139.34c.48,6.98.86,13.95,1.15,20.9-.29-6.96-.67-13.93-1.15-20.9Z"/>
  <path class="cls-22" d="M429.03,152.69c.61.09,1.21.17,1.82.26,1.96.3,4.87.68,7.93.69.02,0,.04,0,.06,0,.47,0,.94,0,1.41-.03,4.53-.18,9.14-1.3,11.41-4.76.23-.35.43-.74.61-1.14-3.6-1.14-7.38-2.29-11.33-3.45-.55.77-1.27,1.4-2.17,1.83-.77.37-1.63.59-2.55.66-.92.08-1.89,0-2.88-.21-.26-.06-.51-.12-.77-.2-.37-.11-.75-.22-1.12-.33.22-1.42.42-2.85.63-4.27-4.38-1.2-8.93-2.4-13.65-3.57-1.99-.35-3.97-.7-5.96-1.04-.6,3.94-1.24,7.87-1.93,11.79,1.92.52,3.84,1.04,5.76,1.57-.72,5.19-1.52,10.36-2.41,15.52,3.67.85,7.33,1.73,10.98,2.64,1.49-5.31,2.88-10.63,4.18-15.97Z"/>
  <path class="cls-13" d="M429.03,152.69c-1.3,5.34-2.69,10.66-4.18,15.97,1.49-5.31,2.88-10.63,4.18-15.97Z"/>
  <path class="cls-23" d="M438.79,153.64c-3.07,0-5.97-.39-7.93-.69,1.96.3,4.87.68,7.93.69Z"/>
  <path class="cls-13" d="M413.88,166.02c.89-5.16,1.69-10.33,2.41-15.52-.72,5.19-1.52,10.36-2.41,15.52Z"/>
  <path class="cls-13" d="M410.54,148.93c.69-3.92,1.34-7.85,1.93-11.79-.6,3.94-1.24,7.87-1.93,11.79Z"/>
  <path class="cls-26" d="M440.95,144.26c.27-.37.51-.77.68-1.21.19-.48.32-.99.4-1.54.28-2.13-.5-4.33-2.12-6.04-1.45-1.52-3.42-2.5-5.53-2.76-.36-.04-.72-.09-1.07-.13-.37,3.06-.79,6.11-1.23,9.15,0,0,0,0,0,0-.21,1.43-.41,2.85-.63,4.27.37.11.75.22,1.12.33.26.08.52.14.77.2.99.22,1.96.29,2.88.21.92-.08,1.78-.3,2.55-.66.9-.43,1.62-1.06,2.17-1.83Z"/>
  <path class="cls-13" d="M438.77,146.09c-.77.37-1.63.59-2.55.66.92-.08,1.78-.3,2.55-.66Z"/>
  <path class="cls-13" d="M432.08,141.74c-.21,1.43-.41,2.85-.63,4.27.22-1.42.42-2.85.63-4.27,0,0,0,0,0,0Z"/>
  <path class="cls-24" d="M234.32,150.96c-2.21.03-4.43.08-6.65.13-.04-7.8.04-15.61.26-23.43-3.73.49-7.37,1-10.93,1.53,0,2.63,0,5.26.03,7.88.05,5.25.17,10.48.35,15.71-2.75.38-5.49.77-8.23,1.18.65,3.31,1.33,6.63,2.03,9.94,7.59-.95,15.19-1.77,22.8-2.46.09-3.49.2-6.99.34-10.49Z"/>
  <path class="cls-13" d="M217.38,152.79c-.18-5.23-.3-10.46-.35-15.71.05,5.25.17,10.48.35,15.71Z"/>
  <path class="cls-13" d="M227.67,151.09c-.04-7.8.04-15.61.26-23.43h0c-.21,7.83-.3,15.64-.26,23.43Z"/>
  <path class="cls-25" d="M257.63,124.61c-5.13.39-10.14.84-15.03,1.34.1.79.19,1.57.29,2.36,1.44,11.24,3.03,22.47,4.75,33.7,3.48-.19,7.46-.35,11.26-.48.54-.02,1.08-.04,1.61-.06.61-.02,1.21-.04,1.8-.06,4.84-.16,8.95-.27,10.67-.33,1.82-11.43,3.84-22.87,5.99-34.3-4.06-.12-8.13-.2-12.2-.24-.58,3.53-1.14,7.06-1.69,10.58,1.23.18,2.47.36,3.7.55-.77,3.84-1.51,7.69-2.23,11.53-3.24.1-6.47.22-9.71.37,0-.36.01-.73.02-1.09,0-.03,0-.07,0-.12,0-.05,0-.1,0-.17-.04-2.05.3-13.03.77-23.59Z"/>
  <path class="cls-13" d="M266.78,126.54c4.07.04,8.13.12,12.2.24-4.06-.12-8.13-.2-12.2-.24Z"/>
  <path class="cls-13" d="M247.64,162.01c-1.71-11.23-3.31-22.46-4.75-33.7,1.44,11.24,3.03,22.47,4.75,33.7Z"/>
  <path class="cls-13" d="M272.98,161.08c-1.72.06-5.84.17-10.67.33,4.84-.16,8.95-.27,10.67-.33Z"/>
  <path class="cls-13" d="M278.97,126.78c-2.15,11.43-4.17,22.86-5.99,34.3,1.82-11.43,3.84-22.87,5.99-34.3Z"/>
  <path class="cls-13" d="M256.86,148.2c-.04-2.05.3-13.03.77-23.59h0c-.47,10.55-.81,21.54-.77,23.59Z"/>
  <path class="cls-3" d="M256.86,148.2c0,.07,0,.12,0,.17"/>
</svg>